<svg xmlns="http://www.w3.org/2000/svg">
<defs>
<font id="PPPlayground-Light" horiz-adv-x="0" >
  <font-face 
    font-family="PP Playground Light"
    font-weight="300"
    font-style="italic"
    font-stretch="normal"
    units-per-em="2048"
    panose-1="0 0 0 0 0 0 0 0 0 0"
    ascent="1638"
    descent="-410"
    x-height="692"
    cap-height="1407"
    bbox="-1030 -715 3273 1894"
    underline-thickness="20"
    underline-position="-214"
    slope="-32"
    unicode-range="U+0021-1F449"
  />
<missing-glyph horiz-adv-x="1978" 
d="M1708 -113q-7 7 -27 7h-34q-6 0 -15 6l-12 6h-64q-9 0 -18 6q-18 18 -27 16q-2 0 -2 2q-7 11 -28 11l-19 -11q-5 2 -10 9t-6 8q-2 0 -5 1t-5 1q-13 0 -13 14q-5 9 -7 10t-11 -2q-8 0 -19 11q-13 9 -22 0q-11 -11 -18 -7h-15q-11 0 -14 7h-12q-14 -7 -17 -7q0 -3 -43 -1
l-43 1q-12 0 -14 7q-12 6 -14 6q-10 3 -7 12l11 10q1 -2 3.5 -3.5t2.5 -2.5q8 -6 16 2q2 4 8 4q11 0 6 13h-6q-12 -6 -24 6q-17 14 -35 -4q-2 -1 -5 -4.5t-5 -4.5q-13 -10 -13 -28q5 -13 -12 -13q-13 -4 -29 9q0 4 -2 4q-5 -2 -9 0t-9 8t-8 8l-7 3.5t-8 2.5h-57q-2 0 -5 -2
t-5 -2q-10 -10 -21 -10q-4 4 -8 0q-8 0 -20 8q-12 6 -15 6h-18q-3 0 -7 3t-7 3q-2 1 -4 2.5l-4 3t-3 1.5q-3 -1 -6 -1t-6.5 1t-5 1.5t-5.5 3.5t-5 3.5t-5.5 4.5t-5.5 5q-1 2 -4 5t-4 5q-2 0 -3.5 1t-2.5 1q-9 2 -16 7.5t-14 14t-11 11.5q-12 6 -16 6h-60q-6 0 -6 -6
q0 -16 -16 -16h-47q-2 0 -5.5 1t-5.5 1q-6 8 -18 20q-6 9 -16 19q0 10 4 12q5 16 22 16q9 0 6 8q-11 11 2 21q5 2 5 6q1 -2 4 -4t4 -2q9 -6 14 2q2 4 8 4q7 0 15 8.5t10 16.5q0 6 4 10t11 20.5t7 22.5v12q3 4 7 17q6 9 6 16q0 21 26 31q3 0 9 6q3 4 10 22q4 4 4 17
q0 12 6 14q4 0 4.5 8.5t-2.5 12.5q-1 1 -11 9.5t-14 14.5q-6 -2 -18 -10q-12 -2 -22 -19q-15 -10 -39 -34q-1 -1 -6.5 -3t-8.5 -4h-4q-24 6 -37 -16q-7 -6 -18 -6.5t-17 4.5q-6 0 -6 6q-19 13 -4 25q9 9 19 12q4 0 7 4t3 6q5 10 8 13q0 4 2 8l2 4q0 5 1 15t1 17.5t-2 12.5
q0 3 -3 8.5t-3 7.5q-9 12 2 23q17 13 23 24q7 5 6 11.5t-8 11.5q-1 2 -5 6q-1 0 -4 3t-4 3q-9 0 -22 13q-11 11 -17 2q-1 -2 -5.5 -2t-4.5 2q-6 8 -24 8h-13q-2 0 -5 -2t-5 -2l-37 -37q-8 -8 -12 -8h-33q-12 0 -12 -7q-1 0 -6.5 -3t-10.5 -3h-65q-12 0 -16 -6q-7 -7 -7 -8

<glyph glyph-name="T_h" unicode="Th" horiz-adv-x="2084" 
d="M754 805q-125 45 -202 163.5t-77 258.5q0 74 25.5 137t78.5 114.5t143.5 81t209.5 29.5q121 0 254.5 -25t253 -60.5t239 -71.5t253 -61t253.5 -25q219 0 322 98l12 -14q-110 -105 -334 -105l-74 2l-573 -901h10q103 134 196 208.5t161 74.5q80 0 80 -111
q0 -54 -21.5 -106t-77.5 -127l-71 -97q-63 -84 -90 -132.5t-27 -80.5q0 -26 14 -41.5t41 -15.5q62 0 131 71t168 218l55 82q13 6 19 0l-55 -82q-48 -71 -80.5 -114.5t-76 -92.5t-84 -72.5t-79.5 -23.5q-47 0 -67.5 34t-20.5 84q0 57 28.5 119t94.5 150l74 98q90 116 90 176
q0 45 -49 45q-81 0 -204 -120t-257 -328l-150 -242h-106l835 1335q-165 21 -452 109l-850 -1370l-103 -56h412l-8 -18h-785l7 18h325l905 1455q-322 98 -538 98q-115 0 -201.5 -27.5t-137 -76.5t-75 -109t-24.5 -131q0 -132 75 -245t195 -155z" />
    <glyph glyph-name="f_b" unicode="fb" horiz-adv-x="1124" 
d="M-627 -715q-36 0 -60 26t-24 71q0 67 37.5 137t95 131t146.5 128t173 119.5t193 114.5l586 936q184 297 315.5 437.5t206.5 140.5q56 0 56 -68q0 -88 -144 -296t-335 -425t-381 -403h2l-174 -275q144 75 228 121.5t180.5 113t146.5 124.5q58 109 90 160l43 69
q495 807 692 807q63 0 63 -76q0 -71 -67.5 -182t-184.5 -241t-246 -255.5t-280 -259.5q-160 -238 -160 -354q0 -84 76 -84q66 0 142.5 61t132.5 148q43 64 58.5 131.5t-1.5 136.5l4 13h76q5 -77 -59.5 -196.5t-166 -213.5t-188.5 -94q-51 0 -78.5 38.5t-27.5 110.5
q0 104 61 240q-56 -55 -154.5 -119.5t-175 -106.5t-221.5 -118l-72 -115q-50 -81 -85.5 -136t-85 -127t-87.5 -120t-85.5 -99.5t-88 -81.5t-85.5 -49.5t-87 -19.5zM-696 -618q0 -37 16.5 -58.5t46.5 -21.5t59.5 14.5t68 54t71.5 80.5t89.5 125t100.5 153.5t125 198.5l39 62
q-132 -76 -229.5 -141.5t-191 -145t-144 -161t-51.5 -160.5zM229 346q139 136 285 297t274.5 320t210.5 295t82 202q0 51 -32 51q-53 0 -140 -117.5t-309 -467.5zM735 465q145 127 273 252.5t240.5 252t178.5 234t66 174.5q0 60 -43 60q-56 0 -166.5 -134.5t-304.5 -447.5z
" />
    <glyph glyph-name="f_f" unicode="ff" horiz-adv-x="1050" 
d="M-166 -702q-122 0 -295 79q-139 -79 -293 -79q-130 0 -203 48.5t-73 108.5q0 42 35.5 74.5t107.5 32.5q48 0 107 -17.5t90 -31t114 -56.5t99 -51q124 101 295 387l526 885h-207q0 9 8 14h209l152 256q163 274 294 416.5t220 142.5q63 0 63 -69q0 -48 -36 -120
t-108 -164.5t-198.5 -209.5t-289.5 -237l-11 -15h420l152 256q332 559 512 559q65 0 65 -69q0 -105 -160 -302.5t-475 -428.5l-10 -15h305q-6 -11 -10 -14h-25q-56 0 -104 -9.5t-85 -25.5t-70.5 -40.5t-58.5 -51t-50 -61.5t-44 -66.5t-42 -70.5q-15 -27 -23 -40l-245 -409
q-48 -80 -81 -133t-80.5 -123t-86 -115t-89.5 -94t-99 -77t-105 -46t-117 -18zM-1014 -543q0 -56 68.5 -99.5t195.5 -43.5q153 0 258 80q-21 11 -79.5 41.5t-86 43.5t-73 32t-83 26.5t-73.5 7.5q-61 0 -94 -25t-33 -63zM-442 -610q155 -74 270 -74q77 0 145.5 40
t154.5 145.5t196 291.5l526 885h-135q-57 0 -106 -10t-87.5 -26t-72.5 -41.5t-60 -52.5t-51.5 -62.5t-45 -67.5t-42.5 -72q-13 -22 -19 -33l-239 -403q-113 -188 -213 -315.5t-221 -204.5zM309 475h8q62 85 129 135.5t164 67.5h-178zM469 739q156 115 276.5 228.5t188 203
t100.5 158.5t33 115q0 49 -43 49q-35 0 -72.5 -28t-96 -110t-97.5 -143.5t-130 -212.5q-24 -39 -36 -59zM813 475h10q61 84 124.5 134t156.5 69h-168zM973 739q156 115 276.5 228.5t188 203t100.5 158.5t33 115q0 49 -41 49q-28 0 -60 -22t-64.5 -59t-75 -99t-84.5 -129
t-100 -162q-33 -54 -50 -82z" />
    <glyph glyph-name="f_l" unicode="fl" horiz-adv-x="999" 
d="M-627 -715q-36 0 -60 26t-24 71q0 67 37.5 137t95 131t146.5 128t173 119.5t193 114.5l586 936q184 297 315.5 437.5t206.5 140.5q56 0 56 -68q0 -88 -144 -296t-335 -425t-381 -403h2l-174 -275q369 189 505 310l68 125q114 199 266 436q339 524 469 524q51 0 51 -61
q0 -218 -761 -1016q-117 -176 -117 -281q0 -94 88 -94q76 0 156 70t176 215l55 82q11 7 18 0l-55 -82q-101 -149 -183.5 -224t-164.5 -75q-125 0 -125 166q0 85 45 184q-84 -69 -205 -139.5t-303 -165.5l-72 -115q-50 -81 -85.5 -136t-85 -127t-87.5 -120t-85.5 -99.5
t-88 -81.5t-85.5 -49.5t-87 -19.5zM-696 -618q0 -37 16.5 -58.5t46.5 -21.5t59.5 14.5t68 54t71.5 80.5t89.5 125t100.5 153.5t125 198.5l39 62q-132 -76 -229.5 -141.5t-191 -145t-144 -161t-51.5 -160.5zM229 346q139 136 285 297t274.5 320t210.5 295t82 202q0 51 -32 51
q-53 0 -140 -117.5t-309 -467.5zM668 408l4 -2q113 119 194.5 208t192.5 218t181 224t120.5 188.5t50.5 148.5q0 47 -29 47q-40 0 -131.5 -123t-267.5 -402z" />
    <glyph glyph-name="f_t" unicode="ft" horiz-adv-x="956" 
d="M-242 -696q-62 0 -85 30t-23 95q0 85 35 166.5t129 232.5l305 487l-99 47l5 7q5 7 16 2l86 -41l401 639q363 581 529 581q61 0 61 -73q0 -163 -350 -578h143l111 172q75 0 113 53h18l-143 -225h233l-12 -16h-232l-317 -500q-87 -139 -117 -198t-30 -109q0 -74 71 -74
q129 0 318 281l57 86q11 5 16 0l-59 -90q-192 -291 -336 -291q-47 0 -74.5 33t-27.5 100q0 93 43 186q-64 -49 -183 -49q-78 0 -143 18l-418 -972h-41zM756 883l2 2q-239 -282 -551 -590q71 -23 153 -23q132 0 203 76q42 71 82 133l242 379l-13 23h-118zM-328 -612
q0 -70 90 -70h25l420 963l-10 2l-299 -471q-158 -248 -192 -316q-34 -69 -34 -108zM207 313q155 154 300.5 312t286 326.5t225.5 309.5t85 218q0 55 -41 55q-53 0 -136 -112t-323 -487q-11 -16 -16 -24z" />
    <glyph glyph-name="o_r" unicode="or" horiz-adv-x="1181" 
d="M432 168q-42 0 -61 22q-65 -88 -139 -145t-136 -57q-43 0 -70.5 30.5t-36.5 67t-9 78.5q0 100 42.5 201t107.5 175.5t145 121.5t151 47q56 0 80 -32.5t24 -94.5q-3 -143 -106 -314l-45 -65q14 -21 53 -21q93 0 223 187l217 319l-18 103h117l-74 -99h125q65 0 65 -80
q0 -95 -122 -243l-60 -72q-86 -103 -113.5 -149.5t-29.5 -81.5q0 -64 67 -64q64 0 137.5 70t182.5 219l57 78q4 3 10 3t7 -3l-58 -78q-40 -56 -68.5 -93.5t-66 -80.5t-68.5 -68.5t-66 -43t-67 -17.5q-51 0 -73.5 33t-20.5 85q1 62 35.5 128.5t108.5 156.5l45 55
q96 112 118 152q17 30 17 51q0 29 -41 29h-135l-211 -309q-138 -201 -240 -201zM96 4q59 0 127.5 62.5t134.5 162.5q-4 43 25 107t74 121l18 -8q35 84 35 149q0 44 -18.5 70t-55.5 26q-58 0 -134 -73.5t-146 -184.5q-58 -93 -94 -183.5t-37 -154.5q0 -94 71 -94z" />
    <glyph glyph-name="o_r_r" unicode="orr" horiz-adv-x="1732" 
d="M432 168q-42 0 -61 22q-65 -88 -139 -145t-136 -57q-43 0 -70.5 30.5t-36.5 67t-9 78.5q0 100 42.5 201t107.5 175.5t145 121.5t151 47q56 0 80 -32.5t24 -94.5q-3 -143 -106 -314l-45 -65q14 -21 53 -21q93 0 223 187l217 319l-18 103h117l-74 -99h125q65 0 65 -80
q0 -95 -122 -243l-60 -72q-86 -103 -113.5 -149.5t-29.5 -81.5q0 -64 67 -64q64 0 137.5 70t182.5 219l57 78l217 319l-18 103h117l-74 -99h125q65 0 65 -80q0 -95 -122 -243l-60 -72q-86 -103 -113.5 -149.5t-29.5 -81.5q0 -64 67 -64q64 0 137.5 70t182.5 219l57 78
q5 3 10 3t7 -3l-58 -78q-40 -56 -68.5 -93.5t-66 -80.5t-68.5 -68.5t-66 -43t-67 -17.5q-51 0 -73.5 33t-20.5 85q1 62 35.5 128.5t108.5 156.5l45 55q96 112 118 152q17 30 17 51q0 29 -41 29h-135l-211 -309l-58 -78q-40 -56 -68.5 -93.5t-66 -80.5t-68.5 -68.5t-66 -43
t-67 -17.5q-51 0 -73.5 33t-20.5 85q1 62 35.5 128.5t108.5 156.5l45 55q96 112 118 152q17 30 17 51q0 29 -41 29h-135l-211 -309q-138 -201 -240 -201zM96 4q59 0 127.5 62.5t134.5 162.5q-4 43 25 107t74 121l18 -8q35 84 35 149q0 44 -18.5 70t-55.5 26
q-58 0 -134 -73.5t-146 -184.5q-58 -93 -94 -183.5t-37 -154.5q0 -94 71 -94z" />
    <glyph glyph-name=".notdef" horiz-adv-x="1978" 
d="M1708 -113q-7 7 -27 7h-34q-6 0 -15 6l-12 6h-64q-9 0 -18 6q-18 18 -27 16q-2 0 -2 2q-7 11 -28 11l-19 -11q-5 2 -10 9t-6 8q-2 0 -5 1t-5 1q-13 0 -13 14q-5 9 -7 10t-11 -2q-8 0 -19 11q-13 9 -22 0q-11 -11 -18 -7h-15q-11 0 -14 7h-12q-14 -7 -17 -7q0 -3 -43 -1
l-43 1q-12 0 -14 7q-12 6 -14 6q-10 3 -7 12l11 10q1 -2 3.5 -3.5t2.5 -2.5q8 -6 16 2q2 4 8 4q11 0 6 13h-6q-12 -6 -24 6q-17 14 -35 -4q-2 -1 -5 -4.5t-5 -4.5q-13 -10 -13 -28q5 -13 -12 -13q-13 -4 -29 9q0 4 -2 4q-5 -2 -9 0t-9 8t-8 8l-7 3.5t-8 2.5h-57q-2 0 -5 -2
t-5 -2q-10 -10 -21 -10q-4 4 -8 0q-8 0 -20 8q-12 6 -15 6h-18q-3 0 -7 3t-7 3q-2 1 -4 2.5l-4 3t-3 1.5q-3 -1 -6 -1t-6.5 1t-5 1.5t-5.5 3.5t-5 3.5t-5.5 4.5t-5.5 5q-1 2 -4 5t-4 5q-2 0 -3.5 1t-2.5 1q-9 2 -16 7.5t-14 14t-11 11.5q-12 6 -16 6h-60q-6 0 -6 -6
q0 -16 -16 -16h-47q-2 0 -5.5 1t-5.5 1q-6 8 -18 20q-6 9 -16 19q0 10 4 12q5 16 22 16q9 0 6 8q-11 11 2 21q5 2 5 6q1 -2 4 -4t4 -2q9 -6 14 2q2 4 8 4q7 0 15 8.5t10 16.5q0 6 4 10t11 20.5t7 22.5v12q3 4 7 17q6 9 6 16q0 21 26 31q3 0 9 6q3 4 10 22q4 4 4 17
q0 12 6 14q4 0 4.5 8.5t-2.5 12.5q-1 1 -11 9.5t-14 14.5q-6 -2 -18 -10q-12 -2 -22 -19q-15 -10 -39 -34q-1 -1 -6.5 -3t-8.5 -4h-4q-24 6 -37 -16q-7 -6 -18 -6.5t-17 4.5q-6 0 -6 6q-19 13 -4 25q9 9 19 12q4 0 7 4t3 6q5 10 8 13q0 4 2 8l2 4q0 5 1 15t1 17.5t-2 12.5
q0 3 -3 8.5t-3 7.5q-9 12 2 23q17 13 23 24q7 5 6 11.5t-8 11.5q-1 2 -5 6q-1 0 -4 3t-4 3q-9 0 -22 13q-11 11 -17 2q-1 -2 -5.5 -2t-4.5 2q-6 8 -24 8h-13q-2 0 -5 -2t-5 -2l-37 -37q-8 -8 -12 -8h-33q-12 0 -12 -7q-1 0 -6.5 -3t-10.5 -3h-65q-12 0 -16 -6q-7 -7 -7 -8
q-11 -11 -24 -6q-11 0 -17 -8q-9 -11 -18 -2q-1 3 -8.5 10t-7.5 14q0 8 -13 12q-9 12 -9 18t9 17q17 17 17 23q0 7 8.5 12.5t15.5 5.5q23 0 33 4q8 0 8 2q7 9 19 9q20 0 26 2q13 10 31 10q6 0 6 2l29 29l16 16v8q0 3 -1 5.5t-2.5 6t-2.5 5.5q0 4 -4 6q-12 15 -25 28
q-6 4 -6 13v22q0 19 6 25q3 2 4 9.5t3 10.5q0 1 6 13q8 11 -2 24q-1 1 -5.5 4.5t-5.5 5.5q-2 3 -2 6t2 5t7 2q8 1 9 3t1 13v154q0 8 1.5 11.5t3.5 4.5t9 2q32 0 45 -18q9 -12 43 -41v-4q0 -4 9.5 -17t7.5 -24q0 -5 -2 -8.5t-8.5 -9t-8.5 -7.5l-12 12q-8 12 -21 4q-6 0 -8 2
l-10 11q-7 7 -12 -4v-13v-65q0 -16 -11 -19q0 -2 -1 -6.5t-1 -5.5q0 -16 -6 -22q-4 -4 -4 -7q-3 -14 -12 -20q-2 -1 -1 -8.5t5 -10.5q2 -2 6.5 -8t7.5 -8v-6q2 -8 16 -19.5t17 -15.5q2 0 6 4q5 4 29 4q2 0 3.5 -4.5t-1.5 -5.5q-6 -4 -6 -16v-31q0 -2 2 -5t2 -5l6 6q2 6 2 16
q0 11 10 11h4q16 0 21 -9l5 -6q6 -6 7 -12q0 -3 2.5 -6t6.5 -7t5 -6q3 -6 9 -12v-4q4 -5 9.5 -19t12.5 -18q8 -6 17 0q1 1 1.5 2.5t2 3t4.5 2.5q9 9 14 9q8 3 8 8q7 30 -8 45q-2 1 2 14q1 1 6 7t6 10q4 3 3.5 6.5t-5.5 3.5q-12 0 -12 8q-8 19 6 27l8 8h5q6 -6 12 -6
q0 6 2 10q0 1 1 2.5t3.5 4.5t3.5 5l6 12l2 7q10 7 17 0q16 -16 16 -23q0 -8 12 -8q7 0 9 6l10 18q0 2 2 8t2 9v35q0 9 6 18q2 8 14 29v10q0 3 1 8.5t1 10t-2 8.5q0 10 -2 14h-4q0 -2 -1 -4t-1 -4q0 -9 -12 -21q-7 -5 -15.5 -2.5t-11.5 11.5q0 15 -2.5 18t-19.5 4h-13
q-1 2 -3.5 3.5t-2.5 2.5q0 4 4 6q8 10 31 33q6 9 6 12l4 8t2 5q2 2 7 6.5t7.5 7t4.5 7t2 9.5q0 2 1 4t1 3l4 8l-10 2q-2 -1 -10 -13q0 -12 -13 -12q-8 3 -8 15v10q0 9 8 12q10 0 10 4q10 10 29 6q8 0 8 -6q6 -16 17 -16q10 0 10 12t12 12q5 0 13 -12q5 -14 -17 -25
q-16 -8 -6 -18t10 -20v-123q-6 -9 -6 -15q-6 -6 -6 -10q0 -35 2 -53q0 -9 10 -12q13 -13 13 -29q0 -10 6 -10q8 -4 16 4l6 6q4 -5 12 -13t11 -12q1 0 1 -4.5t-1 -5.5q-2 -3 -21 -22q-8 -3 -8 -17v-6q-2 -1 -14.5 -14t-24.5 -15q-5 0 -13.5 -8t-8.5 -12t-2 -8.5t-6 -9
t-5 -5.5q-4 -8 -8 -12q-1 -1 -3.5 -7t-4 -8t-4 -5.5t-6 -5t-8.5 -1.5q-7 0 -13 -6q-1 -3 -16 -14q-1 -1 -4 -4.5t-4.5 -5t-5 -3t-7.5 -1.5q-2 0 -6 -7q-16 -5 -16 -6q-3 -2 -9 -6.5t-8 -7.5v-4q1 -2 7 -19q6 -6 10 -4q12 7 24 7q19 0 27 10q6 0 8 4q12 1 19.5 10t7.5 21v12
q0 11 12 16q6 0 19 13q12 12 18 16q4 2 12 2q3 0 21 6q6 6 18 6q0 6 6 0q18 0 29 15q9 12 25 12h16q5 0 8 6q-2 2 -2 6q-5 5 -6 16t6 19q6 6 6 23v8q0 26 29 26q5 0 10 2t10.5 6.5t8.5 6.5q1 2 4 5t4 5q14 2 28 16q5 8 19 8q7 -1 20 -1t19 -1q6 0 12 -6q2 -2 -2 -16
q-1 -1 -8 -6.5t-14 -5.5q-11 0 -11 -13v-10q0 -12 13 -12q10 0 10 8q3 14 16 14h21q20 0 26 -8q2 -2 9 -2q8 -3 9.5 -5t-3.5 -7q-3 -5 -21 -23q-10 -7 -10 -18q3 -9 -5.5 -16t-17.5 -5h-2q-9 0 -15.5 6t-6.5 15q0 6 -10 6q-19 0 -29 -10q-6 -1 -16 -8t-15 -9q-22 -4 -22 -24
q0 -6 -6 -6q-3 -6 -12 -14t-11 -11q-1 0 -4 -2t-4 -2q-2 0 -6 1t-8.5 1t-8.5 -2q-2 0 -6.5 -1t-5.5 -1q-6 -6 -12 -6q-21 0 -27 -10q0 -5 -8 -5l-33 -2q2 -2 3 -3.5t1.5 -2t1.5 -0.5h15q20 0 26 -10q3 -5 10 -5t11 5q10 12 24 4q6 -6 23 -6q29 0 41 -4h6q6 -10 18 -10h39
q6 0 8 4q15 10 60 10q10 0 20 -10q2 -4 9 -4h22q18 0 29 -9h4q5 0 14.5 -7.5t11.5 -8.5q13 -2 33 -22l19 -21q10 -7 10 -16q0 -28 24 -33q5 -2 7 -2q16 -16 34 -25q25 -17 29 -35q0 -4 2 -4q6 -7 10 -24q0 -3 1.5 -6t3 -7t2.5 -6q4 -4 4 -10v-18q0 -23 8 -33q4 -2 4 -12
q0 -25 8 -31q0 -6 4 -10v-2q6 -6 10.5 -18t6.5 -15q1 -1 3 -7.5t5 -9.5l4 -7q4 -7 8 -11q10 -3 10 -18v-17v-2q5 -5 11 -20t12 -21q1 -2 6 -3.5t6 -2.5q6 0 10 -4q3 -4 7.5 -6t11 -2.5t10.5 -1.5q6 0 6 -2q13 -12 37 -39q12 -7 12 -21l4 -4q3 -8 0 -16q0 -6 7 -8h10
q4 0 11.5 -1t12.5 -1t9 2q6 0 11 -2.5t10 -8t7 -6.5q0 -4 4 -4q19 -22 -4 -33q-4 -8 -8 0zM262 526q2 0 19 11q1 1 5 6.5t8 7.5t9 2q19 0 25 8h10q5 2 11.5 2t14.5 -1t13 -1h37q9 0 16 10q2 2 12 2q9 0 13 11v28q-4 11 -13 11q-16 3 -30 -15q-12 -12 -27 -12q-8 0 -12 -2
q-6 -6 -17 -6h-65q-8 0 -12 -8q-4 0 -11 -7q-12 0 -16 -8q0 -3 -3 -9t-3 -9v-4l6 -7q6 -8 10 -10zM739 12q-11 11 -20 11h-107q-10 0 -16 6q-4 3 -14 3.5t-13 2.5q-7 0 -10 6q-2 1 -6 5.5t-8.5 7.5t-9.5 3q-2 1 -5.5 4.5t-5.5 4.5q-2 2 -2 7t-2 7q-6 2 -6 18v19q0 6 4 10
q6 6 6 18q-5 7 -16 7h-14q-5 0 -10 -2.5t-5 -4.5q0 -12 4 -16q12 -16 0 -25l-18 -18q-9 -6 -21 -6t-14 -8q-4 -2 -15.5 -3.5t-13.5 1.5q-4 2 -6 6v4q1 11 0.5 15.5t-0.5 8.5t-2.5 6.5t-4.5 5t-8 8t-11 11.5q-4 7 -13 12q-3 2 -7 6.5t-8 7t-9 3.5q-3 0 -19 16
q-6 5 -15.5 15.5t-12.5 13.5q-6 3 -6 12q-8 12 -17 12q-2 0 -6 3.5t-4 7.5q0 6 -6 12q0 9 -6 18v29q0 6 6 12q6 5 13.5 12.5t15.5 16t12 12.5q6 6 14 6q12 0 12 11t13 14q4 0 9.5 5t6.5 5q8 13 27 13q2 0 14 6q1 2 4 5t4 5q11 11 23 6q12 0 22 10q3 9 19 19q9 5 12 10h6
q3 4 13 12.5t14 12.5q14 18 28 18q3 0 9 6q1 2 4.5 6.5t5.5 5.5q20 24 41 17l2 4q3 -2 9 -3.5t7 -2.5q0 -11 -4 -15q-2 -7 -9 -12.5t-15 -5.5q-3 -1 -8 -5.5t-9 -6.5q-5 -10 -8 -13l-59 -59q-17 -15 -41 -43q-11 -3 -11 -12q0 -5 -16 -21l-8 -16v-4q-3 -7 -11 -17t-10 -14
q-9 -14 4 -35q12 -12 23 -12q3 0 5.5 -2.5l5.5 -5.5l3 -4l17 -17q0 -4 4 -4q7 -2 24 -12q5 -4 11.5 -1t11.5 11q1 -2 5.5 -5.5t6.5 -4.5q6 -6 6 -12q7 -21 29 -25q4 0 11 -8.5t7 -13.5v-7q7 -28 -16 -41q-9 -6 -6 -16q6 -3 6 -6q1 0 7 -3t9 -3q6 -6 17 -6q13 0 22 -11
q2 -2 13 -2h88l12 -6q3 0 8.5 -2t7.5 -2h29q17 0 20 -16q8 -4 0 -8q-21 -21 -47 -11h-2zM692 94q-2 2 -5 6.5t-5 5.5q-7 4 -25 27l-12 6h-27q2 -2 4 -6.5t3 -5.5q2 0 3 -1t1.5 -2.5t1.5 -2.5q1 -3 4.5 -10.5t5.5 -10.5q5 -7 12 -2q10 10 13 0q7 -7 26 -4zM502 799
q-6 0 -14.5 6.5t-8.5 11.5q0 4 8.5 10.5t14.5 6.5q12 0 12 -17q0 -18 -12 -18zM537 731q-3 10 -17 21q-10 3 -6 14q7 10 16 10h7q16 0 24 -10q13 -10 0 -18q-1 -3 -6.5 -8.5t-7.5 -8.5q-5 -3 -10 0zM829 92q11 0 15 6q0 9 -6 15q0 2 -2 4t-2 4q-5 8 -17 8q-8 -2 -31 -2
q-24 0 -38 2q-7 0 -7 -6q0 -10 7 -10h14h8q7 -9 23 -9q12 0 12 -4q6 -8 24 -8zM555 848q-20 -7 -37 10q-5 5 0 10q7 9 11.5 9.5t11.5 -7.5q1 -1 4.5 -3.5t5 -4.5t3 -5.5t1.5 -8.5zM698 573q7 9 19.5 22t15.5 17q9 15 -4 23h-29q-1 -2 -4.5 -5t-3.5 -5q-2 -3 -10 -23
q10 -15 16 -29zM672 717q14 0 16 6q8 3 17 12q5 10 2 10q0 7 -9 7h-6v2q-1 -1 -5 -1.5t-6.5 -1.5t-2.5 -3q0 -15 -8 -23v-6zM606 999q-7 0 -14.5 8.5t-7.5 14.5q0 5 9 15t13 10q8 0 16.5 -8.5t8.5 -16.5q0 -9 -8 -16t-17 -7zM666 868q-9 0 -13 2q-7 0 -10 7t4 12l10 20
q0 5 7.5 12t13.5 7q7 0 14 -10v-7q0 -9 -10 -22q0 -1 -2 -4t-2 -4q-4 -13 -12 -13zM694 823q-12 0 -14 2.5t-2 14.5q0 18 16 18q19 0 19 -16q0 -14 -2.5 -16.5t-16.5 -2.5zM664 963q-7 0 -11 2q-8 0 -8 10q-5 13 0 24q0 5 7.5 14t11.5 9q9 6 14 -8q0 -5 8 -17q8 -8 0 -22
q-16 -12 -22 -12zM705 1032q-13 0 -13 12q0 13 8 13q13 0 13 -13q0 -4 -3 -8t-5 -4zM938 37q4 -5 17 -5t18 5q1 6 14 10q8 0 8 4q6 6 21 6q12 0 20 6q0 1 3.5 3t4.5 4q1 1 4.5 1.5t5 1.5t1.5 3q2 6 2 16q0 12 10 12q12 0 12 -10q0 -8 4 -8q6 -10 19 -23q18 -15 37 0
q14 7 16 7h33q16 -5 26 12q14 14 5 22q-11 11 -11 23v47q0 23 -14 35q-8 4 0 12q6 11 20 12.5t21 -6.5q4 -4 12 -16l8 -8q2 -3 5.5 -10.5t5.5 -10.5h4q-4 -2 -10 -8q0 -4 -2 -8l-3 -4q0 -17 -6 -27q-9 -14 -0.5 -27.5t21.5 -15.5l12 -6q2 -2 7 -7.5t10.5 -9t11.5 -3.5l6 -3
q2 -6 14 -6q6 3 6 9q6 14 -6 26l-1 4q-1 4 -1 8q-6 3 -6 13q-6 6 -6 16q-2 5 -2 11.5t1 13.5t1 10q-1 6 -1.5 16.5t-2 18.5t-6.5 14h-2q-6 26 -29 29q-4 0 -4 4q-6 6 -23 6q-11 0 -14 6q-19 11 -35 35q-19 23 -41 18q-16 0 -22 -6q-1 -1 -11 -6q-6 0 -16 -7t-18 -9
q-9 -9 -8.5 -12t12.5 -7q8 -5 6 -12q0 -10 -6 -10q-12 0 -17 -8q-14 -14 -24 2q-7 9 -7 12t9 12q4 0 4 4v11q0 5 -10 0q-2 -1 -7 -5.5t-8 -5.5q-6 -2 -17 -6.5t-18 -5.5q0 -4 -4 -4q0 -1 -6 -9.5t-6 -15.5l-4 -4q-3 -3 -8 -18q0 -13 -4 -17q-26 -26 -43 -26q-5 2 -21 -15
q0 -1 2 -4t2 -4q5 -9 4 -20t-8 -15q-2 -6 -8 -12q0 -2 -1 -4t1 -2q2 -3 3.5 -12.5t6.5 -15t15 -5.5q1 1 6 -2q2 -2 5 -7t5 -7zM1393 82q13 9 14 12q8 14 20 10h9q2 1 5 4.5t5 4.5q0 10 -4 14q-8 3 -8 14v21q0 1 -2 5.5t-2 6.5q-6 6 -9 12q0 11 -4 11q-6 6 -6 20v21
q0 6 -6 18q-6 6 -6 23q0 22 -10 30v6q-5 10 -11 13l-20 22q-7 12 -27 12q-6 0 -15.5 6.5t-10.5 12.5q0 9 -11 20q-4 3 0 7q0 6 -12 18q-11 11 -16 23q-7 22 -23 22q-6 0 -8 2l-10 10q-8 8 -17 2q-2 -2 -12 -2q-1 -2 -4.5 -3.5t-3.5 -2.5q-14 -11 -21 -6h-94h-6
q-8 -7 -35 -20q-4 -1 -28 -15q-2 -4 -9 -4q-18 5 -28 -12q-10 -10 -23 -10q-11 0 -18 -7q-10 -5 -11 -6q-6 -1 -17 -6t-17 -6v-4q-3 -1 -5.5 -2.5t-4.5 -2.5t-3 -1q-6 -1 -14.5 -9.5l-9.5 -9.5t-4.5 -3.5t-5.5 -2.5q-17 0 -23 -16q-10 -20 -2 -43q3 -13 14 -21
q11 -11 11 -18v-14q0 -20 -5 -24.5t-24 -2.5q-6 0 -10 4l-5 5q-4 5 -8 9q-5 3 -12 21q0 1 -1 2.5t-1 3.5q-11 2 -19.5 -3.5t-9.5 -14.5q-4 -14 3.5 -25t21.5 -14q6 0 6 -6l39 -35q10 -13 20 0q3 2 8.5 7t10.5 7.5t10 1.5l6 2q4 10 21 10h14q5 0 16 7q6 6 13 6q10 7 10 12v29
q0 15 8 18q3 2 12 11t15 12l18 10q8 11 0 24q-11 11 0 25q4 0 4 6q3 12 13 23q28 23 34 32q15 15 29 9q15 -4 8 -15q-3 -4 -7 -8t-8.5 -8t-6.5 -6q-3 -5 -12 -16t-13 -17q-6 -3 -6 -18q4 -6 17.5 -7t19.5 4l14 7q10 4 19 12q9 12 30 12h54q13 0 16 10l10 15q10 10 15 10
q12 6 14 6q3 6 12 6q10 3 31 -12q2 -2 2 -4.5t-1 -6t-1 -5.5q0 -1 -6 -7q-25 0 -31 -12h-4q-11 0 -23 -12q-4 -3 -4 -10.5t4 -12.5q12 -12 23 -12l6 -4q9 -9 19 -6q14 0 22 -8q5 -6 12 -13t15 -14.5t12 -11.5q18 -18 18 -41q-2 -3 -2 -6t1 -7t1 -6v-10q11 -6 11 -29
q0 -12 2 -18q10 -6 10 -23q0 -9 9.5 -17t19.5 -7zM1090 152q-18 -6 -29 12q-8 14 2 22q14 17 27 13q1 -1 5.5 -2.5t6.5 -3.5q10 -7 18 -7q11 2 25 -12v-6q0 -4 -7 -10t-12 -6h-24h-12zM858 1034q0 4 -2 4q-24 24 2 41h12q9 -5 11.5 -6.5t6.5 -8t3 -13.5q0 -17 -6 -17h-27z
M1255 315q-1 -1 -3 1t-3.5 5.5t-1.5 6.5q0 9 8 12q5 0 10.5 -4.5t4.5 -7.5q-4 -5 -15 -13zM1161 752q-5 0 -20 13t-15 17v11q0 15 12 23.5t29 4.5h4q3 -4 7 -8t9 -8t7 -6q5 -5 5.5 -17t-5.5 -18q-10 -12 -33 -12zM1487 -35q6 0 6 12q0 17 10 23q0 6 2 10q0 11 -12 31
q-23 26 -59 10q-3 -2 -10.5 -5.5t-10.5 -4.5v-4q7 -11 10 -25h4l4 -8t3 -10q0 -12 3 -15.5t15 -3.5q4 0 16 -6q8 -8 19 -4zM956 1047q-2 2 -6.5 5t-6.5 4.5t-3.5 5t-1.5 7.5v6q4 3 8 13t8 14q1 3 27 12l4 -4q1 -2 6 -2t6 2q6 6 13 6q18 -3 28 14q16 13 29 13q12 -5 12 8
q0 12 13 12q8 0 12 11q5 13 20 28q8 8 13.5 8.5t15.5 -4.5q4 -9 8 2v4q7 13 17 9q4 0 22 6q6 6 21 6q11 5 14 10q3 7 14 0q6 0 6 -6l1 -15q2 -14 -1 -14q-2 -6 -14 -18q-6 0 -6 2q-8 6 -14 0l-9 -8q-10 -6 -16 0q-3 1 -7 -1.5t-5 -2.5t-7 -3t-10 -3q-9 0 -11 -2t-7 -11
q-3 -7 -11 -12.5t-14 -5.5q-12 0 -22 -10q-6 -3 -10 -3q-9 -3 -11 -5t-2 -11q6 -19 -16 -29q-9 -6 -19 -6q-4 0 -6 -0.5t-3 -2t-3 -7.5q-6 -17 -18 -8q-17 10 -17 24q0 2 -2.5 3t-5.5 0.5t-4 -3.5q-3 -3 -7.5 -7t-7.5 -6.5t-5.5 -7t-3.5 -9.5q0 -2 -2.5 -4t-2.5 -4z
M1221 813q-9 0 -13 4q-1 2 -6.5 8t-5.5 11q2 2 6 10q19 19 19 28q0 1 4 4t6 3q1 1 7 3.5t9 2.5q0 2 6 2q11 7 19 10q4 4 10 0q6 -6 12 -6q15 -6 11 -19q-18 -14 -23 -16q-6 -1 -27 -18q-1 -1 -4.5 -5t-5.5 -6t-6 -4t-8 -2zM1436 823q-3 0 -7.5 2t-7.5 2q-9 4 -10 7
q-3 1 -5.5 2.5t-4 2.5t-2.5 1q-1 1 -4.5 3.5t-5.5 2.5q-22 3 -25 28q-13 19 -27 19q-2 0 -8 6q-14 9 -22 6h-25q0 2 -2 5t-2 5q0 15 -16 15h-21q-6 0 -6 8v18l2 7q4 2 12.5 8t12.5 8q8 0 8 6q0 10 12 14q10 3 22.5 -6t12.5 -20v-8q0 -6 -2 -9t-5 -4t-10 -2l-6 -6q1 0 5 -2
t6 -2q18 0 24 -10q6 0 8 -2q3 0 15 -6q4 0 8 -4q3 -2 4 -3h2l35 -18q6 -4 17.5 -9t15.5 -7q1 0 3 -1.5t4.5 -3t4.5 -2.5q12 -9 24 3q21 21 33 28q4 5 13.5 14.5t13.5 14.5q8 12 10 22q8 16 23 19q9 3 10 5.5t-4 6.5q-12 12 -19 12q-3 0 -6 2.5t-6 7t-4 5.5q-2 1 -2 2.5t1 3
t1 2.5q1 1 4 3t5 4t3 5q2 2 6 10q2 4 4 10t3 7q6 9 4 14q-4 4 -13 4q-12 0 -26 11q-5 4 -10.5 1.5t-8.5 -10.5q-3 -13 4 -20q9 -9 0 -17q-12 -12 -22 -10l-19 23q0 6 -4 10q-1 3 -16 18q-4 5 -2 11t8 8h14q13 0 25 18q0 13 3 17t15 4q5 0 17 -6q8 -5 12 -4q9 6 16 6
q12 4 19 -13q1 -1 7.5 -8.5t8.5 -13.5l2 4q6 3 6 8q0 4 1 6t2 3t4 2.5t4 2.5q9 0 12 -10l10 -18q2 -3 1 -10.5t-5 -10.5q-6 -6 -6 -16.5t6 -17.5q6 -3 6 -9q0 -11 21 -24q2 -10 12 0q4 4 12.5 11.5t16 15t12.5 14.5q9 9 18 0q11 -14 19 -17l4 -4q17 -2 35 -28q10 -3 2 -15
q-3 -3 -5 -6t-4 -6.5t-3 -5.5l-2 -8q-2 -1 -4.5 -4.5t-4.5 -4.5q0 -8 -4.5 -14.5t-11.5 -13t-10 -10.5q-5 -4 -16 -8t-13 -5h-33q-2 4 -6 4q-6 6 -14 6q0 1 -2 3t-2 4q-3 1 -10.5 7.5t-12.5 8.5l-24 12q-8 2 -18.5 -5.5t-10.5 -16.5v-13q0 -6 -2.5 -14.5t-3.5 -11.5
q-9 -18 -25 -25q-5 -1 -8.5 -3.5t-9.5 -9.5t-8 -9q-3 -8 -19 -8q-4 -5 -6 -5q-1 -1 -7 -3.5t-9 -2.5h-41zM1661 1116q-14 0 -27 21q-7 6 4 24q2 2 11.5 3t17.5 -3q2 -4 6 -6q1 0 6 -2t7 -2l10 10v6q-2 3 -2.5 6t0.5 5.5t1.5 4.5t3 4t4 3t4 3t3.5 3q19 -16 29 12l4 4
q0 14 12 9q13 0 35 18q0 2 1 4t1 4q2 1 5 3t5.5 3t5.5 0q17 -7 17 -20q-7 -11 0 -14q0 -13 -10 -23q-3 -4 -3 -6q0 -9 -14 -23q-12 -12 -20 -22q-2 0 -5.5 -1t-5.5 -1h-6q-29 4 -41 -21q-6 -6 -18 -6h-41zM1407 1143q-8 0 -8 8q0 12 -13 12h-10q-12 0 -12 15q-5 8 -12 8
q-3 0 -7 2t-4 4q-9 8 -19.5 8t-16.5 -8q-13 -10 -27 4q-8 8 -8 23v6q0 15 4 19t20 3h17h18l6 2q9 4 17.5 0.5t11.5 -12.5q0 -1 -1.5 -5t1.5 -5q0 -12 6 -15q5 -3 16 2l13 13q14 17 24 0q2 -1 5.5 -4t5.5 -4q10 -7 14 -7q16 -6 29 0q11 0 16 7q2 2 10 2q14 0 27 10q8 2 22 2
q7 0 13 6q2 4 8.5 11t7.5 10q3 1 8.5 6t7.5 6l29 31q1 0 4 2t4 2q11 0 11 8q3 14 16 14l6 2q10 10 21 10q4 1 6.5 3t5 6t4.5 6q7 7 16 10q1 0 13 6l18 19q10 10 16 6q3 0 7 8q6 5 23 21.5t28 25.5q3 3 10.5 11t13.5 14t13 10q1 1 4.5 3.5t5.5 2.5h22q19 0 27 8l4 4
q2 -2 5.5 -0.5t5 1.5t4.5 3t3.5 4t3 4.5t3.5 4.5q8 8 22 8q18 -3 39 0q6 0 14 -8q11 -15 23 -17l35 -18q2 0 3.5 -2t2.5 -2q9 0 22 -13q7 -4 8 -15.5t-5 -18.5q-17 -17 -3 -39q3 0 3 -6q0 -4 -7 -9.5t-12 -5.5q-19 0 -21.5 3t-2.5 22v18q0 9 -2 11.5t-11 5.5q-10 0 -10 10
q0 4 -12 12q-21 4 -25 25q0 2 -2.5 5.5t-3.5 4.5q-10 0 -14 -4q-6 -6 -19 -6q-18 0 -30 -23q0 -12 8 -12q9 -1 26 -18q11 -8 15 -25q1 -2 20 -21q3 -8 14 -8q5 0 11 6q9 3 12 -6v-16q-3 -6 -6 -6q-22 -11 -35 -13l-16 -16l-15 -16q-4 -2 -6 -2q-4 0 -20 -11q-3 -2 -16 -6.5
t-19 -9.5q-3 -1 -7 -4t-5 -4l-19 -19q-1 -1 -16 -6h-23l-4 2q-4 2 -4 4q0 9 2 13q9 12 27 18q2 6 6 10q0 7 6 13q27 12 6 36v7v22q-1 1 -4 6t-6 6q-2 2 -7 1t-7 -3l-7 -6q-7 0 -22 -10q-1 -2 -9.5 -12t-9.5 -17q0 -1 -2 -4t-2 -4q-2 -2 -5.5 -8t-4.5 -8q0 -6 -8 -6
q-12 0 -12 8q0 2 -0.5 7.5t0 8t2.5 6.5t6 6v5q0 16 16 22q1 1 2.5 1.5t2.5 1.5t1 3q7 0 16 7t9 12q0 3 -1 7t-1 5l-6 -2l-6 -4q-9 -2 -16 -6.5t-14.5 -12.5t-10.5 -10q-16 -13 -29 -29l-4 -2q-5 -3 -16 -6q-3 -6 -9 -6q-5 1 -9 -1.5t-8.5 -7.5t-6.5 -7v-4q-5 -22 -29 -29
q-12 0 -15 -2t-7 -12q0 -6 -7 -13q-19 -16 -59 -61q-3 -1 -10 -3.5t-10 -2.5q-12 0 -25 -8q-4 -4 -12 -4q-12 0 -19 -7q-4 -4 -10 -4h-23q-22 0 -30 -8q0 -4 -6 -4q-4 -2 -11 -2q-2 -6 -16 -6z" />
    <glyph glyph-name=".null" 
 />
    <glyph glyph-name="nonmarkingreturn" horiz-adv-x="682" 
 />
    <glyph glyph-name="space" unicode="&#xa0;" horiz-adv-x="430" 
 />
    <glyph glyph-name="space" unicode=" " horiz-adv-x="430" 
 />
    <glyph glyph-name="exclam" unicode="!" horiz-adv-x="532" 
d="M276 416l558 991h96l-639 -991h-15zM31 0l80 125h86l-80 -125h-86z" />
    <glyph glyph-name="quotedbl" unicode="&#x22;" horiz-adv-x="684" 
d="M442 1047l275 360h86l-346 -360h-15zM647 1047l275 360h86l-346 -360h-15z" />
    <glyph glyph-name="numbersign" unicode="#" horiz-adv-x="1026" 
d="M315 -8l310 491h-162l-307 -491h-27l309 491h-198l26 43h199l86 138h-227l26 41h225l314 497h24l-311 -497h160l313 497h25l-314 -497h199l-24 -41h-199l-86 -138h225l-24 -43h-228l-309 -491h-25zM489 526h162l86 138h-162z" />
    <glyph glyph-name="dollar" unicode="$" horiz-adv-x="817" 
d="M287 10l-35 2l-217 -327h-23l217 329q-40 6 -79 21l-232 -350h-22l235 356q-113 55 -113 166q0 102 98 165.5t269 53.5v-2l115 176q-30 59 -42 97t-12 79q0 129 97 220t266 91h14l211 320h23l-213 -322q37 -3 80 -22l227 344h23l-234 -354q34 -22 76 -70l-31 -45
q-38 54 -70 80l-288 -438q39 -71 55 -116t16 -97q0 -104 -60.5 -187.5t-153.5 -126.5t-197 -43zM37 209q0 -103 106 -150l228 344q-155 16 -244.5 -41.5t-89.5 -152.5zM160 51q43 -13 84 -18l307 467l-21 39l-20 41zM264 31h29q152 0 238.5 80t86.5 194q0 39 -12.5 74
t-44.5 100zM518 842q0 -68 45 -150l244 373l-39 2q-126 0 -188 -66t-62 -159zM573 674l21 -37l22 -39l285 430q-35 24 -74 33z" />
    <glyph glyph-name="percent" unicode="%" horiz-adv-x="1318" 
d="M262 -41l-14 14l1012 1155h-447q24 -22 21 -81q-9 -108 -101 -244q-61 -89 -136 -153t-134 -64q-48 0 -66 42t-14 95q5 78 44 156.5t93.5 136.5t119.5 94.5t120 36.5q14 0 22 -2h492l14 -15zM465 598q53 0 120 64.5t128 158.5q97 143 106 240q3 74 -53 74
q-45 0 -108 -57.5t-123 -143.5q-112 -164 -121 -262q-4 -74 51 -74zM840 -27q-48 0 -66 42.5t-14 95.5q5 78 44 156.5t93.5 136.5t119.5 94.5t120 36.5q80 0 73 -99q-9 -108 -100 -243q-60 -91 -135.5 -155.5t-134.5 -64.5zM842 -12q53 0 120.5 64t127.5 157q98 147 106 240
q3 75 -53 75q-45 0 -108.5 -57.5t-123.5 -142.5q-111 -162 -120 -265q-2 -35 9 -53t42 -18z" />
    <glyph glyph-name="ampersand" unicode="&#x26;" horiz-adv-x="1097" 
d="M23 -502q124 47 224 107t169 123.5t120.5 138.5t82 146.5t49.5 152.5q-179 -176 -334 -176q-94 0 -159.5 61t-65.5 170q0 79 43.5 156t92 128t148.5 115.5t144 87.5t147 75q18 10 27 14q7 106 27.5 191t48.5 140t63.5 91.5t71.5 51.5t75 15q60 0 93.5 -34t33.5 -93
q0 -42 -19 -81.5t-48 -71t-80 -68t-96.5 -63.5t-116.5 -66l-2 -49l-2 -68h471l-10 -14h-263q2 -79 -71 -216t-182 -257q-138 -531 -674 -750zM205 205q-3 -87 36 -137t115 -50q150 0 318 179q11 51 17.5 103t9.5 111.5t4 94.5t1.5 104t0.5 88l2 82q-496 -273 -504 -575z
M713 240q93 112 155.5 236.5t65.5 201.5h-174q-9 -276 -47 -438zM764 823q65 34 114.5 66.5t98 74.5t74.5 91t26 102q0 54 -26.5 83.5t-71.5 29.5q-93 0 -147 -117t-68 -330z" />
    <glyph glyph-name="quotesingle" unicode="'" horiz-adv-x="479" 
d="M442 1047l275 360h86l-346 -360h-15z" />
    <glyph glyph-name="parenleft" unicode="(" horiz-adv-x="913" 
d="M512 -356q-118 151 -171 338t-48 364q5 183 71.5 360t178 324.5t258 271.5t316.5 211.5t349 133.5l-12 -21q-216 -58 -407.5 -183t-335.5 -295.5t-234.5 -386.5t-107.5 -448q-7 -102 2 -205.5t47.5 -228t105.5 -219.5z" />
    <glyph glyph-name="parenright" unicode=")" horiz-adv-x="1058" 
d="M772 1645q118 -151 171 -338t48 -365q-5 -183 -71.5 -360t-178 -324t-258 -271t-316.5 -211.5t-349 -133.5l12 20q216 58 407.5 183t335.5 295.5t234.5 386.5t107.5 448q7 102 -2 205.5t-47.5 228t-105.5 219.5z" />
    <glyph glyph-name="asterisk" unicode="*" horiz-adv-x="841" 
d="M717 913q22 144 22 236q-116 -68 -192 -135l-29 49q107 38 217 98q-124 68 -217 99l29 49q27 -24 58.5 -47t46 -33t50.5 -32t37 -23q0 91 -22 233h57q-18 -130 -22 -236q132 87 192 138l31 -49q-34 -12 -69 -27t-56 -25.5t-51.5 -26t-40.5 -20.5q119 -63 217 -98l-31 -49
q-80 68 -192 137q4 -106 22 -238h-57z" />
    <glyph glyph-name="plus" unicode="+" horiz-adv-x="1030" 
d="M596 139v346h-371v25h371v346h29v-346h368v-25h-368v-346h-29z" />
    <glyph glyph-name="comma" unicode="," horiz-adv-x="360" 
d="M-143 -182q72 0 134 44.5t62 100.5q0 22 -14.5 41t-48.5 45l47 74h31q27 -56 17.5 -114t-40.5 -105t-87 -77t-122 -30z" />
    <glyph glyph-name="hyphen" unicode="-" horiz-adv-x="686" 
d="M197 358l12 17h350l-12 -17h-350z" />
    <glyph glyph-name="period" unicode="." horiz-adv-x="342" 
d="M-59 0l79 125h86l-79 -125h-86z" />
    <glyph glyph-name="slash" unicode="/" horiz-adv-x="845" 
d="M-305 -309l1681 1843h37l-1683 -1843h-35z" />
    <glyph glyph-name="zero" unicode="0" horiz-adv-x="778" 
d="M244 -12q-38 0 -65.5 20.5t-42 56t-20.5 75.5t-5 87q0 102 30 214t79.5 212t115.5 191.5t136.5 158t145 105.5t138.5 39q134 0 131 -180q-2 -128 -69 -301t-162.5 -321.5t-209.5 -252.5t-202 -104zM242 4q81 0 191 110.5t203.5 263.5t160.5 323t69 282q2 67 -21 107
t-69 40q-77 0 -186.5 -109.5t-204 -262.5t-162 -327.5t-67.5 -293.5q0 -133 86 -133z" />
    <glyph glyph-name="one" unicode="1" horiz-adv-x="802" 
d="M-102 0l12 20h272l549 943h-12q-155 -117 -459 -246l-12 24q482 181 645 406l22 -17l-620 -1110h287l-11 -20h-673z" />
    <glyph glyph-name="two" unicode="2" horiz-adv-x="831" 
d="M473 -12q-37 0 -72 23.5t-63.5 57t-56 66.5t-59 56.5t-62.5 23.5q-44 0 -67.5 -46t-26.5 -124l-3 -45h-92q30 75 70 139t82 112t103 97t115 85.5t136 86.5q62 38 103.5 66t90 69t77 79.5t48 89.5t19.5 106q0 89 -45 143.5t-137 54.5q-99 0 -162 -56.5t-63 -143.5
q0 -73 55 -137l-64 -39q-34 61 -34 120q0 130 91.5 207.5t215.5 77.5q102 0 168.5 -56.5t66.5 -156.5q0 -55 -23 -107t-55.5 -91t-91.5 -84.5t-105.5 -75t-123.5 -74.5q-65 -38 -96.5 -57.5t-86 -55.5t-86.5 -61.5t-66.5 -59.5t-55.5 -67l2 2q23 23 61 23q34 0 77.5 -24.5
t79.5 -53.5t86 -53.5t95 -24.5q59 0 96.5 44.5t120.5 193.5q19 33 29 51q11 5 16 0q-114 -215 -176.5 -298t-130.5 -83z" />
    <glyph glyph-name="three" unicode="3" horiz-adv-x="745" 
d="M-88 25q32 -7 72 -7q118 0 233.5 47.5t199.5 123t135.5 171t51.5 187.5q0 147 -145 147q-79 0 -129 -61l-54 -68l-30 37l622 453h-448l45 78h502l26 24l19 -18l-598 -437l2 -2q46 17 82 17q87 0 141.5 -52.5t54.5 -144.5q0 -133 -100 -253t-270 -193.5t-363 -73.5h-37z
" />
    <glyph glyph-name="four" unicode="4" horiz-adv-x="876" 
d="M18 0l11 20h258l149 254l-370 -10v31l952 860l31 -27l-486 -831l248 6l-12 -20l-246 -7l-125 -213l-106 -43h337l-10 -20h-631zM96 297l2 -12l351 8l378 639l-20 8z" />
    <glyph glyph-name="five" unicode="5" horiz-adv-x="759" 
d="M-82 25q44 -7 90 -7q100 0 195.5 35t170 94t131.5 132t87.5 152t30.5 151q0 88 -44 130t-112 42q-73 0 -129.5 -46t-63.5 -130l-2 -25h-63l371 580h399l2 -13l-39 -65h-393l-207 -326l2 -4q61 51 154 51q96 0 155.5 -53t59.5 -152q0 -76 -33.5 -156t-98.5 -154
t-151.5 -132.5t-201.5 -93.5t-240 -35h-56z" />
    <glyph glyph-name="six" unicode="6" horiz-adv-x="823" 
d="M315 -12q-93 0 -140.5 65t-47.5 180q1 113 44 228.5t116 216.5t174 191.5t215 157.5t241 110t250 53l2 -16q-136 -13 -273 -73.5t-249.5 -149t-203 -195.5t-144.5 -217l8 -2q115 153 258 153q89 0 137 -59.5t48 -157.5q-1 -88 -40 -177.5t-100 -156.5t-140 -109t-155 -42
zM311 6q72 0 140.5 54t115 134.5t75 171.5t28.5 166q0 138 -115 138q-97 0 -185.5 -82.5t-138 -198t-49.5 -221.5q0 -162 129 -162z" />
    <glyph glyph-name="seven" unicode="7" horiz-adv-x="665" 
d="M39 0q146 203 522 664l320 391h-488l-84 -158h-20l149 287h31l-31 -51h512v-25q-214 -255 -387 -479q-98 -122 -205.5 -296t-191.5 -333h-127z" />
    <glyph glyph-name="eight" unicode="8" horiz-adv-x="808" 
d="M315 -12q-126 0 -197 66.5t-71 164.5q0 51 21 98.5t55 87t94 86t119.5 84.5t150.5 91q-45 117 -45 198q0 120 83 201.5t206 81.5q94 0 154.5 -58t50.5 -159l143 84l8 -15l-509 -299q9 -22 30 -73t31.5 -79.5t24.5 -70.5t20 -78t6 -69q0 -100 -53.5 -179.5t-139 -121
t-182.5 -41.5zM94 205q0 -92 57 -146.5t160 -54.5q123 0 206 74.5t83 202.5q0 41 -12 93.5t-22.5 84.5t-37.5 101t-34 89q-205 -123 -302.5 -227.5t-97.5 -216.5zM522 924q0 -76 49 -207l320 186q20 101 -26.5 165.5t-137.5 64.5t-148 -55t-57 -154z" />
    <glyph glyph-name="nine" unicode="9" horiz-adv-x="839" 
d="M-68 16q131 1 258.5 49.5t227.5 128.5t177 181t118 209l-11 4q-102 -144 -235 -144q-96 0 -147.5 67.5t-51.5 172.5q0 110 56 217t151 176.5t199 69.5q111 0 164 -80.5t47 -204.5q-5 -123 -58.5 -247t-144.5 -230.5t-207.5 -191.5t-258 -137t-284.5 -60v20zM475 461
q72 0 136.5 50.5t106.5 126t66.5 160t24.5 156.5q0 83 -31.5 129.5t-93.5 46.5q-67 0 -130.5 -54.5t-106.5 -134.5t-69 -168t-26 -157q0 -155 123 -155z" />
    <glyph glyph-name="colon" unicode=":" horiz-adv-x="444" 
d="M-59 0l79 125h86l-79 -125h-86zM264 551l80 125h86l-80 -125h-86z" />
    <glyph glyph-name="semicolon" unicode=";" horiz-adv-x="444" 
d="M-143 -182q72 0 134 44.5t62 100.5q0 22 -14.5 41t-48.5 45l47 74h31q27 -56 17.5 -114t-40.5 -105t-87 -77t-122 -30zM264 551l80 125h86l-80 -125h-86z" />
    <glyph glyph-name="less" unicode="&#x3c;" horiz-adv-x="1079" 
d="M907 211l-671 283l16 24l844 262l-17 -32l-766 -236l-10 -23l617 -253z" />
    <glyph glyph-name="equal" unicode="=" horiz-adv-x="1021" 
d="M262 610v25h686v-25h-686zM262 365v24h686v-24h-686z" />
    <glyph glyph-name="greater" unicode="&#x3e;" horiz-adv-x="995" 
d="M104 211l19 33l768 235l12 27l-502 254l19 20l549 -282l-17 -25z" />
    <glyph glyph-name="question" unicode="?" horiz-adv-x="804" 
d="M358 412q72 171 163 274.5t216 192.5q15 11 58 41.5t60.5 43.5t53.5 41.5t52.5 46t41 45.5t35.5 51.5t20 53.5t9 60q0 64 -39.5 100.5t-118.5 36.5q-97 0 -165.5 -53.5t-88 -141.5t16.5 -200l-62 -27q-18 63 -17.5 125t27.5 118.5t68 100t104.5 69t137.5 25.5
q117 0 171.5 -55.5t49.5 -132.5q-2 -40 -21.5 -77t-44.5 -64.5t-70 -60t-80 -53.5t-93.5 -55.5t-93.5 -56.5q-47 -29 -86 -60.5t-67 -58.5t-53.5 -63t-40.5 -61t-33.5 -67t-27.5 -66t-26 -72h-56zM156 0l80 125h86l-80 -125h-86z" />
    <glyph glyph-name="at" unicode="@" horiz-adv-x="1388" 
d="M524 -174q-231 0 -348 115.5t-117 298.5q0 143 73 285t192 250.5t282 176.5t332 68q209 0 318.5 -96.5t109.5 -247.5q0 -130 -82 -276t-193.5 -240t-197.5 -94q-102 0 -102 143q0 50 20 135h-6q-73 -114 -165.5 -195t-162.5 -81q-54 0 -79 46.5t-25 116.5q0 136 86 261
q69 99 169.5 161t184.5 62q98 0 98 -101q0 -47 -30 -129l129 205h98l-180 -289q-64 -101 -86.5 -148.5t-22.5 -88.5q0 -82 72 -82q60 0 139.5 55.5t149 139.5t118 193t48.5 206q0 146 -105 235.5t-303 89.5q-165 0 -323.5 -66t-275 -172t-188 -245.5t-71.5 -279.5
q0 -175 111 -285.5t333 -110.5h430l-12 -16h-418zM479 84q74 0 174 98t170 224.5t70 207.5q0 84 -72 84q-60 0 -135 -63t-143 -166q-50 -74 -85 -155.5t-38 -145.5q-3 -84 59 -84z" />
    <glyph glyph-name="A" unicode="A" horiz-adv-x="1259" 
d="M-586 -309q-146 0 -250 49l-2 27q111 -54 252 -54q92 0 183 21.5t172 55.5t171 93.5t164.5 118.5t168.5 148.5t168 165t177 186.5l193 207h-301l16 16h301l668 715h31q69 0 106 43h25l-637 -1028q-85 -139 -113 -187t-50.5 -102t-22.5 -94q0 -72 71 -72q74 0 148.5 70.5
t175.5 220.5l53 78q12 6 18 0l-55 -82q-104 -153 -182.5 -228t-157.5 -75q-56 0 -83 41.5t-27 101.5q0 84 38 179t136 249l98 154h-229l-205 -220q-104 -111 -179.5 -188.5t-171 -167.5t-171.5 -150t-166.5 -120t-172.5 -94.5t-174 -56t-184 -21.5zM852 725h225l443 696h-19
z" />
    <glyph glyph-name="B" unicode="B" horiz-adv-x="1681" 
d="M743 -156q-141 0 -242 42t-153 114h-237l10 18h215q-35 59 -35 125q0 124 100 236l15 -14q-99 -105 -99 -224q0 -68 37 -123h138l278 447h-14q-102 0 -183 32t-131.5 88t-77 128.5t-26.5 156.5q0 103 43.5 210.5t128 205t197.5 174.5t264 122.5t315 45.5
q197 0 327.5 -60.5t184.5 -160.5h260l-10 -16h-242q25 -61 25 -121q0 -125 -79.5 -227.5t-208.5 -160t-279 -63.5v-4q127 -25 202.5 -110.5t75.5 -229.5q0 -71 -27 -146t-75.5 -145t-121.5 -132t-159.5 -108t-194 -73t-221.5 -27zM356 872q0 -81 25 -151t73.5 -124t126 -85
t175.5 -31h24l525 842l149 84h285q-38 105 -159 155t-296 50q-163 0 -311.5 -44.5t-258.5 -120t-192 -170.5t-124 -200t-42 -205zM367 0q52 -64 145.5 -101.5t220.5 -37.5q126 0 240.5 39.5t198.5 106t146.5 151.5t94 179t31.5 185q0 135 -66.5 212t-191.5 77q-54 0 -88 -6
l-455 -731l-102 -56h358l-10 -18h-522zM1116 836q32 -7 84 -7q131 0 237.5 39.5t174.5 106.5t104.5 154t36.5 184q0 36 -10 78h-283z" />
    <glyph glyph-name="C" unicode="C" horiz-adv-x="1245" 
d="M748 -113q-109 0 -166.5 94.5t-57.5 243.5q0 285 185 611q-108 10 -190 42t-133.5 92t-51.5 142q0 133 135.5 214t404.5 81h314q251 197 442 197q67 0 101 -32t34 -91q0 -33 -12 -74h170l-8 -16h-168q-25 -70 -79.5 -145t-141 -148.5t-191 -132t-239 -95.5t-275.5 -39
q-102 -185 -160.5 -362t-58.5 -319q0 -116 39.5 -178t116.5 -62q184 0 448 373l62 86q9 6 18 0l-63 -90q-139 -199 -255 -295.5t-220 -96.5zM352 1112q0 -113 101.5 -178.5t265.5 -79.5q88 154 204.5 293t243.5 244h-293q-263 0 -392.5 -76.5t-129.5 -202.5zM831 850
q137 3 267.5 39.5t231 93.5t184 128t137 142.5t78.5 137.5h-478q-226 -204 -420 -541zM1270 1407h465q12 41 12 74q0 106 -115 106q-156 0 -362 -180z" />
    <glyph glyph-name="D" unicode="D" horiz-adv-x="1820" 
d="M197 0l8 18h352l301 482h-37q-213 0 -327.5 117t-114.5 307q0 99 35 198.5t106 190.5t168.5 161t233 112t288.5 42q352 0 527 -221h422l-11 -16h-399q115 -161 115 -377q0 -120 -34.5 -243.5t-97 -235.5t-154.5 -210t-201.5 -170t-244 -113.5t-276.5 -41.5h-659zM395 924
q0 -185 110 -296.5t318 -111.5h45l504 809l150 82h178q-139 205 -490 205q-153 0 -287.5 -41.5t-229 -110.5t-163.5 -158.5t-102 -186t-33 -191.5zM606 18h262q126 0 247 48.5t220 130.5t183 191.5t141 231t89 250t32 246.5q0 160 -70 275h-180l-819 -1317z" />
    <glyph glyph-name="E" unicode="E" horiz-adv-x="1511" 
d="M1006 -23q-169 0 -375 91q-137 -84 -328 -84q-147 0 -227 43t-80 102q0 45 47.5 78t138.5 33q35 0 73.5 -6.5t63.5 -12t73.5 -24.5t63 -25t73.5 -32.5t67 -30.5q50 46 100.5 116t126.5 189q-236 41 -353.5 152.5t-117.5 267.5q0 81 33 160.5t104 154.5t172.5 132
t250 91.5t323.5 34.5h750l-11 -16h-428l-391 -627h238l51 88h24l-133 -225h-24l69 118h-237l-213 -342q-140 -224 -277 -319q193 -82 355 -82q71 0 131.5 14t106 37t88 60t75 76.5t68.5 93.5l59 88q9 5 16 -2l-61 -90q-37 -57 -66 -94t-73.5 -80.5t-90.5 -68.5t-112 -42
t-143 -17zM14 127q0 -49 73 -86t202 -37q176 0 289 88q-7 3 -49 23t-52 24.5t-47 20.5t-52 21l-46.5 15.5t-52.5 14t-48.5 7t-52.5 3.5q-83 0 -123.5 -28.5t-40.5 -65.5zM371 834q0 -151 116.5 -258.5t346.5 -145.5l2 4l553 889l120 68h-276q-172 0 -317 -34t-243.5 -90
t-168 -129t-101.5 -150t-32 -154z" />
    <glyph glyph-name="F" unicode="F" horiz-adv-x="1396" 
d="M319 -113q-169 0 -257.5 93.5t-88.5 240.5q0 108 53.5 210t152.5 187t255 141.5t346 67.5q-141 23 -219 93.5t-78 173.5q0 80 49 141t138.5 98t209 55.5t267.5 18.5h977l-10 -16h-474l-350 -562h205l53 91h27l-143 -242h-29l82 135h-205l-252 -401q-330 -525 -709 -525z
M-6 223q0 -141 82 -229t229 -88q77 0 149 27.5t129 70t117.5 111.5t105.5 132.5t101 153.5l258 412h-291q-167 0 -311 -34t-247 -91.5t-176.5 -133.5t-109.5 -160.5t-36 -170.5zM502 1094q0 -123 115.5 -194t322.5 -71h236l309 494l129 68h-467q-144 0 -259.5 -17.5
t-203 -52.5t-135 -92.5t-47.5 -134.5z" />
    <glyph glyph-name="G" unicode="G" horiz-adv-x="1605" 
d="M352 -711q-184 0 -288 84.5t-84 227.5q11 83 64.5 137.5t132 77t183.5 22.5q58 0 273 -11t282 -11l46 2q33 47 65.5 95t66.5 103t56 91t60.5 101t54.5 91h-4q-236 -296 -435 -299q-78 0 -132 46.5t-78.5 120t-24.5 167.5q0 245 164 530q-153 21 -249.5 83t-96.5 169
q0 129 138 210t412 81h271q264 197 465 197q73 0 110 -41.5t37 -106.5q0 -17 -4 -49h170l-12 -16h-162q-23 -97 -109.5 -194t-212 -172t-289.5 -122t-329 -47h-23q-95 -169 -149.5 -331.5t-54.5 -288.5q0 -105 42 -161.5t121 -56.5q125 0 258.5 116.5t296.5 363.5
q9 52 31 159h121q-72 -69 -147 -196q-73 -113 -170.5 -320t-163.5 -319q149 33 259 137t259 326l55 84q11 8 19 0l-60 -88q-76 -113 -134 -187t-124 -136.5t-134.5 -99t-150.5 -53.5l-12 -20q-69 -115 -138 -200.5t-152.5 -154.5t-181.5 -105t-208 -36zM-4 -399
q-12 -86 29.5 -152t113 -98.5t156.5 -32.5q92 0 181.5 37t172 106t153.5 150t146 188h-33q-68 0 -283.5 11.5t-273.5 11.5q-155 0 -250 -53.5t-112 -167.5zM426 1116q0 -98 94 -157t242 -78q176 296 446 510h-250q-266 0 -399 -76.5t-133 -198.5zM879 872h12q163 0 324 45.5
t283.5 118.5t208 167t108.5 188h-527q-223 -196 -409 -519zM1307 1407h512q4 32 4 49q0 60 -32.5 95.5t-96.5 35.5q-175 0 -387 -180z" />
    <glyph glyph-name="H" unicode="H" horiz-adv-x="1806" 
d="M285 -111q-160 0 -255.5 92.5t-95.5 231.5q0 222 198 358t511 136h72q-114 28 -177 100.5t-63 177.5q0 133 100 229.5t274.5 144.5t403.5 48h1114l-10 -16h-219l-821 -1317l-105 -56h328l-8 -18h-623l11 18h243l420 670h-422l-196 -315q-56 -89 -106.5 -156.5
t-115.5 -131.5t-131.5 -105t-150 -66t-176.5 -25zM-49 213q0 -130 91 -217.5t243 -87.5q54 0 103 12t90 31.5t83 55t75 70t74 91t72.5 104.5t77.5 121l184 295h-405q-200 0 -356 -58t-244 -166.5t-88 -250.5zM494 985q0 -129 99 -203.5t271 -74.5h193l385 616l123 68h-312
q-225 0 -395.5 -47t-267 -139.5t-96.5 -219.5zM1174 707h419l385 616l123 68h-499z" />
    <glyph glyph-name="I" unicode="I" horiz-adv-x="759" 
d="M-225 0l10 18h285l815 1305l121 68h-361l12 16h678l-10 -16h-283l-825 -1317l-100 -56h352l-12 -18h-682z" />
    <glyph glyph-name="J" unicode="J" horiz-adv-x="1050" 
d="M-276 -713q-130 0 -130 129q0 161 156.5 368.5t413.5 408.5t567 366l477 764l121 68h-489l10 16h780l-10 -16h-254l-481 -768q96 41 190 71l2 -16q-112 -39 -209 -82l-237 -381q-55 -88 -89.5 -143t-91.5 -141.5t-98 -143t-99 -130.5t-104 -122t-103 -99.5t-107.5 -81
t-106 -48.5t-108.5 -19zM-385 -586q0 -106 102 -106q58 0 119.5 31t121.5 87.5t120.5 129.5t122 164t120 183t121.5 193l72 117l199 317q-300 -164 -550 -364.5t-399 -401t-149 -350.5z" />
    <glyph glyph-name="K" unicode="K" horiz-adv-x="1533" 
d="M55 0l11 18h366l242 388q-180 14 -286.5 122.5t-106.5 278.5q0 122 58 230.5t162.5 191t263 130.5t347.5 48h795q141 124 259.5 191t241.5 67v-18q-115 0 -228.5 -62.5t-244.5 -177.5h90l-10 -16h-98q-45 -40 -117 -107.5t-122.5 -114.5t-121.5 -106t-129.5 -99.5
t-130.5 -76t-141 -53.5h21q100 1 152 -44t52 -124q0 -106 -94 -258l-47 -74q-67 -105 -93 -158.5t-26 -95.5q0 -76 70 -76q72 0 146.5 75t189.5 243l33 47q12 8 16 0l-33 -47q-58 -85 -95.5 -135.5t-84 -101.5t-88.5 -74t-84 -23q-100 0 -100 139q0 150 122 340l54 86
q71 106 71 166q0 48 -42.5 74t-123.5 26h-90l-41 -2l-43 -69l-491 -713l-49 -17h397l-10 -18h-789zM299 807q0 -164 104 -268.5t281 -116.5l141 227l516 729l37 13h-266q-185 0 -340 -47t-257.5 -127.5t-159 -186t-56.5 -223.5zM1051 834q67 6 133.5 26.5t130.5 57t119.5 74
t120 93.5t111 98.5t114 106.5t108.5 101h-489z" />
    <glyph glyph-name="L" unicode="L" horiz-adv-x="1267" 
d="M-92 47q103 -29 198 -29q65 0 122 11.5t109 40t92.5 55.5t86 81.5t76 93t75 114t70 121t74.5 135.5q32 60 49 90h-8q-231 0 -365.5 81t-134.5 228q0 152 175 245t520 93h253q206 221 359 221q56 0 84.5 -36t28.5 -97q0 -38 -13 -88h164l-12 -16h-156q-21 -74 -65 -151.5
t-114 -155t-156.5 -141.5t-200.5 -111.5t-238 -63.5q-54 -93 -92.5 -157t-89.5 -142t-93.5 -131.5t-96.5 -110t-105.5 -94.5t-113 -68.5t-126.5 -46.5h486q61 0 115 10t95 24.5t82 42.5t69 52t63.5 67t57 72.5t58.5 82.5q10 7 17 0q-101 -142 -139 -186q-108 -123 -245 -161
q-79 -22 -178 -22h-868zM371 1069q0 -137 128 -214t353 -77h18l82 144q168 285 334 469h-239q-337 0 -506.5 -89t-169.5 -233zM993 788q148 21 279.5 86t223 152t153 181t88.5 184h-377q-108 -148 -289 -467zM1372 1407h369q12 49 12 92q0 113 -96 113q-130 0 -285 -205z
" />
    <glyph glyph-name="M" unicode="M" horiz-adv-x="2009" 
d="M176 -90q-131 0 -208 73.5t-77 209.5q0 228 215 394t564 204q32 145 99.5 256t150.5 178t190 109t207 57.5t211 15.5h583q56 0 98 25t91 84h27l-500 -814q-15 -24 -42 -69q-69 -112 -100 -165t-68 -125t-51 -121.5t-14 -94.5q0 -60 28 -91.5t79 -31.5q76 0 147.5 68.5
t180.5 226.5l47 70q12 8 16 0l-47 -70q-43 -63 -70 -101t-65 -83t-68 -69.5t-66.5 -41t-72.5 -16.5q-70 0 -107.5 51t-37.5 143q0 105 54 237.5t165 313.5l407 651l-12 2q-161 -193 -333.5 -419t-288.5 -387.5t-222.5 -303.5t-177.5 -214.5t-111 -71.5q-45 0 -45 65
q0 184 363 725l405 606l-8 3q-100 -84 -214.5 -215.5t-216 -265t-211 -279.5t-217 -271.5t-217 -227.5t-228 -161t-232.5 -59zM997 6q36 0 105 73t173.5 214.5t220.5 302.5t285 383.5t328 411.5h-274l-420 -623q-282 -419 -336 -506q-104 -169 -104 -229q0 -27 22 -27z
M-90 193q0 -128 71.5 -196.5t192.5 -68.5q73 0 148.5 26t143 66.5t143 108t137.5 133t139 159.5t134.5 169t135.5 179q5 7 8 11h-317q-204 0 -379.5 -46t-297 -124.5t-190.5 -186.5t-69 -230zM686 791q68 8 160 8h332q155 208 274.5 350t235.5 242h-160q-77 0 -148 -7.5
t-147.5 -26t-143 -48.5t-131 -77t-115.5 -108t-92 -146t-65 -187z" />
    <glyph glyph-name="N" unicode="N" horiz-adv-x="1738" 
d="M197 -90q-136 0 -219 72t-93 202q-15 154 76.5 287.5t270 222t413.5 115.5q25 141 86.5 249t139.5 172.5t180 105.5t198.5 56t204.5 15h746q237 217 489 217q90 0 176 -27l-6 -20q-86 27 -170 27q-134 0 -258 -58.5t-230.5 -162.5t-205 -233t-200.5 -285.5t-198 -302.5
t-216.5 -301t-237.5 -267l-25 8q87 97 132 242.5t93 443.5l9 51q30 189 88 326t159 242h-6q-38 -32 -75 -68.5t-77 -84.5t-66.5 -80t-71.5 -95.5t-62.5 -88t-69.5 -100.5t-63 -92q-69 -102 -123.5 -178t-122 -162.5t-125.5 -148.5t-127 -121.5t-133 -96t-136 -59t-144 -22.5
zM-98 188q10 -126 88 -193t209 -67q90 0 180 36t172 98t173.5 163t175 211.5t187.5 263.5l68 101h-321q-211 0 -391 -48.5t-302 -131t-186 -195.5t-53 -238zM666 811q71 8 168 8h333q71 104 119.5 170.5t117 150t137.5 145.5t142 106h-229q-75 0 -143.5 -7t-142 -25.5
t-136.5 -47t-123.5 -74t-107 -104.5t-82 -141t-53.5 -181zM1227 111h6q97 108 201.5 252.5t192.5 280.5t177 271.5t187 262t190 213.5h-465q-183 -127 -241 -545l-7 -55q-51 -393 -241 -680z" />
    <glyph glyph-name="O" unicode="O" horiz-adv-x="1327" 
d="M496 -111q-76 0 -133.5 37t-89.5 99t-47 135.5t-13 154.5q3 157 55 319.5t137.5 302.5t200 264.5t238 212.5t255 139t249.5 51q126 0 181 -67t52 -179q-2 -120 -64 -273t-174 -307q-54 -150 -140 -297.5t-191 -269.5q142 6 209.5 38.5t130.5 119.5q11 7 16 0
q-47 -66 -88 -99.5t-107.5 -52t-175.5 -22.5q-127 -142 -257 -224t-244 -82zM289 209q-3 -301 207 -301q109 0 232 76.5t241 208.5h-76h-367l6 16q233 67 434 217t347 344q58 172 67 313q10 171 -54.5 248.5t-178.5 77.5q-181 0 -371 -168.5t-325 -435.5
q-156 -317 -162 -596zM635 209h264l84 2q190 217 305 498q-128 -159 -294 -286t-357 -200zM719 1210q224 217 430 217q125 0 194.5 -83t63.5 -250q-3 -112 -43 -250q93 139 145 274t54 240q2 104 -48.5 166.5t-164.5 62.5q-149 0 -314 -101.5t-317 -275.5z" />
    <glyph glyph-name="P" unicode="P" horiz-adv-x="1738" 
d="M526 0q-130 0 -229.5 30t-158 83t-87 118.5t-28.5 141.5q0 121 71.5 216.5t187 153.5t265.5 84q16 162 96 307.5t208 255t311 174t392 64.5q195 0 322 -59.5t176 -161.5h232l-11 -16h-213q23 -61 23 -117q0 -171 -138 -292.5t-352 -121.5q-69 0 -149 17l4 12
q46 -10 90 -10q87 0 163 27t130.5 71.5t94 101t58.5 118t19 120.5q0 36 -10 74h-312l-403 -652q134 -68 208 -169.5t70 -225.5q-3 -63 -27 -120.5t-70 -107t-125.5 -78t-182.5 -24.5q-155 6 -277 76l-10 -16l-133 -74h-205zM41 375q-1 -71 25.5 -133t82 -113.5t152 -81
t225.5 -29.5h187l82 129q-123 105 -187.5 269t-64.5 334l2 63q-221 -42 -361 -156t-143 -282zM563 752q0 -164 62 -324.5t178 -263.5l377 602q-185 68 -400 68q-104 0 -215 -19zM567 831q116 17 211 17q222 0 410 -68l338 543l149 84h314q-33 98 -143.5 151.5t-291.5 53.5
q-208 0 -387.5 -63t-304.5 -170t-202 -248.5t-93 -299.5zM883 104q120 -72 276 -75q178 -1 277.5 90.5t101.5 230.5q1 118 -70 215t-198 162z" />
    <glyph glyph-name="Q" unicode="Q" horiz-adv-x="1341" 
d="M-49 -197q406 41 747 246q-108 -57 -200 -57q-70 0 -121.5 31.5t-80.5 86.5t-42.5 121.5t-13.5 145.5q0 150 48.5 305t129 288t187 251.5t220.5 202t232 132t219 48.5q137 0 203.5 -84t66.5 -228q0 -98 -31 -217t-94.5 -250.5t-153.5 -262t-216 -254.5t-272.5 -225
t-333 -176t-388.5 -106l-4 -8h871l-33 -53h-981zM315 283q0 -271 183 -271q123 0 264.5 99t257.5 251.5t196 348.5t87 376q4 158 -55 241t-175 83q-97 0 -198 -56t-195 -159q-162 -205 -263.5 -451.5t-101.5 -461.5zM768 1298q152 127 305 127q121 0 187.5 -85.5
t60.5 -252.5q-7 -258 -157.5 -532t-354.5 -434q172 122 312.5 281.5t227 317.5t133 306t46.5 268q0 135 -64.5 213t-189.5 78q-119 0 -249 -76.5t-257 -210.5z" />
    <glyph glyph-name="R" unicode="R" horiz-adv-x="1697" 
d="M1360 -12q-55 0 -81 40.5t-28 100.5q-3 145 109 324l61 96q71 118 68 192q-3 97 -92 123q-57 3 -109 13l4 12q68 -8 117 -8q105 0 195.5 39t149.5 102t92.5 139.5t33.5 153.5q0 38 -10 76h-348l-817 -1317l-107 -56h406l-9 -18h-792l8 18h342l274 441h-55
q-107 0 -191.5 31t-138 85t-81 124.5t-27.5 152.5q0 107 47.5 217t141.5 210t219.5 178t295 124.5t355.5 46.5q209 0 343.5 -59t188.5 -162h219l-10 -16h-203q25 -58 25 -121q0 -112 -67.5 -204t-187.5 -145.5t-269 -56.5q101 -47 104 -188q6 -121 -84 -266l-68 -107
q-96 -152 -96 -229q0 -32 19 -51t53 -19q37 0 74 20t79.5 65.5t80.5 96t94 133.5l34 50q8 6 17 0l-33 -50q-42 -62 -69 -100t-66.5 -87.5t-70.5 -77t-68.5 -47t-71.5 -19.5zM352 852q0 -163 108 -270t312 -107h66l528 848l150 84h350q-38 101 -159.5 153t-315.5 52
q-156 0 -299.5 -32.5t-255.5 -88t-204.5 -130t-153 -159t-93.5 -174t-33 -176.5z" />
    <glyph glyph-name="S" unicode="S" horiz-adv-x="1318" 
d="M514 -111q-101 0 -183.5 26t-136.5 69t-91.5 101t-53.5 118.5t-16 124.5q0 107 47.5 209t135 184.5t226.5 133t306 50.5v-31q-132 0 -246 -31t-195 -84.5t-139 -124t-86.5 -149t-28.5 -159.5q0 -62 16.5 -121t52.5 -112.5t88 -93.5t128.5 -63.5t167.5 -23.5
q95 0 173 28.5t130.5 66.5t95.5 111t66.5 125t44.5 147t28 139t19 137q1 9 2 14q11 79 19 131t21 121t26.5 114.5t33.5 100t43 89.5t55 70.5t70 55.5t86 32.5t105 12.5h121l-39 -55q-58 34 -131 34q-54 0 -92.5 -13t-67.5 -55.5t-46.5 -79.5t-34.5 -130t-26 -159.5
t-26 -211.5q-9 -76 -16.5 -124.5t-30 -146.5t-50.5 -165t-80 -151.5t-116.5 -136t-161.5 -88t-213 -36.5z" />
    <glyph glyph-name="T" unicode="T" horiz-adv-x="1157" 
d="M592 786q-113 50 -172.5 128t-59.5 165q0 64 33 121.5t96 104.5t164.5 74.5t227.5 27.5h1050l-12 -16h-543l-819 -1317l-104 -56h393l-8 -18h-785l8 18h345l813 1305l120 68h-458q-121 0 -219 -26.5t-158 -71t-91.5 -99.5t-31.5 -115q0 -79 58 -150.5t167 -115.5z" />
    <glyph glyph-name="U" unicode="U" horiz-adv-x="1665" 
d="M764 -8q-64 0 -103.5 57t-39.5 160q0 218 204 539l31 49h-90q-98 0 -173.5 16.5t-121.5 42t-75.5 61.5t-40.5 71.5t-11 74.5q0 96 68.5 196t173.5 175.5t238 123.5t255 48q97 0 144 -39.5t47 -130.5q0 -87 -38.5 -186t-129.5 -244l-211 -334q-227 -359 -227 -527
q0 -63 25 -99t75 -36q170 0 483 471l525 854l118 56h-323l10 16h522l-10 -16h-162l-532 -852q-170 -271 -164 -418q6 -117 96 -117q64 0 133.5 69.5t173.5 219.5l56 78q11 8 16 0l-55 -82q-111 -158 -183.5 -229.5t-140.5 -71.5q-131 0 -131 196q0 96 35 224h-17
q-283 -416 -450 -416zM360 1061q0 -46 17.5 -85.5t59.5 -77.5t127.5 -60.5t205.5 -22.5h98l193 309q115 184 140 235q32 66 34 116q1 62 -38.5 87t-121.5 25q-120 0 -249.5 -46.5t-231.5 -119.5t-168 -169.5t-66 -190.5z" />
    <glyph glyph-name="V" unicode="V" horiz-adv-x="948" 
d="M-47 -57q72 34 129.5 76t106.5 101.5t87 123t77.5 158.5t71.5 187t75 230q22 72 43.5 130t60.5 135t82 133t107.5 104.5t138.5 69.5h-453l10 16h965q224 217 459 217q91 0 180 -27l-6 -20q-85 29 -174 29q-110 0 -214 -46.5t-192 -127.5t-174.5 -186.5t-171.5 -226.5
t-172 -245.5t-187 -246t-205 -224t-237 -184t-274 -121.5q-56 -40 -117 -78zM121 25q128 43 248 120t219 174.5t189.5 207t176 229.5t161 228.5t161.5 219.5t162 187h-396q-76 0 -139 -34.5t-100.5 -73t-79.5 -132t-58.5 -143t-54.5 -174.5q-12 -39 -18 -58
q-80 -255 -185.5 -432.5t-285.5 -318.5z" />
    <glyph glyph-name="W" unicode="W" horiz-adv-x="1470" 
d="M-35 -55q66 37 121.5 80t97 86.5t78.5 101t63 109t54.5 125t49.5 135.5t50 153q18 55 27 84q61 187 116 287q127 233 318 285h-461l15 16h1464q224 217 465 217q87 0 180 -27l-6 -18q-85 29 -174 29q-111 0 -214.5 -45t-191 -123.5t-172 -181t-167.5 -222t-167.5 -241.5
t-181.5 -244t-200.5 -225.5t-234 -189.5t-271.5 -134q-41 -30 -117 -80l-8 23q66 37 121 80t97 87.5t78 100.5t63 109.5t55 125.5t49.5 136.5t50.5 153.5q17 53 26 81q46 141 74 205q-200 -293 -242 -350q-224 -308 -431 -472q-165 -130 -349 -200q-41 -30 -117 -80zM137 41
q88 38 171.5 91.5t152 110t140.5 132.5t126 141t120 155.5t111.5 157t112 164t109.5 158.5q124 193 290 240h-421q-56 0 -104.5 -16.5t-85 -44.5t-68.5 -69.5t-55 -87t-44.5 -102t-38 -109.5t-34.5 -114l-21 -72q-35 -113 -71 -202t-89.5 -184t-128.5 -182.5t-172 -166.5z
M664 35q145 57 281 158t238 215t207.5 253t187 261.5t181 253t183.5 215.5h-367q-64 0 -116.5 -18t-95 -67t-69 -82.5t-58.5 -119.5t-43 -119t-41 -136q-15 -49 -22 -73q-36 -115 -72 -203.5t-90 -185t-129.5 -184.5t-174.5 -168z" />
    <glyph glyph-name="X" unicode="X" horiz-adv-x="1247" 
d="M834 -35q-86 0 -137.5 61.5t-51.5 178.5q0 115 38.5 219t113.5 227q-183 -223 -395 -402t-361 -231h367l-7 -18h-600l15 27q79 -9 100 -9q93 0 221 67.5t258.5 178t258 247t229.5 277.5l166 265q107 169 144.5 252t37.5 147q0 54 -22.5 81.5t-75.5 27.5
q-146 0 -345.5 -197t-433.5 -555h-18q495 768 797 768q129 0 129 -170h720l-10 -16h-100q-140 -31 -289.5 -100.5t-298.5 -184.5t-246 -250l-159 -258q-102 -163 -145.5 -262t-43.5 -186q0 -80 40.5 -122t103.5 -42q179 0 389 313l47 70q10 8 18 0l-47 -70
q-108 -159 -208 -246.5t-199 -87.5zM1102 956q138 154 328 268.5t374 166.5h-542q-6 -181 -136 -394z" />
    <glyph glyph-name="Y" unicode="Y" horiz-adv-x="1597" 
d="M793 14q-70 0 -112 55.5t-42 168.5q0 204 190 505l33 54h-82q-121 0 -208 24t-132 64.5t-64.5 84t-19.5 93.5q0 96 70.5 195.5t178 174.5t243 123t258.5 48q91 0 133.5 -34.5t42.5 -127.5q0 -100 -48 -205.5t-147 -263.5l-151 -242q-137 -220 -197.5 -349.5t-60.5 -213.5
q0 -67 30 -102t85 -35q101 0 220.5 123.5t276.5 369.5l502 811l117 56h-310l11 16h516l-10 -16h-172l-400 -641q-100 -163 -259.5 -460.5t-197.5 -363.5l-2 -4q146 22 255.5 111t234.5 270l45 66q12 6 18 0l-47 -68q-88 -127 -160 -203t-160.5 -125.5t-195.5 -64.5
q-59 -99 -120 -184.5t-138.5 -168t-156 -140t-172 -93t-187.5 -35.5q-155 0 -236 81t-81 194q0 71 34 138t95.5 120.5t157.5 86t210 32.5q49 0 235.5 -10t258.5 -11l14 25q48 79 154 267.5t162 281.5h-15q-156 -238 -275.5 -358t-221.5 -120zM0 -436q0 -103 71.5 -177.5
t207.5 -74.5q81 0 160 32t145.5 83t135.5 130.5t125 159.5t120 185q-74 1 -255 10.5t-229 9.5q-111 0 -204 -31t-152.5 -81.5t-92 -114t-32.5 -131.5zM375 1061q0 -36 9.5 -68t37.5 -65.5t72 -57.5t118.5 -39.5t171.5 -15.5h90l181 285q77 122 108.5 174.5t57 112
t26.5 102.5q0 54 -32 76t-107 22q-123 0 -255 -46.5t-237 -119.5t-173 -169.5t-68 -190.5z" />
    <glyph glyph-name="Z" unicode="Z" horiz-adv-x="1101" 
d="M-258 -715q-130 0 -204.5 62t-74.5 159q0 41 16 78t40 66t66 55.5t81 45.5t98 38t104 30.5t113 25.5t110.5 21t110 18.5t99.5 17.5q168 29 295 67q164 285 170 525q3 198 -127 198q-95 0 -154 -86l-59 -90l-47 35q48 51 117 100l731 676h-682l45 80h717l34 39l23 -12
l-801 -742l4 -2q49 21 90 21q97 0 147 -78t48 -207q-3 -192 -111 -403q129 58 216 139t169 207q10 7 17 0q-88 -135 -181 -221.5t-233 -147.5q-39 -71 -59 -100q-78 -122 -181.5 -231t-223 -195.5t-256 -137.5t-267.5 -51zM-520 -496q0 -89 69.5 -144.5t192.5 -55.5
q114 0 233.5 52t226 140.5t198 195.5t165.5 226l19 31q-113 -34 -285 -66q-32 -6 -96.5 -16.5t-107 -18t-108 -20.5t-110.5 -24.5t-102 -29.5t-96 -36t-79.5 -43.5t-64.5 -53t-39.5 -62.5t-15.5 -75z" />
    <glyph glyph-name="bracketleft" unicode="[" horiz-adv-x="829" 
d="M-197 -362l1244 1990h333l-12 -18h-233l-1219 -1954h236l-13 -18h-336z" />
    <glyph glyph-name="backslash" unicode="\" horiz-adv-x="1208" 
d="M946 -309l-332 1843h31l330 -1843h-29z" />
    <glyph glyph-name="bracketright" unicode="]" horiz-adv-x="796" 
d="M-246 -362l13 18h233l1219 1954h-236l12 18h336l-1243 -1990h-334z" />
    <glyph glyph-name="asciicircum" unicode="^" horiz-adv-x="935" 
d="M424 700l510 703l2 2h41v-705h-43v660l-477 -660h-33z" />
    <glyph glyph-name="underscore" unicode="_" horiz-adv-x="1099" 
d="M-123 -197l10 21h873l-10 -21h-873z" />
    <glyph glyph-name="a" unicode="a" horiz-adv-x="743" 
d="M424 -14q-84 0 -84 123q0 61 22 143h-8q-100 -141 -166.5 -203.5t-121.5 -62.5q-52 0 -77.5 46.5t-25.5 112.5q0 142 103 299q84 126 203.5 195.5t256.5 69.5q54 0 129 -17h70l-229 -358q-75 -118 -102 -174t-27 -97q0 -63 57 -63t124 68t161 213l59 88q10 6 16 0
l-59 -93q-98 -148 -168.5 -219t-132.5 -71zM6 76q0 -36 17 -56t45 -20q52 0 124.5 73t180.5 230l98 154l143 215q-40 24 -102 24q-98 0 -184 -69t-176 -205q-65 -96 -105.5 -188.5t-40.5 -157.5z" />
    <glyph glyph-name="b" unicode="b" horiz-adv-x="649" 
d="M72 -12q-117 0 -117 153q0 75 29 147.5t100 184.5l578 918h-361l10 16h307q65 0 108 20.5t79 71.5h22l-503 -807h120q59 0 89 -52t30 -122q0 -66 -31 -143h193q3 -7 -10 -17h-189q-8 -23 -39 -73q-75 -122 -193 -209.5t-222 -87.5zM-4 84q0 -80 76 -80q73 0 162 86.5
t169 214.5l43 76l-131 297l-139 -223q-105 -169 -142.5 -247.5t-37.5 -123.5zM334 678l123 -277q61 122 61 195q0 39 -20 60.5t-54 21.5h-110z" />
    <glyph glyph-name="c" unicode="c" horiz-adv-x="497" 
d="M109 -12q-62 0 -97 51.5t-35 136.5q0 132 93 281q70 111 169 181.5t199 70.5q50 0 84 -27l-39 -59q-10 24 -16.5 35.5t-19.5 22.5t-29 11q-51 0 -119.5 -69t-136.5 -183q-131 -218 -131 -342q0 -94 82 -94q83 0 180 87.5t227 277.5q4 5 11 5t8 -5q-135 -197 -237.5 -289
t-192.5 -92z" />
    <glyph glyph-name="d" unicode="d" horiz-adv-x="772" 
d="M442 -12q-96 0 -96 139q0 65 25 135h-9q-107 -149 -175 -213.5t-124 -64.5q-52 0 -77 46.5t-25 112.5q0 143 102 299q84 126 204 195.5t257 69.5q42 0 97 -9l436 693h-348l10 16h297q63 0 108.5 21t79.5 71h21l-688 -1102q-53 -85 -69.5 -112t-44.5 -77.5t-36 -78.5
t-8 -55q0 -72 61 -72q63 0 130.5 66.5t158.5 199.5l68 101q11 5 16 0l-72 -107q-91 -136 -160.5 -205t-138.5 -69zM4 74q0 -36 17 -56t45 -20q52 0 124.5 73t180.5 230l137 217l98 156q-45 20 -96 20q-98 0 -184 -69t-176 -205q-65 -96 -105.5 -188.5t-40.5 -157.5z" />
    <glyph glyph-name="e" unicode="e" horiz-adv-x="493" 
d="M111 -12q-62 0 -96.5 51t-34.5 133q0 141 88 279q69 111 171 184.5t181 73.5q65 0 65 -60q0 -62 -86 -135q-107 -90 -276 -139q-92 -169 -92 -275q0 -96 84 -96q81 0 177 86t226 279q4 5 10 5t7 -5q-133 -200 -234.5 -290.5t-189.5 -90.5zM129 389q70 22 140.5 60.5
t121.5 82.5q78 71 78 123q0 39 -41 39q-58 0 -130.5 -73t-143.5 -191z" />
    <glyph glyph-name="f" unicode="f" horiz-adv-x="516" 
d="M-801 -647q126 -12 168 -12q117 0 203.5 105t333.5 521l424 711h-189q6 12 8 14h189l151 254q165 274 300.5 417.5t226.5 143.5q33 0 48 -19.5t15 -49.5q0 -52 -38 -126.5t-113.5 -169t-204 -212t-293.5 -238.5h287q0 -6 -8 -14h-13q-56 0 -104.5 -10t-85 -24.5
t-71.5 -42t-57.5 -50t-50.5 -61.5t-43.5 -65t-41.5 -70l-21 -36l-178 -299q-61 -101 -102 -167.5t-100 -151.5t-107.5 -142.5t-108.5 -112t-119 -87.5q-18 -10 -35.5 -18.5t-38.5 -14t-34.5 -10t-38.5 -7t-35 -4.5t-39 -2.5t-36.5 -0.5h-41.5h-39zM293 475h6
q60 83 126 133.5t159 69.5h-168zM438 715q161 119 285.5 236t195.5 210t106.5 165t35.5 120q0 47 -43 47q-30 0 -66 -25.5t-71.5 -65.5t-88 -116.5t-98.5 -150.5t-119 -195z" />
    <glyph glyph-name="g" unicode="g" horiz-adv-x="729" 
d="M-362 -713q-97 0 -97 101q0 49 28 107t87.5 126t168.5 145t255 150l108 57l168 269h-6q-91 -122 -157 -178.5t-121 -57.5q-53 0 -77 48t-24 112q0 137 99 285q84 124 206.5 192t253.5 66q47 0 117 -17h76l-205 -327q-26 -42 -107.5 -178t-107.5 -179q176 77 260.5 143
t190.5 218q10 6 16 0q-108 -160 -197.5 -229.5t-279.5 -149.5l-8 -13q-65 -109 -123.5 -198t-130.5 -184.5t-135.5 -160t-131.5 -106t-126 -41.5zM-442 -610q0 -86 71 -86q86 0 205.5 144.5t308.5 451.5l31 51l-88 -47q-143 -71 -250 -147t-165 -142.5t-85 -122.5t-28 -102z
M14 96q0 -73 58 -73q97 0 264 223q97 143 153 235l119 189q-31 24 -90 24q-183 3 -364 -264q-140 -210 -140 -334z" />
    <glyph glyph-name="h" unicode="h" horiz-adv-x="811" 
d="M-86 0l864 1391h-364l10 16h315q63 0 108 21t79 71h22l-667 -1050h12q207 260 338 260q80 0 80 -111q0 -54 -21.5 -106t-77.5 -127l-71 -97q-63 -84 -90 -132.5t-27 -80.5q0 -26 14 -41.5t41 -15.5q62 0 131 71t168 218l56 82q12 6 18 0l-55 -82q-48 -71 -80.5 -114.5
t-76 -92.5t-84 -72.5t-79.5 -23.5q-47 0 -67.5 34t-20.5 84q0 57 28.5 119t94.5 150l74 98q90 116 90 176q0 45 -49 45q-81 0 -204 -120t-257 -328l-152 -242h-100z" />
    <glyph glyph-name="i" unicode="i" horiz-adv-x="395" 
d="M80 -12q-47 0 -67.5 35t-20.5 86q0 81 32.5 160t106.5 196l127 201l-4 12h-90q0 9 8 14h190l5 -14l-170 -268q-108 -170 -142.5 -236t-34.5 -111q0 -61 60 -61q59 0 122 66t150 198l68 103q11 5 16 0l-71 -109q-43 -66 -74.5 -108.5t-68.5 -83.5t-72 -60.5t-70 -19.5z
M457 1057l90 137h96l-90 -137h-96z" />
    <glyph glyph-name="j" unicode="j" horiz-adv-x="497" 
d="M-594 -709q-53 0 -77.5 28t-24.5 73q0 60 40.5 128.5t104 130.5t151.5 127t173 117t178 101l35 57l381 613l-5 12h-116q-4 8 8 14h217l4 -14l-401 -637l-13 -18q161 76 263 149t196 197q11 5 19 0q-99 -132 -207 -208.5t-283 -160.5q-72 -113 -121 -188.5t-105.5 -157
t-97 -132.5t-85.5 -99.5t-82 -74.5t-75.5 -41.5t-76.5 -15.5zM541 1057l90 137h96l-90 -137h-96zM-682 -608q0 -39 19.5 -61.5t58.5 -22.5q76 0 185.5 135.5t350.5 523.5q-110 -57 -212.5 -123t-196 -142.5t-149.5 -158t-56 -151.5z" />
    <glyph glyph-name="k" unicode="k" horiz-adv-x="770" 
d="M-88 0l868 1391h-366l10 16h315q65 0 108 20.5t79 71.5h24l-669 -1053l12 -2q99 124 194 194.5t160 70.5q42 0 64 -27.5t22 -63.5q0 -62 -57 -115t-170 -69l-2 -4q37 -40 37 -86q0 -28 -13 -55.5t-51 -81.5q-8 -12 -26.5 -37t-26.5 -36.5t-19 -30t-15.5 -32t-4.5 -26.5
q0 -45 49 -45q114 0 299 276l62 93q12 8 16 0l-63 -97q-187 -286 -314 -286q-40 0 -65 28.5t-25 79.5q0 41 17.5 76t60.5 94q8 12 20 29l18 25.5t14 20.5t11.5 19t7.5 15.5t5.5 15.5t1.5 14q0 9 -4 21h-93l9 14h32q94 0 176 73t82 138q0 43 -53 43q-79 0 -191.5 -93.5
t-219.5 -244.5l-224 -354h-102z" />
    <glyph glyph-name="l" unicode="l" horiz-adv-x="376" 
d="M43 -14q-50 0 -75 36t-25 99q0 72 32 153t115 213l565 904h-319l10 16h270q63 0 106 20.5t79 71.5h20l-684 -1100q-97 -150 -129.5 -214.5t-32.5 -114.5q0 -70 70 -70q63 0 130.5 67.5t156.5 200.5l67 101q13 6 19 0l-72 -107q-95 -139 -164 -207.5t-139 -68.5z" />
    <glyph glyph-name="m" unicode="m" horiz-adv-x="1157" 
d="M199 446q39 62 55 99.5t16 72.5q0 30 -14.5 45t-48.5 15h-76q0 6 8 14h76q41 0 61 -24.5t19 -81.5l-4 -131h8q195 254 319 254q74 0 74 -93q0 -84 -51 -176h12q203 269 328 269q78 0 78 -111q0 -54 -22 -106t-79 -127l-71 -97q-63 -84 -90 -132.5t-27 -80.5
q0 -26 14.5 -41.5t42.5 -15.5q61 0 128.5 70t170.5 219l56 82q12 8 16 0l-55 -82q-46 -69 -79 -114t-76 -93t-83.5 -72t-79.5 -24q-88 0 -88 118q0 59 27.5 120t93.5 149l76 98q90 116 90 176q0 45 -47 45q-78 0 -193.5 -118.5t-248.5 -329.5l-150 -242h-98l245 391
q130 205 130 254q0 45 -46 45q-152 0 -442 -440l-160 -250h-98z" />
    <glyph glyph-name="n" unicode="n" horiz-adv-x="813" 
d="M481 -16q-47 0 -67.5 34t-20.5 84q0 57 28.5 119t94.5 150l74 98q90 116 90 176q0 45 -49 45q-81 0 -204 -119.5t-259 -328.5l-154 -242h-98l283 446q39 62 55 99.5t16 72.5q0 30 -14.5 45t-48.5 15h-76q0 6 8 14h76q41 0 61 -24.5t19 -81.5l-4 -131h10q97 120 183.5 187
t150.5 67q80 0 80 -111q0 -54 -21.5 -106t-77.5 -127l-71 -97q-63 -84 -90 -132.5t-27 -80.5q0 -26 14 -41.5t41 -15.5q62 0 131 71t168 218l56 82q12 6 18 0l-55 -82q-48 -71 -80.5 -114.5t-76 -92.5t-84 -72.5t-79.5 -23.5z" />
    <glyph glyph-name="o" unicode="o" horiz-adv-x="563" 
d="M96 -12q-43 0 -70.5 30.5t-36.5 67t-9 78.5q0 100 42.5 201t107.5 175.5t145 121.5t151 47q56 0 80 -32.5t24 -94.5q-3 -143 -106 -314q-70 -115 -161.5 -197.5t-166.5 -82.5zM96 4q68 0 149 83.5t150 203.5q115 190 115 307q0 44 -18.5 70t-55.5 26q-58 0 -134 -73.5
t-146 -184.5q-58 -93 -94 -183.5t-37 -154.5q0 -94 71 -94z" />
    <glyph glyph-name="p" unicode="p" horiz-adv-x="798" 
d="M-291 -702q-102 8 -102 122q0 72 38.5 154.5t143.5 251.5l748 1200h92l-779 -1247q-142 -229 -179.5 -296.5t-37.5 -103.5q3 -61 70 -67l582 960q41 69 70 115.5t74.5 113.5t80.5 107.5t74 70.5t69 30q60 0 60 -93q2 -62 -26 -126t-97 -148l-45 -53q-66 -81 -98.5 -134.5
t-32.5 -93.5q0 -29 16 -44t43 -15q64 0 127.5 66.5t165.5 216.5l53 80q11 4 19 0l-54 -80q-109 -159 -175.5 -228t-135.5 -69q-41 0 -64.5 28.5t-23.5 83.5q0 120 123 269l41 49q85 104 114 149.5t29 81.5q0 45 -41 45q-32 0 -73.5 -35t-91.5 -104t-89 -130t-94 -153z" />
    <glyph glyph-name="q" unicode="q" horiz-adv-x="655" 
d="M2 -702q-51 0 -74.5 32t-23.5 84q0 72 35.5 149t134.5 234l299 475h-8q-107 -152 -178 -220t-128 -68q-52 0 -77 46.5t-25 112.5q0 143 102 299q84 126 204 195.5t257 69.5q47 0 103 -11q60 0 94 11h4l-569 -916q-131 -210 -176.5 -296t-45.5 -124q0 -29 20 -44t54 -15h8
q341 547 666 1057q11 7 18 0q-357 -560 -676 -1071h-18zM0 74q0 -36 16.5 -56t44.5 -20q52 0 124 72t180 227l147 235l90 142q-45 20 -96 20q-98 0 -184.5 -69t-176.5 -205q-65 -95 -105 -188t-40 -158z" />
    <glyph glyph-name="r" unicode="r" horiz-adv-x="550" 
d="M565 358q-110 0 -167.5 38.5t-57.5 101.5l-31 -43l-96 -144l-199 -311h-98l283 446q39 62 55 99.5t16 72.5q0 30 -14.5 45t-48.5 15h-76q0 6 8 14h76q41 0 61 -24.5t19 -81.5l-4 -127l53 69q13 67 72 123t131 56h47l-57 -84h-119q-60 -57 -60 -123q0 -60 55 -92.5
t160 -32.5h31q2 -3 -1 -8.5t-9 -8.5h-29z" />
    <glyph glyph-name="s" unicode="s" horiz-adv-x="514" 
d="M90 -12q-74 0 -120 44t-46 120q0 94 88 223h82l-6 -13q-83 -68 -133 -126q-16 -43 -16 -84q0 -64 34 -103t93 -39q45 0 79 25.5t55 75t33.5 106.5t20.5 133q1 13 5.5 53t6 55t7 47t11 50t14.5 41t21 41q50 74 144 74q46 0 84 -13l-35 -59q-3 2 -12.5 8.5t-13.5 9.5
t-12.5 8t-14.5 7.5t-14 6t-16 4.5t-17 1q-92 0 -88 -160l6 -176q1 -185 -68.5 -272.5t-171.5 -87.5z" />
    <glyph glyph-name="t" unicode="t" horiz-adv-x="401" 
d="M47 -12q-47 0 -74.5 33t-27.5 100q0 86 32 160t113 200l242 379l-13 23h-118l10 16h145l111 172q75 0 113 53h18l-143 -225h233l-12 -16h-232l-317 -500q-87 -139 -117 -198t-30 -109q0 -74 71 -74q129 0 318 281l57 86q11 5 16 0l-59 -90q-192 -291 -336 -291z" />
    <glyph glyph-name="u" unicode="u" horiz-adv-x="747" 
d="M51 -12q-42 0 -66 33t-24 98q0 66 36.5 144.5t125.5 213.5l125 189l-4 12h-86q0 12 10 14h182l4 -16l-166 -250q-17 -27 -42.5 -65.5t-38 -57.5t-31 -48t-27 -43t-20 -34.5t-16.5 -32.5t-10.5 -27t-7 -26.5t-1.5 -23.5q0 -66 57 -66q72 0 171.5 104t205.5 273l180 287
l-4 12h-84q0 9 8 14h187l4 -16l-215 -338q-83 -129 -111 -183t-28 -92q0 -61 57 -61q61 0 123.5 65.5t159.5 206.5l65 95q12 6 18 0l-67 -97q-47 -69 -79 -112t-72 -87t-76.5 -64.5t-71.5 -20.5q-86 0 -86 118q0 48 22 134h-6q-81 -114 -160.5 -183t-140.5 -69z" />
    <glyph glyph-name="v" unicode="v" horiz-adv-x="626" 
d="M119 -12q-41 0 -63.5 31.5t-22.5 91.5q0 135 123 311l53 78q54 76 69 102t15 45q0 17 -8 24t-27 7h-92q0 9 8 14h92q34 0 52 -23t18 -63q0 -43 -21.5 -88t-78.5 -123l-60 -84q-63 -90 -88 -144.5t-25 -96.5q0 -68 58 -68q66 0 164 79.5t170 184.5q104 152 104 279
q0 54 -22 93.5t-68 39.5h-10l8 14h260q0 -6 -8 -14h-121q14 -28 14 -78q0 -143 -139 -338q-81 -111 -179.5 -192.5t-174.5 -81.5z" />
    <glyph glyph-name="w" unicode="w" horiz-adv-x="952" 
d="M115 -12q-38 0 -60 32t-22 93q0 132 127 317l47 70q13 19 30.5 43t25.5 35.5t17 26t12 24.5t3 20q0 29 -35 29h-94q0 9 8 14h416q67 0 67 -88q0 -71 -67 -180l-72 -113q-79 -127 -95 -163q-17 -40 -17 -76q0 -70 53 -70q63 0 155.5 80t165.5 188q107 153 107 277
q0 54 -23 92.5t-73 38.5h-13l8 14h265q0 -8 -9 -14h-124q12 -36 12 -78q0 -149 -133 -336q-82 -114 -176.5 -195t-163.5 -81q-78 0 -78 123q0 51 14 114h-6q-85 -115 -151.5 -176t-120.5 -61zM115 2q117 0 350 367l65 106q12 20 32 50.5t27.5 42.5t17.5 29.5t13 29t3 22.5
q0 29 -33 29h-287q27 -16 27 -70q0 -43 -20.5 -88.5t-78.5 -126.5l-59 -84q-59 -80 -85 -135t-26 -102q0 -70 54 -70z" />
    <glyph glyph-name="x" unicode="x" horiz-adv-x="702" 
d="M-33 -12q-39 0 -59.5 26t-20.5 70q0 38 12 78t38.5 83.5t41 65t46.5 64.5h79l-6 -13q-80 -57 -131 -104q-61 -92 -61 -176q0 -80 63 -80q58 0 134 71.5t145 180.5l131 209q72 113 72 172q0 57 -58 57q-112 0 -258 -200q-10 0 -14 8q146 209 274 209q92 0 92 -111
q0 -42 -12 -92h6q67 98 126.5 150.5t127.5 52.5q27 0 49 -11l-32 -51q-2 2 -7 6t-7 5.5t-6.5 4.5t-6.5 4.5t-6 3.5t-6.5 3t-6 2t-7 1.5t-7.5 0.5q-83 0 -211 -209l-123 -193q-65 -105 -65 -176q0 -42 21.5 -70t62.5 -28q62 0 129.5 67.5t161.5 213.5l57 86q10 5 18 0
l-61 -93q-98 -151 -168.5 -219.5t-138.5 -68.5q-65 0 -97 52t-32 124q0 21 4 49h-10q-67 -99 -139 -162t-134 -63z" />
    <glyph glyph-name="y" unicode="y" horiz-adv-x="739" 
d="M-348 -713q-96 0 -96 101q0 49 28 107t87 126t168 145t255 150l119 61l14 25l146 238h-11q-77 -104 -156 -169t-138 -65q-43 0 -68 33t-25 96q0 70 37.5 148.5t126.5 208.5l115 174l-4 12h-92q-3 10 8 14h190l4 -16l-151 -227q-17 -25 -43 -63.5t-38 -57t-31.5 -48
t-28 -44t-21 -36t-18 -34.5t-11.5 -29t-8 -29t-2 -26q0 -62 62 -62q73 0 173.5 102t196.5 257l181 287l-5 12h-88q0 8 11 14h188l4 -16l-215 -338q-117 -188 -203 -332q125 54 192 93.5t127.5 101.5t129.5 168q12 6 18 0q-43 -67 -80 -114t-74.5 -83.5t-87 -67t-101.5 -55.5
t-134 -59l-10 -17q-41 -69 -76.5 -125t-85 -130t-93 -131t-96 -115.5t-99.5 -97t-97 -63t-94 -24.5zM-428 -610q0 -86 72 -86q90 0 217 154.5t338 496.5l-99 -51q-143 -71 -250 -147t-165 -142.5t-85 -122.5t-28 -102z" />
    <glyph glyph-name="z" unicode="z" horiz-adv-x="571" 
d="M-362 -707q-48 1 -69.5 29t-21.5 68q0 244 684 614q17 63 17 102q0 105 -80 105q-52 0 -96 -53l-35 -45l-29 24l549 490h-377l43 65h408l10 15l10 -17l-530 -473l4 -2q33 23 74 23q63 0 96 -38.5t33 -109.5q0 -107 -75 -250t-180.5 -263t-227 -203t-207.5 -81zM-438 -610
q0 -80 71 -80q63 0 153 67t174.5 167t158 219.5t106.5 220.5q-87 -48 -164 -93.5t-173.5 -112.5t-164 -127.5t-114.5 -130.5t-47 -130z" />
    <glyph glyph-name="braceleft" unicode="{" horiz-adv-x="819" 
d="M254 -362q-93 26 -140.5 82.5t-47.5 136.5q0 94 56 186.5t159 210.5q14 16 43 49t43 50t36.5 44.5t34 46t24 41.5t18 43t5.5 39q0 45 -27 77t-75 32h-168l10 16h156q40 0 77.5 14.5t67.5 35.5t62.5 59t55 70t52 84.5t46.5 87t46 92.5l43 86q20 41 39 75.5t47.5 77t57 77
t66 68t77 56.5t88.5 37t101 14l-9 -18q-55 0 -105 -25.5t-88 -63.5t-77.5 -99t-67.5 -114.5t-64 -127.5q-3 -7 -5 -11q-225 -450 -459 -485q88 -31 88 -131q0 -60 -36 -134t-74.5 -124t-104.5 -127q-53 -62 -79 -94t-59.5 -80t-47 -87t-13.5 -77q0 -63 42 -108t114 -68z" />
    <glyph glyph-name="bar" unicode="|" horiz-adv-x="628" 
d="M-102 -309l1136 1843h29l-1137 -1843h-28z" />
    <glyph glyph-name="braceright" unicode="}" horiz-adv-x="831" 
d="M-205 -346q34 0 64.5 7t59 26t51 37t50 55t46 64t47.5 80t46.5 87t51.5 101q55 107 98 184.5t96 155.5t100.5 127t103.5 80.5t112 33.5q-80 28 -80 123q0 126 180 322q56 62 86.5 100t58 93t27.5 102q0 128 -164 180l11 14q188 -55 188 -225q0 -79 -39.5 -157
t-120.5 -171q-11 -12 -33.5 -37t-33 -37t-29.5 -34t-28.5 -34.5t-23 -31t-20.5 -31.5t-14.5 -28t-10.5 -28.5t-3 -25.5q0 -44 30 -69t78 -25h115l-10 -16h-156q-32 0 -60.5 -8.5t-56 -29t-49.5 -41t-48 -60t-44.5 -70t-46.5 -85.5t-45.5 -92t-50 -105.5t-52.5 -110.5
q-211 -436 -491 -436z" />
    <glyph glyph-name="asciitilde" unicode="~" horiz-adv-x="1138" 
d="M858 393q-46 0 -93.5 20.5t-87.5 50.5t-79.5 59.5t-83.5 50t-84 20.5q-64 0 -107 -43.5t-77 -132.5l-21 10q40 98 96.5 150.5t141.5 52.5q45 0 91 -20.5t85.5 -50.5t78.5 -59.5t83 -50t86 -20.5q78 0 132 52t97 151l23 -10q-48 -110 -114.5 -170t-166.5 -60z" />
    <glyph glyph-name="exclamdown" unicode="&#xa1;" horiz-adv-x="446" 
d="M170 295l-557 -991h-96l639 991h14zM418 711l-80 -125h-86l80 125h86z" />
    <glyph glyph-name="cent" unicode="&#xa2;" horiz-adv-x="684" 
d="M295 211q-35 0 -59 18l-162 -229h-23l172 240q-45 45 -45 141q0 117 82 250q67 103 161.5 165t180.5 62q33 0 57 -6l160 223h21l-162 -227q21 -7 61 -29l-34 -43q-27 31 -46 45l-413 -579q22 -15 49 -15q133 0 344 322q14 7 18 0q-115 -174 -203 -256t-159 -82zM223 307
q0 -33 10 -51l412 575q-22 11 -45 11q-61 0 -128 -65t-122 -154q-56 -89 -91.5 -176.5t-35.5 -139.5z" />
    <glyph glyph-name="sterling" unicode="&#xa3;" horiz-adv-x="1193" 
d="M74 -27q-88 0 -127 33t-39 74q0 46 50.5 76t133.5 26q82 -4 219 -67q77 87 154 233h-307l10 17h305q22 46 59 126.5t48 104.5q246 534 479 534q66 0 102.5 -41t30.5 -108q-8 -95 -89 -187t-190 -153l-10 41q112 61 187.5 138.5t83.5 160.5q6 57 -22 94t-85 37
q-28 0 -54 -9t-50 -29.5t-44.5 -42.5t-43 -58t-39 -65.5t-38.5 -76t-36 -78t-36.5 -84t-35.5 -81.5q-55 -126 -110 -223h335l-10 -17h-336q-97 -165 -207 -258q85 -41 153 -62.5t144 -21.5q148 0 250 90.5t131 253.5l27 -8q-31 -165 -141 -260.5t-267 -95.5q-56 0 -117 16
t-95 30.5t-99 45.5q-130 -105 -274 -105zM-72 80q0 -34 33.5 -61t99.5 -27q130 0 238 108q-122 59 -209 64q-79 6 -120.5 -19t-41.5 -65z" />
    <glyph glyph-name="currency" unicode="&#xa4;" horiz-adv-x="768" 
d="M340 240q-83 0 -115 63l-184 -139l-12 16l190 144q-23 77 35 184q55 104 149 176l-41 143l21 7l39 -138q95 66 176 66q87 0 115 -64l184 140l12 -17l-188 -143q20 -76 -33 -180q-55 -108 -153 -183l40 -139l-20 -6l-39 133q-91 -63 -176 -63zM340 260q84 0 178.5 71
t149.5 177q51 101 29.5 167t-99.5 66q-83 0 -177 -69.5t-147 -173.5q-54 -104 -33 -171t99 -67z" />
    <glyph glyph-name="yen" unicode="&#xa5;" horiz-adv-x="1185" 
d="M659 498l15 22h-150q-81 0 -138.5 16.5t-87.5 44.5t-43 59t-13 67q0 89 78 183t198 155t234 61q176 0 176 -174q0 -146 -133 -350h8q171 252 363.5 410.5t363.5 158.5l-12 -25q-88 0 -185.5 -47.5t-191.5 -132t-180 -185.5t-168 -222h290l-14 -19h-291l-47 -74l-2 -2h303
l-12 -18h-301l-221 -354l-99 -54h289l-12 -18h-531l13 18h200l256 408h-321l12 18h322zM258 707q0 -168 266 -168h160q74 119 109.5 179.5t65.5 135t30 127.5q0 109 -144 109q-82 0 -170 -34.5t-157.5 -88t-114.5 -123.5t-45 -137z" />
    <glyph glyph-name="brokenbar" unicode="&#xa6;" horiz-adv-x="628" 
d="M-102 -309l426 692h28l-426 -692h-28zM635 885l399 649h29l-399 -649h-29z" />
    <glyph glyph-name="section" unicode="&#xa7;" horiz-adv-x="763" 
d="M-291 -158q56 0 108.5 17t96 46t87 76.5t79.5 98.5t75 122.5t71 137.5t71 154l117 258q100 226 220.5 342t287.5 116q38 73 73.5 131t80.5 113.5t90.5 92t101 59t114.5 22.5l-8 -16q-43 0 -80.5 -9.5t-70 -31t-59 -46t-53.5 -65.5t-47.5 -77t-46.5 -92.5t-45 -100.5
t-48.5 -113t-51.5 -119l-116 -258q-106 -234 -230 -351t-290 -107q-75 -121 -156 -210.5t-181.5 -148.5t-199.5 -59zM244 256q47 -2 89 9t75 28.5t66 51.5t57 66.5t54 86.5t50.5 97.5t52.5 113.5l119 262q87 190 106 227q-40 0 -75.5 -8t-67 -25.5t-57.5 -38t-52 -54.5
t-47 -65t-45.5 -78.5t-43 -87t-44.5 -98.5l-119 -262q-47 -108 -118 -225z" />
    <glyph glyph-name="copyright" unicode="&#xa9;" horiz-adv-x="1032" 
d="M303 -61q91 0 197 65t203.5 170t189.5 240.5t159 274t107 273t39 234.5q0 201 -160 201q-93 0 -202.5 -56t-212 -148t-199.5 -215.5t-169 -253.5t-115.5 -267.5t-43.5 -253.5q0 -125 53.5 -194.5t153.5 -69.5zM303 -82q-109 0 -168 76.5t-59 208.5q0 118 44 258
t117 272.5t172 258t204 219t217 150t208 56.5q92 0 136.5 -58.5t44.5 -162.5q1 -102 -39.5 -239t-109 -277.5t-162 -278.5t-193 -244.5t-209 -172.5t-203.5 -66zM442 217q76 0 177 109.5t258 345.5q0 4 -7.5 4t-11.5 -4q-156 -230 -249.5 -332t-164.5 -102q-72 0 -63 90
q11 138 205 448q87 138 156.5 214.5t121.5 76.5q24 0 39 -20.5t29 -61.5l37 59q-34 39 -86 39q-68 0 -143.5 -43.5t-141 -115.5t-120.5 -159t-90 -180t-42 -173q-8 -85 15 -140t81 -55z" />
    <glyph glyph-name="ordfeminine" unicode="&#xaa;" horiz-adv-x="718" 
d="M422 692q-39 0 -57.5 37t-18.5 84q0 87 60 178q54 87 141.5 140t177.5 53q47 0 86 -10h66l-181 -281q-37 -59 -50 -88t-13 -53q0 -43 41 -43q38 0 82.5 47t109.5 149l33 49h16l-32 -51q-74 -115 -121.5 -162t-87.5 -47q-32 0 -52 21t-20 65q0 31 16 74h-10
q-60 -81 -104 -121.5t-82 -40.5zM227 623l13 16h544l-12 -16h-545zM426 707q69 0 201 200l164 252q-30 12 -70 12q-126 0 -250 -198q-84 -137 -84 -215q0 -51 39 -51z" />
    <glyph glyph-name="guillemotleft" unicode="&#xab;" horiz-adv-x="946" 
d="M436 135q-122 168 -219 260l16 29q273 118 424 225l5 -14q-217 -143 -375 -223l157 -269zM672 115q-122 168 -219 260l16 28q269 117 424 226l4 -15q-217 -143 -375 -223l158 -268z" />
    <glyph glyph-name="logicalnot" unicode="&#xac;" horiz-adv-x="1230" 
d="M883 98v387h-699v27h729v-414h-30z" />
    <glyph glyph-name="registered" unicode="&#xae;" horiz-adv-x="1130" 
d="M786 690q-118 0 -180 59.5t-65 165.5q-3 91 37.5 184.5t110.5 168.5t171 122.5t209 47.5q119 0 181 -59t65 -152q4 -87 -38 -182.5t-112.5 -173.5t-171.5 -129.5t-207 -51.5zM625 879l10 14h70l253 407h-71l8 15h172q57 0 87 -19t30 -51q0 -52 -50.5 -77t-125.5 -25v-4
q59 -12 59 -66q0 -30 -27 -82l-22 -43q-17 -33 -17 -41q0 -18 29 -18q21 0 39 6l-8 -14q-21 -7 -39 -7q-29 0 -48.5 13.5t-19.5 40.5q0 26 29 82q3 5 11 19t11 20.5t8 17.5t7 19t2 16q0 18 -12.5 25.5t-42.5 7.5h-45l-134 -215l-57 -27h129l-6 -14h-229zM786 707
q102 0 200 49.5t166 125.5t108 168.5t36 176.5q-3 88 -59 140t-168 52q-139 0 -260.5 -77t-188.5 -193t-63 -234q3 -98 60.5 -153t168.5 -55zM930 1149h41q72 0 117 28.5t45 75.5t-70 47h-39z" />
    <glyph glyph-name="degree" unicode="&#xb0;" horiz-adv-x="528" 
d="M569 784q-74 0 -127 54t-53 129t53 128.5t127 53.5q76 0 130.5 -53.5t54.5 -128.5t-54.5 -129t-130.5 -54zM569 807q69 0 116.5 46.5t47.5 113.5q0 68 -47.5 114.5t-116.5 46.5q-66 0 -111.5 -46.5t-45.5 -114.5q0 -67 45.5 -113.5t111.5 -46.5z" />
    <glyph glyph-name="plusminus" unicode="&#xb1;" horiz-adv-x="1032" 
d="M596 324v346h-371v24h371v346h29v-346h368v-24h-368v-346h-29zM209 211v25h809v-25h-809z" />
    <glyph glyph-name="uni00B2" unicode="&#xb2;" horiz-adv-x="530" 
d="M776 866q-28 0 -53.5 17.5t-42.5 38t-39 38t-43 17.5q-53 0 -53 -84v-21h-62q22 51 51 91t66 69t66 46.5t73 39.5q25 11 34.5 15.5t32.5 16.5t33.5 20.5t26.5 23t23.5 29t13.5 34t6 41.5q0 99 -92 99q-51 0 -86 -28.5t-35 -74.5q0 -37 29 -69l-43 -23q-39 69 9 138
t151 69q63 0 98 -26.5t35 -77.5q0 -25 -8.5 -47t-27.5 -41t-36 -32.5t-47 -28t-46.5 -22t-47.5 -20.5q-71 -33 -116 -61.5t-75 -71.5q13 10 35 10t48.5 -17.5t59 -34.5t70.5 -17q41 0 64 18.5t49 63.5l29 51q8 4 12 -4l-29 -52q-41 -73 -69.5 -103t-63.5 -30z" />
    <glyph glyph-name="uni00B3" unicode="&#xb3;" horiz-adv-x="450" 
d="M434 895q10 -2 35 -2q89 0 171 34.5t131 90.5t48 115q-3 73 -67 73q-30 0 -52 -14l-38 -41l-17 20l305 193h-264l31 43h299l16 10l10 -10l-313 -195l4 -2q35 7 43 7q42 0 74 -24.5t33 -70.5q2 -63 -58 -119.5t-158.5 -90t-205.5 -33.5h-19z" />
    <glyph glyph-name="uni00B5" unicode="&#xb5;" horiz-adv-x="815" 
d="M-39 -692q-207 75 -207 297q0 162 109.5 384t337.5 550l106 153h103l-248 -366q-72 -107 -99.5 -162t-27.5 -98q0 -62 63 -62q59 0 148 86.5t190 247.5l162 258q41 62 51 96h113l-227 -362q-105 -168 -121 -204q-15 -35 -15 -65q0 -59 60 -59q58 0 125 65.5t159 208.5
l62 93q10 6 16 0l-61 -95q-94 -148 -166 -218t-135 -70q-97 0 -84 155q0 16 3 32t8.5 36.5t6.5 26.5h-8q-90 -127 -162 -188.5t-137 -61.5q-51 0 -80 31.5t-29 82.5v15q-202 -332 -202 -512q0 -192 207 -258z" />
    <glyph glyph-name="paragraph" unicode="&#xb6;" horiz-adv-x="989" 
d="M-258 -176l25 31h69q58 0 107 7t95 25.5t84.5 41t80.5 62t77 80t80.5 104t85 124.5t95.5 150l227 362q-178 1 -248 109q-58 89 -19 209q39 121 155 199q118 79 274 79h577l-10 -16h-133l-598 -957q-133 -213 -252.5 -306.5t-259.5 -113.5q-98 -99 -201 -144.5t-235 -45.5
h-76zM279 39q129 17 230.5 105t233.5 298l592 949h-176l-598 -957q-167 -269 -282 -395z" />
    <glyph glyph-name="periodcentered" unicode="&#xb7;" horiz-adv-x="378" 
d="M121 354l80 125h86l-80 -125h-86z" />
    <glyph glyph-name="uni00B9" unicode="&#xb9;" horiz-adv-x="569" 
d="M444 879l11 16h161l248 371h-6q-77 -54 -242 -129l-6 14q277 114 389 264l15 -10l-328 -510h195l-9 -16h-428z" />
    <glyph glyph-name="ordmasculine" unicode="&#xba;" horiz-adv-x="595" 
d="M457 692q-42 0 -63 38.5t-21 92.5q0 87 51.5 172.5t124.5 137t137 51.5q74 0 74 -94q-3 -100 -70 -209q9 -9 19 -9q31 0 65.5 37.5t65.5 98.5l12 -7q-35 -75 -73 -108t-70 -33q-18 0 -27 6q-49 -72 -112 -123t-113 -51zM207 623l10 16h488l-13 -16h-485zM461 707
q48 0 105.5 53.5t101.5 126.5q-2 4 -2 16q0 30 17.5 71.5t43.5 76.5l8 -4q6 30 6 55q0 67 -45 67q-53 0 -119.5 -74t-111.5 -168t-47 -155q0 -65 43 -65z" />
    <glyph glyph-name="guillemotright" unicode="&#xbb;" horiz-adv-x="937" 
d="M78 150q195 124 368 221l-157 266l8 8q122 -168 219 -260l-16 -29q-160 -61 -422 -225v19zM315 129q188 119 369 221l-158 266l9 9q122 -168 219 -260l-17 -29q-160 -61 -422 -225v18z" />
    <glyph glyph-name="onequarter" unicode="&#xbc;" horiz-adv-x="827" 
d="M197 623q0 9 10 16h307l248 379h-6q-84 -60 -242 -131l-6 14q137 58 232.5 121.5t156.5 146.5l14 -10l-327 -520h329q0 -9 -10 -16h-706zM37 0l10 16h129l103 160l-213 -6l-5 23l496 352h25l-222 -350l111 4l-8 -17l-111 -4l-84 -133l-69 -29h192l-8 -16h-346zM86 193
l2 -9l201 6l170 263l-8 2z" />
    <glyph glyph-name="onehalf" unicode="&#xbd;" horiz-adv-x="827" 
d="M197 623q0 9 10 16h305l248 379h-6q-84 -60 -242 -131l-6 14q137 58 232.5 121.5t156.5 146.5l14 -10l-327 -520h331q0 -9 -10 -16h-706zM436 -6q-28 0 -53.5 17t-42.5 38t-39 38t-43 17q-53 0 -53 -84v-20h-62q22 52 51 92.5t66.5 69.5t66 46.5t72.5 39.5q85 40 114 65
q56 47 56 119q0 98 -92 98q-51 0 -86 -28t-35 -74q0 -40 29 -72l-43 -22q-39 71 9 141t151 70q62 0 97.5 -27.5t35.5 -79.5q0 -36 -18 -66.5t-51.5 -53t-63 -37.5t-70.5 -33q-7 -3 -10 -4q-48 -22 -75.5 -36.5t-61 -41t-54.5 -57.5q13 10 35 10t48.5 -17.5t59 -35
t70.5 -17.5q41 0 64 19t49 65l29 51q8 4 12 -4l-29 -51q-41 -74 -69.5 -104.5t-63.5 -30.5z" />
    <glyph glyph-name="threequarters" unicode="&#xbe;" horiz-adv-x="827" 
d="M371 641q10 -2 35 -2q89 0 171 35.5t131 93t48 117.5q-3 73 -68 73q-29 0 -51 -14l-39 -41l-16 21l305 196h-264l30 43h299l17 13l10 -13l-313 -198l4 -2q20 8 43 8q42 0 73.5 -25t32.5 -72q3 -76 -80.5 -142t-208.5 -93h383q0 -9 -10 -16h-706q0 9 10 16h166zM55 0
l11 16h129l102 160l-213 -6l-4 23l495 352h25l-221 -350l110 4l-8 -17l-110 -4l-84 -133l-70 -29h193l-9 -16h-346zM104 193l2 -9l201 6l170 263l-8 2z" />
    <glyph glyph-name="questiondown" unicode="&#xbf;" horiz-adv-x="747" 
d="M397 299q-72 -171 -163 -274.5t-216 -192.5q-14 -10 -58 -41.5t-60.5 -43.5t-53 -41t-52.5 -46t-41 -46t-35.5 -52t-19.5 -53t-9 -60q0 -64 39 -100.5t118 -36.5q97 0 166 53.5t88.5 141.5t-16.5 200l61 27q18 -63 17.5 -125t-27 -119t-68 -100t-104.5 -69t-137 -26
q-117 0 -171.5 55.5t-49.5 133.5q2 40 21 77t44.5 64.5t70 59.5t80.5 53.5t94 55.5t93 56q47 29 86 60.5t67 58.5t53.5 63.5t40.5 61.5t33.5 67t27.5 66t26 72h55zM600 711l-80 -125h-86l80 125h86z" />
    <glyph glyph-name="Agrave" unicode="&#xc0;" horiz-adv-x="1259" 
d="M-586 -309q-146 0 -250 49l-2 27q111 -54 252 -54q92 0 183 21.5t172 55.5t171 93.5t164.5 118.5t168.5 148.5t168 165t177 186.5l193 207h-301l16 16h301l668 715h31q69 0 106 43h25l-637 -1028q-85 -139 -113 -187t-50.5 -102t-22.5 -94q0 -72 71 -72q74 0 148.5 70.5
t175.5 220.5l53 78q12 6 18 0l-55 -82q-104 -153 -182.5 -228t-157.5 -75q-56 0 -83 41.5t-27 101.5q0 84 38 179t136 249l98 154h-229l-205 -220q-104 -111 -179.5 -188.5t-171 -167.5t-171.5 -150t-166.5 -120t-172.5 -94.5t-174 -56t-184 -21.5zM1673 1540l-356 131
l26 45l334 -166zM852 725h225l443 696h-19z" />
    <glyph glyph-name="Aacute" unicode="&#xc1;" horiz-adv-x="1259" 
d="M-586 -309q-146 0 -250 49l-2 27q111 -54 252 -54q92 0 183 21.5t172 55.5t171 93.5t164.5 118.5t168.5 148.5t168 165t177 186.5l193 207h-301l16 16h301l668 715h31q69 0 106 43h25l-637 -1028q-85 -139 -113 -187t-50.5 -102t-22.5 -94q0 -72 71 -72q74 0 148.5 70.5
t175.5 220.5l53 78q12 6 18 0l-55 -82q-104 -153 -182.5 -228t-157.5 -75q-56 0 -83 41.5t-27 101.5q0 84 38 179t136 249l98 154h-229l-205 -220q-104 -111 -179.5 -188.5t-171 -167.5t-171.5 -150t-166.5 -120t-172.5 -94.5t-174 -56t-184 -21.5zM1573 1540l-4 10l366 168
l7 -51zM852 725h225l443 696h-19z" />
    <glyph glyph-name="Acircumflex" unicode="&#xc2;" horiz-adv-x="1259" 
d="M-586 -309q-146 0 -250 49l-2 27q111 -54 252 -54q92 0 183 21.5t172 55.5t171 93.5t164.5 118.5t168.5 148.5t168 165t177 186.5l193 207h-301l16 16h301l668 715h31q69 0 106 43h25l-637 -1028q-85 -139 -113 -187t-50.5 -102t-22.5 -94q0 -72 71 -72q74 0 148.5 70.5
t175.5 220.5l53 78q12 6 18 0l-55 -82q-104 -153 -182.5 -228t-157.5 -75q-56 0 -83 41.5t-27 101.5q0 84 38 179t136 249l98 154h-229l-205 -220q-104 -111 -179.5 -188.5t-171 -167.5t-171.5 -150t-166.5 -120t-172.5 -94.5t-174 -56t-184 -21.5zM1411 1534l-8 10l321 189
h19l33 -197h-17l-57 145zM852 725h225l443 696h-19z" />
    <glyph glyph-name="Atilde" unicode="&#xc3;" horiz-adv-x="1259" 
d="M-586 -309q-146 0 -250 49l-2 27q111 -54 252 -54q92 0 183 21.5t172 55.5t171 93.5t164.5 118.5t168.5 148.5t168 165t177 186.5l193 207h-301l16 16h301l668 715h31q69 0 106 43h25l-637 -1028q-85 -139 -113 -187t-50.5 -102t-22.5 -94q0 -72 71 -72q74 0 148.5 70.5
t175.5 220.5l53 78q12 6 18 0l-55 -82q-104 -153 -182.5 -228t-157.5 -75q-56 0 -83 41.5t-27 101.5q0 84 38 179t136 249l98 154h-229l-205 -220q-104 -111 -179.5 -188.5t-171 -167.5t-171.5 -150t-166.5 -120t-172.5 -94.5t-174 -56t-184 -21.5zM1714 1513
q-28 0 -52.5 21t-39 46t-35.5 46t-43 21q-31 0 -60.5 -26.5t-78.5 -92.5l-12 10q64 83 102 118.5t78 35.5q28 0 53 -22.5t41 -49.5t37 -49.5t41 -22.5q19 0 32 15t13 43q0 32 -25 63l19 6q20 -42 20 -67q0 -41 -26.5 -68t-63.5 -27zM852 725h225l443 696h-19z" />
    <glyph glyph-name="Adieresis" unicode="&#xc4;" horiz-adv-x="1259" 
d="M-586 -309q-146 0 -250 49l-2 27q111 -54 252 -54q92 0 183 21.5t172 55.5t171 93.5t164.5 118.5t168.5 148.5t168 165t177 186.5l193 207h-301l16 16h301l668 715h31q69 0 106 43h25l-637 -1028q-85 -139 -113 -187t-50.5 -102t-22.5 -94q0 -72 71 -72q74 0 148.5 70.5
t175.5 220.5l53 78q12 6 18 0l-55 -82q-104 -153 -182.5 -228t-157.5 -75q-56 0 -83 41.5t-27 101.5q0 84 38 179t136 249l98 154h-229l-205 -220q-104 -111 -179.5 -188.5t-171 -167.5t-171.5 -150t-166.5 -120t-172.5 -94.5t-174 -56t-184 -21.5zM1696 1591l63 103h82
l-61 -103h-84zM1526 1591l63 103h80l-61 -103h-82zM852 725h225l443 696h-19z" />
    <glyph glyph-name="Aring" unicode="&#xc5;" horiz-adv-x="1259" 
d="M-586 -309q-146 0 -250 49l-2 27q111 -54 252 -54q92 0 183 21.5t172 55.5t171 93.5t164.5 118.5t168.5 148.5t168 165t177 186.5l193 207h-301l16 16h301l668 715h31q69 0 106 43h25l-637 -1028q-85 -139 -113 -187t-50.5 -102t-22.5 -94q0 -72 71 -72q74 0 148.5 70.5
t175.5 220.5l53 78q12 6 18 0l-55 -82q-104 -153 -182.5 -228t-157.5 -75q-56 0 -83 41.5t-27 101.5q0 84 38 179t136 249l98 154h-229l-205 -220q-104 -111 -179.5 -188.5t-171 -167.5t-171.5 -150t-166.5 -120t-172.5 -94.5t-174 -56t-184 -21.5zM1585 1536
q-31 0 -51.5 24t-20.5 62q0 55 39 94t95 39q67 0 67 -69q0 -60 -40 -105t-89 -45zM1585 1548q45 0 80 42t35 98q0 53 -43 53q-42 0 -76.5 -47t-34.5 -101q0 -45 39 -45zM852 725h225l443 696h-19z" />
    <glyph glyph-name="AE" unicode="&#xc6;" horiz-adv-x="1271" 
d="M-801 -309q-112 0 -188 22l-4 27q83 -27 192 -27q154 0 297.5 48.5t284 148.5t267 223t280.5 301l782 932l-4 25h-444l10 16h1034l-10 -16h-328l-407 -652h223l53 90h23l-130 -221h-24l68 115h-224l-403 -647l-105 -58l328 -2q66 0 119.5 9t100 32.5t81.5 48t76.5 71.5
t71 85.5t77.5 106.5q8 6 17 0q-43 -63 -67 -96.5t-61 -80t-64 -70t-67 -51.5t-80 -40.5t-91.5 -21.5t-112.5 -9h-573l10 18h184l447 705h-242l-250 -297q-154 -180 -285 -306.5t-273.5 -227.5t-288.5 -151t-300 -50zM618 752l11 -13h219l393 625l-4 27h-86l-18 -29z" />
    <glyph glyph-name="Ccedilla" unicode="&#xc7;" horiz-adv-x="1245" 
d="M748 -113q-109 0 -166.5 94.5t-57.5 243.5q0 285 185 611q-108 10 -190 42t-133.5 92t-51.5 142q0 133 135.5 214t404.5 81h314q251 197 442 197q67 0 101 -32t34 -91q0 -33 -12 -74h170l-8 -16h-168q-25 -70 -79.5 -145t-141 -148.5t-191 -132t-239 -95.5t-275.5 -39
q-102 -185 -160.5 -362t-58.5 -319q0 -116 39.5 -178t116.5 -62q184 0 448 373l62 86q9 6 18 0l-63 -90q-237 -342 -422 -385l-10 -9q-43 -31 -60.5 -49t-17.5 -35q0 -14 18.5 -56.5t18.5 -66.5q0 -32 -45 -66q-21 -15 -134 -85l-61 -37l-8 16l59 35q74 45 98.5 66t24.5 43
q0 21 -15.5 60.5t-15.5 56.5q0 25 22.5 46t96.5 72v4zM352 1112q0 -113 101.5 -178.5t265.5 -79.5q88 154 204.5 293t243.5 244h-293q-263 0 -392.5 -76.5t-129.5 -202.5zM831 850q137 3 267.5 39.5t231 93.5t184 128t137 142.5t78.5 137.5h-478q-226 -204 -420 -541z
M1270 1407h465q12 41 12 74q0 106 -115 106q-156 0 -362 -180z" />
    <glyph glyph-name="Egrave" unicode="&#xc8;" horiz-adv-x="1511" 
d="M1006 -23q-169 0 -375 91q-137 -84 -328 -84q-147 0 -227 43t-80 102q0 45 47.5 78t138.5 33q35 0 73.5 -6.5t63.5 -12t73.5 -24.5t63 -25t73.5 -32.5t67 -30.5q50 46 100.5 116t126.5 189q-236 41 -353.5 152.5t-117.5 267.5q0 81 33 160.5t104 154.5t172.5 132
t250 91.5t323.5 34.5h750l-11 -16h-428l-391 -627h238l51 88h24l-133 -225h-24l69 118h-237l-213 -342q-140 -224 -277 -319q193 -82 355 -82q71 0 131.5 14t106 37t88 60t75 76.5t68.5 93.5l59 88q9 5 16 -2l-61 -90q-37 -57 -66 -94t-73.5 -80.5t-90.5 -68.5t-112 -42
t-143 -17zM1610 1516l-357 131l27 45l334 -166zM14 127q0 -49 73 -86t202 -37q176 0 289 88q-7 3 -49 23t-52 24.5t-47 20.5t-52 21l-46.5 15.5t-52.5 14t-48.5 7t-52.5 3.5q-83 0 -123.5 -28.5t-40.5 -65.5zM371 834q0 -151 116.5 -258.5t346.5 -145.5l2 4l553 889l120 68
h-276q-172 0 -317 -34t-243.5 -90t-168 -129t-101.5 -150t-32 -154z" />
    <glyph glyph-name="Eacute" unicode="&#xc9;" horiz-adv-x="1511" 
d="M1006 -23q-169 0 -375 91q-137 -84 -328 -84q-147 0 -227 43t-80 102q0 45 47.5 78t138.5 33q35 0 73.5 -6.5t63.5 -12t73.5 -24.5t63 -25t73.5 -32.5t67 -30.5q50 46 100.5 116t126.5 189q-236 41 -353.5 152.5t-117.5 267.5q0 81 33 160.5t104 154.5t172.5 132
t250 91.5t323.5 34.5h750l-11 -16h-428l-391 -627h238l51 88h24l-133 -225h-24l69 118h-237l-213 -342q-140 -224 -277 -319q193 -82 355 -82q71 0 131.5 14t106 37t88 60t75 76.5t68.5 93.5l59 88q9 5 16 -2l-61 -90q-37 -57 -66 -94t-73.5 -80.5t-90.5 -68.5t-112 -42
t-143 -17zM1509 1516l-4 10l367 168l6 -52zM14 127q0 -49 73 -86t202 -37q176 0 289 88q-7 3 -49 23t-52 24.5t-47 20.5t-52 21l-46.5 15.5t-52.5 14t-48.5 7t-52.5 3.5q-83 0 -123.5 -28.5t-40.5 -65.5zM371 834q0 -151 116.5 -258.5t346.5 -145.5l2 4l553 889l120 68h-276
q-172 0 -317 -34t-243.5 -90t-168 -129t-101.5 -150t-32 -154z" />
    <glyph glyph-name="Ecircumflex" unicode="&#xca;" horiz-adv-x="1511" 
d="M1006 -23q-169 0 -375 91q-137 -84 -328 -84q-147 0 -227 43t-80 102q0 45 47.5 78t138.5 33q35 0 73.5 -6.5t63.5 -12t73.5 -24.5t63 -25t73.5 -32.5t67 -30.5q50 46 100.5 116t126.5 189q-236 41 -353.5 152.5t-117.5 267.5q0 81 33 160.5t104 154.5t172.5 132
t250 91.5t323.5 34.5h750l-11 -16h-428l-391 -627h238l51 88h24l-133 -225h-24l69 118h-237l-213 -342q-140 -224 -277 -319q193 -82 355 -82q71 0 131.5 14t106 37t88 60t75 76.5t68.5 93.5l59 88q9 5 16 -2l-61 -90q-37 -57 -66 -94t-73.5 -80.5t-90.5 -68.5t-112 -42
t-143 -17zM1348 1509l-9 11l322 188h18l33 -197h-16l-58 146zM14 127q0 -49 73 -86t202 -37q176 0 289 88q-7 3 -49 23t-52 24.5t-47 20.5t-52 21l-46.5 15.5t-52.5 14t-48.5 7t-52.5 3.5q-83 0 -123.5 -28.5t-40.5 -65.5zM371 834q0 -151 116.5 -258.5t346.5 -145.5l2 4
l553 889l120 68h-276q-172 0 -317 -34t-243.5 -90t-168 -129t-101.5 -150t-32 -154z" />
    <glyph glyph-name="Edieresis" unicode="&#xcb;" horiz-adv-x="1511" 
d="M1006 -23q-169 0 -375 91q-137 -84 -328 -84q-147 0 -227 43t-80 102q0 45 47.5 78t138.5 33q35 0 73.5 -6.5t63.5 -12t73.5 -24.5t63 -25t73.5 -32.5t67 -30.5q50 46 100.5 116t126.5 189q-236 41 -353.5 152.5t-117.5 267.5q0 81 33 160.5t104 154.5t172.5 132
t250 91.5t323.5 34.5h750l-11 -16h-428l-391 -627h238l51 88h24l-133 -225h-24l69 118h-237l-213 -342q-140 -224 -277 -319q193 -82 355 -82q71 0 131.5 14t106 37t88 60t75 76.5t68.5 93.5l59 88q9 5 16 -2l-61 -90q-37 -57 -66 -94t-73.5 -80.5t-90.5 -68.5t-112 -42
t-143 -17zM1632 1567l64 102h82l-62 -102h-84zM1462 1567l64 102h80l-62 -102h-82zM14 127q0 -49 73 -86t202 -37q176 0 289 88q-7 3 -49 23t-52 24.5t-47 20.5t-52 21l-46.5 15.5t-52.5 14t-48.5 7t-52.5 3.5q-83 0 -123.5 -28.5t-40.5 -65.5zM371 834q0 -151 116.5 -258.5
t346.5 -145.5l2 4l553 889l120 68h-276q-172 0 -317 -34t-243.5 -90t-168 -129t-101.5 -150t-32 -154z" />
    <glyph glyph-name="Igrave" unicode="&#xcc;" horiz-adv-x="759" 
d="M-225 0l10 18h285l815 1305l121 68h-361l12 16h678l-10 -16h-283l-825 -1317l-100 -56h352l-12 -18h-682zM1135 1516l-357 131l27 45l334 -166z" />
    <glyph glyph-name="Iacute" unicode="&#xcd;" horiz-adv-x="759" 
d="M-225 0l10 18h285l815 1305l121 68h-361l12 16h678l-10 -16h-283l-825 -1317l-100 -56h352l-12 -18h-682zM1034 1516l-4 10l367 168l6 -52z" />
    <glyph glyph-name="Icircumflex" unicode="&#xce;" horiz-adv-x="759" 
d="M-225 0l10 18h285l815 1305l121 68h-361l12 16h678l-10 -16h-283l-825 -1317l-100 -56h352l-12 -18h-682zM872 1509l-8 11l322 188h18l33 -197h-16l-58 146z" />
    <glyph glyph-name="Idieresis" unicode="&#xcf;" horiz-adv-x="759" 
d="M-225 0l10 18h285l815 1305l121 68h-361l12 16h678l-10 -16h-283l-825 -1317l-100 -56h352l-12 -18h-682zM1157 1567l64 102h82l-62 -102h-84zM987 1567l64 102h79l-61 -102h-82z" />
    <glyph glyph-name="Eth" unicode="&#xd0;" horiz-adv-x="1820" 
d="M197 0l8 18h352l301 482h-37q-213 0 -327.5 117t-114.5 307q0 99 35 198.5t106 190.5t168.5 161t233 112t288.5 42q352 0 527 -221h422l-11 -16h-399q115 -161 115 -377q0 -120 -34.5 -243.5t-97 -235.5t-154.5 -210t-201.5 -170t-244 -113.5t-276.5 -41.5h-659zM754 754
l10 16h262l346 555l150 82h178q-139 205 -490 205q-153 0 -287.5 -41.5t-229 -110.5t-163.5 -158.5t-102 -186t-33 -191.5q0 -185 110 -296.5t318 -111.5h45l148 238h-262zM606 18h262q126 0 247 48.5t220 130.5t183 191.5t141 231t89 250t32 246.5q0 160 -70 275h-180
l-385 -621h276l-10 -16h-276l-424 -680z" />
    <glyph glyph-name="Ntilde" unicode="&#xd1;" horiz-adv-x="1738" 
d="M197 -90q-136 0 -219 72t-93 202q-15 154 76.5 287.5t270 222t413.5 115.5q25 141 86.5 249t139.5 172.5t180 105.5t198.5 56t204.5 15h746q237 217 489 217q90 0 176 -27l-6 -20q-86 27 -170 27q-134 0 -258 -58.5t-230.5 -162.5t-205 -233t-200.5 -285.5t-198 -302.5
t-216.5 -301t-237.5 -267l-25 8q87 97 132 242.5t93 443.5l9 51q30 189 88 326t159 242h-6q-38 -32 -75 -68.5t-77 -84.5t-66.5 -80t-71.5 -95.5t-62.5 -88t-69.5 -100.5t-63 -92q-69 -102 -123.5 -178t-122 -162.5t-125.5 -148.5t-127 -121.5t-133 -96t-136 -59t-144 -22.5
zM2114 1489q-28 0 -52.5 21t-39 45.5t-35.5 45.5t-43 21q-31 0 -61 -27t-79 -92l-12 10q64 83 102 118.5t78 35.5q28 0 53 -22.5t41 -49t37 -49t41 -22.5q19 0 32 14.5t13 42.5q0 34 -24 64l18 6q21 -44 21 -68q0 -41 -26.5 -67.5t-63.5 -26.5zM-98 188q10 -126 88 -193
t209 -67q90 0 180 36t172 98t173.5 163t175 211.5t187.5 263.5l68 101h-321q-211 0 -391 -48.5t-302 -131t-186 -195.5t-53 -238zM666 811q71 8 168 8h333q71 104 119.5 170.5t117 150t137.5 145.5t142 106h-229q-75 0 -143.5 -7t-142 -25.5t-136.5 -47t-123.5 -74
t-107 -104.5t-82 -141t-53.5 -181zM1227 111h6q97 108 201.5 252.5t192.5 280.5t177 271.5t187 262t190 213.5h-465q-183 -127 -241 -545l-7 -55q-51 -393 -241 -680z" />
    <glyph glyph-name="Ograve" unicode="&#xd2;" horiz-adv-x="1327" 
d="M496 -111q-76 0 -133.5 37t-89.5 99t-47 135.5t-13 154.5q3 157 55 319.5t137.5 302.5t200 264.5t238 212.5t255 139t249.5 51q126 0 181 -67t52 -179q-2 -120 -64 -273t-174 -307q-54 -150 -140 -297.5t-191 -269.5q142 6 209.5 38.5t130.5 119.5q11 7 16 0
q-47 -66 -88 -99.5t-107.5 -52t-175.5 -22.5q-127 -142 -257 -224t-244 -82zM1477 1665l-357 131l27 45l334 -166zM289 209q-3 -301 207 -301q109 0 232 76.5t241 208.5h-76h-367l6 16q233 67 434 217t347 344q58 172 67 313q10 171 -54.5 248.5t-178.5 77.5
q-181 0 -371 -168.5t-325 -435.5q-156 -317 -162 -596zM635 209h264l84 2q190 217 305 498q-128 -159 -294 -286t-357 -200zM719 1210q224 217 430 217q125 0 194.5 -83t63.5 -250q-3 -112 -43 -250q93 139 145 274t54 240q2 104 -48.5 166.5t-164.5 62.5
q-149 0 -314 -101.5t-317 -275.5z" />
    <glyph glyph-name="Oacute" unicode="&#xd3;" horiz-adv-x="1327" 
d="M496 -111q-76 0 -133.5 37t-89.5 99t-47 135.5t-13 154.5q3 157 55 319.5t137.5 302.5t200 264.5t238 212.5t255 139t249.5 51q126 0 181 -67t52 -179q-2 -120 -64 -273t-174 -307q-54 -150 -140 -297.5t-191 -269.5q142 6 209.5 38.5t130.5 119.5q11 7 16 0
q-47 -66 -88 -99.5t-107.5 -52t-175.5 -22.5q-127 -142 -257 -224t-244 -82zM1376 1665l-4 10l367 168l6 -51zM289 209q-3 -301 207 -301q109 0 232 76.5t241 208.5h-76h-367l6 16q233 67 434 217t347 344q58 172 67 313q10 171 -54.5 248.5t-178.5 77.5q-181 0 -371 -168.5
t-325 -435.5q-156 -317 -162 -596zM635 209h264l84 2q190 217 305 498q-128 -159 -294 -286t-357 -200zM719 1210q224 217 430 217q125 0 194.5 -83t63.5 -250q-3 -112 -43 -250q93 139 145 274t54 240q2 104 -48.5 166.5t-164.5 62.5q-149 0 -314 -101.5t-317 -275.5z" />
    <glyph glyph-name="Ocircumflex" unicode="&#xd4;" horiz-adv-x="1327" 
d="M496 -111q-76 0 -133.5 37t-89.5 99t-47 135.5t-13 154.5q3 157 55 319.5t137.5 302.5t200 264.5t238 212.5t255 139t249.5 51q126 0 181 -67t52 -179q-2 -120 -64 -273t-174 -307q-54 -150 -140 -297.5t-191 -269.5q142 6 209.5 38.5t130.5 119.5q11 7 16 0
q-47 -66 -88 -99.5t-107.5 -52t-175.5 -22.5q-127 -142 -257 -224t-244 -82zM1214 1659l-8 10l322 189h18l33 -197h-16l-58 145zM289 209q-3 -301 207 -301q109 0 232 76.5t241 208.5h-76h-367l6 16q233 67 434 217t347 344q58 172 67 313q10 171 -54.5 248.5t-178.5 77.5
q-181 0 -371 -168.5t-325 -435.5q-156 -317 -162 -596zM635 209h264l84 2q190 217 305 498q-128 -159 -294 -286t-357 -200zM719 1210q224 217 430 217q125 0 194.5 -83t63.5 -250q-3 -112 -43 -250q93 139 145 274t54 240q2 104 -48.5 166.5t-164.5 62.5
q-149 0 -314 -101.5t-317 -275.5z" />
    <glyph glyph-name="Otilde" unicode="&#xd5;" horiz-adv-x="1327" 
d="M496 -111q-76 0 -133.5 37t-89.5 99t-47 135.5t-13 154.5q3 157 55 319.5t137.5 302.5t200 264.5t238 212.5t255 139t249.5 51q126 0 181 -67t52 -179q-2 -120 -64 -273t-174 -307q-54 -150 -140 -297.5t-191 -269.5q142 6 209.5 38.5t130.5 119.5q11 7 16 0
q-47 -66 -88 -99.5t-107.5 -52t-175.5 -22.5q-127 -142 -257 -224t-244 -82zM1518 1638q-28 0 -52.5 21t-39 46t-35.5 46t-43 21q-31 0 -61 -27t-79 -92l-12 10q64 83 102 118.5t78 35.5q28 0 53 -22.5t41 -49.5t37 -49.5t41 -22.5q19 0 32 15t13 43q0 33 -24 63l18 6
q21 -44 21 -67q0 -41 -26.5 -68t-63.5 -27zM289 209q-3 -301 207 -301q109 0 232 76.5t241 208.5h-76h-367l6 16q233 67 434 217t347 344q58 172 67 313q10 171 -54.5 248.5t-178.5 77.5q-181 0 -371 -168.5t-325 -435.5q-156 -317 -162 -596zM635 209h264l84 2
q190 217 305 498q-128 -159 -294 -286t-357 -200zM719 1210q224 217 430 217q125 0 194.5 -83t63.5 -250q-3 -112 -43 -250q93 139 145 274t54 240q2 104 -48.5 166.5t-164.5 62.5q-149 0 -314 -101.5t-317 -275.5z" />
    <glyph glyph-name="Odieresis" unicode="&#xd6;" horiz-adv-x="1327" 
d="M496 -111q-76 0 -133.5 37t-89.5 99t-47 135.5t-13 154.5q3 157 55 319.5t137.5 302.5t200 264.5t238 212.5t255 139t249.5 51q126 0 181 -67t52 -179q-2 -120 -64 -273t-174 -307q-54 -150 -140 -297.5t-191 -269.5q142 6 209.5 38.5t130.5 119.5q11 7 16 0
q-47 -66 -88 -99.5t-107.5 -52t-175.5 -22.5q-127 -142 -257 -224t-244 -82zM1499 1716l64 103h82l-62 -103h-84zM1329 1716l64 103h80l-62 -103h-82zM289 209q-3 -301 207 -301q109 0 232 76.5t241 208.5h-76h-367l6 16q233 67 434 217t347 344q58 172 67 313
q10 171 -54.5 248.5t-178.5 77.5q-181 0 -371 -168.5t-325 -435.5q-156 -317 -162 -596zM635 209h264l84 2q190 217 305 498q-128 -159 -294 -286t-357 -200zM719 1210q224 217 430 217q125 0 194.5 -83t63.5 -250q-3 -112 -43 -250q93 139 145 274t54 240
q2 104 -48.5 166.5t-164.5 62.5q-149 0 -314 -101.5t-317 -275.5z" />
    <glyph glyph-name="multiply" unicode="&#xd7;" horiz-adv-x="1095" 
d="M948 176l-303 303l-303 -303l-20 19l303 303l-303 303l18 20l305 -305l303 303l21 -18l-303 -303l301 -301z" />
    <glyph glyph-name="Oslash" unicode="&#xd8;" horiz-adv-x="1327" 
d="M496 -111q-96 0 -160 58l-172 -209h-29l184 223q-56 58 -82 152.5t-24 201.5q3 157 55 319.5t137.5 302.5t200 264.5t238 212.5t255 139t249.5 51q172 0 217 -129l192 233h27l-211 -258q8 -39 8 -92q-2 -120 -64 -273t-174 -307q-54 -150 -140 -297.5t-191 -269.5
q142 6 209.5 38.5t130.5 119.5q11 7 16 0q-47 -66 -88 -99.5t-107.5 -52t-175.5 -22.5q-127 -142 -257 -224t-244 -82zM289 209q-3 -144 49 -223l1032 1251q-45 172 -223 172q-181 0 -371 -168.5t-325 -435.5q-156 -317 -162 -596zM352 -33q50 -59 144 -59q109 0 232 76.5
t241 208.5h-76h-354zM557 217q225 68 419 216t337 337q58 172 67 313q3 72 -6 127zM635 209h264l84 2q190 217 305 498q-128 -159 -294 -286t-357 -200zM719 1210q224 217 430 217q186 0 240 -167l161 196q-42 131 -200 131q-149 0 -314 -101.5t-317 -275.5zM1364 844
q93 139 145 274t54 240q0 34 -7 74l-161 -197q15 -61 12 -141q-3 -112 -43 -250z" />
    <glyph glyph-name="Ugrave" unicode="&#xd9;" horiz-adv-x="1665" 
d="M764 -8q-64 0 -103.5 57t-39.5 160q0 218 204 539l31 49h-90q-98 0 -173.5 16.5t-121.5 42t-75.5 61.5t-40.5 71.5t-11 74.5q0 96 68.5 196t173.5 175.5t238 123.5t255 48q97 0 144 -39.5t47 -130.5q0 -87 -38.5 -186t-129.5 -244l-211 -334q-227 -359 -227 -527
q0 -63 25 -99t75 -36q170 0 483 471l525 854l118 56h-323l10 16h522l-10 -16h-162l-532 -852q-170 -271 -164 -418q6 -117 96 -117q64 0 133.5 69.5t173.5 219.5l56 78q11 8 16 0l-55 -82q-111 -158 -183.5 -229.5t-140.5 -71.5q-131 0 -131 196q0 96 35 224h-17
q-283 -416 -450 -416zM1604 1516l-357 131l27 45l334 -166zM360 1061q0 -46 17.5 -85.5t59.5 -77.5t127.5 -60.5t205.5 -22.5h98l193 309q115 184 140 235q32 66 34 116q1 62 -38.5 87t-121.5 25q-120 0 -249.5 -46.5t-231.5 -119.5t-168 -169.5t-66 -190.5z" />
    <glyph glyph-name="Uacute" unicode="&#xda;" horiz-adv-x="1665" 
d="M764 -8q-64 0 -103.5 57t-39.5 160q0 218 204 539l31 49h-90q-98 0 -173.5 16.5t-121.5 42t-75.5 61.5t-40.5 71.5t-11 74.5q0 96 68.5 196t173.5 175.5t238 123.5t255 48q97 0 144 -39.5t47 -130.5q0 -87 -38.5 -186t-129.5 -244l-211 -334q-227 -359 -227 -527
q0 -63 25 -99t75 -36q170 0 483 471l525 854l118 56h-323l10 16h522l-10 -16h-162l-532 -852q-170 -271 -164 -418q6 -117 96 -117q64 0 133.5 69.5t173.5 219.5l56 78q11 8 16 0l-55 -82q-111 -158 -183.5 -229.5t-140.5 -71.5q-131 0 -131 196q0 96 35 224h-17
q-283 -416 -450 -416zM1503 1516l-4 10l367 168l6 -52zM360 1061q0 -46 17.5 -85.5t59.5 -77.5t127.5 -60.5t205.5 -22.5h98l193 309q115 184 140 235q32 66 34 116q1 62 -38.5 87t-121.5 25q-120 0 -249.5 -46.5t-231.5 -119.5t-168 -169.5t-66 -190.5z" />
    <glyph glyph-name="Ucircumflex" unicode="&#xdb;" horiz-adv-x="1665" 
d="M764 -8q-64 0 -103.5 57t-39.5 160q0 218 204 539l31 49h-90q-98 0 -173.5 16.5t-121.5 42t-75.5 61.5t-40.5 71.5t-11 74.5q0 96 68.5 196t173.5 175.5t238 123.5t255 48q97 0 144 -39.5t47 -130.5q0 -87 -38.5 -186t-129.5 -244l-211 -334q-227 -359 -227 -527
q0 -63 25 -99t75 -36q170 0 483 471l525 854l118 56h-323l10 16h522l-10 -16h-162l-532 -852q-170 -271 -164 -418q6 -117 96 -117q64 0 133.5 69.5t173.5 219.5l56 78q11 8 16 0l-55 -82q-111 -158 -183.5 -229.5t-140.5 -71.5q-131 0 -131 196q0 96 35 224h-17
q-283 -416 -450 -416zM1341 1509l-8 11l322 188h18l33 -197h-16l-58 146zM360 1061q0 -46 17.5 -85.5t59.5 -77.5t127.5 -60.5t205.5 -22.5h98l193 309q115 184 140 235q32 66 34 116q1 62 -38.5 87t-121.5 25q-120 0 -249.5 -46.5t-231.5 -119.5t-168 -169.5t-66 -190.5z
" />
    <glyph glyph-name="Udieresis" unicode="&#xdc;" horiz-adv-x="1665" 
d="M764 -8q-64 0 -103.5 57t-39.5 160q0 218 204 539l31 49h-90q-98 0 -173.5 16.5t-121.5 42t-75.5 61.5t-40.5 71.5t-11 74.5q0 96 68.5 196t173.5 175.5t238 123.5t255 48q97 0 144 -39.5t47 -130.5q0 -87 -38.5 -186t-129.5 -244l-211 -334q-227 -359 -227 -527
q0 -63 25 -99t75 -36q170 0 483 471l525 854l118 56h-323l10 16h522l-10 -16h-162l-532 -852q-170 -271 -164 -418q6 -117 96 -117q64 0 133.5 69.5t173.5 219.5l56 78q11 8 16 0l-55 -82q-111 -158 -183.5 -229.5t-140.5 -71.5q-131 0 -131 196q0 96 35 224h-17
q-283 -416 -450 -416zM1626 1567l64 102h82l-62 -102h-84zM1456 1567l64 102h79l-61 -102h-82zM360 1061q0 -46 17.5 -85.5t59.5 -77.5t127.5 -60.5t205.5 -22.5h98l193 309q115 184 140 235q32 66 34 116q1 62 -38.5 87t-121.5 25q-120 0 -249.5 -46.5t-231.5 -119.5
t-168 -169.5t-66 -190.5z" />
    <glyph glyph-name="Yacute" unicode="&#xdd;" horiz-adv-x="1597" 
d="M793 14q-70 0 -112 55.5t-42 168.5q0 204 190 505l33 54h-82q-121 0 -208 24t-132 64.5t-64.5 84t-19.5 93.5q0 96 70.5 195.5t178 174.5t243 123t258.5 48q91 0 133.5 -34.5t42.5 -127.5q0 -100 -48 -205.5t-147 -263.5l-151 -242q-137 -220 -197.5 -349.5t-60.5 -213.5
q0 -67 30 -102t85 -35q101 0 220.5 123.5t276.5 369.5l502 811l117 56h-310l11 16h516l-10 -16h-172l-400 -641q-100 -163 -259.5 -460.5t-197.5 -363.5l-2 -4q146 22 255.5 111t234.5 270l45 66q12 6 18 0l-47 -68q-88 -127 -160 -203t-160.5 -125.5t-195.5 -64.5
q-59 -99 -120 -184.5t-138.5 -168t-156 -140t-172 -93t-187.5 -35.5q-155 0 -236 81t-81 194q0 71 34 138t95.5 120.5t157.5 86t210 32.5q49 0 235.5 -10t258.5 -11l14 25q48 79 154 267.5t162 281.5h-15q-156 -238 -275.5 -358t-221.5 -120zM1546 1516l-4 10l367 168l6 -52
zM0 -436q0 -103 71.5 -177.5t207.5 -74.5q81 0 160 32t145.5 83t135.5 130.5t125 159.5t120 185q-74 1 -255 10.5t-229 9.5q-111 0 -204 -31t-152.5 -81.5t-92 -114t-32.5 -131.5zM375 1061q0 -36 9.5 -68t37.5 -65.5t72 -57.5t118.5 -39.5t171.5 -15.5h90l181 285
q77 122 108.5 174.5t57 112t26.5 102.5q0 54 -32 76t-107 22q-123 0 -255 -46.5t-237 -119.5t-173 -169.5t-68 -190.5z" />
    <glyph glyph-name="Thorn" unicode="&#xde;" horiz-adv-x="1648" 
d="M-158 -711q-96 0 -138 62t-42 178q0 137 57.5 302t155 327t235 317t290 275.5t328 199t341.5 90.5l174 283l119 68h-477l10 16h813l-10 -16h-297l-219 -351q208 -10 319 -104.5t111 -245.5q0 -140 -91 -258.5t-247 -171.5q79 -27 143 -27q72 0 140 32.5t114 103.5
q11 8 19 0q-53 -78 -125.5 -114t-147.5 -36q-65 0 -166 33q-100 -27 -196 -27q-83 0 -139 19.5t-56 54.5q0 49 90 49q17 0 35 -2t32.5 -4t35.5 -7.5t32 -8.5t34.5 -10.5t31.5 -10.5t34 -12.5t32 -11.5q141 59 224 191t83 267q0 132 -92.5 204t-260.5 81l-596 -958
q-20 -33 -60 -97q-76 -124 -115 -185t-105 -157.5t-111 -143.5t-104.5 -99.5t-117.5 -73.5t-120 -21zM-317 -473q0 -221 153 -221q110 0 254 182q90 113 278 419q78 128 99 161l592 956q-162 -14 -334 -93t-321 -199t-283.5 -273.5t-230 -313.5t-151.5 -322t-56 -296z
M874 299q0 -27 47.5 -41t112.5 -14q88 0 164 28q-55 21 -85 31t-77 20.5t-86 10.5q-76 0 -76 -35z" />
    <glyph glyph-name="germandbls" unicode="&#xdf;" horiz-adv-x="727" 
d="M-408 -489l406 710q-3 73 29 154h59q101 177 157.5 273.5t147.5 244.5t153 230t137 168.5t139 124.5t122 38q55 0 88 -32t33 -99q0 -156 -193 -301l-43 -31q-64 -48 -103.5 -86.5t-64 -70.5t-37 -76t-16.5 -80t-8 -105q-5 -103 -12 -165l-4 -33h186q-4 -13 -10 -17h-180
q-33 -181 -128.5 -275.5t-222.5 -94.5q-136 0 -198 110l-334 -587h-103zM20 258l56 100h-35q-18 -46 -21 -100zM41 119q47 -107 160 -107q90 0 173 94.5t138 251.5h-334l-4 -6zM186 375h330l6 16q21 67 56 236q17 91 30.5 139t40 101t66.5 95t108 95l39 28q89 69 135.5 125
t46.5 121q0 49 -26 78t-66 29q-41 0 -88 -32t-110 -111.5t-115 -153t-140 -222t-145 -248t-168 -296.5z" />
    <glyph glyph-name="agrave" unicode="&#xe0;" horiz-adv-x="743" 
d="M424 -14q-84 0 -84 123q0 61 22 143h-8q-100 -141 -166.5 -203.5t-121.5 -62.5q-52 0 -77.5 46.5t-25.5 112.5q0 142 103 299q84 126 203.5 195.5t256.5 69.5q54 0 129 -17h70l-229 -358q-75 -118 -102 -174t-27 -97q0 -63 57 -63t124 68t161 213l59 88q10 6 16 0
l-59 -93q-98 -148 -168.5 -219t-132.5 -71zM616 922l-92 366l54 10l53 -372zM6 76q0 -36 17 -56t45 -20q52 0 124.5 73t180.5 230l98 154l143 215q-40 24 -102 24q-98 0 -184 -69t-176 -205q-65 -96 -105.5 -188.5t-40.5 -157.5z" />
    <glyph glyph-name="aacute" unicode="&#xe1;" horiz-adv-x="743" 
d="M424 -14q-84 0 -84 123q0 61 22 143h-8q-100 -141 -166.5 -203.5t-121.5 -62.5q-52 0 -77.5 46.5t-25.5 112.5q0 142 103 299q84 126 203.5 195.5t256.5 69.5q54 0 129 -17h70l-229 -358q-75 -118 -102 -174t-27 -97q0 -63 57 -63t124 68t161 213l59 88q10 6 16 0
l-59 -93q-98 -148 -168.5 -219t-132.5 -71zM610 920l-8 8l316 370l38 -36zM6 76q0 -36 17 -56t45 -20q52 0 124.5 73t180.5 230l98 154l143 215q-40 24 -102 24q-98 0 -184 -69t-176 -205q-65 -96 -105.5 -188.5t-40.5 -157.5z" />
    <glyph glyph-name="acircumflex" unicode="&#xe2;" horiz-adv-x="743" 
d="M424 -14q-84 0 -84 123q0 61 22 143h-8q-100 -141 -166.5 -203.5t-121.5 -62.5q-52 0 -77.5 46.5t-25.5 112.5q0 142 103 299q84 126 203.5 195.5t256.5 69.5q54 0 129 -17h70l-229 -358q-75 -118 -102 -174t-27 -97q0 -63 57 -63t124 68t161 213l59 88q10 6 16 0
l-59 -93q-98 -148 -168.5 -219t-132.5 -71zM518 922l-10 8l305 323h33l-41 -331h-14l-3 247zM6 76q0 -36 17 -56t45 -20q52 0 124.5 73t180.5 230l98 154l143 215q-40 24 -102 24q-98 0 -184 -69t-176 -205q-65 -96 -105.5 -188.5t-40.5 -157.5z" />
    <glyph glyph-name="atilde" unicode="&#xe3;" horiz-adv-x="743" 
d="M424 -14q-84 0 -84 123q0 61 22 143h-8q-100 -141 -166.5 -203.5t-121.5 -62.5q-52 0 -77.5 46.5t-25.5 112.5q0 142 103 299q84 126 203.5 195.5t256.5 69.5q54 0 129 -17h70l-229 -358q-75 -118 -102 -174t-27 -97q0 -63 57 -63t124 68t161 213l59 88q10 6 16 0
l-59 -93q-98 -148 -168.5 -219t-132.5 -71zM819 952q-26 0 -48.5 15t-39 37t-32 44t-34 37t-38.5 15q-30 0 -61 -31t-77 -102l-12 12q60 91 98.5 131.5t79.5 40.5q30 0 57.5 -25.5t45.5 -55.5t42.5 -55.5t47.5 -25.5q20 0 33.5 15.5t13.5 44.5q0 31 -27 77l19 4
q22 -39 22 -79q0 -42 -26.5 -70.5t-63.5 -28.5zM6 76q0 -36 17 -56t45 -20q52 0 124.5 73t180.5 230l98 154l143 215q-40 24 -102 24q-98 0 -184 -69t-176 -205q-65 -96 -105.5 -188.5t-40.5 -157.5z" />
    <glyph glyph-name="adieresis" unicode="&#xe4;" horiz-adv-x="743" 
d="M424 -14q-84 0 -84 123q0 61 22 143h-8q-100 -141 -166.5 -203.5t-121.5 -62.5q-52 0 -77.5 46.5t-25.5 112.5q0 142 103 299q84 126 203.5 195.5t256.5 69.5q54 0 129 -17h70l-229 -358q-75 -118 -102 -174t-27 -97q0 -63 57 -63t124 68t161 213l59 88q10 6 16 0
l-59 -93q-98 -148 -168.5 -219t-132.5 -71zM782 1051l90 137h86l-90 -137h-86zM606 1051l94 137h88l-94 -137h-88zM6 76q0 -36 17 -56t45 -20q52 0 124.5 73t180.5 230l98 154l143 215q-40 24 -102 24q-98 0 -184 -69t-176 -205q-65 -96 -105.5 -188.5t-40.5 -157.5z" />
    <glyph glyph-name="aring" unicode="&#xe5;" horiz-adv-x="743" 
d="M424 -14q-84 0 -84 123q0 61 22 143h-8q-100 -141 -166.5 -203.5t-121.5 -62.5q-52 0 -77.5 46.5t-25.5 112.5q0 142 103 299q84 126 203.5 195.5t256.5 69.5q54 0 129 -17h70l-229 -358q-75 -118 -102 -174t-27 -97q0 -63 57 -63t124 68t161 213l59 88q10 6 16 0
l-59 -93q-98 -148 -168.5 -219t-132.5 -71zM684 948q-28 0 -43.5 22.5t-15.5 61.5q0 71 53.5 123.5t107.5 52.5q52 0 52 -59q0 -62 -52.5 -131.5t-101.5 -69.5zM684 961q45 0 93 68.5t48 125.5q0 41 -28 41q-40 0 -92 -67.5t-52 -129.5q0 -20 6.5 -29t24.5 -9zM6 76
q0 -36 17 -56t45 -20q52 0 124.5 73t180.5 230l98 154l143 215q-40 24 -102 24q-98 0 -184 -69t-176 -205q-65 -96 -105.5 -188.5t-40.5 -157.5z" />
    <glyph glyph-name="ae" unicode="&#xe6;" horiz-adv-x="1236" 
d="M424 -14q-84 0 -84 123q0 61 22 143h-8q-100 -141 -166.5 -203.5t-121.5 -62.5q-52 0 -77.5 46.5t-25.5 112.5q0 142 103 299q84 126 203.5 195.5t256.5 69.5q54 0 129 -17h70l-229 -358q-75 -118 -102 -174t-27 -97q0 -63 57 -63t124 68t161 213l55 81q22 49 47 89
q69 111 171 184.5t181 73.5q66 0 66 -60q0 -62 -86 -135q-106 -90 -277 -139q-92 -169 -92 -275q0 -96 84 -96q81 0 177.5 86t226.5 279q4 5 9 5t7 -5q-133 -200 -234.5 -290.5t-189.5 -90.5q-62 0 -96.5 51t-34.5 133q0 69 20 133l-18 -29q-98 -148 -168.5 -219t-132.5 -71
zM6 76q0 -36 17 -56t45 -20q52 0 124.5 73t180.5 230l98 154l143 215q-40 24 -102 24q-98 0 -184 -69t-176 -205q-65 -96 -105.5 -188.5t-40.5 -157.5zM872 389q154 49 263 143q77 70 77 123q0 39 -41 39q-58 0 -130.5 -73t-143.5 -191z" />
    <glyph glyph-name="ccedilla" unicode="&#xe7;" horiz-adv-x="497" 
d="M-158 -418l-8 17l60 34q74 44 98 65.5t24 43.5q0 21 -15 60.5t-15 56.5q0 25 22.5 46.5t95.5 71.5v11q-60 1 -93.5 52.5t-33.5 135.5q0 132 93 281q70 111 169 181.5t199 70.5q50 0 84 -27l-39 -59q-10 24 -16.5 35.5t-19.5 22.5t-29 11q-51 0 -119.5 -69t-136.5 -183
q-131 -218 -131 -342q0 -94 82 -94q83 0 180 87.5t227 277.5q4 5 11 5t8 -5q-122 -180 -219 -272t-181 -107l-16 -13q-44 -32 -61 -49t-17 -34q0 -14 18.5 -56.5t18.5 -66.5q0 -30 -31 -55.5t-125 -83.5q-14 -8 -22 -13z" />
    <glyph glyph-name="egrave" unicode="&#xe8;" horiz-adv-x="493" 
d="M111 -12q-62 0 -96.5 51t-34.5 133q0 141 88 279q69 111 171 184.5t181 73.5q65 0 65 -60q0 -62 -86 -135q-107 -90 -276 -139q-92 -169 -92 -275q0 -96 84 -96q81 0 177 86t226 279q4 5 10 5t7 -5q-133 -200 -234.5 -290.5t-189.5 -90.5zM502 922l-92 366l53 10l53 -372
zM129 389q70 22 140.5 60.5t121.5 82.5q78 71 78 123q0 39 -41 39q-58 0 -130.5 -73t-143.5 -191z" />
    <glyph glyph-name="eacute" unicode="&#xe9;" horiz-adv-x="493" 
d="M111 -12q-62 0 -96.5 51t-34.5 133q0 141 88 279q69 111 171 184.5t181 73.5q65 0 65 -60q0 -62 -86 -135q-107 -90 -276 -139q-92 -169 -92 -275q0 -96 84 -96q81 0 177 86t226 279q4 5 10 5t7 -5q-133 -200 -234.5 -290.5t-189.5 -90.5zM496 920l-9 8l316 370l39 -36z
M129 389q70 22 140.5 60.5t121.5 82.5q78 71 78 123q0 39 -41 39q-58 0 -130.5 -73t-143.5 -191z" />
    <glyph glyph-name="ecircumflex" unicode="&#xea;" horiz-adv-x="493" 
d="M111 -12q-62 0 -96.5 51t-34.5 133q0 141 88 279q69 111 171 184.5t181 73.5q65 0 65 -60q0 -62 -86 -135q-107 -90 -276 -139q-92 -169 -92 -275q0 -96 84 -96q81 0 177 86t226 279q4 5 10 5t7 -5q-133 -200 -234.5 -290.5t-189.5 -90.5zM403 922l-10 8l305 323h33
l-41 -331h-14l-2 247zM129 389q70 22 140.5 60.5t121.5 82.5q78 71 78 123q0 39 -41 39q-58 0 -130.5 -73t-143.5 -191z" />
    <glyph glyph-name="edieresis" unicode="&#xeb;" horiz-adv-x="493" 
d="M111 -12q-62 0 -96.5 51t-34.5 133q0 141 88 279q69 111 171 184.5t181 73.5q65 0 65 -60q0 -62 -86 -135q-107 -90 -276 -139q-92 -169 -92 -275q0 -96 84 -96q81 0 177 86t226 279q4 5 10 5t7 -5q-133 -200 -234.5 -290.5t-189.5 -90.5zM668 1051l90 137h86l-90 -137
h-86zM492 1051l94 137h88l-94 -137h-88zM129 389q70 22 140.5 60.5t121.5 82.5q78 71 78 123q0 39 -41 39q-58 0 -130.5 -73t-143.5 -191z" />
    <glyph glyph-name="igrave" unicode="&#xec;" horiz-adv-x="395" 
d="M80 -12q-47 0 -67.5 35t-20.5 86q0 81 32.5 160t106.5 196l127 201l-4 12h-90q0 9 8 14h190l5 -14l-170 -268q-108 -170 -142.5 -236t-34.5 -111q0 -61 60 -61q59 0 122 66t150 198l68 103q11 5 16 0l-71 -109q-43 -66 -74.5 -108.5t-68.5 -83.5t-72 -60.5t-70 -19.5z
M377 922l-92 366l53 10l53 -372z" />
    <glyph glyph-name="iacute" unicode="&#xed;" horiz-adv-x="395" 
d="M80 -12q-47 0 -67.5 35t-20.5 86q0 81 32.5 160t106.5 196l127 201l-4 12h-90q0 9 8 14h190l5 -14l-170 -268q-108 -170 -142.5 -236t-34.5 -111q0 -61 60 -61q59 0 122 66t150 198l68 103q11 5 16 0l-71 -109q-43 -66 -74.5 -108.5t-68.5 -83.5t-72 -60.5t-70 -19.5z
M373 920l-8 8l315 370l39 -36z" />
    <glyph glyph-name="icircumflex" unicode="&#xee;" horiz-adv-x="395" 
d="M80 -12q-47 0 -67.5 35t-20.5 86q0 81 32.5 160t106.5 196l127 201l-4 12h-90q0 9 8 14h190l5 -14l-170 -268q-108 -170 -142.5 -236t-34.5 -111q0 -61 60 -61q59 0 122 66t150 198l68 103q11 5 16 0l-71 -109q-43 -66 -74.5 -108.5t-68.5 -83.5t-72 -60.5t-70 -19.5z
M279 922l-11 8l305 323h33l-41 -331h-14l-2 247z" />
    <glyph glyph-name="idieresis" unicode="&#xef;" horiz-adv-x="395" 
d="M80 -12q-47 0 -67.5 35t-20.5 86q0 81 32.5 160t106.5 196l127 201l-4 12h-90q0 9 8 14h190l5 -14l-170 -268q-108 -170 -142.5 -236t-34.5 -111q0 -61 60 -61q59 0 122 66t150 198l68 103q11 5 16 0l-71 -109q-43 -66 -74.5 -108.5t-68.5 -83.5t-72 -60.5t-70 -19.5z
M545 1051l90 137h86l-90 -137h-86zM369 1051l94 137h88l-94 -137h-88z" />
    <glyph glyph-name="eth" unicode="&#xf0;" horiz-adv-x="622" 
d="M117 -12q-71 0 -105.5 54.5t-34.5 133.5q0 93 42 188.5t106 166t143 115t150 44.5q48 0 76 -29t28 -86q21 110 21 191q0 123 -31 238l-274 -111l10 22l258 105q-38 129 -114 227t-183 148l4 10q111 -45 197 -142t137 -227l211 86l-10 -22l-195 -78q53 -139 53 -291
q0 -131 -33.5 -251.5t-86.5 -207.5t-118 -152.5t-130.5 -98.5t-120.5 -33zM113 4q63 0 135 63t126.5 152t92 186t39.5 164q6 103 -76 103q-81 0 -177.5 -103.5t-160 -236.5t-65.5 -223q0 -105 86 -105z" />
    <glyph glyph-name="ntilde" unicode="&#xf1;" horiz-adv-x="813" 
d="M481 -16q-47 0 -67.5 34t-20.5 84q0 57 28.5 119t94.5 150l74 98q90 116 90 176q0 45 -49 45q-81 0 -204 -119.5t-259 -328.5l-154 -242h-98l283 446q39 62 55 99.5t16 72.5q0 30 -14.5 45t-48.5 15h-76q0 6 8 14h76q41 0 61 -24.5t19 -81.5l-4 -131h10q97 120 183.5 187
t150.5 67q80 0 80 -111q0 -54 -21.5 -106t-77.5 -127l-71 -97q-63 -84 -90 -132.5t-27 -80.5q0 -26 14 -41.5t41 -15.5q62 0 131 71t168 218l56 82q12 6 18 0l-55 -82q-48 -71 -80.5 -114.5t-76 -92.5t-84 -72.5t-79.5 -23.5zM813 952q-26 0 -48.5 15t-39 37t-32 44t-34 37
t-38.5 15q-30 0 -61 -31t-77 -102l-12 12q60 91 98.5 131.5t79.5 40.5q30 0 57.5 -25.5t45.5 -55.5t42.5 -55.5t47.5 -25.5q20 0 33.5 15.5t13.5 44.5q0 31 -27 77l19 4q22 -39 22 -79q0 -42 -26.5 -70.5t-63.5 -28.5z" />
    <glyph glyph-name="ograve" unicode="&#xf2;" horiz-adv-x="563" 
d="M96 -12q-43 0 -70.5 30.5t-36.5 67t-9 78.5q0 100 42.5 201t107.5 175.5t145 121.5t151 47q56 0 80 -32.5t24 -94.5q-3 -143 -106 -314q-70 -115 -161.5 -197.5t-166.5 -82.5zM96 4q68 0 149 83.5t150 203.5q115 190 115 307q0 44 -18.5 70t-55.5 26q-58 0 -134 -73.5
t-146 -184.5q-58 -93 -94 -183.5t-37 -154.5q0 -94 71 -94zM526 922l-92 366l53 10l54 -372z" />
    <glyph glyph-name="oacute" unicode="&#xf3;" horiz-adv-x="563" 
d="M96 -12q-43 0 -70.5 30.5t-36.5 67t-9 78.5q0 100 42.5 201t107.5 175.5t145 121.5t151 47q56 0 80 -32.5t24 -94.5q-3 -143 -106 -314q-70 -115 -161.5 -197.5t-166.5 -82.5zM96 4q68 0 149 83.5t150 203.5q115 190 115 307q0 44 -18.5 70t-55.5 26q-58 0 -134 -73.5
t-146 -184.5q-58 -93 -94 -183.5t-37 -154.5q0 -94 71 -94zM520 920l-8 8l315 370l39 -36z" />
    <glyph glyph-name="ocircumflex" unicode="&#xf4;" horiz-adv-x="563" 
d="M96 -12q-43 0 -70.5 30.5t-36.5 67t-9 78.5q0 100 42.5 201t107.5 175.5t145 121.5t151 47q56 0 80 -32.5t24 -94.5q-3 -143 -106 -314q-70 -115 -161.5 -197.5t-166.5 -82.5zM96 4q68 0 149 83.5t150 203.5q115 190 115 307q0 44 -18.5 70t-55.5 26q-58 0 -134 -73.5
t-146 -184.5q-58 -93 -94 -183.5t-37 -154.5q0 -94 71 -94zM428 922l-10 8l305 323h33l-41 -331h-15l-2 247z" />
    <glyph glyph-name="otilde" unicode="&#xf5;" horiz-adv-x="563" 
d="M96 -12q-43 0 -70.5 30.5t-36.5 67t-9 78.5q0 100 42.5 201t107.5 175.5t145 121.5t151 47q56 0 80 -32.5t24 -94.5q-3 -143 -106 -314q-70 -115 -161.5 -197.5t-166.5 -82.5zM96 4q68 0 149 83.5t150 203.5q115 190 115 307q0 44 -18.5 70t-55.5 26q-58 0 -134 -73.5
t-146 -184.5q-58 -93 -94 -183.5t-37 -154.5q0 -94 71 -94zM729 952q-26 0 -48.5 15t-39 37t-32 44t-34 37t-38.5 15q-30 0 -61 -31t-77 -102l-12 12q60 91 98.5 131.5t79.5 40.5q30 0 57.5 -25.5t45.5 -55.5t42.5 -55.5t47.5 -25.5q20 0 33.5 15.5t13.5 44.5q0 31 -27 77
l19 4q22 -39 22 -79q0 -42 -26.5 -70.5t-63.5 -28.5z" />
    <glyph glyph-name="odieresis" unicode="&#xf6;" horiz-adv-x="563" 
d="M96 -12q-43 0 -70.5 30.5t-36.5 67t-9 78.5q0 100 42.5 201t107.5 175.5t145 121.5t151 47q56 0 80 -32.5t24 -94.5q-3 -143 -106 -314q-70 -115 -161.5 -197.5t-166.5 -82.5zM96 4q68 0 149 83.5t150 203.5q115 190 115 307q0 44 -18.5 70t-55.5 26q-58 0 -134 -73.5
t-146 -184.5q-58 -93 -94 -183.5t-37 -154.5q0 -94 71 -94zM692 1051l90 137h86l-90 -137h-86zM516 1051l94 137h88l-94 -137h-88z" />
    <glyph glyph-name="divide" unicode="&#xf7;" horiz-adv-x="1071" 
d="M582 700v134h98v-134h-98zM582 162v135h98v-135h-98zM225 485v25h809v-25h-809z" />
    <glyph glyph-name="oslash" unicode="&#xf8;" horiz-adv-x="563" 
d="M96 -12q-38 0 -65 24l-170 -223h-21l178 236q-38 48 -38 139q0 100 42.5 201t107.5 175.5t145 121.5t151 47q59 0 84 -39l147 194h21l-160 -209q12 -30 12 -73q-3 -143 -106 -314q-70 -115 -161.5 -197.5t-166.5 -82.5zM96 4q68 0 149 83.5t150 203.5q115 190 115 307
q0 19 -4 39l-465 -610q20 -23 55 -23zM25 98q0 -36 8 -55l467 612q-19 39 -64 39q-58 0 -134 -73.5t-146 -184.5q-58 -93 -94 -183.5t-37 -154.5z" />
    <glyph glyph-name="ugrave" unicode="&#xf9;" horiz-adv-x="747" 
d="M51 -12q-42 0 -66 33t-24 98q0 66 36.5 144.5t125.5 213.5l125 189l-4 12h-86q0 12 10 14h182l4 -16l-166 -250q-17 -27 -42.5 -65.5t-38 -57.5t-31 -48t-27 -43t-20 -34.5t-16.5 -32.5t-10.5 -27t-7 -26.5t-1.5 -23.5q0 -66 57 -66q72 0 171.5 104t205.5 273l180 287
l-4 12h-84q0 9 8 14h187l4 -16l-215 -338q-83 -129 -111 -183t-28 -92q0 -61 57 -61q61 0 123.5 65.5t159.5 206.5l65 95q12 6 18 0l-67 -97q-47 -69 -79 -112t-72 -87t-76.5 -64.5t-71.5 -20.5q-86 0 -86 118q0 48 22 134h-6q-81 -114 -160.5 -183t-140.5 -69zM524 922
l-92 366l53 10l54 -372z" />
    <glyph glyph-name="uacute" unicode="&#xfa;" horiz-adv-x="747" 
d="M51 -12q-42 0 -66 33t-24 98q0 66 36.5 144.5t125.5 213.5l125 189l-4 12h-86q0 12 10 14h182l4 -16l-166 -250q-17 -27 -42.5 -65.5t-38 -57.5t-31 -48t-27 -43t-20 -34.5t-16.5 -32.5t-10.5 -27t-7 -26.5t-1.5 -23.5q0 -66 57 -66q72 0 171.5 104t205.5 273l180 287
l-4 12h-84q0 9 8 14h187l4 -16l-215 -338q-83 -129 -111 -183t-28 -92q0 -61 57 -61q61 0 123.5 65.5t159.5 206.5l65 95q12 6 18 0l-67 -97q-47 -69 -79 -112t-72 -87t-76.5 -64.5t-71.5 -20.5q-86 0 -86 118q0 48 22 134h-6q-81 -114 -160.5 -183t-140.5 -69zM518 920
l-8 8l315 370l39 -36z" />
    <glyph glyph-name="ucircumflex" unicode="&#xfb;" horiz-adv-x="747" 
d="M51 -12q-42 0 -66 33t-24 98q0 66 36.5 144.5t125.5 213.5l125 189l-4 12h-86q0 12 10 14h182l4 -16l-166 -250q-17 -27 -42.5 -65.5t-38 -57.5t-31 -48t-27 -43t-20 -34.5t-16.5 -32.5t-10.5 -27t-7 -26.5t-1.5 -23.5q0 -66 57 -66q72 0 171.5 104t205.5 273l180 287
l-4 12h-84q0 9 8 14h187l4 -16l-215 -338q-83 -129 -111 -183t-28 -92q0 -61 57 -61q61 0 123.5 65.5t159.5 206.5l65 95q12 6 18 0l-67 -97q-47 -69 -79 -112t-72 -87t-76.5 -64.5t-71.5 -20.5q-86 0 -86 118q0 48 22 134h-6q-81 -114 -160.5 -183t-140.5 -69zM426 922
l-10 8l305 323h33l-41 -331h-15l-2 247z" />
    <glyph glyph-name="udieresis" unicode="&#xfc;" horiz-adv-x="747" 
d="M51 -12q-42 0 -66 33t-24 98q0 66 36.5 144.5t125.5 213.5l125 189l-4 12h-86q0 12 10 14h182l4 -16l-166 -250q-17 -27 -42.5 -65.5t-38 -57.5t-31 -48t-27 -43t-20 -34.5t-16.5 -32.5t-10.5 -27t-7 -26.5t-1.5 -23.5q0 -66 57 -66q72 0 171.5 104t205.5 273l180 287
l-4 12h-84q0 9 8 14h187l4 -16l-215 -338q-83 -129 -111 -183t-28 -92q0 -61 57 -61q61 0 123.5 65.5t159.5 206.5l65 95q12 6 18 0l-67 -97q-47 -69 -79 -112t-72 -87t-76.5 -64.5t-71.5 -20.5q-86 0 -86 118q0 48 22 134h-6q-81 -114 -160.5 -183t-140.5 -69zM690 1051
l90 137h86l-90 -137h-86zM514 1051l94 137h88l-94 -137h-88z" />
    <glyph glyph-name="yacute" unicode="&#xfd;" horiz-adv-x="739" 
d="M-348 -713q-96 0 -96 101q0 49 28 107t87 126t168 145t255 150l119 61l14 25l146 238h-11q-77 -104 -156 -169t-138 -65q-43 0 -68 33t-25 96q0 70 37.5 148.5t126.5 208.5l115 174l-4 12h-92q-3 10 8 14h190l4 -16l-151 -227q-17 -25 -43 -63.5t-38 -57t-31.5 -48
t-28 -44t-21 -36t-18 -34.5t-11.5 -29t-8 -29t-2 -26q0 -62 62 -62q73 0 173.5 102t196.5 257l181 287l-5 12h-88q0 8 11 14h188l4 -16l-215 -338q-117 -188 -203 -332q125 54 192 93.5t127.5 101.5t129.5 168q12 6 18 0q-43 -67 -80 -114t-74.5 -83.5t-87 -67t-101.5 -55.5
t-134 -59l-10 -17q-41 -69 -76.5 -125t-85 -130t-93 -131t-96 -115.5t-99.5 -97t-97 -63t-94 -24.5zM489 920l-8 8l316 370l39 -36zM-428 -610q0 -86 72 -86q90 0 217 154.5t338 496.5l-99 -51q-143 -71 -250 -147t-165 -142.5t-85 -122.5t-28 -102z" />
    <glyph glyph-name="thorn" unicode="&#xfe;" horiz-adv-x="798" 
d="M-291 -702q-102 8 -102 122q0 72 38.5 154.5t143.5 251.5l977 1569l6 16q79 14 133 88h21l-1076 -1720q-142 -229 -179.5 -296.5t-37.5 -103.5q3 -61 70 -67l582 960q41 69 70 115.5t74.5 113.5t80.5 107.5t74 70.5t69 30q60 0 60 -93q2 -62 -26 -126t-97 -148l-45 -53
q-66 -81 -98.5 -134.5t-32.5 -93.5q0 -29 16 -44t43 -15q64 0 127.5 66.5t165.5 216.5l53 80q11 4 19 0l-54 -80q-109 -159 -175.5 -228t-135.5 -69q-41 0 -64.5 28.5t-23.5 83.5q0 120 123 269l41 49q85 104 114 149.5t29 81.5q0 45 -41 45q-32 0 -73.5 -35t-91.5 -104
t-89 -130t-94 -153z" />
    <glyph glyph-name="ydieresis" unicode="&#xff;" horiz-adv-x="739" 
d="M-348 -713q-96 0 -96 101q0 49 28 107t87 126t168 145t255 150l119 61l14 25l146 238h-11q-77 -104 -156 -169t-138 -65q-43 0 -68 33t-25 96q0 70 37.5 148.5t126.5 208.5l115 174l-4 12h-92q-3 10 8 14h190l4 -16l-151 -227q-17 -25 -43 -63.5t-38 -57t-31.5 -48
t-28 -44t-21 -36t-18 -34.5t-11.5 -29t-8 -29t-2 -26q0 -62 62 -62q73 0 173.5 102t196.5 257l181 287l-5 12h-88q0 8 11 14h188l4 -16l-215 -338q-117 -188 -203 -332q125 54 192 93.5t127.5 101.5t129.5 168q12 6 18 0q-43 -67 -80 -114t-74.5 -83.5t-87 -67t-101.5 -55.5
t-134 -59l-10 -17q-41 -69 -76.5 -125t-85 -130t-93 -131t-96 -115.5t-99.5 -97t-97 -63t-94 -24.5zM662 1051l90 137h86l-90 -137h-86zM485 1051l95 137h88l-95 -137h-88zM-428 -610q0 -86 72 -86q90 0 217 154.5t338 496.5l-99 -51q-143 -71 -250 -147t-165 -142.5
t-85 -122.5t-28 -102z" />
    <glyph glyph-name="Amacron" unicode="&#x100;" horiz-adv-x="1259" 
d="M-586 -309q-146 0 -250 49l-2 27q111 -54 252 -54q92 0 183 21.5t172 55.5t171 93.5t164.5 118.5t168.5 148.5t168 165t177 186.5l193 207h-301l16 16h301l668 715h31q69 0 106 43h25l-637 -1028q-85 -139 -113 -187t-50.5 -102t-22.5 -94q0 -72 71 -72q74 0 148.5 70.5
t175.5 220.5l53 78q12 6 18 0l-55 -82q-104 -153 -182.5 -228t-157.5 -75q-56 0 -83 41.5t-27 101.5q0 84 38 179t136 249l98 154h-229l-205 -220q-104 -111 -179.5 -188.5t-171 -167.5t-171.5 -150t-166.5 -120t-172.5 -94.5t-174 -56t-184 -21.5zM1442 1597l12 23h414
l-13 -23h-413zM852 725h225l443 696h-19z" />
    <glyph glyph-name="amacron" unicode="&#x101;" horiz-adv-x="743" 
d="M424 -14q-84 0 -84 123q0 61 22 143h-8q-100 -141 -166.5 -203.5t-121.5 -62.5q-52 0 -77.5 46.5t-25.5 112.5q0 142 103 299q84 126 203.5 195.5t256.5 69.5q54 0 129 -17h70l-229 -358q-75 -118 -102 -174t-27 -97q0 -63 57 -63t124 68t161 213l59 88q10 6 16 0
l-59 -93q-98 -148 -168.5 -219t-132.5 -71zM520 1006l12 22h390l-13 -22h-389zM6 76q0 -36 17 -56t45 -20q52 0 124.5 73t180.5 230l98 154l143 215q-40 24 -102 24q-98 0 -184 -69t-176 -205q-65 -96 -105.5 -188.5t-40.5 -157.5z" />
    <glyph glyph-name="Abreve" unicode="&#x102;" horiz-adv-x="1259" 
d="M-586 -309q-146 0 -250 49l-2 27q111 -54 252 -54q92 0 183 21.5t172 55.5t171 93.5t164.5 118.5t168.5 148.5t168 165t177 186.5l193 207h-301l16 16h301l668 715h31q69 0 106 43h25l-637 -1028q-85 -139 -113 -187t-50.5 -102t-22.5 -94q0 -72 71 -72q74 0 148.5 70.5
t175.5 220.5l53 78q12 6 18 0l-55 -82q-104 -153 -182.5 -228t-157.5 -75q-56 0 -83 41.5t-27 101.5q0 84 38 179t136 249l98 154h-229l-205 -220q-104 -111 -179.5 -188.5t-171 -167.5t-171.5 -150t-166.5 -120t-172.5 -94.5t-174 -56t-184 -21.5zM1581 1536
q-41 0 -62.5 25t-21.5 63q0 50 41 109h64q-21 -35 -29.5 -50t-15.5 -36t-7 -41q0 -52 47 -52q101 0 189 179h22q-44 -91 -103 -144t-124 -53zM852 725h225l443 696h-19z" />
    <glyph glyph-name="abreve" unicode="&#x103;" horiz-adv-x="743" 
d="M424 -14q-84 0 -84 123q0 61 22 143h-8q-100 -141 -166.5 -203.5t-121.5 -62.5q-52 0 -77.5 46.5t-25.5 112.5q0 142 103 299q84 126 203.5 195.5t256.5 69.5q54 0 129 -17h70l-229 -358q-75 -118 -102 -174t-27 -97q0 -63 57 -63t124 68t161 213l59 88q10 6 16 0
l-59 -93q-98 -148 -168.5 -219t-132.5 -71zM690 936q-34 0 -50.5 21t-16.5 55q0 47 26.5 93t77.5 103h72q-127 -134 -127 -217q0 -37 33 -37q57 0 122.5 72.5t110.5 181.5h23q-137 -272 -271 -272zM6 76q0 -36 17 -56t45 -20q52 0 124.5 73t180.5 230l98 154l143 215
q-40 24 -102 24q-98 0 -184 -69t-176 -205q-65 -96 -105.5 -188.5t-40.5 -157.5z" />
    <glyph glyph-name="Aogonek" unicode="&#x104;" horiz-adv-x="1259" 
d="M-586 -309q-146 0 -250 49l-2 27q111 -54 252 -54q92 0 183 21.5t172 55.5t171 93.5t164.5 118.5t168.5 148.5t168 165t177 186.5l193 207h-301l16 16h301l668 715h31q69 0 106 43h25l-637 -1028q-85 -139 -113 -187t-50.5 -102t-22.5 -94q0 -72 71 -72q74 0 148.5 70.5
t175.5 220.5l53 78q12 6 18 0l-55 -82q-91 -133 -160.5 -206.5t-136.5 -90.5l-104 -111q-105 -107 -105 -196q0 -37 22 -58.5t83 -21.5h59l-8 -17h-88q-66 0 -100.5 22.5t-34.5 63.5q0 37 29 76.5t124 134.5l90 90l-2 11h-8q-56 0 -83 41.5t-27 101.5q0 84 38 179t136 249
l98 154h-229l-205 -220q-104 -111 -179.5 -188.5t-171 -167.5t-171.5 -150t-166.5 -120t-172.5 -94.5t-174 -56t-184 -21.5zM852 725h225l443 696h-19z" />
    <glyph glyph-name="aogonek" unicode="&#x105;" horiz-adv-x="743" 
d="M424 -14q-84 0 -84 123q0 61 22 143h-8q-100 -141 -166.5 -203.5t-121.5 -62.5q-52 0 -77.5 46.5t-25.5 112.5q0 142 103 299q84 126 203.5 195.5t256.5 69.5q54 0 129 -17h70l-229 -358q-75 -118 -102 -174t-27 -97q0 -63 57 -63q9 0 29 4l18 6q88 41 238 271l59 88
q10 6 16 0l-59 -93q-149 -224 -238 -272l-104 -110q-104 -106 -104 -197q0 -38 21.5 -59t82.5 -21h59l-8 -16h-88q-66 0 -100.5 22.5t-34.5 63.5q0 37 29 76t125 135l90 90v2q-20 -4 -31 -4zM6 76q0 -36 17 -56t45 -20q52 0 124.5 73t180.5 230l98 154l143 215
q-40 24 -102 24q-98 0 -184 -69t-176 -205q-65 -96 -105.5 -188.5t-40.5 -157.5z" />
    <glyph glyph-name="Cacute" unicode="&#x106;" horiz-adv-x="1245" 
d="M748 -113q-109 0 -166.5 94.5t-57.5 243.5q0 285 185 611q-108 10 -190 42t-133.5 92t-51.5 142q0 133 135.5 214t404.5 81h314q251 197 442 197q67 0 101 -32t34 -91q0 -33 -12 -74h170l-8 -16h-168q-25 -70 -79.5 -145t-141 -148.5t-191 -132t-239 -95.5t-275.5 -39
q-102 -185 -160.5 -362t-58.5 -319q0 -116 39.5 -178t116.5 -62q184 0 448 373l62 86q9 6 18 0l-63 -90q-139 -199 -255 -295.5t-220 -96.5zM1642 1659l-4 10l367 168l6 -51zM352 1112q0 -113 101.5 -178.5t265.5 -79.5q88 154 204.5 293t243.5 244h-293
q-263 0 -392.5 -76.5t-129.5 -202.5zM831 850q137 3 267.5 39.5t231 93.5t184 128t137 142.5t78.5 137.5h-478q-226 -204 -420 -541zM1270 1407h465q12 41 12 74q0 106 -115 106q-156 0 -362 -180z" />
    <glyph glyph-name="cacute" unicode="&#x107;" horiz-adv-x="497" 
d="M109 -12q-62 0 -97 51.5t-35 136.5q0 132 93 281q70 111 169 181.5t199 70.5q50 0 84 -27l-39 -59q-10 24 -16.5 35.5t-19.5 22.5t-29 11q-51 0 -119.5 -69t-136.5 -183q-131 -218 -131 -342q0 -94 82 -94q83 0 180 87.5t227 277.5q4 5 11 5t8 -5q-135 -197 -237.5 -289
t-192.5 -92zM477 920l-8 8l315 370l39 -36z" />
    <glyph glyph-name="Cdotaccent" unicode="&#x10a;" horiz-adv-x="1245" 
d="M748 -113q-109 0 -166.5 94.5t-57.5 243.5q0 285 185 611q-108 10 -190 42t-133.5 92t-51.5 142q0 133 135.5 214t404.5 81h314q251 197 442 197q67 0 101 -32t34 -91q0 -33 -12 -74h170l-8 -16h-168q-25 -70 -79.5 -145t-141 -148.5t-191 -132t-239 -95.5t-275.5 -39
q-102 -185 -160.5 -362t-58.5 -319q0 -116 39.5 -178t116.5 -62q184 0 448 373l62 86q9 6 18 0l-63 -90q-139 -199 -255 -295.5t-220 -96.5zM1661 1696l88 125h92l-88 -125h-92zM352 1112q0 -113 101.5 -178.5t265.5 -79.5q88 154 204.5 293t243.5 244h-293
q-263 0 -392.5 -76.5t-129.5 -202.5zM831 850q137 3 267.5 39.5t231 93.5t184 128t137 142.5t78.5 137.5h-478q-226 -204 -420 -541zM1270 1407h465q12 41 12 74q0 106 -115 106q-156 0 -362 -180z" />
    <glyph glyph-name="cdotaccent" unicode="&#x10b;" horiz-adv-x="497" 
d="M109 -12q-62 0 -97 51.5t-35 136.5q0 132 93 281q70 111 169 181.5t199 70.5q50 0 84 -27l-39 -59q-10 24 -16.5 35.5t-19.5 22.5t-29 11q-51 0 -119.5 -69t-136.5 -183q-131 -218 -131 -342q0 -94 82 -94q83 0 180 87.5t227 277.5q4 5 11 5t8 -5q-135 -197 -237.5 -289
t-192.5 -92zM561 1057l90 137h97l-91 -137h-96z" />
    <glyph glyph-name="Ccaron" unicode="&#x10c;" horiz-adv-x="1245" 
d="M748 -113q-109 0 -166.5 94.5t-57.5 243.5q0 285 185 611q-108 10 -190 42t-133.5 92t-51.5 142q0 133 135.5 214t404.5 81h314q251 197 442 197q67 0 101 -32t34 -91q0 -33 -12 -74h170l-8 -16h-168q-25 -70 -79.5 -145t-141 -148.5t-191 -132t-239 -95.5t-275.5 -39
q-102 -185 -160.5 -362t-58.5 -319q0 -116 39.5 -178t116.5 -62q184 0 448 373l62 86q9 6 18 0l-63 -90q-139 -199 -255 -295.5t-220 -96.5zM1667 1655l-59 196h16l78 -143l266 143h17l-299 -196h-19zM352 1112q0 -113 101.5 -178.5t265.5 -79.5q88 154 204.5 293t243.5 244
h-293q-263 0 -392.5 -76.5t-129.5 -202.5zM831 850q137 3 267.5 39.5t231 93.5t184 128t137 142.5t78.5 137.5h-478q-226 -204 -420 -541zM1270 1407h465q12 41 12 74q0 106 -115 106q-156 0 -362 -180z" />
    <glyph glyph-name="ccaron" unicode="&#x10d;" horiz-adv-x="497" 
d="M109 -12q-62 0 -97 51.5t-35 136.5q0 132 93 281q70 111 169 181.5t199 70.5q50 0 84 -27l-39 -59q-10 24 -16.5 35.5t-19.5 22.5t-29 11q-51 0 -119.5 -69t-136.5 -183q-131 -218 -131 -342q0 -94 82 -94q83 0 180 87.5t227 277.5q4 5 11 5t8 -5q-135 -197 -237.5 -289
t-192.5 -92zM496 915l98 365h14l-49 -295l318 299l10 -6l-352 -363h-39z" />
    <glyph glyph-name="Dcaron" unicode="&#x10e;" horiz-adv-x="1820" 
d="M197 0l8 18h352l301 482h-37q-213 0 -327.5 117t-114.5 307q0 99 35 198.5t106 190.5t168.5 161t233 112t288.5 42q352 0 527 -221h422l-11 -16h-399q115 -161 115 -377q0 -120 -34.5 -243.5t-97 -235.5t-154.5 -210t-201.5 -170t-244 -113.5t-276.5 -41.5h-659z
M1835 1511l-59 197h16l78 -143l266 143h16l-299 -197h-18zM395 924q0 -185 110 -296.5t318 -111.5h45l504 809l150 82h178q-139 205 -490 205q-153 0 -287.5 -41.5t-229 -110.5t-163.5 -158.5t-102 -186t-33 -191.5zM606 18h262q126 0 247 48.5t220 130.5t183 191.5t141 231
t89 250t32 246.5q0 160 -70 275h-180l-819 -1317z" />
    <glyph glyph-name="dcaron" unicode="&#x10f;" horiz-adv-x="772" 
d="M442 -12q-96 0 -96 139q0 65 25 135h-9q-107 -149 -175 -213.5t-124 -64.5q-52 0 -77 46.5t-25 112.5q0 143 102 299q84 126 204 195.5t257 69.5q42 0 97 -9l436 693h-348l10 16h297q63 0 108.5 21t79.5 71h21l-688 -1102q-53 -85 -69.5 -112t-44.5 -77.5t-36 -78.5
t-8 -55q0 -72 61 -72q63 0 130.5 66.5t158.5 199.5l68 101q11 5 16 0l-72 -107q-91 -136 -160.5 -205t-138.5 -69zM1055 1014l248 393h92l-326 -393h-14zM4 74q0 -36 17 -56t45 -20q52 0 124.5 73t180.5 230l137 217l98 156q-45 20 -96 20q-98 0 -184 -69t-176 -205
q-65 -96 -105.5 -188.5t-40.5 -157.5z" />
    <glyph glyph-name="Dcroat" unicode="&#x110;" horiz-adv-x="1820" 
d="M197 0l8 18h352l301 482h-37q-213 0 -327.5 117t-114.5 307q0 99 35 198.5t106 190.5t168.5 161t233 112t288.5 42q352 0 527 -221h422l-11 -16h-399q115 -161 115 -377q0 -120 -34.5 -243.5t-97 -235.5t-154.5 -210t-201.5 -170t-244 -113.5t-276.5 -41.5h-659zM754 754
l10 16h262l346 555l150 82h178q-139 205 -490 205q-153 0 -287.5 -41.5t-229 -110.5t-163.5 -158.5t-102 -186t-33 -191.5q0 -185 110 -296.5t318 -111.5h45l148 238h-262zM606 18h262q126 0 247 48.5t220 130.5t183 191.5t141 231t89 250t32 246.5q0 160 -70 275h-180
l-385 -621h276l-10 -16h-276l-424 -680z" />
    <glyph glyph-name="dcroat" unicode="&#x111;" horiz-adv-x="772" 
d="M442 -12q-96 0 -96 139q0 65 25 135h-9q-107 -149 -175 -213.5t-124 -64.5q-52 0 -77 46.5t-25 112.5q0 143 102 299q84 126 204 195.5t257 69.5q42 0 97 -9l262 416h-330l14 19h328l162 258h-348l10 16h297q63 0 108.5 21t79.5 71h21l-230 -366h209l-14 -19h-205
l-448 -717q-53 -85 -69.5 -112t-44.5 -77.5t-36 -78.5t-8 -55q0 -72 61 -72q63 0 130.5 66.5t158.5 199.5l68 101q11 5 16 0l-72 -107q-91 -136 -160.5 -205t-138.5 -69zM4 74q0 -36 17 -56t45 -20q52 0 124.5 73t180.5 230l137 217l98 156q-45 20 -96 20q-98 0 -184 -69
t-176 -205q-65 -96 -105.5 -188.5t-40.5 -157.5z" />
    <glyph glyph-name="Emacron" unicode="&#x112;" horiz-adv-x="1511" 
d="M1006 -23q-169 0 -375 91q-137 -84 -328 -84q-147 0 -227 43t-80 102q0 45 47.5 78t138.5 33q35 0 73.5 -6.5t63.5 -12t73.5 -24.5t63 -25t73.5 -32.5t67 -30.5q50 46 100.5 116t126.5 189q-236 41 -353.5 152.5t-117.5 267.5q0 81 33 160.5t104 154.5t172.5 132
t250 91.5t323.5 34.5h750l-11 -16h-428l-391 -627h238l51 88h24l-133 -225h-24l69 118h-237l-213 -342q-140 -224 -277 -319q193 -82 355 -82q71 0 131.5 14t106 37t88 60t75 76.5t68.5 93.5l59 88q9 5 16 -2l-61 -90q-37 -57 -66 -94t-73.5 -80.5t-90.5 -68.5t-112 -42
t-143 -17zM1378 1573l13 22h413l-12 -22h-414zM14 127q0 -49 73 -86t202 -37q176 0 289 88q-7 3 -49 23t-52 24.5t-47 20.5t-52 21l-46.5 15.5t-52.5 14t-48.5 7t-52.5 3.5q-83 0 -123.5 -28.5t-40.5 -65.5zM371 834q0 -151 116.5 -258.5t346.5 -145.5l2 4l553 889l120 68
h-276q-172 0 -317 -34t-243.5 -90t-168 -129t-101.5 -150t-32 -154z" />
    <glyph glyph-name="emacron" unicode="&#x113;" horiz-adv-x="493" 
d="M111 -12q-62 0 -96.5 51t-34.5 133q0 141 88 279q69 111 171 184.5t181 73.5q65 0 65 -60q0 -62 -86 -135q-107 -90 -276 -139q-92 -169 -92 -275q0 -96 84 -96q81 0 177 86t226 279q4 5 10 5t7 -5q-133 -200 -234.5 -290.5t-189.5 -90.5zM406 1006l12 22h389l-12 -22
h-389zM129 389q70 22 140.5 60.5t121.5 82.5q78 71 78 123q0 39 -41 39q-58 0 -130.5 -73t-143.5 -191z" />
    <glyph glyph-name="Edotaccent" unicode="&#x116;" horiz-adv-x="1511" 
d="M1006 -23q-169 0 -375 91q-137 -84 -328 -84q-147 0 -227 43t-80 102q0 45 47.5 78t138.5 33q35 0 73.5 -6.5t63.5 -12t73.5 -24.5t63 -25t73.5 -32.5t67 -30.5q50 46 100.5 116t126.5 189q-236 41 -353.5 152.5t-117.5 267.5q0 81 33 160.5t104 154.5t172.5 132
t250 91.5t323.5 34.5h750l-11 -16h-428l-391 -627h238l51 88h24l-133 -225h-24l69 118h-237l-213 -342q-140 -224 -277 -319q193 -82 355 -82q71 0 131.5 14t106 37t88 60t75 76.5t68.5 93.5l59 88q9 5 16 -2l-61 -90q-37 -57 -66 -94t-73.5 -80.5t-90.5 -68.5t-112 -42
t-143 -17zM1528 1552l88 125h92l-88 -125h-92zM14 127q0 -49 73 -86t202 -37q176 0 289 88q-7 3 -49 23t-52 24.5t-47 20.5t-52 21l-46.5 15.5t-52.5 14t-48.5 7t-52.5 3.5q-83 0 -123.5 -28.5t-40.5 -65.5zM371 834q0 -151 116.5 -258.5t346.5 -145.5l2 4l553 889l120 68
h-276q-172 0 -317 -34t-243.5 -90t-168 -129t-101.5 -150t-32 -154z" />
    <glyph glyph-name="edotaccent" unicode="&#x117;" horiz-adv-x="493" 
d="M111 -12q-62 0 -96.5 51t-34.5 133q0 141 88 279q69 111 171 184.5t181 73.5q65 0 65 -60q0 -62 -86 -135q-107 -90 -276 -139q-92 -169 -92 -275q0 -96 84 -96q81 0 177 86t226 279q4 5 10 5t7 -5q-133 -200 -234.5 -290.5t-189.5 -90.5zM580 1057l90 137h96l-90 -137
h-96zM129 389q70 22 140.5 60.5t121.5 82.5q78 71 78 123q0 39 -41 39q-58 0 -130.5 -73t-143.5 -191z" />
    <glyph glyph-name="Eogonek" unicode="&#x118;" horiz-adv-x="1511" 
d="M1006 -23q-169 0 -375 91q-137 -84 -328 -84q-147 0 -227 43t-80 102q0 45 47.5 78t138.5 33q35 0 73.5 -6.5t63.5 -12t73.5 -24.5t63 -25t73.5 -32.5t67 -30.5q50 46 100.5 116t126.5 189q-236 41 -353.5 152.5t-117.5 267.5q0 81 33 160.5t104 154.5t172.5 132
t250 91.5t323.5 34.5h750l-11 -16h-428l-391 -627h238l51 88h24l-133 -225h-24l69 118h-237l-213 -342q-140 -224 -277 -319q193 -82 355 -82q71 0 131.5 14t106 37t88 60t75 76.5t68.5 93.5l59 88q9 5 16 -2l-61 -90q-37 -56 -65.5 -92.5t-69.5 -77.5t-89 -69t-106 -44
l-98 -102q-105 -108 -105 -197q0 -37 22 -58.5t83 -21.5h59l-8 -16h-88q-66 0 -100.5 22.5t-34.5 63.5q0 37 29 76.5t124 134.5l91 90v2q-63 -13 -129 -13zM14 127q0 -49 73 -86t202 -37q176 0 289 88q-7 3 -49 23t-52 24.5t-47 20.5t-52 21l-46.5 15.5t-52.5 14t-48.5 7
t-52.5 3.5q-83 0 -123.5 -28.5t-40.5 -65.5zM371 834q0 -151 116.5 -258.5t346.5 -145.5l2 4l553 889l120 68h-276q-172 0 -317 -34t-243.5 -90t-168 -129t-101.5 -150t-32 -154z" />
    <glyph glyph-name="eogonek" unicode="&#x119;" horiz-adv-x="493" 
d="M111 -12q-62 0 -96.5 51t-34.5 133q0 141 88 279q69 111 171 184.5t181 73.5q65 0 65 -60q0 -62 -86 -135q-107 -90 -276 -139q-92 -169 -92 -275q0 -96 84 -96q81 0 177 86t226 279q4 5 10 5t7 -5q-198 -298 -336 -361l-109 -114q-104 -106 -104 -197q0 -38 21.5 -59
t82.5 -21h60l-9 -16h-88q-66 0 -100.5 22.5t-34.5 63.5q0 37 29 76t125 135l90 90v6q-27 -6 -51 -6zM129 389q70 22 140.5 60.5t121.5 82.5q78 71 78 123q0 39 -41 39q-58 0 -130.5 -73t-143.5 -191z" />
    <glyph glyph-name="Ecaron" unicode="&#x11a;" horiz-adv-x="1511" 
d="M1006 -23q-169 0 -375 91q-137 -84 -328 -84q-147 0 -227 43t-80 102q0 45 47.5 78t138.5 33q35 0 73.5 -6.5t63.5 -12t73.5 -24.5t63 -25t73.5 -32.5t67 -30.5q50 46 100.5 116t126.5 189q-236 41 -353.5 152.5t-117.5 267.5q0 81 33 160.5t104 154.5t172.5 132
t250 91.5t323.5 34.5h750l-11 -16h-428l-391 -627h238l51 88h24l-133 -225h-24l69 118h-237l-213 -342q-140 -224 -277 -319q193 -82 355 -82q71 0 131.5 14t106 37t88 60t75 76.5t68.5 93.5l59 88q9 5 16 -2l-61 -90q-37 -57 -66 -94t-73.5 -80.5t-90.5 -68.5t-112 -42
t-143 -17zM1534 1511l-59 197h16l78 -143l266 143h16l-299 -197h-18zM14 127q0 -49 73 -86t202 -37q176 0 289 88q-7 3 -49 23t-52 24.5t-47 20.5t-52 21l-46.5 15.5t-52.5 14t-48.5 7t-52.5 3.5q-83 0 -123.5 -28.5t-40.5 -65.5zM371 834q0 -151 116.5 -258.5t346.5 -145.5
l2 4l553 889l120 68h-276q-172 0 -317 -34t-243.5 -90t-168 -129t-101.5 -150t-32 -154z" />
    <glyph glyph-name="ecaron" unicode="&#x11b;" horiz-adv-x="493" 
d="M111 -12q-62 0 -96.5 51t-34.5 133q0 141 88 279q69 111 171 184.5t181 73.5q65 0 65 -60q0 -62 -86 -135q-107 -90 -276 -139q-92 -169 -92 -275q0 -96 84 -96q81 0 177 86t226 279q4 5 10 5t7 -5q-133 -200 -234.5 -290.5t-189.5 -90.5zM516 915l98 365h15l-49 -295
l317 299l10 -6l-352 -363h-39zM129 389q70 22 140.5 60.5t121.5 82.5q78 71 78 123q0 39 -41 39q-58 0 -130.5 -73t-143.5 -191z" />
    <glyph glyph-name="Gcircumflex" unicode="&#x11c;" horiz-adv-x="1605" 
d="M352 -711q-184 0 -288 84.5t-84 227.5q11 83 64.5 137.5t132 77t183.5 22.5q58 0 273 -11t282 -11l46 2q33 47 65.5 95t66.5 103t56 91t60.5 101t54.5 91h-4q-236 -296 -435 -299q-78 0 -132 46.5t-78.5 120t-24.5 167.5q0 245 164 530q-153 21 -249.5 83t-96.5 169
q0 129 138 210t412 81h271q264 197 465 197q73 0 110 -41.5t37 -106.5q0 -17 -4 -49h170l-12 -16h-162q-23 -97 -109.5 -194t-212 -172t-289.5 -122t-329 -47h-23q-95 -169 -149.5 -331.5t-54.5 -288.5q0 -105 42 -161.5t121 -56.5q125 0 258.5 116.5t296.5 363.5
q9 52 31 159h121q-72 -69 -147 -196q-73 -113 -170.5 -320t-163.5 -319q149 33 259 137t259 326l55 84q11 8 19 0l-60 -88q-76 -113 -134 -187t-124 -136.5t-134.5 -99t-150.5 -53.5l-12 -20q-69 -115 -138 -200.5t-152.5 -154.5t-181.5 -105t-208 -36zM1509 1669l-8 10
l322 189h18l33 -197h-16l-58 146zM-4 -399q-12 -86 29.5 -152t113 -98.5t156.5 -32.5q92 0 181.5 37t172 106t153.5 150t146 188h-33q-68 0 -283.5 11.5t-273.5 11.5q-155 0 -250 -53.5t-112 -167.5zM426 1116q0 -98 94 -157t242 -78q176 296 446 510h-250
q-266 0 -399 -76.5t-133 -198.5zM879 872h12q163 0 324 45.5t283.5 118.5t208 167t108.5 188h-527q-223 -196 -409 -519zM1307 1407h512q4 32 4 49q0 60 -32.5 95.5t-96.5 35.5q-175 0 -387 -180z" />
    <glyph glyph-name="gcircumflex" unicode="&#x11d;" horiz-adv-x="729" 
d="M-362 -713q-97 0 -97 101q0 49 28 107t87.5 126t168.5 145t255 150l108 57l168 269h-6q-91 -122 -157 -178.5t-121 -57.5q-53 0 -77 48t-24 112q0 137 99 285q84 124 206.5 192t253.5 66q47 0 117 -17h76l-205 -327q-26 -42 -107.5 -178t-107.5 -179q176 77 260.5 143
t190.5 218q10 6 16 0q-108 -160 -197.5 -229.5t-279.5 -149.5l-8 -13q-65 -109 -123.5 -198t-130.5 -184.5t-135.5 -160t-131.5 -106t-126 -41.5zM481 922l-10 8l305 323h33l-41 -331h-14l-2 247zM-442 -610q0 -86 71 -86q86 0 205.5 144.5t308.5 451.5l31 51l-88 -47
q-143 -71 -250 -147t-165 -142.5t-85 -122.5t-28 -102zM14 96q0 -73 58 -73q97 0 264 223q97 143 153 235l119 189q-31 24 -90 24q-183 3 -364 -264q-140 -210 -140 -334z" />
    <glyph glyph-name="Gbreve" unicode="&#x11e;" horiz-adv-x="1605" 
d="M352 -711q-184 0 -288 84.5t-84 227.5q11 83 64.5 137.5t132 77t183.5 22.5q58 0 273 -11t282 -11l46 2q33 47 65.5 95t66.5 103t56 91t60.5 101t54.5 91h-4q-236 -296 -435 -299q-78 0 -132 46.5t-78.5 120t-24.5 167.5q0 245 164 530q-153 21 -249.5 83t-96.5 169
q0 129 138 210t412 81h271q264 197 465 197q73 0 110 -41.5t37 -106.5q0 -17 -4 -49h170l-12 -16h-162q-23 -97 -109.5 -194t-212 -172t-289.5 -122t-329 -47h-23q-95 -169 -149.5 -331.5t-54.5 -288.5q0 -105 42 -161.5t121 -56.5q125 0 258.5 116.5t296.5 363.5
q9 52 31 159h121q-72 -69 -147 -196q-73 -113 -170.5 -320t-163.5 -319q149 33 259 137t259 326l55 84q11 8 19 0l-60 -88q-76 -113 -134 -187t-124 -136.5t-134.5 -99t-150.5 -53.5l-12 -20q-69 -115 -138 -200.5t-152.5 -154.5t-181.5 -105t-208 -36zM1679 1671
q-41 0 -62.5 25t-21.5 63q0 50 41 109h64q-29 -48 -40 -73.5t-11 -53.5q0 -51 47 -51q101 0 188 178h23q-44 -91 -103.5 -144t-124.5 -53zM-4 -399q-12 -86 29.5 -152t113 -98.5t156.5 -32.5q92 0 181.5 37t172 106t153.5 150t146 188h-33q-68 0 -283.5 11.5t-273.5 11.5
q-155 0 -250 -53.5t-112 -167.5zM426 1116q0 -98 94 -157t242 -78q176 296 446 510h-250q-266 0 -399 -76.5t-133 -198.5zM879 872h12q163 0 324 45.5t283.5 118.5t208 167t108.5 188h-527q-223 -196 -409 -519zM1307 1407h512q4 32 4 49q0 60 -32.5 95.5t-96.5 35.5
q-175 0 -387 -180z" />
    <glyph glyph-name="gbreve" unicode="&#x11f;" horiz-adv-x="729" 
d="M-362 -713q-97 0 -97 101q0 49 28 107t87.5 126t168.5 145t255 150l108 57l168 269h-6q-91 -122 -157 -178.5t-121 -57.5q-53 0 -77 48t-24 112q0 137 99 285q84 124 206.5 192t253.5 66q47 0 117 -17h76l-205 -327q-26 -42 -107.5 -178t-107.5 -179q176 77 260.5 143
t190.5 218q10 6 16 0q-108 -160 -197.5 -229.5t-279.5 -149.5l-8 -13q-65 -109 -123.5 -198t-130.5 -184.5t-135.5 -160t-131.5 -106t-126 -41.5zM653 936q-34 0 -50.5 21t-16.5 55q0 47 26.5 93t77.5 103h72q-127 -134 -127 -217q0 -37 33 -37q57 0 122.5 72.5t110.5 181.5
h23q-137 -272 -271 -272zM-442 -610q0 -86 71 -86q86 0 205.5 144.5t308.5 451.5l31 51l-88 -47q-143 -71 -250 -147t-165 -142.5t-85 -122.5t-28 -102zM14 96q0 -73 58 -73q97 0 264 223q97 143 153 235l119 189q-31 24 -90 24q-183 3 -364 -264q-140 -210 -140 -334z" />
    <glyph glyph-name="Gdotaccent" unicode="&#x120;" horiz-adv-x="1605" 
d="M352 -711q-184 0 -288 84.5t-84 227.5q11 83 64.5 137.5t132 77t183.5 22.5q58 0 273 -11t282 -11l46 2q33 47 65.5 95t66.5 103t56 91t60.5 101t54.5 91h-4q-236 -296 -435 -299q-78 0 -132 46.5t-78.5 120t-24.5 167.5q0 245 164 530q-153 21 -249.5 83t-96.5 169
q0 129 138 210t412 81h271q264 197 465 197q73 0 110 -41.5t37 -106.5q0 -17 -4 -49h170l-12 -16h-162q-23 -97 -109.5 -194t-212 -172t-289.5 -122t-329 -47h-23q-95 -169 -149.5 -331.5t-54.5 -288.5q0 -105 42 -161.5t121 -56.5q125 0 258.5 116.5t296.5 363.5
q9 52 31 159h121q-72 -69 -147 -196q-73 -113 -170.5 -320t-163.5 -319q149 33 259 137t259 326l55 84q11 8 19 0l-60 -88q-76 -113 -134 -187t-124 -136.5t-134.5 -99t-150.5 -53.5l-12 -20q-69 -115 -138 -200.5t-152.5 -154.5t-181.5 -105t-208 -36zM1690 1712l88 125h92
l-88 -125h-92zM-4 -399q-12 -86 29.5 -152t113 -98.5t156.5 -32.5q92 0 181.5 37t172 106t153.5 150t146 188h-33q-68 0 -283.5 11.5t-273.5 11.5q-155 0 -250 -53.5t-112 -167.5zM426 1116q0 -98 94 -157t242 -78q176 296 446 510h-250q-266 0 -399 -76.5t-133 -198.5z
M879 872h12q163 0 324 45.5t283.5 118.5t208 167t108.5 188h-527q-223 -196 -409 -519zM1307 1407h512q4 32 4 49q0 60 -32.5 95.5t-96.5 35.5q-175 0 -387 -180z" />
    <glyph glyph-name="gdotaccent" unicode="&#x121;" horiz-adv-x="729" 
d="M-362 -713q-97 0 -97 101q0 49 28 107t87.5 126t168.5 145t255 150l108 57l168 269h-6q-91 -122 -157 -178.5t-121 -57.5q-53 0 -77 48t-24 112q0 137 99 285q84 124 206.5 192t253.5 66q47 0 117 -17h76l-205 -327q-26 -42 -107.5 -178t-107.5 -179q176 77 260.5 143
t190.5 218q10 6 16 0q-108 -160 -197.5 -229.5t-279.5 -149.5l-8 -13q-65 -109 -123.5 -198t-130.5 -184.5t-135.5 -160t-131.5 -106t-126 -41.5zM657 1057l91 137h96l-90 -137h-97zM-442 -610q0 -86 71 -86q86 0 205.5 144.5t308.5 451.5l31 51l-88 -47q-143 -71 -250 -147
t-165 -142.5t-85 -122.5t-28 -102zM14 96q0 -73 58 -73q97 0 264 223q97 143 153 235l119 189q-31 24 -90 24q-183 3 -364 -264q-140 -210 -140 -334z" />
    <glyph glyph-name="uni0122" unicode="&#x122;" horiz-adv-x="1605" 
d="M352 -711q-184 0 -288 84.5t-84 227.5q11 83 64.5 137.5t132 77t183.5 22.5q70 0 308 -12l53 90h80l-72 -94q108 -6 186 -6l46 2q33 47 65.5 95t66.5 103t56 91t60.5 101t54.5 91h-4q-236 -296 -435 -299q-78 0 -132 46.5t-78.5 120t-24.5 167.5q0 245 164 530
q-153 21 -249.5 83t-96.5 169q0 129 138 210t412 81h271q264 197 465 197q73 0 110 -41.5t37 -106.5q0 -17 -4 -49h170l-12 -16h-162q-23 -97 -109.5 -194t-212 -172t-289.5 -122t-329 -47h-23q-95 -169 -149.5 -331.5t-54.5 -288.5q0 -105 42 -161.5t121 -56.5
q125 0 258.5 116.5t296.5 363.5q9 52 31 159h121q-72 -69 -147 -196q-73 -113 -170.5 -320t-163.5 -319q149 33 259 137t259 326l55 84q11 8 19 0l-60 -88q-76 -113 -134 -187t-124 -136.5t-134.5 -99t-150.5 -53.5l-12 -20q-69 -115 -138 -200.5t-152.5 -154.5t-181.5 -105
t-208 -36zM528 -436l-8 10l137 236q-234 12 -299 12q-155 0 -250 -53.5t-112 -167.5q-12 -86 29.5 -152t113 -98.5t156.5 -32.5q92 0 181.5 37t172 106t153.5 150t146 188h-33q-81 0 -198 6zM426 1116q0 -98 94 -157t242 -78q176 296 446 510h-250q-266 0 -399 -76.5
t-133 -198.5zM879 872h12q163 0 324 45.5t283.5 118.5t208 167t108.5 188h-527q-223 -196 -409 -519zM1307 1407h512q4 32 4 49q0 60 -32.5 95.5t-96.5 35.5q-175 0 -387 -180z" />
    <glyph glyph-name="uni0123" unicode="&#x123;" horiz-adv-x="729" 
d="M-362 -713q-97 0 -97 101q0 49 28 107t87.5 126t168.5 145t255 150l108 57l168 269h-6q-91 -122 -157 -178.5t-121 -57.5q-53 0 -77 48t-24 112q0 137 99 285q84 124 206.5 192t253.5 66q47 0 117 -17h76l-205 -327q-26 -42 -107.5 -178t-107.5 -179q176 77 260.5 143
t190.5 218q10 6 16 0q-108 -160 -197.5 -229.5t-279.5 -149.5l-8 -13q-65 -109 -123.5 -198t-130.5 -184.5t-135.5 -160t-131.5 -106t-126 -41.5zM664 918q-28 56 -19 114t39.5 105t86.5 76.5t122 29.5l-19 -20q-70 0 -131 -45t-61 -101q0 -41 55 -88l-43 -71h-30z
M-442 -610q0 -86 71 -86q86 0 205.5 144.5t308.5 451.5l31 51l-88 -47q-143 -71 -250 -147t-165 -142.5t-85 -122.5t-28 -102zM14 96q0 -73 58 -73q97 0 264 223q97 143 153 235l119 189q-31 24 -90 24q-183 3 -364 -264q-140 -210 -140 -334z" />
    <glyph glyph-name="Hcircumflex" unicode="&#x124;" horiz-adv-x="1806" 
d="M285 -111q-160 0 -255.5 92.5t-95.5 231.5q0 222 198 358t511 136h72q-114 28 -177 100.5t-63 177.5q0 133 100 229.5t274.5 144.5t403.5 48h1114l-10 -16h-219l-821 -1317l-105 -56h328l-8 -18h-623l11 18h243l420 670h-422l-196 -315q-56 -89 -106.5 -156.5
t-115.5 -131.5t-131.5 -105t-150 -66t-176.5 -25zM1751 1509l-8 11l321 188h19l33 -197h-17l-57 146zM-49 213q0 -130 91 -217.5t243 -87.5q54 0 103 12t90 31.5t83 55t75 70t74 91t72.5 104.5t77.5 121l184 295h-405q-200 0 -356 -58t-244 -166.5t-88 -250.5zM494 985
q0 -129 99 -203.5t271 -74.5h193l385 616l123 68h-312q-225 0 -395.5 -47t-267 -139.5t-96.5 -219.5zM1174 707h419l385 616l123 68h-499z" />
    <glyph glyph-name="hcircumflex" unicode="&#x125;" horiz-adv-x="811" 
d="M-86 0l864 1391h-364l10 16h315q63 0 108 21t79 71h22l-667 -1050h12q207 260 338 260q80 0 80 -111q0 -54 -21.5 -106t-77.5 -127l-71 -97q-63 -84 -90 -132.5t-27 -80.5q0 -26 14 -41.5t41 -15.5q62 0 131 71t168 218l56 82q12 6 18 0l-55 -82q-48 -71 -80.5 -114.5
t-76 -92.5t-84 -72.5t-79.5 -23.5q-47 0 -67.5 34t-20.5 84q0 57 28.5 119t94.5 150l74 98q90 116 90 176q0 45 -49 45q-81 0 -204 -120t-257 -328l-152 -242h-100zM688 1536l-8 10l321 189h19l33 -197h-17l-57 145z" />
    <glyph glyph-name="Hbar" unicode="&#x126;" horiz-adv-x="1806" 
d="M285 -111q-160 0 -255.5 92.5t-95.5 231.5q0 222 198 358t511 136h72q-114 28 -177 100.5t-63 177.5q0 133 100 229.5t274.5 144.5t403.5 48h1114l-10 -16h-219l-231 -369h307l-12 -16h-306l-579 -932l-105 -56h328l-8 -18h-623l11 18h243l420 670h-422l-196 -315
q-56 -89 -106.5 -156.5t-115.5 -131.5t-131.5 -105t-150 -66t-176.5 -25zM920 1006l12 16h321l189 301l123 68h-312q-225 0 -395.5 -47t-267 -139.5t-96.5 -219.5q0 -129 99 -203.5t271 -74.5h193l186 299h-323zM-49 213q0 -130 91 -217.5t243 -87.5q54 0 103 12t90 31.5
t83 55t75 70t74 91t72.5 104.5t77.5 121l184 295h-405q-200 0 -356 -58t-244 -166.5t-88 -250.5zM1174 707h419l187 299h-420zM1370 1022h420l188 301l123 68h-499z" />
    <glyph glyph-name="hbar" unicode="&#x127;" horiz-adv-x="811" 
d="M-86 0l692 1114h-307l14 19h305l160 258h-364l10 16h315q63 0 108 21t79 71h22l-233 -366h235l-14 -19h-231l-424 -665h12q207 260 338 260q80 0 80 -111q0 -54 -21.5 -106t-77.5 -127l-71 -97q-63 -84 -90 -132.5t-27 -80.5q0 -26 14 -41.5t41 -15.5q62 0 131 71
t168 218l56 82q12 6 18 0l-55 -82q-48 -71 -80.5 -114.5t-76 -92.5t-84 -72.5t-79.5 -23.5q-47 0 -67.5 34t-20.5 84q0 57 28.5 119t94.5 150l74 98q90 116 90 176q0 45 -49 45q-81 0 -204 -120t-257 -328l-152 -242h-100z" />
    <glyph glyph-name="Itilde" unicode="&#x128;" horiz-adv-x="759" 
d="M-225 0l10 18h285l815 1305l121 68h-361l12 16h678l-10 -16h-283l-825 -1317l-100 -56h352l-12 -18h-682zM1176 1489q-28 0 -52.5 21t-39 45.5t-35.5 45.5t-43 21q-31 0 -61 -27t-79 -92l-12 10q64 83 102 118.5t78 35.5q28 0 53 -22.5t41 -49t37 -49t41 -22.5
q19 0 32 14.5t13 42.5q0 34 -24 64l18 6q21 -44 21 -68q0 -41 -26.5 -67.5t-63.5 -26.5z" />
    <glyph glyph-name="itilde" unicode="&#x129;" horiz-adv-x="395" 
d="M80 -12q-47 0 -67.5 35t-20.5 86q0 81 32.5 160t106.5 196l127 201l-4 12h-90q0 9 8 14h190l5 -14l-170 -268q-108 -170 -142.5 -236t-34.5 -111q0 -61 60 -61q59 0 122 66t150 198l68 103q11 5 16 0l-71 -109q-43 -66 -74.5 -108.5t-68.5 -83.5t-72 -60.5t-70 -19.5z
M582 952q-26 0 -49 15t-39.5 37t-32 44t-34 37t-38.5 15q-30 0 -60.5 -30.5t-76.5 -102.5l-12 12q60 91 98.5 131.5t79.5 40.5q30 0 57.5 -25.5t45.5 -55.5t42 -55.5t47 -25.5q20 0 33.5 15.5t13.5 44.5q0 33 -26 77l18 4q23 -41 23 -79q0 -42 -26.5 -70.5t-63.5 -28.5z" />
    <glyph glyph-name="Imacron" unicode="&#x12a;" horiz-adv-x="759" 
d="M-225 0l10 18h285l815 1305l121 68h-361l12 16h678l-10 -16h-283l-825 -1317l-100 -56h352l-12 -18h-682zM903 1573l12 22h414l-12 -22h-414z" />
    <glyph glyph-name="imacron" unicode="&#x12b;" horiz-adv-x="395" 
d="M80 -12q-47 0 -67.5 35t-20.5 86q0 81 32.5 160t106.5 196l127 201l-4 12h-90q0 9 8 14h190l5 -14l-170 -268q-108 -170 -142.5 -236t-34.5 -111q0 -61 60 -61q59 0 122 66t150 198l68 103q11 5 16 0l-71 -109q-43 -66 -74.5 -108.5t-68.5 -83.5t-72 -60.5t-70 -19.5z
M281 1006l12 22h389l-12 -22h-389z" />
    <glyph glyph-name="Iogonek" unicode="&#x12e;" horiz-adv-x="759" 
d="M-225 0l10 18h285l815 1305l121 68h-361l12 16h678l-10 -16h-283l-825 -1317l-100 -56h352l-6 -10l-2 -2l-6 -6l-101 -106q-104 -106 -104 -197q0 -38 21.5 -59t82.5 -21h60l-8 -16h-89q-66 0 -100.5 22.5t-34.5 63.5q0 37 29 76t125 135l90 90l-2 12h-649z" />
    <glyph glyph-name="iogonek" unicode="&#x12f;" horiz-adv-x="395" 
d="M80 -12q-47 0 -67.5 35t-20.5 86q0 81 32.5 160t106.5 196l127 201l-4 12h-90q0 9 8 14h190l5 -14l-170 -268q-108 -170 -142.5 -236t-34.5 -111q0 -61 60 -61q59 0 122 66t150 198l68 103q11 5 16 0l-71 -109q-75 -115 -132 -180.5t-112 -85.5l-103 -107
q-104 -106 -104 -196q0 -38 21.5 -59t82.5 -21h60l-8 -17h-88q-66 0 -101 23t-35 64q0 37 29 75.5t125 134.5l90 91v6h-10zM457 1057l90 137h96l-90 -137h-96z" />
    <glyph glyph-name="Idotaccent" unicode="&#x130;" horiz-adv-x="759" 
d="M-225 0l10 18h285l815 1305l121 68h-361l12 16h678l-10 -16h-283l-825 -1317l-100 -56h352l-12 -18h-682zM1053 1552l88 125h92l-88 -125h-92z" />
    <glyph glyph-name="dotlessi" unicode="&#x131;" horiz-adv-x="395" 
d="M80 -12q-47 0 -67.5 35t-20.5 86q0 81 32.5 160t106.5 196l127 201l-4 12h-90q0 9 8 14h190l5 -14l-170 -268q-108 -170 -142.5 -236t-34.5 -111q0 -61 60 -61q59 0 122 66t150 198l68 103q11 5 16 0l-71 -109q-43 -66 -74.5 -108.5t-68.5 -83.5t-72 -60.5t-70 -19.5z
" />
    <glyph glyph-name="IJ" unicode="&#x132;" horiz-adv-x="1425" 
d="M51 -711q-80 0 -123 36t-43 106q0 130 141 284t406 285h-647l8 18h281l813 1305l121 68h-365l10 16h1352l-10 -16h-287l-750 -1207q-61 -98 -108 -171t-107.5 -161.5t-111 -153t-110 -133t-115 -115t-115 -85.5t-120 -57.5t-120.5 -18.5zM-94 -571q0 -59 35.5 -91
t97.5 -32t125 28.5t132 95t126 131.5t138 184.5t135.5 204t148.5 236.5l706 1137l121 68h-624l-822 -1317l-100 -56h342l8 -43q-275 -127 -422 -276.5t-147 -269.5z" />
    <glyph glyph-name="ij" unicode="&#x133;" horiz-adv-x="886" 
d="M633 692h229l4 -14l-401 -637l-12 -18q160 76 262 149t196 197q11 5 19 0q-99 -132 -207 -208.5t-283 -160.5q-72 -113 -121 -188.5t-105.5 -157t-97 -132.5t-85.5 -99.5t-82 -74.5t-75.5 -41.5t-76.5 -15.5q-53 0 -77.5 28t-24.5 73q0 60 40.5 128.5t104 130.5
t151.5 127t173 117t178 101l35 57l381 613l-4 12h-113l-203 -309l-4 -4l-69 -105q-43 -66 -74.5 -108.5t-68.5 -83.5t-72 -60.5t-70 -19.5q-47 0 -67.5 35t-20.5 86q0 81 32.5 160t106.5 196l127 201l-4 12h-90q0 9 8 14h190l5 -14l-170 -268q-108 -170 -142.5 -236
t-34.5 -111q0 -61 60 -61q59 0 122 66t150 198zM457 1057l90 137h96l-90 -137h-96zM930 1057l90 137h96l-90 -137h-96zM-291 -608q0 -39 19.5 -61.5t58.5 -22.5q77 0 186.5 136t350.5 523q-111 -57 -213 -123t-195.5 -142.5t-150 -158t-56.5 -151.5z" />
    <glyph glyph-name="Jcircumflex" unicode="&#x134;" horiz-adv-x="1050" 
d="M-276 -713q-130 0 -130 129q0 161 156.5 368.5t413.5 408.5t567 366l477 764l121 68h-489l10 16h780l-10 -16h-254l-481 -768q96 41 190 71l2 -16q-112 -39 -209 -82l-237 -381q-55 -88 -89.5 -143t-91.5 -141.5t-98 -143t-99 -130.5t-104 -122t-103 -99.5t-107.5 -81
t-106 -48.5t-108.5 -19zM1149 1509l-8 11l321 188h19l32 -197h-16l-57 146zM-385 -586q0 -106 102 -106q58 0 119.5 31t121.5 87.5t120.5 129.5t122 164t120 183t121.5 193l72 117l199 317q-300 -164 -550 -364.5t-399 -401t-149 -350.5z" />
    <glyph glyph-name="jcircumflex" unicode="&#x135;" horiz-adv-x="497" 
d="M-594 -709q-53 0 -77.5 28t-24.5 73q0 60 40.5 128.5t104 130.5t151.5 127t173 117t178 101l35 57l381 613l-5 12h-116q-4 8 8 14h217l4 -14l-401 -637l-13 -18q161 76 263 149t196 197q11 5 19 0q-99 -132 -207 -208.5t-283 -160.5q-72 -113 -121 -188.5t-105.5 -157
t-97 -132.5t-85.5 -99.5t-82 -74.5t-75.5 -41.5t-76.5 -15.5zM362 922l-10 8l305 323h33l-41 -331h-14l-2 247zM-682 -608q0 -39 19.5 -61.5t58.5 -22.5q76 0 185.5 135.5t350.5 523.5q-110 -57 -212.5 -123t-196 -142.5t-149.5 -158t-56 -151.5z" />
    <glyph glyph-name="uni0136" unicode="&#x136;" horiz-adv-x="1533" 
d="M55 0l11 18h366l242 388q-180 14 -286.5 122.5t-106.5 278.5q0 122 58 230.5t162.5 191t263 130.5t347.5 48h795q141 124 259.5 191t241.5 67v-18q-115 0 -228.5 -62.5t-244.5 -177.5h90l-10 -16h-98q-45 -40 -117 -107.5t-122.5 -114.5t-121.5 -106t-129.5 -99.5
t-130.5 -76t-141 -53.5h21q100 1 152 -44t52 -124q0 -106 -94 -258l-47 -74q-67 -105 -93 -158.5t-26 -95.5q0 -76 70 -76q72 0 146.5 75t189.5 243l33 47q12 8 16 0l-33 -47q-58 -85 -95.5 -135.5t-84 -101.5t-88.5 -74t-84 -23q-100 0 -100 139q0 150 122 340l54 86
q71 106 71 166q0 48 -42.5 74t-123.5 26h-90l-41 -2l-43 -69l-491 -713l-49 -17h397l-10 -18h-789zM197 -436l-9 10l201 342h80zM299 807q0 -164 104 -268.5t281 -116.5l141 227l516 729l37 13h-266q-185 0 -340 -47t-257.5 -127.5t-159 -186t-56.5 -223.5zM1051 834
q67 6 133.5 26.5t130.5 57t119.5 74t120 93.5t111 98.5t114 106.5t108.5 101h-489z" />
    <glyph glyph-name="uni0137" unicode="&#x137;" horiz-adv-x="770" 
d="M-88 0l868 1391h-366l10 16h315q65 0 108 20.5t79 71.5h24l-669 -1053l12 -2q99 124 194 194.5t160 70.5q42 0 64 -27.5t22 -63.5q0 -62 -57 -115t-170 -69l-2 -4q37 -40 37 -86q0 -28 -13 -55.5t-51 -81.5q-8 -12 -26.5 -37t-26.5 -36.5t-19 -30t-15.5 -32t-4.5 -26.5
q0 -45 49 -45q114 0 299 276l62 93q12 8 16 0l-63 -97q-187 -286 -314 -286q-40 0 -65 28.5t-25 79.5q0 41 17.5 76t60.5 94q8 12 20 29l18 25.5t14 20.5t11.5 19t7.5 15.5t5.5 15.5t1.5 14q0 9 -4 21h-93l9 14h32q94 0 176 73t82 138q0 43 -53 43q-79 0 -191.5 -93.5
t-219.5 -244.5l-224 -354h-102zM-55 -436l-8 10l200 342h80z" />
    <glyph glyph-name="kgreenlandic" unicode="&#x138;" horiz-adv-x="772" 
d="M438 -12q-42 0 -67 27.5t-25 74.5q0 64 55 141l31 43q55 77 63 102q3 10 3 19q0 15 -9 29h-81l8 14h33q95 0 176.5 72.5t81.5 138.5q0 43 -54 43q-90 0 -218.5 -116t-241.5 -297l-179 -279h-98l283 446q39 62 55 99.5t16 72.5q0 30 -14.5 45t-48.5 15h-76q0 6 8 14h76
q41 0 61 -24.5t19 -81.5l-4 -131h12q98 120 191 187t159 67q41 0 62.5 -27.5t21.5 -63.5q0 -62 -60 -116t-173 -68l-2 -6q35 -28 35 -80q0 -50 -56 -131l-28 -41q-25 -37 -35.5 -53.5t-20.5 -38.5t-10 -39q0 -43 53 -43q35 0 73.5 22.5t77 64.5t71.5 85.5t71 101.5l62 93
q12 6 18 0l-63 -97q-40 -60 -74.5 -105t-76 -88.5t-82.5 -67t-79 -23.5z" />
    <glyph glyph-name="Lacute" unicode="&#x139;" horiz-adv-x="1267" 
d="M-92 47q103 -29 198 -29q65 0 122 11.5t109 40t92.5 55.5t86 81.5t76 93t75 114t70 121t74.5 135.5q32 60 49 90h-8q-231 0 -365.5 81t-134.5 228q0 152 175 245t520 93h253q206 221 359 221q56 0 84.5 -36t28.5 -97q0 -38 -13 -88h164l-12 -16h-156q-21 -74 -65 -151.5
t-114 -155t-156.5 -141.5t-200.5 -111.5t-238 -63.5q-54 -93 -92.5 -157t-89.5 -142t-93.5 -131.5t-96.5 -110t-105.5 -94.5t-113 -68.5t-126.5 -46.5h486q61 0 115 10t95 24.5t82 42.5t69 52t63.5 67t57 72.5t58.5 82.5q10 7 17 0q-101 -142 -139 -186q-108 -123 -245 -161
q-79 -22 -178 -22h-868zM1524 1659l-4 10l366 168l6 -51zM371 1069q0 -137 128 -214t353 -77h18l82 144q168 285 334 469h-239q-337 0 -506.5 -89t-169.5 -233zM993 788q148 21 279.5 86t223 152t153 181t88.5 184h-377q-108 -148 -289 -467zM1372 1407h369q12 49 12 92
q0 113 -96 113q-130 0 -285 -205z" />
    <glyph glyph-name="lacute" unicode="&#x13a;" horiz-adv-x="376" 
d="M43 -14q-50 0 -75 36t-25 99q0 72 32 153t115 213l565 904h-319l10 16h270q63 0 106 20.5t79 71.5h20l-684 -1100q-97 -150 -129.5 -214.5t-32.5 -114.5q0 -70 70 -70q63 0 130.5 67.5t156.5 200.5l67 101q13 6 19 0l-72 -107q-95 -139 -164 -207.5t-139 -68.5zM817 1542
l-4 10l367 168l6 -51z" />
    <glyph glyph-name="uni013B" unicode="&#x13b;" horiz-adv-x="1267" 
d="M-92 47q103 -29 198 -29q65 0 122 11.5t109 40t92.5 55.5t86 81.5t76 93t75 114t70 121t74.5 135.5q32 60 49 90h-8q-231 0 -365.5 81t-134.5 228q0 152 175 245t520 93h253q206 221 359 221q56 0 84.5 -36t28.5 -97q0 -38 -13 -88h164l-12 -16h-156q-21 -74 -65 -151.5
t-114 -155t-156.5 -141.5t-200.5 -111.5t-238 -63.5q-54 -93 -92.5 -157t-89.5 -142t-93.5 -131.5t-96.5 -110t-105.5 -94.5t-113 -68.5t-126.5 -46.5h486q61 0 115 10t95 24.5t82 42.5t69 52t63.5 67t57 72.5t58.5 82.5q10 7 17 0q-101 -142 -139 -186q-108 -123 -245 -161
q-79 -22 -178 -22h-868zM115 -436l-9 10l201 342h80zM371 1069q0 -137 128 -214t353 -77h18l82 144q168 285 334 469h-239q-337 0 -506.5 -89t-169.5 -233zM993 788q148 21 279.5 86t223 152t153 181t88.5 184h-377q-108 -148 -289 -467zM1372 1407h369q12 49 12 92
q0 113 -96 113q-130 0 -285 -205z" />
    <glyph glyph-name="uni013C" unicode="&#x13c;" horiz-adv-x="376" 
d="M43 -14q-50 0 -75 36t-25 99q0 72 32 153t115 213l565 904h-319l10 16h270q63 0 106 20.5t79 71.5h20l-684 -1100q-97 -150 -129.5 -214.5t-32.5 -114.5q0 -70 70 -70q63 0 130.5 67.5t156.5 200.5l67 101q13 6 19 0l-72 -107q-95 -139 -164 -207.5t-139 -68.5z
M-221 -436l-8 10l200 342h80z" />
    <glyph glyph-name="Lcaron" unicode="&#x13d;" horiz-adv-x="1267" 
d="M-92 47q103 -29 198 -29q65 0 122 11.5t109 40t92.5 55.5t86 81.5t76 93t75 114t70 121t74.5 135.5q32 60 49 90h-8q-231 0 -365.5 81t-134.5 228q0 152 175 245t520 93h253q206 221 359 221q56 0 84.5 -36t28.5 -97q0 -38 -13 -88h152l2 2h92l-326 -393h-14l236 375
h-146q-21 -74 -65 -151.5t-114 -155t-156.5 -141.5t-200.5 -111.5t-238 -63.5q-54 -93 -92.5 -157t-89.5 -142t-93.5 -131.5t-96.5 -110t-105.5 -94.5t-113 -68.5t-126.5 -46.5h486q61 0 115 10t95 24.5t82 42.5t69 52t63.5 67t57 72.5t58.5 82.5q10 7 17 0
q-101 -142 -139 -186q-108 -123 -245 -161q-79 -22 -178 -22h-868zM371 1069q0 -137 128 -214t353 -77h18l82 144q168 285 334 469h-239q-337 0 -506.5 -89t-169.5 -233zM993 788q148 21 279.5 86t223 152t153 181t88.5 184h-377q-108 -148 -289 -467zM1372 1407h369
q12 49 12 92q0 113 -96 113q-130 0 -285 -205z" />
    <glyph glyph-name="lcaron" unicode="&#x13e;" horiz-adv-x="376" 
d="M43 -14q-50 0 -75 36t-25 99q0 72 32 153t115 213l565 904h-319l10 16h270q63 0 106 20.5t79 71.5h20l-684 -1100q-97 -150 -129.5 -214.5t-32.5 -114.5q0 -70 70 -70q63 0 130.5 67.5t156.5 200.5l67 101q13 6 19 0l-72 -107q-95 -139 -164 -207.5t-139 -68.5zM659 1014
l248 393h92l-325 -393h-15z" />
    <glyph glyph-name="Ldot" unicode="&#x13f;" horiz-adv-x="1267" 
d="M-92 47q103 -29 198 -29q65 0 122 11.5t109 40t92.5 55.5t86 81.5t76 93t75 114t70 121t74.5 135.5q32 60 49 90h-8q-231 0 -365.5 81t-134.5 228q0 152 175 245t520 93h253q206 221 359 221q56 0 84.5 -36t28.5 -97q0 -38 -13 -88h164l-12 -16h-156q-21 -74 -65 -151.5
t-114 -155t-156.5 -141.5t-200.5 -111.5t-238 -63.5q-54 -93 -92.5 -157t-89.5 -142t-93.5 -131.5t-96.5 -110t-105.5 -94.5t-113 -68.5t-126.5 -46.5h486q61 0 115 10t95 24.5t82 42.5t69 52t63.5 67t57 72.5t58.5 82.5q10 7 17 0q-101 -142 -139 -186q-108 -123 -245 -161
q-79 -22 -178 -22h-868zM1169 578l80 124h86l-80 -124h-86zM371 1069q0 -137 128 -214t353 -77h18l82 144q168 285 334 469h-239q-337 0 -506.5 -89t-169.5 -233zM993 788q148 21 279.5 86t223 152t153 181t88.5 184h-377q-108 -148 -289 -467zM1372 1407h369q12 49 12 92
q0 113 -96 113q-130 0 -285 -205z" />
    <glyph glyph-name="ldot" unicode="&#x140;" horiz-adv-x="376" 
d="M43 -14q-50 0 -75 36t-25 99q0 72 32 153t115 213l565 904h-319l10 16h270q63 0 106 20.5t79 71.5h20l-684 -1100q-97 -150 -129.5 -214.5t-32.5 -114.5q0 -70 70 -70q63 0 130.5 67.5t156.5 200.5l67 101q13 6 19 0l-72 -107q-95 -139 -164 -207.5t-139 -68.5zM375 571
l80 125h86l-80 -125h-86z" />
    <glyph glyph-name="Lslash" unicode="&#x141;" horiz-adv-x="1267" 
d="M-92 47q103 -29 198 -29q70 0 133 16t114 41.5t101.5 70.5t88.5 89t83 113t77.5 125.5t78.5 142.5l-237 -47l12 19l236 47l67 125h-8q-231 0 -365.5 81t-134.5 228q0 152 175 245t520 93h253q206 221 359 221q56 0 84.5 -36t28.5 -97q0 -38 -13 -88h164l-12 -16h-156
q-21 -74 -65 -151.5t-114 -155t-156.5 -141.5t-200.5 -111.5t-238 -63.5l-63 -109l274 54l-12 -19l-273 -53q-78 -131 -142.5 -223t-144 -179t-168 -141.5t-188.5 -79.5h486q61 0 115 10t95 24.5t82 42.5t69 52t63.5 67t57 72.5t58.5 82.5q10 7 17 0q-101 -142 -139 -186
q-108 -123 -245 -161q-79 -22 -178 -22h-868zM371 1069q0 -137 128 -214t353 -77h18l82 144q168 285 334 469h-239q-337 0 -506.5 -89t-169.5 -233zM993 788q148 21 279.5 86t223 152t153 181t88.5 184h-377q-108 -148 -289 -467zM1372 1407h369q12 49 12 92q0 113 -96 113
q-130 0 -285 -205z" />
    <glyph glyph-name="lslash" unicode="&#x142;" horiz-adv-x="376" 
d="M43 -14q-50 0 -75 36t-25 99q0 72 32 153t115 213l199 318l-254 -49l12 18l254 49l354 568h-319l10 16h270q63 0 106 20.5t79 71.5h20l-405 -653l266 53l-12 -18l-267 -54l-266 -428q-97 -150 -129.5 -214.5t-32.5 -114.5q0 -70 70 -70q63 0 130.5 67.5t156.5 200.5
l67 101q13 6 19 0l-72 -107q-95 -139 -164 -207.5t-139 -68.5z" />
    <glyph glyph-name="Nacute" unicode="&#x143;" horiz-adv-x="1738" 
d="M197 -90q-136 0 -219 72t-93 202q-15 154 76.5 287.5t270 222t413.5 115.5q25 141 86.5 249t139.5 172.5t180 105.5t198.5 56t204.5 15h746q237 217 489 217q90 0 176 -27l-6 -20q-86 27 -170 27q-134 0 -258 -58.5t-230.5 -162.5t-205 -233t-200.5 -285.5t-198 -302.5
t-216.5 -301t-237.5 -267l-25 8q87 97 132 242.5t93 443.5l9 51q30 189 88 326t159 242h-6q-38 -32 -75 -68.5t-77 -84.5t-66.5 -80t-71.5 -95.5t-62.5 -88t-69.5 -100.5t-63 -92q-69 -102 -123.5 -178t-122 -162.5t-125.5 -148.5t-127 -121.5t-133 -96t-136 -59t-144 -22.5
zM1972 1516l-4 10l367 168l6 -52zM-98 188q10 -126 88 -193t209 -67q90 0 180 36t172 98t173.5 163t175 211.5t187.5 263.5l68 101h-321q-211 0 -391 -48.5t-302 -131t-186 -195.5t-53 -238zM666 811q71 8 168 8h333q71 104 119.5 170.5t117 150t137.5 145.5t142 106h-229
q-75 0 -143.5 -7t-142 -25.5t-136.5 -47t-123.5 -74t-107 -104.5t-82 -141t-53.5 -181zM1227 111h6q97 108 201.5 252.5t192.5 280.5t177 271.5t187 262t190 213.5h-465q-183 -127 -241 -545l-7 -55q-51 -393 -241 -680z" />
    <glyph glyph-name="nacute" unicode="&#x144;" horiz-adv-x="813" 
d="M481 -16q-47 0 -67.5 34t-20.5 84q0 57 28.5 119t94.5 150l74 98q90 116 90 176q0 45 -49 45q-81 0 -204 -119.5t-259 -328.5l-154 -242h-98l283 446q39 62 55 99.5t16 72.5q0 30 -14.5 45t-48.5 15h-76q0 6 8 14h76q41 0 61 -24.5t19 -81.5l-4 -131h10q97 120 183.5 187
t150.5 67q80 0 80 -111q0 -54 -21.5 -106t-77.5 -127l-71 -97q-63 -84 -90 -132.5t-27 -80.5q0 -26 14 -41.5t41 -15.5q62 0 131 71t168 218l56 82q12 6 18 0l-55 -82q-48 -71 -80.5 -114.5t-76 -92.5t-84 -72.5t-79.5 -23.5zM604 920l-8 8l315 370l39 -36z" />
    <glyph glyph-name="uni0145" unicode="&#x145;" horiz-adv-x="1738" 
d="M197 -90q-136 0 -219 72t-93 202q-15 154 76.5 287.5t270 222t413.5 115.5q25 141 86.5 249t139.5 172.5t180 105.5t198.5 56t204.5 15h746q237 217 489 217q90 0 176 -27l-6 -20q-86 27 -170 27q-134 0 -258 -58.5t-230.5 -162.5t-205 -233t-200.5 -285.5t-198 -302.5
t-216.5 -301t-237.5 -267l-25 8q87 97 132 242.5t93 443.5l9 51q30 189 88 326t159 242h-6q-38 -32 -75 -68.5t-77 -84.5t-66.5 -80t-71.5 -95.5t-62.5 -88t-69.5 -100.5t-63 -92q-69 -102 -123.5 -178t-122 -162.5t-125.5 -148.5t-127 -121.5t-133 -96t-136 -59t-144 -22.5
zM602 -436l-8 10l201 342h79zM-98 188q10 -126 88 -193t209 -67q90 0 180 36t172 98t173.5 163t175 211.5t187.5 263.5l68 101h-321q-211 0 -391 -48.5t-302 -131t-186 -195.5t-53 -238zM666 811q71 8 168 8h333q71 104 119.5 170.5t117 150t137.5 145.5t142 106h-229
q-75 0 -143.5 -7t-142 -25.5t-136.5 -47t-123.5 -74t-107 -104.5t-82 -141t-53.5 -181zM1227 111h6q97 108 201.5 252.5t192.5 280.5t177 271.5t187 262t190 213.5h-465q-183 -127 -241 -545l-7 -55q-51 -393 -241 -680z" />
    <glyph glyph-name="uni0146" unicode="&#x146;" horiz-adv-x="813" 
d="M481 -16q-47 0 -67.5 34t-20.5 84q0 57 28.5 119t94.5 150l74 98q90 116 90 176q0 45 -49 45q-81 0 -204 -119.5t-259 -328.5l-154 -242h-98l283 446q39 62 55 99.5t16 72.5q0 30 -14.5 45t-48.5 15h-76q0 6 8 14h76q41 0 61 -24.5t19 -81.5l-4 -131h10q97 120 183.5 187
t150.5 67q80 0 80 -111q0 -54 -21.5 -106t-77.5 -127l-71 -97q-63 -84 -90 -132.5t-27 -80.5q0 -26 14 -41.5t41 -15.5q62 0 131 71t168 218l56 82q12 6 18 0l-55 -82q-48 -71 -80.5 -114.5t-76 -92.5t-84 -72.5t-79.5 -23.5zM-33 -436l-8 10l201 342h80z" />
    <glyph glyph-name="Ncaron" unicode="&#x147;" horiz-adv-x="1738" 
d="M197 -90q-136 0 -219 72t-93 202q-15 154 76.5 287.5t270 222t413.5 115.5q25 141 86.5 249t139.5 172.5t180 105.5t198.5 56t204.5 15h746q237 217 489 217q90 0 176 -27l-6 -20q-86 27 -170 27q-134 0 -258 -58.5t-230.5 -162.5t-205 -233t-200.5 -285.5t-198 -302.5
t-216.5 -301t-237.5 -267l-25 8q87 97 132 242.5t93 443.5l9 51q30 189 88 326t159 242h-6q-38 -32 -75 -68.5t-77 -84.5t-66.5 -80t-71.5 -95.5t-62.5 -88t-69.5 -100.5t-63 -92q-69 -102 -123.5 -178t-122 -162.5t-125.5 -148.5t-127 -121.5t-133 -96t-136 -59t-144 -22.5
zM1997 1511l-60 197h17l78 -143l266 143h16l-299 -197h-18zM-98 188q10 -126 88 -193t209 -67q90 0 180 36t172 98t173.5 163t175 211.5t187.5 263.5l68 101h-321q-211 0 -391 -48.5t-302 -131t-186 -195.5t-53 -238zM666 811q71 8 168 8h333q71 104 119.5 170.5t117 150
t137.5 145.5t142 106h-229q-75 0 -143.5 -7t-142 -25.5t-136.5 -47t-123.5 -74t-107 -104.5t-82 -141t-53.5 -181zM1227 111h6q97 108 201.5 252.5t192.5 280.5t177 271.5t187 262t190 213.5h-465q-183 -127 -241 -545l-7 -55q-51 -393 -241 -680z" />
    <glyph glyph-name="ncaron" unicode="&#x148;" horiz-adv-x="813" 
d="M481 -16q-47 0 -67.5 34t-20.5 84q0 57 28.5 119t94.5 150l74 98q90 116 90 176q0 45 -49 45q-81 0 -204 -119.5t-259 -328.5l-154 -242h-98l283 446q39 62 55 99.5t16 72.5q0 30 -14.5 45t-48.5 15h-76q0 6 8 14h76q41 0 61 -24.5t19 -81.5l-4 -131h10q97 120 183.5 187
t150.5 67q80 0 80 -111q0 -54 -21.5 -106t-77.5 -127l-71 -97q-63 -84 -90 -132.5t-27 -80.5q0 -26 14 -41.5t41 -15.5q62 0 131 71t168 218l56 82q12 6 18 0l-55 -82q-48 -71 -80.5 -114.5t-76 -92.5t-84 -72.5t-79.5 -23.5zM625 915l98 365h14l-49 -295l318 299l10 -6
l-352 -363h-39z" />
    <glyph glyph-name="Eng" unicode="&#x14a;" horiz-adv-x="1314" 
d="M178 -707q-59 0 -85.5 28.5t-26.5 70.5q0 69 61.5 144.5t164 144.5t207 124.5t218.5 104.5l129 207l387 637q164 269 218 383t56 172q1 49 -22 74.5t-68 25.5q-83 0 -198.5 -87t-233.5 -229t-225 -317l-436 -713l-93 -45h267l-11 -18h-571l10 18h252l572 928
q59 93 92.5 190t27.5 158q-6 51 -37 74t-73 23h-123l10 16h123q141 0 141 -197q0 -67 -32 -211h8q148 202 289 314t245 112q124 0 121 -168q0 -186 -199 -509l-397 -650q-266 -434 -442.5 -619.5t-325.5 -185.5zM82 -604q0 -37 19 -60.5t59 -23.5q93 0 218.5 134t321.5 437
q-86 -37 -166.5 -78t-164.5 -93t-146 -102.5t-101.5 -107t-39.5 -106.5z" />
    <glyph glyph-name="eng" unicode="&#x14b;" horiz-adv-x="784" 
d="M-291 -709q-86 3 -86 99q0 121 161 275t437 290l45 25l84 124l105 156q152 229 182 285q33 63 33 100q0 47 -47 47q-79 0 -199.5 -120.5t-255.5 -329.5l-154 -242h-98l283 446q39 62 55 99.5t16 72.5q0 30 -14.5 45t-48.5 15h-76q0 6 8 14h76q41 0 61 -24.5t19 -81.5
l-4 -131h10q201 254 328 254q78 0 78 -99q0 -118 -172 -374l-119 -179l-31 -45q153 60 238.5 132t183.5 223q10 5 18 0q-105 -159 -196 -235t-256 -140q-74 -110 -124.5 -183t-109.5 -154t-101 -131t-89 -99t-85 -75.5t-77.5 -42.5t-77.5 -16zM-362 -610q0 -84 71 -84
q63 0 178 141t361 504l-21 -10q-272 -131 -430.5 -283t-158.5 -268z" />
    <glyph glyph-name="Omacron" unicode="&#x14c;" horiz-adv-x="1327" 
d="M496 -111q-76 0 -133.5 37t-89.5 99t-47 135.5t-13 154.5q3 157 55 319.5t137.5 302.5t200 264.5t238 212.5t255 139t249.5 51q126 0 181 -67t52 -179q-2 -120 -64 -273t-174 -307q-54 -150 -140 -297.5t-191 -269.5q142 6 209.5 38.5t130.5 119.5q11 7 16 0
q-47 -66 -88 -99.5t-107.5 -52t-175.5 -22.5q-127 -142 -257 -224t-244 -82zM1245 1722l12 23h414l-12 -23h-414zM289 209q-3 -301 207 -301q109 0 232 76.5t241 208.5h-76h-367l6 16q233 67 434 217t347 344q58 172 67 313q10 171 -54.5 248.5t-178.5 77.5
q-181 0 -371 -168.5t-325 -435.5q-156 -317 -162 -596zM635 209h264l84 2q190 217 305 498q-128 -159 -294 -286t-357 -200zM719 1210q224 217 430 217q125 0 194.5 -83t63.5 -250q-3 -112 -43 -250q93 139 145 274t54 240q2 104 -48.5 166.5t-164.5 62.5
q-149 0 -314 -101.5t-317 -275.5z" />
    <glyph glyph-name="omacron" unicode="&#x14d;" horiz-adv-x="563" 
d="M96 -12q-43 0 -70.5 30.5t-36.5 67t-9 78.5q0 100 42.5 201t107.5 175.5t145 121.5t151 47q56 0 80 -32.5t24 -94.5q-3 -143 -106 -314q-70 -115 -161.5 -197.5t-166.5 -82.5zM96 4q68 0 149 83.5t150 203.5q115 190 115 307q0 44 -18.5 70t-55.5 26q-58 0 -134 -73.5
t-146 -184.5q-58 -93 -94 -183.5t-37 -154.5q0 -94 71 -94zM430 1006l12 22h389l-12 -22h-389z" />
    <glyph glyph-name="Ohungarumlaut" unicode="&#x150;" horiz-adv-x="1327" 
d="M496 -111q-76 0 -133.5 37t-89.5 99t-47 135.5t-13 154.5q3 157 55 319.5t137.5 302.5t200 264.5t238 212.5t255 139t249.5 51q126 0 181 -67t52 -179q-2 -120 -64 -273t-174 -307q-54 -150 -140 -297.5t-191 -269.5q142 6 209.5 38.5t130.5 119.5q11 7 16 0
q-47 -66 -88 -99.5t-107.5 -52t-175.5 -22.5q-127 -142 -257 -224t-244 -82zM1522 1661l-6 12l335 221l23 -39zM1372 1661l-6 12l299 221l23 -39zM289 209q-3 -301 207 -301q109 0 232 76.5t241 208.5h-76h-367l6 16q233 67 434 217t347 344q58 172 67 313
q10 171 -54.5 248.5t-178.5 77.5q-181 0 -371 -168.5t-325 -435.5q-156 -317 -162 -596zM635 209h264l84 2q190 217 305 498q-128 -159 -294 -286t-357 -200zM719 1210q224 217 430 217q125 0 194.5 -83t63.5 -250q-3 -112 -43 -250q93 139 145 274t54 240
q2 104 -48.5 166.5t-164.5 62.5q-149 0 -314 -101.5t-317 -275.5z" />
    <glyph glyph-name="ohungarumlaut" unicode="&#x151;" horiz-adv-x="563" 
d="M96 -12q-43 0 -70.5 30.5t-36.5 67t-9 78.5q0 100 42.5 201t107.5 175.5t145 121.5t151 47q56 0 80 -32.5t24 -94.5q-3 -143 -106 -314q-70 -115 -161.5 -197.5t-166.5 -82.5zM96 4q68 0 149 83.5t150 203.5q115 190 115 307q0 44 -18.5 70t-55.5 26q-58 0 -134 -73.5
t-146 -184.5q-58 -93 -94 -183.5t-37 -154.5q0 -94 71 -94zM590 920l315 366l47 -37l-346 -329h-16zM418 920l276 366l47 -37l-307 -329h-16z" />
    <glyph glyph-name="OE" unicode="&#x152;" horiz-adv-x="1857" 
d="M504 -111q-63 0 -114 24t-83.5 63.5t-54 93.5t-30.5 111.5t-9 119.5q0 161 52.5 327t140 306.5t202 266t237 213.5t247.5 139t231 51q118 0 169.5 -55t51.5 -146q0 -169 -155 -369q-10 -100 -35 -192q214 95 393 198q-7 97 10.5 187t53 157t82.5 117.5t99 76.5t101 26
q50 0 76 -29t26 -78q0 -96 -96 -210.5t-262 -211.5l6 -69q5 -53 -20.5 -84.5t-100.5 -61.5q-134 -54 -242 -139t-175.5 -181t-103 -196.5t-34.5 -193.5q3 -240 193 -240q108 0 222.5 93.5t244.5 285.5l55 80q8 5 16 0l-55 -82q-140 -205 -257 -301.5t-238 -96.5
q-124 0 -195.5 79t-71.5 210q0 73 23 154q-138 -198 -298.5 -320.5t-301.5 -122.5zM299 199q0 -142 50 -215.5t161 -73.5q106 0 231 80t235 207.5t203 290t142 323.5q-321 -144 -590 -219l-92 -27v41q230 47 418.5 163.5t310.5 266.5l2 47q4 168 -60 249t-182 81
q-215 0 -432 -223q-176 -217 -286.5 -484t-110.5 -507zM784 1288q175 142 346 142q121 0 191 -83t70 -253v-29q133 181 133 336q0 84 -47 135t-152 51q-128 0 -268.5 -80t-272.5 -219zM920 668q215 76 407 161q28 92 37 177q-172 -207 -444 -338zM1241 559q166 182 451 305
q37 15 52 33.5t11 54.5l-6 64v8q-178 -104 -401 -203q-45 -144 -107 -262zM1837 1094q158 96 248 204.5t90 198.5q0 92 -84 92q-51 0 -99 -31.5t-87 -90.5t-58.5 -156.5t-9.5 -216.5z" />
    <glyph glyph-name="oe" unicode="&#x153;" horiz-adv-x="923" 
d="M96 -12q-43 0 -70.5 30.5t-36.5 67t-9 78.5q0 100 42.5 201t107.5 175.5t145 121.5t151 47q56 0 80 -32.5t24 -94.5q0 -45 -16 -107q71 102 167 168t169 66q65 0 65 -60q0 -62 -86 -135q-107 -90 -276 -139q-92 -169 -92 -275q0 -96 84 -96q81 0 177 86t226 279q4 5 10 5
t7 -5q-133 -200 -234.5 -290.5t-189.5 -90.5q-62 0 -96.5 51t-34.5 133q0 47 8 88q-70 -113 -159 -192.5t-163 -79.5zM96 4q68 0 149 83.5t150 203.5q115 190 115 307q0 44 -18.5 70t-55.5 26q-58 0 -134 -73.5t-146 -184.5q-58 -93 -94 -183.5t-37 -154.5q0 -94 71 -94z
M559 389q70 22 140.5 60.5t121.5 82.5q78 71 78 123q0 39 -41 39q-58 0 -130.5 -73t-143.5 -191z" />
    <glyph glyph-name="Racute" unicode="&#x154;" horiz-adv-x="1697" 
d="M1360 -12q-55 0 -81 40.5t-28 100.5q-3 145 109 324l61 96q71 118 68 192q-3 97 -92 123q-57 3 -109 13l4 12q68 -8 117 -8q105 0 195.5 39t149.5 102t92.5 139.5t33.5 153.5q0 38 -10 76h-348l-817 -1317l-107 -56h406l-9 -18h-792l8 18h342l274 441h-55
q-107 0 -191.5 31t-138 85t-81 124.5t-27.5 152.5q0 107 47.5 217t141.5 210t219.5 178t295 124.5t355.5 46.5q209 0 343.5 -59t188.5 -162h219l-10 -16h-203q25 -58 25 -121q0 -112 -67.5 -204t-187.5 -145.5t-269 -56.5q101 -47 104 -188q6 -121 -84 -266l-68 -107
q-96 -152 -96 -229q0 -32 19 -51t53 -19q37 0 74 20t79.5 65.5t80.5 96t94 133.5l34 50q8 6 17 0l-33 -50q-42 -62 -69 -100t-66.5 -87.5t-70.5 -77t-68.5 -47t-71.5 -19.5zM1731 1671l-5 10l367 168l6 -51zM352 852q0 -163 108 -270t312 -107h66l528 848l150 84h350
q-38 101 -159.5 153t-315.5 52q-156 0 -299.5 -32.5t-255.5 -88t-204.5 -130t-153 -159t-93.5 -174t-33 -176.5z" />
    <glyph glyph-name="racute" unicode="&#x155;" horiz-adv-x="550" 
d="M565 358q-110 0 -167.5 38.5t-57.5 101.5l-31 -43l-96 -144l-199 -311h-98l283 446q39 62 55 99.5t16 72.5q0 30 -14.5 45t-48.5 15h-76q0 6 8 14h76q41 0 61 -24.5t19 -81.5l-4 -127l53 69q13 67 72 123t131 56h47l-57 -84h-119q-60 -57 -60 -123q0 -60 55 -92.5
t160 -32.5h31q2 -3 -1 -8.5t-9 -8.5h-29zM555 920l-8 8l315 370l39 -36z" />
    <glyph glyph-name="uni0156" unicode="&#x156;" horiz-adv-x="1697" 
d="M1360 -12q-55 0 -81 40.5t-28 100.5q-3 145 109 324l61 96q71 118 68 192q-3 97 -92 123q-57 3 -109 13l4 12q68 -8 117 -8q105 0 195.5 39t149.5 102t92.5 139.5t33.5 153.5q0 38 -10 76h-348l-817 -1317l-107 -56h406l-9 -18h-792l8 18h342l274 441h-55
q-107 0 -191.5 31t-138 85t-81 124.5t-27.5 152.5q0 107 47.5 217t141.5 210t219.5 178t295 124.5t355.5 46.5q209 0 343.5 -59t188.5 -162h219l-10 -16h-203q25 -58 25 -121q0 -112 -67.5 -204t-187.5 -145.5t-269 -56.5q101 -47 104 -188q6 -121 -84 -266l-68 -107
q-96 -152 -96 -229q0 -32 19 -51t53 -19q37 0 74 20t79.5 65.5t80.5 96t94 133.5l34 50q8 6 17 0l-33 -50q-42 -62 -69 -100t-66.5 -87.5t-70.5 -77t-68.5 -47t-71.5 -19.5zM322 -436l-9 10l201 342h80zM352 852q0 -163 108 -270t312 -107h66l528 848l150 84h350
q-38 101 -159.5 153t-315.5 52q-156 0 -299.5 -32.5t-255.5 -88t-204.5 -130t-153 -159t-93.5 -174t-33 -176.5z" />
    <glyph glyph-name="uni0157" unicode="&#x157;" horiz-adv-x="550" 
d="M565 358q-110 0 -167.5 38.5t-57.5 101.5l-31 -43l-96 -144l-199 -311h-98l283 446q39 62 55 99.5t16 72.5q0 30 -14.5 45t-48.5 15h-76q0 6 8 14h76q41 0 61 -24.5t19 -81.5l-4 -127l53 69q13 67 72 123t131 56h47l-57 -84h-119q-60 -57 -60 -123q0 -60 55 -92.5
t160 -32.5h31q2 -3 -1 -8.5t-9 -8.5h-29zM-307 -436l-8 10l200 342h80z" />
    <glyph glyph-name="Rcaron" unicode="&#x158;" horiz-adv-x="1697" 
d="M1360 -12q-55 0 -81 40.5t-28 100.5q-3 145 109 324l61 96q71 118 68 192q-3 97 -92 123q-57 3 -109 13l4 12q68 -8 117 -8q105 0 195.5 39t149.5 102t92.5 139.5t33.5 153.5q0 38 -10 76h-348l-817 -1317l-107 -56h406l-9 -18h-792l8 18h342l274 441h-55
q-107 0 -191.5 31t-138 85t-81 124.5t-27.5 152.5q0 107 47.5 217t141.5 210t219.5 178t295 124.5t355.5 46.5q209 0 343.5 -59t188.5 -162h219l-10 -16h-203q25 -58 25 -121q0 -112 -67.5 -204t-187.5 -145.5t-269 -56.5q101 -47 104 -188q6 -121 -84 -266l-68 -107
q-96 -152 -96 -229q0 -32 19 -51t53 -19q37 0 74 20t79.5 65.5t80.5 96t94 133.5l34 50q8 6 17 0l-33 -50q-42 -62 -69 -100t-66.5 -87.5t-70.5 -77t-68.5 -47t-71.5 -19.5zM1755 1667l-59 197h16l78 -144l266 144h17l-299 -197h-19zM352 852q0 -163 108 -270t312 -107h66
l528 848l150 84h350q-38 101 -159.5 153t-315.5 52q-156 0 -299.5 -32.5t-255.5 -88t-204.5 -130t-153 -159t-93.5 -174t-33 -176.5z" />
    <glyph glyph-name="rcaron" unicode="&#x159;" horiz-adv-x="550" 
d="M565 358q-110 0 -167.5 38.5t-57.5 101.5l-31 -43l-96 -144l-199 -311h-98l283 446q39 62 55 99.5t16 72.5q0 30 -14.5 45t-48.5 15h-76q0 6 8 14h76q41 0 61 -24.5t19 -81.5l-4 -127l53 69q13 67 72 123t131 56h47l-57 -84h-119q-60 -57 -60 -123q0 -60 55 -92.5
t160 -32.5h31q2 -3 -1 -8.5t-9 -8.5h-29zM573 915l99 365h14l-49 -295l317 299l11 -6l-353 -363h-39z" />
    <glyph glyph-name="Sacute" unicode="&#x15a;" horiz-adv-x="1318" 
d="M514 -111q-101 0 -183.5 26t-136.5 69t-91.5 101t-53.5 118.5t-16 124.5q0 107 47.5 209t135 184.5t226.5 133t306 50.5v-31q-132 0 -246 -31t-195 -84.5t-139 -124t-86.5 -149t-28.5 -159.5q0 -62 16.5 -121t52.5 -112.5t88 -93.5t128.5 -63.5t167.5 -23.5
q95 0 173 28.5t130.5 66.5t95.5 111t66.5 125t44.5 147t28 139t19 137q1 9 2 14q11 79 19 131t21 121t26.5 114.5t33.5 100t43 89.5t55 70.5t70 55.5t86 32.5t105 12.5h121l-39 -55q-58 34 -131 34q-54 0 -92.5 -13t-67.5 -55.5t-46.5 -79.5t-34.5 -130t-26 -159.5
t-26 -211.5q-9 -76 -16.5 -124.5t-30 -146.5t-50.5 -165t-80 -151.5t-116.5 -136t-161.5 -88t-213 -36.5zM1487 1495l-4 10l366 168l6 -51z" />
    <glyph glyph-name="sacute" unicode="&#x15b;" horiz-adv-x="514" 
d="M90 -12q-74 0 -120 44t-46 120q0 94 88 223h82l-6 -13q-83 -68 -133 -126q-16 -43 -16 -84q0 -64 34 -103t93 -39q45 0 79 25.5t55 75t33.5 106.5t20.5 133q1 13 5.5 53t6 55t7 47t11 50t14.5 41t21 41q50 74 144 74q46 0 84 -13l-35 -59q-3 2 -12.5 8.5t-13.5 9.5
t-12.5 8t-14.5 7.5t-14 6t-16 4.5t-17 1q-92 0 -88 -160l6 -176q1 -185 -68.5 -272.5t-171.5 -87.5zM504 920l-8 8l315 370l39 -36z" />
    <glyph glyph-name="Scircumflex" unicode="&#x15c;" horiz-adv-x="1318" 
d="M514 -111q-101 0 -183.5 26t-136.5 69t-91.5 101t-53.5 118.5t-16 124.5q0 107 47.5 209t135 184.5t226.5 133t306 50.5v-31q-132 0 -246 -31t-195 -84.5t-139 -124t-86.5 -149t-28.5 -159.5q0 -62 16.5 -121t52.5 -112.5t88 -93.5t128.5 -63.5t167.5 -23.5
q95 0 173 28.5t130.5 66.5t95.5 111t66.5 125t44.5 147t28 139t19 137q1 9 2 14q11 79 19 131t21 121t26.5 114.5t33.5 100t43 89.5t55 70.5t70 55.5t86 32.5t105 12.5h121l-39 -55q-58 34 -131 34q-54 0 -92.5 -13t-67.5 -55.5t-46.5 -79.5t-34.5 -130t-26 -159.5
t-26 -211.5q-9 -76 -16.5 -124.5t-30 -146.5t-50.5 -165t-80 -151.5t-116.5 -136t-161.5 -88t-213 -36.5zM1325 1489l-8 10l321 189h19l33 -197h-17l-57 145z" />
    <glyph glyph-name="scircumflex" unicode="&#x15d;" horiz-adv-x="514" 
d="M90 -12q-74 0 -120 44t-46 120q0 94 88 223h82l-6 -13q-83 -68 -133 -126q-16 -43 -16 -84q0 -64 34 -103t93 -39q45 0 79 25.5t55 75t33.5 106.5t20.5 133q1 13 5.5 53t6 55t7 47t11 50t14.5 41t21 41q50 74 144 74q46 0 84 -13l-35 -59q-3 2 -12.5 8.5t-13.5 9.5
t-12.5 8t-14.5 7.5t-14 6t-16 4.5t-17 1q-92 0 -88 -160l6 -176q1 -185 -68.5 -272.5t-171.5 -87.5zM412 922l-11 8l306 323h32l-41 -331h-14l-2 247z" />
    <glyph glyph-name="Scedilla" unicode="&#x15e;" horiz-adv-x="1318" 
d="M514 -111q-101 0 -183.5 26t-136.5 69t-91.5 101t-53.5 118.5t-16 124.5q0 107 47.5 209t135 184.5t226.5 133t306 50.5v-31q-132 0 -246 -31t-195 -84.5t-139 -124t-86.5 -149t-28.5 -159.5q0 -62 16.5 -121t52.5 -112.5t88 -93.5t128.5 -63.5t167.5 -23.5
q95 0 173 28.5t130.5 66.5t95.5 111t66.5 125t44.5 147t28 139t19 137q1 9 2 14q11 79 19 131t21 121t26.5 114.5t33.5 100t43 89.5t55 70.5t70 55.5t86 32.5t105 12.5h121l-39 -55q-58 34 -131 34q-54 0 -92.5 -13t-67.5 -55.5t-46.5 -79.5t-34.5 -130t-26 -159.5
t-26 -211.5q-30 -245 -81 -390q-154 -443 -558 -458l-6 -4q-43 -31 -60.5 -49t-17.5 -35q0 -14 18.5 -56.5t18.5 -66.5q0 -32 -45 -66q-21 -15 -134 -85l-61 -37l-8 16l59 35q74 45 98.5 66t24.5 43q0 21 -15.5 60.5t-15.5 56.5q0 25 22.5 46t96.5 72v4h-4z" />
    <glyph glyph-name="scedilla" unicode="&#x15f;" horiz-adv-x="514" 
d="M-180 -420l-8 17l59 34q74 45 98.5 66t24.5 43q0 21 -15.5 60.5t-15.5 56.5q0 25 22.5 46t96.5 72v13q-72 3 -115 46.5t-43 117.5q0 94 88 223h82l-6 -13q-83 -68 -133 -126q-16 -43 -16 -84q0 -64 34 -103t93 -39q45 0 79 25.5t55 75t33.5 106.5t20.5 133q1 13 5.5 53
t6 55t7 47t11 50t14.5 41t21 41q50 74 144 74q46 0 84 -13l-35 -59q-3 2 -12.5 8.5t-13.5 9.5t-12.5 8t-14.5 7.5t-14 6t-16 4.5t-17 1q-92 0 -88 -160l6 -176q1 -172 -58.5 -259t-152.5 -99l-19 -15q-42 -31 -59.5 -48.5t-17.5 -35.5q0 -14 18 -56t18 -66q0 -30 -31 -55.5
t-125 -83.5q-14 -8 -22 -13z" />
    <glyph glyph-name="Scaron" unicode="&#x160;" horiz-adv-x="1318" 
d="M514 -111q-101 0 -183.5 26t-136.5 69t-91.5 101t-53.5 118.5t-16 124.5q0 107 47.5 209t135 184.5t226.5 133t306 50.5v-31q-132 0 -246 -31t-195 -84.5t-139 -124t-86.5 -149t-28.5 -159.5q0 -62 16.5 -121t52.5 -112.5t88 -93.5t128.5 -63.5t167.5 -23.5
q95 0 173 28.5t130.5 66.5t95.5 111t66.5 125t44.5 147t28 139t19 137q1 9 2 14q11 79 19 131t21 121t26.5 114.5t33.5 100t43 89.5t55 70.5t70 55.5t86 32.5t105 12.5h121l-39 -55q-58 34 -131 34q-54 0 -92.5 -13t-67.5 -55.5t-46.5 -79.5t-34.5 -130t-26 -159.5
t-26 -211.5q-9 -76 -16.5 -124.5t-30 -146.5t-50.5 -165t-80 -151.5t-116.5 -136t-161.5 -88t-213 -36.5zM1511 1491l-59 197h16l78 -144l266 144h17l-299 -197h-19z" />
    <glyph glyph-name="scaron" unicode="&#x161;" horiz-adv-x="514" 
d="M90 -12q-74 0 -120 44t-46 120q0 94 88 223h82l-6 -13q-83 -68 -133 -126q-16 -43 -16 -84q0 -64 34 -103t93 -39q45 0 79 25.5t55 75t33.5 106.5t20.5 133q1 13 5.5 53t6 55t7 47t11 50t14.5 41t21 41q50 74 144 74q46 0 84 -13l-35 -59q-3 2 -12.5 8.5t-13.5 9.5
t-12.5 8t-14.5 7.5t-14 6t-16 4.5t-17 1q-92 0 -88 -160l6 -176q1 -185 -68.5 -272.5t-171.5 -87.5zM524 915l99 365h14l-49 -295l317 299l10 -6l-352 -363h-39z" />
    <glyph glyph-name="uni0162" unicode="&#x162;" horiz-adv-x="1157" 
d="M592 786q-113 50 -172.5 128t-59.5 165q0 64 33 121.5t96 104.5t164.5 74.5t227.5 27.5h1050l-12 -16h-543l-819 -1317l-104 -56h393l-8 -18h-363l-8 -6q-43 -31 -60.5 -49t-17.5 -35q0 -14 18.5 -56.5t18.5 -66.5q0 -30 -31 -55.5t-125 -83.5q-14 -8 -22 -13l-62 -36
l-8 16l60 35q74 45 98 66t24 42t-15 60.5t-15 56.5q0 25 23 47t96 72v6h-396l8 18h345l813 1305l120 68h-458q-121 0 -219 -26.5t-158 -71t-91.5 -99.5t-31.5 -115q0 -79 58 -150.5t167 -115.5z" />
    <glyph glyph-name="uni0163" unicode="&#x163;" horiz-adv-x="401" 
d="M201 883l10 16h145l111 172q75 0 113 53h18l-143 -225h233l-12 -16h-232l-317 -500q-87 -139 -117 -198t-30 -109q0 -74 71 -74q129 0 318 281l57 86q11 5 16 0l-59 -90q-171 -260 -307 -287l-15 -12q-42 -31 -59.5 -48.5t-17.5 -35.5q0 -14 18 -56.5t18 -66.5
q0 -30 -31 -55.5t-125 -83.5q-14 -8 -22 -13l-61 -37l-8 17l59 34q74 45 98.5 66t24.5 43q0 21 -15.5 60.5t-15.5 56.5q0 25 23 47t96 72v8q-45 2 -71.5 34.5t-26.5 98.5q0 86 32 160t113 200l242 379l-13 23h-118z" />
    <glyph glyph-name="Tcaron" unicode="&#x164;" horiz-adv-x="1157" 
d="M592 786q-113 50 -172.5 128t-59.5 165q0 64 33 121.5t96 104.5t164.5 74.5t227.5 27.5h1050l-12 -16h-543l-819 -1317l-104 -56h393l-8 -18h-785l8 18h345l813 1305l120 68h-458q-121 0 -219 -26.5t-158 -71t-91.5 -99.5t-31.5 -115q0 -79 58 -150.5t167 -115.5z
M1366 1511l-59 197h16l78 -143l266 143h16l-299 -197h-18z" />
    <glyph glyph-name="tcaron" unicode="&#x165;" horiz-adv-x="403" 
d="M47 -12q-47 0 -74.5 33t-27.5 100q0 86 32 160t113 200l242 379l-13 23h-118l10 16h145l111 172q75 0 113 53h18l-143 -225h233l-12 -16h-232l-317 -500q-87 -139 -117 -198t-30 -109q0 -74 71 -74q129 0 318 281l57 86q11 5 16 0l-59 -90q-192 -291 -336 -291zM645 1014
l238 284h90l-314 -284h-14z" />
    <glyph glyph-name="Tbar" unicode="&#x166;" horiz-adv-x="1157" 
d="M592 786q-113 50 -172.5 128t-59.5 165q0 64 33 121.5t96 104.5t164.5 74.5t227.5 27.5h1050l-12 -16h-543l-422 -676h267l-11 -17h-264l-389 -624l-104 -56h393l-8 -18h-785l8 18h345l423 680h-276l10 17h277l379 608l120 68h-458q-121 0 -219 -26.5t-158 -71
t-91.5 -99.5t-31.5 -115q0 -79 58 -150.5t167 -115.5z" />
    <glyph glyph-name="tbar" unicode="&#x167;" horiz-adv-x="401" 
d="M47 -12q-47 0 -74.5 33t-27.5 100q0 86 32 160t113 200l125 197h-109l15 16h104l107 166l-13 23h-118l10 16h145l111 172q75 0 113 53h18l-143 -225h233l-12 -16h-232l-118 -189h254l-15 -16h-252l-186 -295q-87 -139 -117 -198t-30 -109q0 -74 71 -74q129 0 318 281
l57 86q11 5 16 0l-59 -90q-192 -291 -336 -291z" />
    <glyph glyph-name="Utilde" unicode="&#x168;" horiz-adv-x="1665" 
d="M764 -8q-64 0 -103.5 57t-39.5 160q0 218 204 539l31 49h-90q-98 0 -173.5 16.5t-121.5 42t-75.5 61.5t-40.5 71.5t-11 74.5q0 96 68.5 196t173.5 175.5t238 123.5t255 48q97 0 144 -39.5t47 -130.5q0 -87 -38.5 -186t-129.5 -244l-211 -334q-227 -359 -227 -527
q0 -63 25 -99t75 -36q170 0 483 471l525 854l118 56h-323l10 16h522l-10 -16h-162l-532 -852q-170 -271 -164 -418q6 -117 96 -117q64 0 133.5 69.5t173.5 219.5l56 78q11 8 16 0l-55 -82q-111 -158 -183.5 -229.5t-140.5 -71.5q-131 0 -131 196q0 96 35 224h-17
q-283 -416 -450 -416zM1645 1489q-28 0 -52.5 21t-39 45.5t-35 45.5t-43.5 21q-31 0 -61 -27t-79 -92l-12 10q64 83 102 118.5t78 35.5q28 0 53 -22.5t41 -49t37 -49t41 -22.5q19 0 32 14.5t13 42.5q0 34 -24 64l18 6q21 -44 21 -68q0 -41 -26.5 -67.5t-63.5 -26.5z
M360 1061q0 -46 17.5 -85.5t59.5 -77.5t127.5 -60.5t205.5 -22.5h98l193 309q115 184 140 235q32 66 34 116q1 62 -38.5 87t-121.5 25q-120 0 -249.5 -46.5t-231.5 -119.5t-168 -169.5t-66 -190.5z" />
    <glyph glyph-name="utilde" unicode="&#x169;" horiz-adv-x="747" 
d="M51 -12q-42 0 -66 33t-24 98q0 66 36.5 144.5t125.5 213.5l125 189l-4 12h-86q0 12 10 14h182l4 -16l-166 -250q-17 -27 -42.5 -65.5t-38 -57.5t-31 -48t-27 -43t-20 -34.5t-16.5 -32.5t-10.5 -27t-7 -26.5t-1.5 -23.5q0 -66 57 -66q72 0 171.5 104t205.5 273l180 287
l-4 12h-84q0 9 8 14h187l4 -16l-215 -338q-83 -129 -111 -183t-28 -92q0 -61 57 -61q61 0 123.5 65.5t159.5 206.5l65 95q12 6 18 0l-67 -97q-47 -69 -79 -112t-72 -87t-76.5 -64.5t-71.5 -20.5q-86 0 -86 118q0 48 22 134h-6q-81 -114 -160.5 -183t-140.5 -69zM727 952
q-26 0 -48.5 15t-39 37t-32 44t-34 37t-38.5 15q-30 0 -61 -31t-77 -102l-12 12q60 91 98.5 131.5t79.5 40.5q30 0 57.5 -25.5t45.5 -55.5t42.5 -55.5t47.5 -25.5q20 0 33.5 15.5t13.5 44.5q0 31 -27 77l19 4q22 -39 22 -79q0 -42 -26.5 -70.5t-63.5 -28.5z" />
    <glyph glyph-name="Umacron" unicode="&#x16a;" horiz-adv-x="1665" 
d="M764 -8q-64 0 -103.5 57t-39.5 160q0 218 204 539l31 49h-90q-98 0 -173.5 16.5t-121.5 42t-75.5 61.5t-40.5 71.5t-11 74.5q0 96 68.5 196t173.5 175.5t238 123.5t255 48q97 0 144 -39.5t47 -130.5q0 -87 -38.5 -186t-129.5 -244l-211 -334q-227 -359 -227 -527
q0 -63 25 -99t75 -36q170 0 483 471l525 854l118 56h-323l10 16h522l-10 -16h-162l-532 -852q-170 -271 -164 -418q6 -117 96 -117q64 0 133.5 69.5t173.5 219.5l56 78q11 8 16 0l-55 -82q-111 -158 -183.5 -229.5t-140.5 -71.5q-131 0 -131 196q0 96 35 224h-17
q-283 -416 -450 -416zM1372 1573l12 22h414l-12 -22h-414zM360 1061q0 -46 17.5 -85.5t59.5 -77.5t127.5 -60.5t205.5 -22.5h98l193 309q115 184 140 235q32 66 34 116q1 62 -38.5 87t-121.5 25q-120 0 -249.5 -46.5t-231.5 -119.5t-168 -169.5t-66 -190.5z" />
    <glyph glyph-name="umacron" unicode="&#x16b;" horiz-adv-x="747" 
d="M51 -12q-42 0 -66 33t-24 98q0 66 36.5 144.5t125.5 213.5l125 189l-4 12h-86q0 12 10 14h182l4 -16l-166 -250q-17 -27 -42.5 -65.5t-38 -57.5t-31 -48t-27 -43t-20 -34.5t-16.5 -32.5t-10.5 -27t-7 -26.5t-1.5 -23.5q0 -66 57 -66q72 0 171.5 104t205.5 273l180 287
l-4 12h-84q0 9 8 14h187l4 -16l-215 -338q-83 -129 -111 -183t-28 -92q0 -61 57 -61q61 0 123.5 65.5t159.5 206.5l65 95q12 6 18 0l-67 -97q-47 -69 -79 -112t-72 -87t-76.5 -64.5t-71.5 -20.5q-86 0 -86 118q0 48 22 134h-6q-81 -114 -160.5 -183t-140.5 -69zM428 1006
l12 22h389l-12 -22h-389z" />
    <glyph glyph-name="Ubreve" unicode="&#x16c;" horiz-adv-x="1665" 
d="M764 -8q-64 0 -103.5 57t-39.5 160q0 218 204 539l31 49h-90q-98 0 -173.5 16.5t-121.5 42t-75.5 61.5t-40.5 71.5t-11 74.5q0 96 68.5 196t173.5 175.5t238 123.5t255 48q97 0 144 -39.5t47 -130.5q0 -87 -38.5 -186t-129.5 -244l-211 -334q-227 -359 -227 -527
q0 -63 25 -99t75 -36q170 0 483 471l525 854l118 56h-323l10 16h522l-10 -16h-162l-532 -852q-170 -271 -164 -418q6 -117 96 -117q64 0 133.5 69.5t173.5 219.5l56 78q11 8 16 0l-55 -82q-111 -158 -183.5 -229.5t-140.5 -71.5q-131 0 -131 196q0 96 35 224h-17
q-283 -416 -450 -416zM1511 1511q-41 0 -62.5 25t-21.5 63q0 50 41 109h64q-29 -48 -40 -73.5t-11 -53.5q0 -51 47 -51q101 0 188 178h23q-44 -91 -103.5 -144t-124.5 -53zM360 1061q0 -46 17.5 -85.5t59.5 -77.5t127.5 -60.5t205.5 -22.5h98l193 309q115 184 140 235
q32 66 34 116q1 62 -38.5 87t-121.5 25q-120 0 -249.5 -46.5t-231.5 -119.5t-168 -169.5t-66 -190.5z" />
    <glyph glyph-name="ubreve" unicode="&#x16d;" horiz-adv-x="747" 
d="M51 -12q-42 0 -66 33t-24 98q0 66 36.5 144.5t125.5 213.5l125 189l-4 12h-86q0 12 10 14h182l4 -16l-166 -250q-17 -27 -42.5 -65.5t-38 -57.5t-31 -48t-27 -43t-20 -34.5t-16.5 -32.5t-10.5 -27t-7 -26.5t-1.5 -23.5q0 -66 57 -66q72 0 171.5 104t205.5 273l180 287
l-4 12h-84q0 9 8 14h187l4 -16l-215 -338q-83 -129 -111 -183t-28 -92q0 -61 57 -61q61 0 123.5 65.5t159.5 206.5l65 95q12 6 18 0l-67 -97q-47 -69 -79 -112t-72 -87t-76.5 -64.5t-71.5 -20.5q-86 0 -86 118q0 48 22 134h-6q-81 -114 -160.5 -183t-140.5 -69zM598 936
q-34 0 -51 21t-17 55q0 47 27 93t78 103h72q-127 -134 -127 -217q0 -37 32 -37q58 0 123.5 72.5t110.5 181.5h22q-137 -272 -270 -272z" />
    <glyph glyph-name="Uring" unicode="&#x16e;" horiz-adv-x="1665" 
d="M764 -8q-64 0 -103.5 57t-39.5 160q0 218 204 539l31 49h-90q-98 0 -173.5 16.5t-121.5 42t-75.5 61.5t-40.5 71.5t-11 74.5q0 96 68.5 196t173.5 175.5t238 123.5t255 48q97 0 144 -39.5t47 -130.5q0 -87 -38.5 -186t-129.5 -244l-211 -334q-227 -359 -227 -527
q0 -63 25 -99t75 -36q170 0 483 471l525 854l118 56h-323l10 16h522l-10 -16h-162l-532 -852q-170 -271 -164 -418q6 -117 96 -117q64 0 133.5 69.5t173.5 219.5l56 78q11 8 16 0l-55 -82q-111 -158 -183.5 -229.5t-140.5 -71.5q-131 0 -131 196q0 96 35 224h-17
q-283 -416 -450 -416zM1516 1511q-31 0 -51.5 24t-20.5 62q0 55 38.5 94.5t94.5 39.5q68 0 68 -70q0 -60 -40 -105t-89 -45zM1516 1524q45 0 79.5 41.5t34.5 97.5q0 53 -43 53q-42 0 -76 -46.5t-34 -100.5q0 -45 39 -45zM360 1061q0 -46 17.5 -85.5t59.5 -77.5t127.5 -60.5
t205.5 -22.5h98l193 309q115 184 140 235q32 66 34 116q1 62 -38.5 87t-121.5 25q-120 0 -249.5 -46.5t-231.5 -119.5t-168 -169.5t-66 -190.5z" />
    <glyph glyph-name="uring" unicode="&#x16f;" horiz-adv-x="747" 
d="M51 -12q-42 0 -66 33t-24 98q0 66 36.5 144.5t125.5 213.5l125 189l-4 12h-86q0 12 10 14h182l4 -16l-166 -250q-17 -27 -42.5 -65.5t-38 -57.5t-31 -48t-27 -43t-20 -34.5t-16.5 -32.5t-10.5 -27t-7 -26.5t-1.5 -23.5q0 -66 57 -66q72 0 171.5 104t205.5 273l180 287
l-4 12h-84q0 9 8 14h187l4 -16l-215 -338q-83 -129 -111 -183t-28 -92q0 -61 57 -61q61 0 123.5 65.5t159.5 206.5l65 95q12 6 18 0l-67 -97q-47 -69 -79 -112t-72 -87t-76.5 -64.5t-71.5 -20.5q-86 0 -86 118q0 48 22 134h-6q-81 -114 -160.5 -183t-140.5 -69zM592 948
q-28 0 -44 23t-16 61q0 71 54 123.5t108 52.5q51 0 51 -59q0 -62 -52 -131.5t-101 -69.5zM592 961q45 0 93 68.5t48 125.5q0 41 -28 41q-40 0 -92 -67.5t-52 -129.5q0 -20 6.5 -29t24.5 -9z" />
    <glyph glyph-name="Uhungarumlaut" unicode="&#x170;" horiz-adv-x="1665" 
d="M764 -8q-64 0 -103.5 57t-39.5 160q0 218 204 539l31 49h-90q-98 0 -173.5 16.5t-121.5 42t-75.5 61.5t-40.5 71.5t-11 74.5q0 96 68.5 196t173.5 175.5t238 123.5t255 48q97 0 144 -39.5t47 -130.5q0 -87 -38.5 -186t-129.5 -244l-211 -334q-227 -359 -227 -527
q0 -63 25 -99t75 -36q170 0 483 471l525 854l118 56h-323l10 16h522l-10 -16h-162l-532 -852q-170 -271 -164 -418q6 -117 96 -117q64 0 133.5 69.5t173.5 219.5l56 78q11 8 16 0l-55 -82q-111 -158 -183.5 -229.5t-140.5 -71.5q-131 0 -131 196q0 96 35 224h-17
q-283 -416 -450 -416zM1649 1511l-7 13l336 221l23 -39zM1499 1511l-6 13l299 221l23 -39zM360 1061q0 -46 17.5 -85.5t59.5 -77.5t127.5 -60.5t205.5 -22.5h98l193 309q115 184 140 235q32 66 34 116q1 62 -38.5 87t-121.5 25q-120 0 -249.5 -46.5t-231.5 -119.5
t-168 -169.5t-66 -190.5z" />
    <glyph glyph-name="uhungarumlaut" unicode="&#x171;" horiz-adv-x="747" 
d="M51 -12q-42 0 -66 33t-24 98q0 66 36.5 144.5t125.5 213.5l125 189l-4 12h-86q0 12 10 14h182l4 -16l-166 -250q-17 -27 -42.5 -65.5t-38 -57.5t-31 -48t-27 -43t-20 -34.5t-16.5 -32.5t-10.5 -27t-7 -26.5t-1.5 -23.5q0 -66 57 -66q72 0 171.5 104t205.5 273l180 287
l-4 12h-84q0 9 8 14h187l4 -16l-215 -338q-83 -129 -111 -183t-28 -92q0 -61 57 -61q61 0 123.5 65.5t159.5 206.5l65 95q12 6 18 0l-67 -97q-47 -69 -79 -112t-72 -87t-76.5 -64.5t-71.5 -20.5q-86 0 -86 118q0 48 22 134h-6q-81 -114 -160.5 -183t-140.5 -69zM588 920
l315 366l47 -37l-346 -329h-16zM416 920l276 366l47 -37l-307 -329h-16z" />
    <glyph glyph-name="Uogonek" unicode="&#x172;" horiz-adv-x="1665" 
d="M764 -8q-64 0 -103.5 57t-39.5 160q0 218 204 539l31 49h-90q-98 0 -173.5 16.5t-121.5 42t-75.5 61.5t-40.5 71.5t-11 74.5q0 96 68.5 196t173.5 175.5t238 123.5t255 48q97 0 144 -39.5t47 -130.5q0 -87 -38.5 -186t-129.5 -244l-211 -334q-227 -359 -227 -527
q0 -63 25 -99t75 -36q170 0 483 471l525 854l118 56h-323l10 16h522l-10 -16h-162l-532 -852q-170 -271 -164 -418q6 -117 96 -117q64 0 133.5 69.5t173.5 219.5l56 78q11 8 16 0l-55 -82q-86 -123 -147 -192t-115 -95l-107 -113q-104 -106 -104 -196q0 -38 21.5 -59
t82.5 -21h59l-8 -16h-88q-66 0 -100.5 22.5t-34.5 63.5q0 37 29 76t125 135l90 90v6q-10 -2 -27 -2q-131 0 -131 196q0 96 35 224h-17q-283 -416 -450 -416zM360 1061q0 -46 17.5 -85.5t59.5 -77.5t127.5 -60.5t205.5 -22.5h98l193 309q115 184 140 235q32 66 34 116
q1 62 -38.5 87t-121.5 25q-120 0 -249.5 -46.5t-231.5 -119.5t-168 -169.5t-66 -190.5z" />
    <glyph glyph-name="uogonek" unicode="&#x173;" horiz-adv-x="747" 
d="M51 -12q-42 0 -66 33t-24 98q0 66 36.5 144.5t125.5 213.5l125 189l-4 12h-86q0 12 10 14h182l4 -16l-166 -250q-17 -27 -42.5 -65.5t-38 -57.5t-31 -48t-27 -43t-20 -34.5t-16.5 -32.5t-10.5 -27t-7 -26.5t-1.5 -23.5q0 -66 57 -66q72 0 171.5 104t205.5 273l180 287
l-4 12h-84q0 9 8 14h187l4 -16l-215 -338q-83 -129 -111 -183t-28 -92q0 -61 57 -61q61 0 123.5 65.5t159.5 206.5l65 95q12 6 18 0l-67 -97q-81 -120 -140 -187.5t-116 -88.5l-105 -111q-104 -106 -104 -196q0 -38 21.5 -59t82.5 -21h60l-8 -17h-88q-66 0 -101 22.5
t-35 63.5q0 37 29 76t125 135l90 91l-2 8h-8q-86 0 -86 118q0 48 22 134h-6q-81 -114 -160.5 -183t-140.5 -69z" />
    <glyph glyph-name="Wcircumflex" unicode="&#x174;" horiz-adv-x="1470" 
d="M-35 -55q66 37 121.5 80t97 86.5t78.5 101t63 109t54.5 125t49.5 135.5t50 153q18 55 27 84q61 187 116 287q127 233 318 285h-461l15 16h1464q224 217 465 217q87 0 180 -27l-6 -18q-85 29 -174 29q-111 0 -214.5 -45t-191 -123.5t-172 -181t-167.5 -222t-167.5 -241.5
t-181.5 -244t-200.5 -225.5t-234 -189.5t-271.5 -134q-41 -30 -117 -80l-8 23q66 37 121 80t97 87.5t78 100.5t63 109.5t55 125.5t49.5 136.5t50.5 153.5q17 53 26 81q46 141 74 205q-200 -293 -242 -350q-224 -308 -431 -472q-165 -130 -349 -200q-41 -30 -117 -80z
M1266 1509l-9 11l322 188h18l33 -197h-16l-58 146zM137 41q88 38 171.5 91.5t152 110t140.5 132.5t126 141t120 155.5t111.5 157t112 164t109.5 158.5q124 193 290 240h-421q-56 0 -104.5 -16.5t-85 -44.5t-68.5 -69.5t-55 -87t-44.5 -102t-38 -109.5t-34.5 -114l-21 -72
q-35 -113 -71 -202t-89.5 -184t-128.5 -182.5t-172 -166.5zM664 35q145 57 281 158t238 215t207.5 253t187 261.5t181 253t183.5 215.5h-367q-64 0 -116.5 -18t-95 -67t-69 -82.5t-58.5 -119.5t-43 -119t-41 -136q-15 -49 -22 -73q-36 -115 -72 -203.5t-90 -185
t-129.5 -184.5t-174.5 -168z" />
    <glyph glyph-name="wcircumflex" unicode="&#x175;" horiz-adv-x="952" 
d="M115 -12q-38 0 -60 32t-22 93q0 132 127 317l47 70q13 19 30.5 43t25.5 35.5t17 26t12 24.5t3 20q0 29 -35 29h-94q0 9 8 14h416q67 0 67 -88q0 -71 -67 -180l-72 -113q-79 -127 -95 -163q-17 -40 -17 -76q0 -70 53 -70q63 0 155.5 80t165.5 188q107 153 107 277
q0 54 -23 92.5t-73 38.5h-13l8 14h265q0 -8 -9 -14h-124q12 -36 12 -78q0 -149 -133 -336q-82 -114 -176.5 -195t-163.5 -81q-78 0 -78 123q0 51 14 114h-6q-85 -115 -151.5 -176t-120.5 -61zM115 2q117 0 350 367l65 106q12 20 32 50.5t27.5 42.5t17.5 29.5t13 29t3 22.5
q0 29 -33 29h-287q27 -16 27 -70q0 -43 -20.5 -88.5t-78.5 -126.5l-59 -84q-59 -80 -85 -135t-26 -102q0 -70 54 -70zM514 922l-10 8l305 323h33l-41 -331h-15l-2 247z" />
    <glyph glyph-name="Ycircumflex" unicode="&#x176;" horiz-adv-x="1597" 
d="M793 14q-70 0 -112 55.5t-42 168.5q0 204 190 505l33 54h-82q-121 0 -208 24t-132 64.5t-64.5 84t-19.5 93.5q0 96 70.5 195.5t178 174.5t243 123t258.5 48q91 0 133.5 -34.5t42.5 -127.5q0 -100 -48 -205.5t-147 -263.5l-151 -242q-137 -220 -197.5 -349.5t-60.5 -213.5
q0 -67 30 -102t85 -35q101 0 220.5 123.5t276.5 369.5l502 811l117 56h-310l11 16h516l-10 -16h-172l-400 -641q-100 -163 -259.5 -460.5t-197.5 -363.5l-2 -4q146 22 255.5 111t234.5 270l45 66q12 6 18 0l-47 -68q-88 -127 -160 -203t-160.5 -125.5t-195.5 -64.5
q-59 -99 -120 -184.5t-138.5 -168t-156 -140t-172 -93t-187.5 -35.5q-155 0 -236 81t-81 194q0 71 34 138t95.5 120.5t157.5 86t210 32.5q49 0 235.5 -10t258.5 -11l14 25q48 79 154 267.5t162 281.5h-15q-156 -238 -275.5 -358t-221.5 -120zM1384 1509l-8 11l322 188h18
l33 -197h-16l-58 146zM0 -436q0 -103 71.5 -177.5t207.5 -74.5q81 0 160 32t145.5 83t135.5 130.5t125 159.5t120 185q-74 1 -255 10.5t-229 9.5q-111 0 -204 -31t-152.5 -81.5t-92 -114t-32.5 -131.5zM375 1061q0 -36 9.5 -68t37.5 -65.5t72 -57.5t118.5 -39.5t171.5 -15.5
h90l181 285q77 122 108.5 174.5t57 112t26.5 102.5q0 54 -32 76t-107 22q-123 0 -255 -46.5t-237 -119.5t-173 -169.5t-68 -190.5z" />
    <glyph glyph-name="ycircumflex" unicode="&#x177;" horiz-adv-x="739" 
d="M-348 -713q-96 0 -96 101q0 49 28 107t87 126t168 145t255 150l119 61l14 25l146 238h-11q-77 -104 -156 -169t-138 -65q-43 0 -68 33t-25 96q0 70 37.5 148.5t126.5 208.5l115 174l-4 12h-92q-3 10 8 14h190l4 -16l-151 -227q-17 -25 -43 -63.5t-38 -57t-31.5 -48
t-28 -44t-21 -36t-18 -34.5t-11.5 -29t-8 -29t-2 -26q0 -62 62 -62q73 0 173.5 102t196.5 257l181 287l-5 12h-88q0 8 11 14h188l4 -16l-215 -338q-117 -188 -203 -332q125 54 192 93.5t127.5 101.5t129.5 168q12 6 18 0q-43 -67 -80 -114t-74.5 -83.5t-87 -67t-101.5 -55.5
t-134 -59l-10 -17q-41 -69 -76.5 -125t-85 -130t-93 -131t-96 -115.5t-99.5 -97t-97 -63t-94 -24.5zM397 922l-10 8l305 323h33l-41 -331h-14l-2 247zM-428 -610q0 -86 72 -86q90 0 217 154.5t338 496.5l-99 -51q-143 -71 -250 -147t-165 -142.5t-85 -122.5t-28 -102z" />
    <glyph glyph-name="Ydieresis" unicode="&#x178;" horiz-adv-x="1597" 
d="M793 14q-70 0 -112 55.5t-42 168.5q0 204 190 505l33 54h-82q-121 0 -208 24t-132 64.5t-64.5 84t-19.5 93.5q0 96 70.5 195.5t178 174.5t243 123t258.5 48q91 0 133.5 -34.5t42.5 -127.5q0 -100 -48 -205.5t-147 -263.5l-151 -242q-137 -220 -197.5 -349.5t-60.5 -213.5
q0 -67 30 -102t85 -35q101 0 220.5 123.5t276.5 369.5l502 811l117 56h-310l11 16h516l-10 -16h-172l-400 -641q-100 -163 -259.5 -460.5t-197.5 -363.5l-2 -4q146 22 255.5 111t234.5 270l45 66q12 6 18 0l-47 -68q-88 -127 -160 -203t-160.5 -125.5t-195.5 -64.5
q-59 -99 -120 -184.5t-138.5 -168t-156 -140t-172 -93t-187.5 -35.5q-155 0 -236 81t-81 194q0 71 34 138t95.5 120.5t157.5 86t210 32.5q49 0 235.5 -10t258.5 -11l14 25q48 79 154 267.5t162 281.5h-15q-156 -238 -275.5 -358t-221.5 -120zM1669 1567l64 102h82l-62 -102
h-84zM1499 1567l64 102h79l-61 -102h-82zM0 -436q0 -103 71.5 -177.5t207.5 -74.5q81 0 160 32t145.5 83t135.5 130.5t125 159.5t120 185q-74 1 -255 10.5t-229 9.5q-111 0 -204 -31t-152.5 -81.5t-92 -114t-32.5 -131.5zM375 1061q0 -36 9.5 -68t37.5 -65.5t72 -57.5
t118.5 -39.5t171.5 -15.5h90l181 285q77 122 108.5 174.5t57 112t26.5 102.5q0 54 -32 76t-107 22q-123 0 -255 -46.5t-237 -119.5t-173 -169.5t-68 -190.5z" />
    <glyph glyph-name="Zacute" unicode="&#x179;" horiz-adv-x="1101" 
d="M-258 -715q-130 0 -204.5 62t-74.5 159q0 41 16 78t40 66t66 55.5t81 45.5t98 38t104 30.5t113 25.5t110.5 21t110 18.5t99.5 17.5q168 29 295 67q164 285 170 525q3 198 -127 198q-95 0 -154 -86l-59 -90l-47 35q48 51 117 100l731 676h-682l45 80h717l34 39l23 -12
l-801 -742l4 -2q49 21 90 21q97 0 147 -78t48 -207q-3 -192 -111 -403q129 58 216 139t169 207q10 7 17 0q-88 -135 -181 -221.5t-233 -147.5q-39 -71 -59 -100q-78 -122 -181.5 -231t-223 -195.5t-256 -137.5t-267.5 -51zM975 1516l-4 10l366 168l6 -52zM-520 -496
q0 -89 69.5 -144.5t192.5 -55.5q114 0 233.5 52t226 140.5t198 195.5t165.5 226l19 31q-113 -34 -285 -66q-32 -6 -96.5 -16.5t-107 -18t-108 -20.5t-110.5 -24.5t-102 -29.5t-96 -36t-79.5 -43.5t-64.5 -53t-39.5 -62.5t-15.5 -75z" />
    <glyph glyph-name="zacute" unicode="&#x17a;" horiz-adv-x="571" 
d="M-362 -707q-48 1 -69.5 29t-21.5 68q0 244 684 614q17 63 17 102q0 105 -80 105q-52 0 -96 -53l-35 -45l-29 24l549 490h-377l43 65h408l10 15l10 -17l-530 -473l4 -2q33 23 74 23q63 0 96 -38.5t33 -109.5q0 -107 -75 -250t-180.5 -263t-227 -203t-207.5 -81zM473 920
l-8 8l315 370l39 -36zM-438 -610q0 -80 71 -80q63 0 153 67t174.5 167t158 219.5t106.5 220.5q-87 -48 -164 -93.5t-173.5 -112.5t-164 -127.5t-114.5 -130.5t-47 -130z" />
    <glyph glyph-name="Zdotaccent" unicode="&#x17b;" horiz-adv-x="1101" 
d="M-258 -715q-130 0 -204.5 62t-74.5 159q0 41 16 78t40 66t66 55.5t81 45.5t98 38t104 30.5t113 25.5t110.5 21t110 18.5t99.5 17.5q168 29 295 67q164 285 170 525q3 198 -127 198q-95 0 -154 -86l-59 -90l-47 35q48 51 117 100l731 676h-682l45 80h717l34 39l23 -12
l-801 -742l4 -2q49 21 90 21q97 0 147 -78t48 -207q-3 -192 -111 -403q129 58 216 139t169 207q10 7 17 0q-88 -135 -181 -221.5t-233 -147.5q-39 -71 -59 -100q-78 -122 -181.5 -231t-223 -195.5t-256 -137.5t-267.5 -51zM993 1552l88 125h93l-89 -125h-92zM-520 -496
q0 -89 69.5 -144.5t192.5 -55.5q114 0 233.5 52t226 140.5t198 195.5t165.5 226l19 31q-113 -34 -285 -66q-32 -6 -96.5 -16.5t-107 -18t-108 -20.5t-110.5 -24.5t-102 -29.5t-96 -36t-79.5 -43.5t-64.5 -53t-39.5 -62.5t-15.5 -75z" />
    <glyph glyph-name="zdotaccent" unicode="&#x17c;" horiz-adv-x="571" 
d="M-362 -707q-48 1 -69.5 29t-21.5 68q0 244 684 614q17 63 17 102q0 105 -80 105q-52 0 -96 -53l-35 -45l-29 24l549 490h-377l43 65h408l10 15l10 -17l-530 -473l4 -2q33 23 74 23q63 0 96 -38.5t33 -109.5q0 -107 -75 -250t-180.5 -263t-227 -203t-207.5 -81zM557 1057
l90 137h96l-90 -137h-96zM-438 -610q0 -80 71 -80q63 0 153 67t174.5 167t158 219.5t106.5 220.5q-87 -48 -164 -93.5t-173.5 -112.5t-164 -127.5t-114.5 -130.5t-47 -130z" />
    <glyph glyph-name="Zcaron" unicode="&#x17d;" horiz-adv-x="1101" 
d="M-258 -715q-130 0 -204.5 62t-74.5 159q0 41 16 78t40 66t66 55.5t81 45.5t98 38t104 30.5t113 25.5t110.5 21t110 18.5t99.5 17.5q168 29 295 67q164 285 170 525q3 198 -127 198q-95 0 -154 -86l-59 -90l-47 35q48 51 117 100l731 676h-682l45 80h717l34 39l23 -12
l-801 -742l4 -2q49 21 90 21q97 0 147 -78t48 -207q-3 -192 -111 -403q129 58 216 139t169 207q10 7 17 0q-88 -135 -181 -221.5t-233 -147.5q-39 -71 -59 -100q-78 -122 -181.5 -231t-223 -195.5t-256 -137.5t-267.5 -51zM999 1511l-59 197h16l78 -143l266 143h17
l-299 -197h-19zM-520 -496q0 -89 69.5 -144.5t192.5 -55.5q114 0 233.5 52t226 140.5t198 195.5t165.5 226l19 31q-113 -34 -285 -66q-32 -6 -96.5 -16.5t-107 -18t-108 -20.5t-110.5 -24.5t-102 -29.5t-96 -36t-79.5 -43.5t-64.5 -53t-39.5 -62.5t-15.5 -75z" />
    <glyph glyph-name="zcaron" unicode="&#x17e;" horiz-adv-x="571" 
d="M-362 -707q-48 1 -69.5 29t-21.5 68q0 244 684 614q17 63 17 102q0 105 -80 105q-52 0 -96 -53l-35 -45l-29 24l549 490h-377l43 65h408l10 15l10 -17l-530 -473l4 -2q33 23 74 23q63 0 96 -38.5t33 -109.5q0 -107 -75 -250t-180.5 -263t-227 -203t-207.5 -81zM494 915
l98 365h14l-49 -295l317 299l11 -6l-353 -363h-38zM-438 -610q0 -80 71 -80q63 0 153 67t174.5 167t158 219.5t106.5 220.5q-87 -48 -164 -93.5t-173.5 -112.5t-164 -127.5t-114.5 -130.5t-47 -130z" />
    </font>
</defs>
</svg>
