<svg xmlns="http://www.w3.org/2000/svg">
<defs>
<font id="PPPlayground-Medium" horiz-adv-x="0" >
  <font-face 
    font-family="PP Playground Light"
    font-weight="500"
    font-style="italic"
    font-stretch="normal"
    units-per-em="2048"
    panose-1="0 0 0 0 0 0 0 0 0 0"
    ascent="1638"
    descent="-410"
    x-height="696"
    cap-height="1407"
    bbox="-1055 -715 3297 1911"
    underline-thickness="20"
    underline-position="-214"
    slope="-32"
    unicode-range="U+0021-1F449"
  />
<missing-glyph horiz-adv-x="1980" 
d="M1708 -113q-7 7 -27 7h-34q-6 0 -15 6l-12 6h-64q-9 0 -18 6q-18 18 -27 16q-2 0 -2 2q-7 11 -28 11l-19 -11q-5 2 -10 9t-6 8q-2 0 -5 1t-5 1q-13 0 -13 14q-5 9 -7 10t-11 -2q-8 0 -19 11q-13 9 -22 0q-11 -11 -18 -7h-15q-11 0 -14 7h-12q-14 -7 -17 -7q0 -3 -43 -1
l-43 1q-12 0 -14 7q-12 6 -14 6q-10 3 -7 12l11 10q1 -2 3.5 -3.5t2.5 -2.5q8 -6 16 2q2 4 8 4q11 0 6 13h-6q-12 -6 -24 6q-17 14 -35 -4q-2 -1 -5 -4.5t-5 -4.5q-13 -10 -13 -28q5 -13 -12 -13q-13 -4 -29 9q0 4 -2 4q-5 -2 -9 0t-9 8t-8 8l-7 3.5t-8 2.5h-57q-2 0 -5 -2
t-5 -2q-10 -10 -21 -10q-4 4 -8 0q-8 0 -20 8q-12 6 -15 6h-18q-3 0 -7 3t-7 3q-2 1 -4 2.5l-4 3t-3 1.5q-3 -1 -6 -1t-6.5 1t-5 1.5t-5.5 3.5t-5 3.5t-5.5 4.5t-5.5 5q-1 2 -4 5t-4 5q-2 0 -3.5 1t-2.5 1q-9 2 -16 7.5t-14 14t-11 11.5q-12 6 -16 6h-60q-6 0 -6 -6
q0 -16 -16 -16h-47q-2 0 -5.5 1t-5.5 1q-6 8 -18 20q-6 9 -16 19q0 10 4 12q5 16 22 16q9 0 6 8q-11 11 2 21q5 2 5 6q1 -2 4 -4t4 -2q9 -6 14 2q2 4 8 4q7 0 15 8.5t10 16.5q0 6 4 10t11 20.5t7 22.5v12q3 4 7 17q6 9 6 16q0 21 26 31q3 0 9 6q3 4 10 22q4 4 4 17
q0 12 6 14q4 0 4.5 8.5t-2.5 12.5q-1 1 -11 9.5t-14 14.5q-6 -2 -18 -10q-12 -2 -22 -19q-15 -10 -39 -34q-1 -1 -6.5 -3t-8.5 -4h-4q-24 6 -37 -16q-7 -6 -18 -6.5t-17 4.5q-6 0 -6 6q-19 13 -4 25q9 9 19 12q4 0 7 4t3 6q5 10 8 13q0 4 2 8l2 4q0 5 1 15t1 17.5t-2 12.5
q0 3 -3 8.5t-3 7.5q-9 12 2 23q17 13 23 24q7 5 6 11.5t-8 11.5q-1 2 -5 6q-1 0 -4 3t-4 3q-9 0 -22 13q-11 11 -17 2q-1 -2 -5.5 -2t-4.5 2q-6 8 -24 8h-13q-2 0 -5 -2t-5 -2l-37 -37q-8 -8 -12 -8h-33q-12 0 -12 -7q-1 0 -6.5 -3t-10.5 -3h-65q-12 0 -16 -6q-7 -7 -7 -8

<glyph glyph-name="T_h" unicode="Th" horiz-adv-x="2115" 
d="M748 797q-122 46 -199.5 169t-77.5 261q0 72 25.5 135t77.5 114.5t140.5 82t203.5 30.5q127 0 262.5 -24.5t253.5 -59.5t236.5 -70.5t253 -60t261.5 -24.5q196 0 291 90l12 -17q-99 -94 -303 -94h-43l-590 -923h11q229 309 370 309q84 0 84 -129q0 -60 -22 -114t-82 -134
l-64 -84q-67 -89 -92.5 -133.5t-25.5 -73.5q0 -51 55 -51q29 0 58.5 15.5t54 36.5t59.5 64.5t58.5 77.5t66.5 97l55 82q14 11 21 0l-56 -82q-40 -61 -63 -93.5t-60.5 -80t-65.5 -72t-62.5 -43t-67.5 -18.5q-53 0 -75.5 40t-22.5 97q0 123 124 286l68 89q90 118 90 163
q0 37 -41 37q-157 0 -454 -450l-152 -242h-156l840 1341q-153 19 -416 95l-837 -1342l-138 -74h412l-10 -20h-819l8 20h332l911 1459q-155 43 -278 66.5t-252 23.5q-111 0 -195.5 -28.5t-133.5 -77t-73 -108t-24 -128.5q0 -129 75 -244.5t193 -157.5z" />
    <glyph glyph-name="f_b" unicode="fb" horiz-adv-x="1173" 
d="M-627 -715q-39 0 -60.5 25t-21.5 65q0 73 34 145t87 131.5t138.5 125t168.5 116.5t197 115l571 916q180 288 319 432.5t226 144.5q58 0 58 -69q0 -81 -129 -283t-332 -446t-412 -449l-119 -191q383 191 541 351q30 66 100 182l27 43q260 420 439 617.5t278 197.5
q61 0 61 -70q0 -53 -45 -135t-113 -168.5t-171 -197t-194.5 -201t-207.5 -201.5q-109 -157 -155 -247t-46 -154q0 -78 72 -78q62 0 125.5 45t118.5 115q126 167 88 327l4 13h86q6 -40 -17 -105.5t-67 -135.5t-98 -132.5t-119 -102.5t-121 -40q-55 0 -85 43.5t-30 120.5
q0 101 54 227q-93 -87 -226.5 -168.5t-312.5 -171.5l-80 -129q-82 -134 -154 -235.5t-154.5 -194.5t-164.5 -143t-158 -50zM-690 -625q0 -69 51 -69q71 0 177.5 134.5t324.5 483.5l35 58q-106 -60 -184.5 -110.5t-157.5 -112.5t-129.5 -119.5t-82.5 -126t-34 -138.5z
M195 256q208 201 413 447.5t334 448.5t129 280q0 53 -31 53q-18 0 -37.5 -11.5t-45.5 -41t-48.5 -59t-61.5 -89.5t-68.5 -106.5t-84.5 -134.5t-96 -152zM821 512q136 129 251 246.5t222.5 241t169.5 224.5t62 160q0 50 -39 50q-48 0 -151.5 -133t-299.5 -449z" />
    <glyph glyph-name="f_f" unicode="ff" horiz-adv-x="1083" 
d="M-176 -702q-137 0 -297 75q-144 -75 -301 -75q-133 0 -207 47.5t-74 109.5q0 41 35.5 76t112.5 35q45 0 102 -17.5t88 -31.5t112.5 -57t100.5 -52q143 119 346 463l482 807h-187q4 12 10 18h187l160 269q328 548 520 548q67 0 67 -69q0 -102 -149 -297t-457 -432l-12 -19
h397l160 269q170 286 299.5 417t220.5 131q68 0 68 -69q0 -46 -33 -115.5t-100 -161t-190 -210t-284 -242.5l-12 -19h295q-3 -9 -12 -18h-27q-52 0 -97.5 -9.5t-81.5 -26t-68.5 -42.5t-58.5 -54.5t-52 -66.5t-48.5 -75t-49.5 -83l-33 -57l-125 -213q-46 -79 -74 -125
t-74 -119.5t-79 -118t-80.5 -104t-87 -96t-91 -77t-100 -62.5t-105.5 -36.5t-116 -14.5zM-1034 -543q0 -56 68 -97.5t202 -41.5q71 0 128.5 17t115.5 61q-20 10 -98 50.5t-108.5 54t-84.5 30t-96 16.5q-61 0 -94 -26t-33 -64zM-453 -614q146 -68 265 -68q59 0 108 19
t115.5 75t149.5 169.5t188 291.5l477 805h-121q-94 0 -164.5 -24.5t-131 -90.5t-90.5 -110t-92 -152q-15 -24 -22 -37l-116 -201q-46 -78 -74 -125t-77 -123t-91 -128.5t-95 -112.5t-110.5 -106.5t-118.5 -81.5zM307 438h10q68 102 135 159.5t164 80.5h-165zM498 754
q151 118 266 231.5t177 200t92 151t30 107.5q0 53 -43 53q-15 0 -30 -6.5t-33 -22.5t-33.5 -33t-38.5 -50t-41.5 -60t-48.5 -76t-52 -86.5t-61 -102.5t-68 -112zM834 438h12q64 101 129.5 159t157.5 81h-156zM1024 754q151 118 266 231.5t177 200t92 151t30 107.5
q0 53 -43 53q-15 0 -30 -6.5t-33 -22.5t-33.5 -33t-38.5 -49.5t-41 -60.5t-48 -76.5t-52.5 -86t-61 -102t-67.5 -112.5z" />
    <glyph glyph-name="f_l" unicode="fl" horiz-adv-x="1007" 
d="M-627 -715q-39 0 -60.5 25t-21.5 65q0 73 34 145t87 131.5t138.5 125t168.5 116.5t197 115l571 916q180 288 319 432.5t226 144.5q58 0 58 -69q0 -81 -129 -283t-332 -446t-412 -449l-119 -191q313 159 461 279q20 49 82 156q92 161 242 397q356 559 499 559q54 0 54 -63
q0 -56 -49.5 -150.5t-119 -191t-177 -225.5t-188 -219.5t-187.5 -207.5q-89 -122 -122.5 -191t-33.5 -124q0 -39 18.5 -59.5t63.5 -20.5q80 0 160.5 67.5t169.5 206.5l59 93q14 11 21 0l-60 -93q-188 -290 -348 -290q-65 0 -97 45.5t-32 122.5q0 70 33 157
q-140 -109 -463 -274l-80 -129q-82 -134 -154 -235.5t-154.5 -194.5t-164.5 -143t-158 -50zM-690 -625q0 -69 51 -69q71 0 177.5 134.5t324.5 483.5l35 58q-106 -60 -184.5 -110.5t-157.5 -112.5t-129.5 -119.5t-82.5 -126t-34 -138.5zM195 256q208 201 413 447.5t334 448.5
t129 280q0 53 -31 53q-18 0 -37.5 -11.5t-45.5 -41t-48.5 -59t-61.5 -89.5t-68.5 -106.5t-84.5 -134.5t-96 -152zM696 410l6 -2q110 120 193 213t188 219.5t173 220.5t115.5 185t47.5 145q0 47 -26 47q-38 0 -114 -108t-276 -427q-15 -23 -22 -35z" />
    <glyph glyph-name="f_t" unicode="ft" horiz-adv-x="952" 
d="M-248 -696q-69 0 -90.5 31.5t-21.5 105.5q0 95 27.5 171t111.5 210l313 502l-74 36l5 9q5 8 18 2l63 -29l390 623q191 306 325 445.5t228 139.5q69 0 69 -73q0 -164 -342 -578h117l115 178q104 0 151 58h25l-150 -236h230l-15 -18h-227l-326 -512q-12 -19 -32.5 -51
t-29.5 -46.5t-24 -39t-21 -36t-16 -30t-14 -28.5t-8.5 -24t-6 -24.5t-1.5 -21.5q0 -64 67 -64q129 0 318 289l49 76q13 7 20 0l-51 -78q-42 -64 -78.5 -112t-81 -95.5t-90.5 -72.5t-90 -25q-110 0 -110 147q0 98 32 172q-70 -55 -170 -55q-55 0 -129 18l-428 -964h-47z
M-332 -625q0 -55 88 -55h31l428 952l-12 4l-301 -473q-71 -112 -96 -152t-67 -111t-56.5 -106.5t-14.5 -58.5zM213 291q77 -25 145 -25q110 0 189 88q29 59 96 164l219 336l-12 27h-92q-219 -264 -545 -590zM215 313q119 119 236.5 245t236.5 266t209 261t146.5 227
t56.5 167q0 51 -39 51q-15 0 -30 -7t-34 -24.5t-36.5 -38t-44 -57.5t-50 -71.5t-60 -92t-68 -108t-81.5 -129t-94 -146.5z" />
    <glyph glyph-name="o_r" unicode="or" horiz-adv-x="1189" 
d="M453 168q-37 0 -56 16q-67 -88 -140 -143t-136 -55q-45 0 -76.5 32.5t-44 74t-12.5 85.5q0 105 41.5 205.5t106.5 172t147 115.5t161 44q117 0 117 -133q0 -138 -100 -306q-9 -16 -30 -45.5t-23 -33.5q13 -13 45 -13q89 0 211 185l210 317l-24 111h137l-72 -101h123
q32 0 49 -24t17 -66q0 -110 -123 -260l-53 -65q-97 -120 -123 -157.5t-27 -66.5q-3 -55 62 -55q68 0 136 68t181 223l55 76q14 7 21 0l-55 -76q-45 -62 -73 -98.5t-66.5 -81.5t-68 -69t-64.5 -41t-68 -17q-55 0 -77.5 39t-19.5 100q6 115 142 283l37 45q9 11 30 36
t30.5 36.5t26 32t24.5 31.5t17.5 25.5t13 24.5t3.5 18q0 23 -29 23h-145l-207 -311q-132 -201 -231 -201zM121 4q112 0 258 217q-7 43 22.5 110.5t75.5 125.5l25 -8q35 96 35 151q0 45 -18.5 70.5t-51.5 25.5q-52 0 -130 -78.5t-151 -193.5q-58 -94 -94.5 -185.5
t-36.5 -154.5q0 -80 66 -80z" />
    <glyph glyph-name="o_r_r" unicode="orr" horiz-adv-x="1738" 
d="M453 168q-37 0 -56 16q-67 -88 -140 -143t-136 -55q-45 0 -76.5 32.5t-44 74t-12.5 85.5q0 105 41.5 205.5t106.5 172t147 115.5t161 44q117 0 117 -133q0 -138 -100 -306q-9 -16 -30 -45.5t-23 -33.5q13 -13 45 -13q89 0 211 185l210 317l-24 111h137l-72 -101h123
q32 0 49 -24t17 -66q0 -110 -123 -260l-53 -65q-97 -120 -123 -157.5t-27 -66.5q-3 -55 62 -55q68 0 136 68t181 223l55 76l211 317l-24 111h137l-72 -101h123q32 0 49 -24t17 -66q0 -110 -123 -260l-53 -65q-97 -120 -123 -157.5t-27 -66.5q-3 -55 62 -55q68 0 136 68
t181 223l55 76q14 7 21 0l-56 -76q-45 -62 -73 -98.5t-66.5 -81.5t-68 -69t-64.5 -41t-68 -17q-55 0 -77 38.5t-19 100.5q6 115 142 283l36 45q10 12 30 35.5t30.5 36.5t26.5 32.5t24.5 31.5t17.5 26t13 24t4 18q0 23 -29 23h-145l-207 -311l-55 -76q-45 -62 -73 -98.5
t-66.5 -81.5t-68 -69t-64.5 -41t-68 -17q-55 0 -77.5 39t-19.5 100q6 115 142 283l37 45q9 11 30 36t30.5 36.5t26 32t24.5 31.5t17.5 25.5t13 24.5t3.5 18q0 23 -29 23h-145l-207 -311q-132 -201 -231 -201zM121 4q112 0 258 217q-7 43 22.5 110.5t75.5 125.5l25 -8
q35 96 35 151q0 45 -18.5 70.5t-51.5 25.5q-52 0 -130 -78.5t-151 -193.5q-58 -94 -94.5 -185.5t-36.5 -154.5q0 -80 66 -80z" />
    <glyph glyph-name=".notdef" horiz-adv-x="1980" 
d="M1708 -113q-7 7 -27 7h-34q-6 0 -15 6l-12 6h-64q-9 0 -18 6q-18 18 -27 16q-2 0 -2 2q-7 11 -28 11l-19 -11q-5 2 -10 9t-6 8q-2 0 -5 1t-5 1q-13 0 -13 14q-5 9 -7 10t-11 -2q-8 0 -19 11q-13 9 -22 0q-11 -11 -18 -7h-15q-11 0 -14 7h-12q-14 -7 -17 -7q0 -3 -43 -1
l-43 1q-12 0 -14 7q-12 6 -14 6q-10 3 -7 12l11 10q1 -2 3.5 -3.5t2.5 -2.5q8 -6 16 2q2 4 8 4q11 0 6 13h-6q-12 -6 -24 6q-17 14 -35 -4q-2 -1 -5 -4.5t-5 -4.5q-13 -10 -13 -28q5 -13 -12 -13q-13 -4 -29 9q0 4 -2 4q-5 -2 -9 0t-9 8t-8 8l-7 3.5t-8 2.5h-57q-2 0 -5 -2
t-5 -2q-10 -10 -21 -10q-4 4 -8 0q-8 0 -20 8q-12 6 -15 6h-18q-3 0 -7 3t-7 3q-2 1 -4 2.5l-4 3t-3 1.5q-3 -1 -6 -1t-6.5 1t-5 1.5t-5.5 3.5t-5 3.5t-5.5 4.5t-5.5 5q-1 2 -4 5t-4 5q-2 0 -3.5 1t-2.5 1q-9 2 -16 7.5t-14 14t-11 11.5q-12 6 -16 6h-60q-6 0 -6 -6
q0 -16 -16 -16h-47q-2 0 -5.5 1t-5.5 1q-6 8 -18 20q-6 9 -16 19q0 10 4 12q5 16 22 16q9 0 6 8q-11 11 2 21q5 2 5 6q1 -2 4 -4t4 -2q9 -6 14 2q2 4 8 4q7 0 15 8.5t10 16.5q0 6 4 10t11 20.5t7 22.5v12q3 4 7 17q6 9 6 16q0 21 26 31q3 0 9 6q3 4 10 22q4 4 4 17
q0 12 6 14q4 0 4.5 8.5t-2.5 12.5q-1 1 -11 9.5t-14 14.5q-6 -2 -18 -10q-12 -2 -22 -19q-15 -10 -39 -34q-1 -1 -6.5 -3t-8.5 -4h-4q-24 6 -37 -16q-7 -6 -18 -6.5t-17 4.5q-6 0 -6 6q-19 13 -4 25q9 9 19 12q4 0 7 4t3 6q5 10 8 13q0 4 2 8l2 4q0 5 1 15t1 17.5t-2 12.5
q0 3 -3 8.5t-3 7.5q-9 12 2 23q17 13 23 24q7 5 6 11.5t-8 11.5q-1 2 -5 6q-1 0 -4 3t-4 3q-9 0 -22 13q-11 11 -17 2q-1 -2 -5.5 -2t-4.5 2q-6 8 -24 8h-13q-2 0 -5 -2t-5 -2l-37 -37q-8 -8 -12 -8h-33q-12 0 -12 -7q-1 0 -6.5 -3t-10.5 -3h-65q-12 0 -16 -6q-7 -7 -7 -8
q-11 -11 -24 -6q-11 0 -17 -8q-9 -11 -18 -2q-1 3 -8.5 10t-7.5 14q0 8 -13 12q-9 12 -9 18t9 17q17 17 17 23q0 7 8.5 12.5t15.5 5.5q23 0 33 4q8 0 8 2q7 9 19 9q20 0 26 2q13 10 31 10q6 0 6 2l29 29l16 16v8q0 3 -1 5.5t-2.5 6t-2.5 5.5q0 4 -4 6q-12 15 -25 28
q-6 4 -6 13v22q0 19 6 25q3 2 4 9.5t3 10.5q0 1 6 13q8 11 -2 24q-1 1 -5.5 4.5t-5.5 5.5q-2 3 -2 6t2 5t7 2q8 1 9 3t1 13v154q0 8 1.5 11.5t3.5 4.5t9 2q32 0 45 -18q9 -12 43 -41v-4q0 -4 9.5 -17t7.5 -24q0 -5 -2 -8.5t-8.5 -9t-8.5 -7.5l-12 12q-8 12 -21 4q-6 0 -8 2
l-10 11q-7 7 -12 -4v-13v-65q0 -16 -11 -19q0 -2 -1 -6.5t-1 -5.5q0 -16 -6 -22q-4 -4 -4 -7q-3 -14 -12 -20q-2 -1 -1 -8.5t5 -10.5q2 -2 6.5 -8t7.5 -8v-6q2 -8 16 -19.5t17 -15.5q2 0 6 4q5 4 29 4q2 0 3.5 -4.5t-1.5 -5.5q-6 -4 -6 -16v-31q0 -2 2 -5t2 -5l6 6q2 6 2 16
q0 11 10 11h4q16 0 21 -9l5 -6q6 -6 7 -12q0 -3 2.5 -6t6.5 -7t5 -6q3 -6 9 -12v-4q4 -5 9.5 -19t12.5 -18q8 -6 17 0q1 1 1.5 2.5t2 3t4.5 2.5q9 9 14 9q8 3 8 8q7 30 -8 45q-2 1 2 14q1 1 6 7t6 10q4 3 3.5 6.5t-5.5 3.5q-12 0 -12 8q-8 19 6 27l8 8h5q6 -6 12 -6
q0 6 2 10q0 1 1 2.5t3.5 4.5t3.5 5l6 12l2 7q10 7 17 0q16 -16 16 -23q0 -8 12 -8q7 0 9 6l10 18q0 2 2 8t2 9v35q0 9 6 18q2 8 14 29v10q0 3 1 8.5t1 10t-2 8.5q0 10 -2 14h-4q0 -2 -1 -4t-1 -4q0 -9 -12 -21q-7 -5 -15.5 -2.5t-11.5 11.5q0 15 -2.5 18t-19.5 4h-13
q-1 2 -3.5 3.5t-2.5 2.5q0 4 4 6q8 10 31 33q6 9 6 12l4 8t2 5q2 2 7 6.5t7.5 7t4.5 7t2 9.5q0 2 1 4t1 3l4 8l-10 2q-2 -1 -10 -13q0 -12 -13 -12q-8 3 -8 15v10q0 9 8 12q10 0 10 4q10 10 29 6q8 0 8 -6q6 -16 17 -16q10 0 10 12t12 12q5 0 13 -12q5 -14 -17 -25
q-16 -8 -6 -18t10 -20v-123q-6 -9 -6 -15q-6 -6 -6 -10q0 -35 2 -53q0 -9 10 -12q13 -13 13 -29q0 -10 6 -10q8 -4 16 4l6 6q4 -5 12 -13t11 -12q1 0 1 -4.5t-1 -5.5q-2 -3 -21 -22q-8 -3 -8 -17v-6q-2 -1 -14.5 -14t-24.5 -15q-5 0 -13.5 -8t-8.5 -12t-2 -8.5t-6 -9
t-5 -5.5q-4 -8 -8 -12q-1 -1 -3.5 -7t-4 -8t-4 -5.5t-6 -5t-8.5 -1.5q-7 0 -13 -6q-1 -3 -16 -14q-1 -1 -4 -4.5t-4.5 -5t-5 -3t-7.5 -1.5q-2 0 -6 -7q-16 -5 -16 -6q-3 -2 -9 -6.5t-8 -7.5v-4q1 -2 7 -19q6 -6 10 -4q12 7 24 7q19 0 27 10q6 0 8 4q12 1 19.5 10t7.5 21v12
q0 11 12 16q6 0 19 13q12 12 18 16q4 2 12 2q3 0 21 6q6 6 18 6q0 6 6 0q18 0 29 15q9 12 25 12h16q5 0 8 6q-2 2 -2 6q-5 5 -6 16t6 19q6 6 6 23v8q0 26 29 26q5 0 10 2t10.5 6.5t8.5 6.5q1 2 4 5t4 5q14 2 28 16q5 8 19 8q7 -1 20 -1t19 -1q6 0 12 -6q2 -2 -2 -16
q-1 -1 -8 -6.5t-14 -5.5q-11 0 -11 -13v-10q0 -12 13 -12q10 0 10 8q3 14 16 14h21q20 0 26 -8q2 -2 9 -2q8 -3 9.5 -5t-3.5 -7q-3 -5 -21 -23q-10 -7 -10 -18q3 -9 -5.5 -16t-17.5 -5h-2q-9 0 -15.5 6t-6.5 15q0 6 -10 6q-19 0 -29 -10q-6 -1 -16 -8t-15 -9q-22 -4 -22 -24
q0 -6 -6 -6q-3 -6 -12 -14t-11 -11q-1 0 -4 -2t-4 -2q-2 0 -6 1t-8.5 1t-8.5 -2q-2 0 -6.5 -1t-5.5 -1q-6 -6 -12 -6q-21 0 -27 -10q0 -5 -8 -5l-33 -2q2 -2 3 -3.5t1.5 -2t1.5 -0.5h15q20 0 26 -10q3 -5 10 -5t11 5q10 12 24 4q6 -6 23 -6q29 0 41 -4h6q6 -10 18 -10h39
q6 0 8 4q15 10 60 10q10 0 20 -10q2 -4 9 -4h22q18 0 29 -9h4q5 0 14.5 -7.5t11.5 -8.5q13 -2 33 -22l19 -21q10 -7 10 -16q0 -28 24 -33q5 -2 7 -2q16 -16 34 -25q25 -17 29 -35q0 -4 2 -4q6 -7 10 -24q0 -3 1.5 -6t3 -7t2.5 -6q4 -4 4 -10v-18q0 -23 8 -33q4 -2 4 -12
q0 -25 8 -31q0 -6 4 -10v-2q6 -6 10.5 -18t6.5 -15q1 -1 3 -7.5t5 -9.5l4 -7q4 -7 8 -11q10 -3 10 -18v-17v-2q5 -5 11 -20t12 -21q1 -2 6 -3.5t6 -2.5q6 0 10 -4q3 -4 7.5 -6t11 -2.5t10.5 -1.5q6 0 6 -2q13 -12 37 -39q12 -7 12 -21l4 -4q3 -8 0 -16q0 -6 7 -8h10
q4 0 11.5 -1t12.5 -1t9 2q6 0 11 -2.5t10 -8t7 -6.5q0 -4 4 -4q19 -22 -4 -33q-4 -8 -8 0zM262 526q2 0 19 11q1 1 5 6.5t8 7.5t9 2q19 0 25 8h10q5 2 11.5 2t14.5 -1t13 -1h37q9 0 16 10q2 2 12 2q9 0 13 11v28q-4 11 -13 11q-16 3 -30 -15q-12 -12 -27 -12q-8 0 -12 -2
q-6 -6 -17 -6h-65q-8 0 -12 -8q-4 0 -11 -7q-12 0 -16 -8q0 -3 -3 -9t-3 -9v-4l6 -7q6 -8 10 -10zM739 12q-11 11 -20 11h-107q-10 0 -16 6q-4 3 -14 3.5t-13 2.5q-7 0 -10 6q-2 1 -6 5.5t-8.5 7.5t-9.5 3q-2 1 -5.5 4.5t-5.5 4.5q-2 2 -2 7t-2 7q-6 2 -6 18v19q0 6 4 10
q6 6 6 18q-5 7 -16 7h-14q-5 0 -10 -2.5t-5 -4.5q0 -12 4 -16q12 -16 0 -25l-18 -18q-9 -6 -21 -6t-14 -8q-4 -2 -15.5 -3.5t-13.5 1.5q-4 2 -6 6v4q1 11 0.5 15.5t-0.5 8.5t-2.5 6.5t-4.5 5t-8 8t-11 11.5q-4 7 -13 12q-3 2 -7 6.5t-8 7t-9 3.5q-3 0 -19 16
q-6 5 -15.5 15.5t-12.5 13.5q-6 3 -6 12q-8 12 -17 12q-2 0 -6 3.5t-4 7.5q0 6 -6 12q0 9 -6 18v29q0 6 6 12q6 5 13.5 12.5t15.5 16t12 12.5q6 6 14 6q12 0 12 11t13 14q4 0 9.5 5t6.5 5q8 13 27 13q2 0 14 6q1 2 4 5t4 5q11 11 23 6q12 0 22 10q3 9 19 19q9 5 12 10h6
q3 4 13 12.5t14 12.5q14 18 28 18q3 0 9 6q1 2 4.5 6.5t5.5 5.5q20 24 41 17l2 4q3 -2 9 -3.5t7 -2.5q0 -11 -4 -15q-2 -7 -9 -12.5t-15 -5.5q-3 -1 -8 -5.5t-9 -6.5q-5 -10 -8 -13l-59 -59q-17 -15 -41 -43q-11 -3 -11 -12q0 -5 -16 -21l-8 -16v-4q-3 -7 -11 -17t-10 -14
q-9 -14 4 -35q12 -12 23 -12q3 0 5.5 -2.5l5.5 -5.5l3 -4l17 -17q0 -4 4 -4q7 -2 24 -12q5 -4 11.5 -1t11.5 11q1 -2 5.5 -5.5t6.5 -4.5q6 -6 6 -12q7 -21 29 -25q4 0 11 -8.5t7 -13.5v-7q7 -28 -16 -41q-9 -6 -6 -16q6 -3 6 -6q1 0 7 -3t9 -3q6 -6 17 -6q13 0 22 -11
q2 -2 13 -2h88l12 -6q3 0 8.5 -2t7.5 -2h29q17 0 20 -16q8 -4 0 -8q-21 -21 -47 -11h-2zM692 94q-2 2 -5 6.5t-5 5.5q-7 4 -25 27l-12 6h-27q2 -2 4 -6.5t3 -5.5q2 0 3 -1t1.5 -2.5t1.5 -2.5q1 -3 4.5 -10.5t5.5 -10.5q5 -7 12 -2q10 10 13 0q7 -7 26 -4zM502 799
q-6 0 -14.5 6.5t-8.5 11.5q0 4 8.5 10.5t14.5 6.5q12 0 12 -17q0 -18 -12 -18zM537 731q-3 10 -17 21q-10 3 -6 14q7 10 16 10h7q16 0 24 -10q13 -10 0 -18q-1 -3 -6.5 -8.5t-7.5 -8.5q-5 -3 -10 0zM829 92q11 0 15 6q0 9 -6 15q0 2 -2 4t-2 4q-5 8 -17 8q-8 -2 -31 -2
q-24 0 -38 2q-7 0 -7 -6q0 -10 7 -10h14h8q7 -9 23 -9q12 0 12 -4q6 -8 24 -8zM555 848q-20 -7 -37 10q-5 5 0 10q7 9 11.5 9.5t11.5 -7.5q1 -1 4.5 -3.5t5 -4.5t3 -5.5t1.5 -8.5zM698 573q7 9 19.5 22t15.5 17q9 15 -4 23h-29q-1 -2 -4.5 -5t-3.5 -5q-2 -3 -10 -23
q10 -15 16 -29zM672 717q14 0 16 6q8 3 17 12q5 10 2 10q0 7 -9 7h-6v2q-1 -1 -5 -1.5t-6.5 -1.5t-2.5 -3q0 -15 -8 -23v-6zM606 999q-7 0 -14.5 8.5t-7.5 14.5q0 5 9 15t13 10q8 0 16.5 -8.5t8.5 -16.5q0 -9 -8 -16t-17 -7zM666 868q-9 0 -13 2q-7 0 -10 7t4 12l10 20
q0 5 7.5 12t13.5 7q7 0 14 -10v-7q0 -9 -10 -22q0 -1 -2 -4t-2 -4q-4 -13 -12 -13zM694 823q-12 0 -14 2.5t-2 14.5q0 18 16 18q19 0 19 -16q0 -14 -2.5 -16.5t-16.5 -2.5zM664 963q-7 0 -11 2q-8 0 -8 10q-5 13 0 24q0 5 7.5 14t11.5 9q9 6 14 -8q0 -5 8 -17q8 -8 0 -22
q-16 -12 -22 -12zM705 1032q-13 0 -13 12q0 13 8 13q13 0 13 -13q0 -4 -3 -8t-5 -4zM938 37q4 -5 17 -5t18 5q1 6 14 10q8 0 8 4q6 6 21 6q12 0 20 6q0 1 3.5 3t4.5 4q1 1 4.5 1.5t5 1.5t1.5 3q2 6 2 16q0 12 10 12q12 0 12 -10q0 -8 4 -8q6 -10 19 -23q18 -15 37 0
q14 7 16 7h33q16 -5 26 12q14 14 5 22q-11 11 -11 23v47q0 23 -14 35q-8 4 0 12q6 11 20 12.5t21 -6.5q4 -4 12 -16l8 -8q2 -3 5.5 -10.5t5.5 -10.5h4q-4 -2 -10 -8q0 -4 -2 -8l-3 -4q0 -17 -6 -27q-9 -14 -0.5 -27.5t21.5 -15.5l12 -6q2 -2 7 -7.5t10.5 -9t11.5 -3.5l6 -3
q2 -6 14 -6q6 3 6 9q6 14 -6 26l-1 4q-1 4 -1 8q-6 3 -6 13q-6 6 -6 16q-2 5 -2 11.5t1 13.5t1 10q-1 6 -1.5 16.5t-2 18.5t-6.5 14h-2q-6 26 -29 29q-4 0 -4 4q-6 6 -23 6q-11 0 -14 6q-19 11 -35 35q-19 23 -41 18q-16 0 -22 -6q-1 -1 -11 -6q-6 0 -16 -7t-18 -9
q-9 -9 -8.5 -12t12.5 -7q8 -5 6 -12q0 -10 -6 -10q-12 0 -17 -8q-14 -14 -24 2q-7 9 -7 12t9 12q4 0 4 4v11q0 5 -10 0q-2 -1 -7 -5.5t-8 -5.5q-6 -2 -17 -6.5t-18 -5.5q0 -4 -4 -4q0 -1 -6 -9.5t-6 -15.5l-4 -4q-3 -3 -8 -18q0 -13 -4 -17q-26 -26 -43 -26q-5 2 -21 -15
q0 -1 2 -4t2 -4q5 -9 4 -20t-8 -15q-2 -6 -8 -12q0 -2 -1 -4t1 -2q2 -3 3.5 -12.5t6.5 -15t15 -5.5q1 1 6 -2q2 -2 5 -7t5 -7zM1393 82q13 9 14 12q8 14 20 10h9q2 1 5 4.5t5 4.5q0 10 -4 14q-8 3 -8 14v21q0 1 -2 5.5t-2 6.5q-6 6 -9 12q0 11 -4 11q-6 6 -6 20v21
q0 6 -6 18q-6 6 -6 23q0 22 -10 30v6q-5 10 -11 13l-20 22q-7 12 -27 12q-6 0 -15.5 6.5t-10.5 12.5q0 9 -11 20q-4 3 0 7q0 6 -12 18q-11 11 -16 23q-7 22 -23 22q-6 0 -8 2l-10 10q-8 8 -17 2q-2 -2 -12 -2q-1 -2 -4.5 -3.5t-3.5 -2.5q-14 -11 -21 -6h-94h-6
q-8 -7 -35 -20q-4 -1 -28 -15q-2 -4 -9 -4q-18 5 -28 -12q-10 -10 -23 -10q-11 0 -18 -7q-10 -5 -11 -6q-6 -1 -17 -6t-17 -6v-4q-3 -1 -5.5 -2.5t-4.5 -2.5t-3 -1q-6 -1 -14.5 -9.5l-9.5 -9.5t-4.5 -3.5t-5.5 -2.5q-17 0 -23 -16q-10 -20 -2 -43q3 -13 14 -21
q11 -11 11 -18v-14q0 -20 -5 -24.5t-24 -2.5q-6 0 -10 4l-5 5q-4 5 -8 9q-5 3 -12 21q0 1 -1 2.5t-1 3.5q-11 2 -19.5 -3.5t-9.5 -14.5q-4 -14 3.5 -25t21.5 -14q6 0 6 -6l39 -35q10 -13 20 0q3 2 8.5 7t10.5 7.5t10 1.5l6 2q4 10 21 10h14q5 0 16 7q6 6 13 6q10 7 10 12v29
q0 15 8 18q3 2 12 11t15 12l18 10q8 11 0 24q-11 11 0 25q4 0 4 6q3 12 13 23q28 23 34 32q15 15 29 9q15 -4 8 -15q-3 -4 -7 -8t-8.5 -8t-6.5 -6q-3 -5 -12 -16t-13 -17q-6 -3 -6 -18q4 -6 17.5 -7t19.5 4l14 7q10 4 19 12q9 12 30 12h54q13 0 16 10l10 15q10 10 15 10
q12 6 14 6q3 6 12 6q10 3 31 -12q2 -2 2 -4.5t-1 -6t-1 -5.5q0 -1 -6 -7q-25 0 -31 -12h-4q-11 0 -23 -12q-4 -3 -4 -10.5t4 -12.5q12 -12 23 -12l6 -4q9 -9 19 -6q14 0 22 -8q5 -6 12 -13t15 -14.5t12 -11.5q18 -18 18 -41q-2 -3 -2 -6t1 -7t1 -6v-10q11 -6 11 -29
q0 -12 2 -18q10 -6 10 -23q0 -9 9.5 -17t19.5 -7zM1090 152q-18 -6 -29 12q-8 14 2 22q14 17 27 13q1 -1 5.5 -2.5t6.5 -3.5q10 -7 18 -7q11 2 25 -12v-6q0 -4 -7 -10t-12 -6h-24h-12zM858 1034q0 4 -2 4q-24 24 2 41h12q9 -5 11.5 -6.5t6.5 -8t3 -13.5q0 -17 -6 -17h-27z
M1255 315q-1 -1 -3 1t-3.5 5.5t-1.5 6.5q0 9 8 12q5 0 10.5 -4.5t4.5 -7.5q-4 -5 -15 -13zM1161 752q-5 0 -20 13t-15 17v11q0 15 12 23.5t29 4.5h4q3 -4 7 -8t9 -8t7 -6q5 -5 5.5 -17t-5.5 -18q-10 -12 -33 -12zM1487 -35q6 0 6 12q0 17 10 23q0 6 2 10q0 11 -12 31
q-23 26 -59 10q-3 -2 -10.5 -5.5t-10.5 -4.5v-4q7 -11 10 -25h4l4 -8t3 -10q0 -12 3 -15.5t15 -3.5q4 0 16 -6q8 -8 19 -4zM956 1047q-2 2 -6.5 5t-6.5 4.5t-3.5 5t-1.5 7.5v6q4 3 8 13t8 14q1 3 27 12l4 -4q1 -2 6 -2t6 2q6 6 13 6q18 -3 28 14q16 13 29 13q12 -5 12 8
q0 12 13 12q8 0 12 11q5 13 20 28q8 8 13.5 8.5t15.5 -4.5q4 -9 8 2v4q7 13 17 9q4 0 22 6q6 6 21 6q11 5 14 10q3 7 14 0q6 0 6 -6l1 -15q2 -14 -1 -14q-2 -6 -14 -18q-6 0 -6 2q-8 6 -14 0l-9 -8q-10 -6 -16 0q-3 1 -7 -1.5t-5 -2.5t-7 -3t-10 -3q-9 0 -11 -2t-7 -11
q-3 -7 -11 -12.5t-14 -5.5q-12 0 -22 -10q-6 -3 -10 -3q-9 -3 -11 -5t-2 -11q6 -19 -16 -29q-9 -6 -19 -6q-4 0 -6 -0.5t-3 -2t-3 -7.5q-6 -17 -18 -8q-17 10 -17 24q0 2 -2.5 3t-5.5 0.5t-4 -3.5q-3 -3 -7.5 -7t-7.5 -6.5t-5.5 -7t-3.5 -9.5q0 -2 -2.5 -4t-2.5 -4z
M1221 813q-9 0 -13 4q-1 2 -6.5 8t-5.5 11q2 2 6 10q19 19 19 28q0 1 4 4t6 3q1 1 7 3.5t9 2.5q0 2 6 2q11 7 19 10q4 4 10 0q6 -6 12 -6q15 -6 11 -19q-18 -14 -23 -16q-6 -1 -27 -18q-1 -1 -4.5 -5t-5.5 -6t-6 -4t-8 -2zM1436 823q-3 0 -7.5 2t-7.5 2q-9 4 -10 7
q-3 1 -5.5 2.5t-4 2.5t-2.5 1q-1 1 -4.5 3.5t-5.5 2.5q-22 3 -25 28q-13 19 -27 19q-2 0 -8 6q-14 9 -22 6h-25q0 2 -2 5t-2 5q0 15 -16 15h-21q-6 0 -6 8v18l2 7q4 2 12.5 8t12.5 8q8 0 8 6q0 10 12 14q10 3 22.5 -6t12.5 -20v-8q0 -6 -2 -9t-5 -4t-10 -2l-6 -6q1 0 5 -2
t6 -2q18 0 24 -10q6 0 8 -2q3 0 15 -6q4 0 8 -4q3 -2 4 -3h2l35 -18q6 -4 17.5 -9t15.5 -7q1 0 3 -1.5t4.5 -3t4.5 -2.5q12 -9 24 3q21 21 33 28q4 5 13.5 14.5t13.5 14.5q8 12 10 22q8 16 23 19q9 3 10 5.5t-4 6.5q-12 12 -19 12q-3 0 -6 2.5t-6 7t-4 5.5q-2 1 -2 2.5t1 3
t1 2.5q1 1 4 3t5 4t3 5q2 2 6 10q2 4 4 10t3 7q6 9 4 14q-4 4 -13 4q-12 0 -26 11q-5 4 -10.5 1.5t-8.5 -10.5q-3 -13 4 -20q9 -9 0 -17q-12 -12 -22 -10l-19 23q0 6 -4 10q-1 3 -16 18q-4 5 -2 11t8 8h14q13 0 25 18q0 13 3 17t15 4q5 0 17 -6q8 -5 12 -4q9 6 16 6
q12 4 19 -13q1 -1 7.5 -8.5t8.5 -13.5l2 4q6 3 6 8q0 4 1 6t2 3t4 2.5t4 2.5q9 0 12 -10l10 -18q2 -3 1 -10.5t-5 -10.5q-6 -6 -6 -16.5t6 -17.5q6 -3 6 -9q0 -11 21 -24q2 -10 12 0q4 4 12.5 11.5t16 15t12.5 14.5q9 9 18 0q11 -14 19 -17l4 -4q17 -2 35 -28q10 -3 2 -15
q-3 -3 -5 -6t-4 -6.5t-3 -5.5l-2 -8q-2 -1 -4.5 -4.5t-4.5 -4.5q0 -8 -4.5 -14.5t-11.5 -13t-10 -10.5q-5 -4 -16 -8t-13 -5h-33q-2 4 -6 4q-6 6 -14 6q0 1 -2 3t-2 4q-3 1 -10.5 7.5t-12.5 8.5l-24 12q-8 2 -18.5 -5.5t-10.5 -16.5v-13q0 -6 -2.5 -14.5t-3.5 -11.5
q-9 -18 -25 -25q-5 -1 -8.5 -3.5t-9.5 -9.5t-8 -9q-3 -8 -19 -8q-4 -5 -6 -5q-1 -1 -7 -3.5t-9 -2.5h-41zM1661 1116q-14 0 -27 21q-7 6 4 24q2 2 11.5 3t17.5 -3q2 -4 6 -6q1 0 6 -2t7 -2l10 10v6q-2 3 -2.5 6t0.5 5.5t1.5 4.5t3 4t4 3t4 3t3.5 3q19 -16 29 12l4 4
q0 14 12 9q13 0 35 18q0 2 1 4t1 4q2 1 5 3t5.5 3t5.5 0q17 -7 17 -20q-7 -11 0 -14q0 -13 -10 -23q-3 -4 -3 -6q0 -9 -14 -23q-12 -12 -20 -22q-2 0 -5.5 -1t-5.5 -1h-6q-29 4 -41 -21q-6 -6 -18 -6h-41zM1407 1143q-8 0 -8 8q0 12 -13 12h-10q-12 0 -12 15q-5 8 -12 8
q-3 0 -7 2t-4 4q-9 8 -19.5 8t-16.5 -8q-13 -10 -27 4q-8 8 -8 23v6q0 15 4 19t20 3h17h18l6 2q9 4 17.5 0.5t11.5 -12.5q0 -1 -1.5 -5t1.5 -5q0 -12 6 -15q5 -3 16 2l13 13q14 17 24 0q2 -1 5.5 -4t5.5 -4q10 -7 14 -7q16 -6 29 0q11 0 16 7q2 2 10 2q14 0 27 10q8 2 22 2
q7 0 13 6q2 4 8.5 11t7.5 10q3 1 8.5 6t7.5 6l29 31q1 0 4 2t4 2q11 0 11 8q3 14 16 14l6 2q10 10 21 10q4 1 6.5 3t5 6t4.5 6q7 7 16 10q1 0 13 6l18 19q10 10 16 6q3 0 7 8q6 5 23 21.5t28 25.5q3 3 10.5 11t13.5 14t13 10q1 1 4.5 3.5t5.5 2.5h22q19 0 27 8l4 4
q2 -2 5.5 -0.5t5 1.5t4.5 3t3.5 4t3 4.5t3.5 4.5q8 8 22 8q18 -3 39 0q6 0 14 -8q11 -15 23 -17l35 -18q2 0 3.5 -2t2.5 -2q9 0 22 -13q7 -4 8 -15.5t-5 -18.5q-17 -17 -3 -39q3 0 3 -6q0 -4 -7 -9.5t-12 -5.5q-19 0 -21.5 3t-2.5 22v18q0 9 -2 11.5t-11 5.5q-10 0 -10 10
q0 4 -12 12q-21 4 -25 25q0 2 -2.5 5.5t-3.5 4.5q-10 0 -14 -4q-6 -6 -19 -6q-18 0 -30 -23q0 -12 8 -12q9 -1 26 -18q11 -8 15 -25q1 -2 20 -21q3 -8 14 -8q5 0 11 6q9 3 12 -6v-16q-3 -6 -6 -6q-22 -11 -35 -13l-16 -16l-15 -16q-4 -2 -6 -2q-4 0 -20 -11q-3 -2 -16 -6.5
t-19 -9.5q-3 -1 -7 -4t-5 -4l-19 -19q-1 -1 -16 -6h-23l-4 2q-4 2 -4 4q0 9 2 13q9 12 27 18q2 6 6 10q0 7 6 13q27 12 6 36v7v22q-1 1 -4 6t-6 6q-2 2 -7 1t-7 -3l-7 -6q-7 0 -22 -10q-1 -2 -9.5 -12t-9.5 -17q0 -1 -2 -4t-2 -4q-2 -2 -5.5 -8t-4.5 -8q0 -6 -8 -6
q-12 0 -12 8q0 2 -0.5 7.5t0 8t2.5 6.5t6 6v5q0 16 16 22q1 1 2.5 1.5t2.5 1.5t1 3q7 0 16 7t9 12q0 3 -1 7t-1 5l-6 -2l-6 -4q-9 -2 -16 -6.5t-14.5 -12.5t-10.5 -10q-16 -13 -29 -29l-4 -2q-5 -3 -16 -6q-3 -6 -9 -6q-5 1 -9 -1.5t-8.5 -7.5t-6.5 -7v-4q-5 -22 -29 -29
q-12 0 -15 -2t-7 -12q0 -6 -7 -13q-19 -16 -59 -61q-3 -1 -10 -3.5t-10 -2.5q-12 0 -25 -8q-4 -4 -12 -4q-12 0 -19 -7q-4 -4 -10 -4h-23q-22 0 -30 -8q0 -4 -6 -4q-4 -2 -11 -2q-2 -6 -16 -6z" />
    <glyph glyph-name=".null" 
 />
    <glyph glyph-name="nonmarkingreturn" horiz-adv-x="682" 
 />
    <glyph glyph-name="space" unicode="&#xa0;" horiz-adv-x="430" 
 />
    <glyph glyph-name="space" unicode=" " horiz-adv-x="430" 
 />
    <glyph glyph-name="exclam" unicode="!" horiz-adv-x="534" 
d="M279 416l534 991h137l-655 -991h-16zM16 0l86 137h111l-86 -137h-111z" />
    <glyph glyph-name="quotedbl" unicode="&#x22;" horiz-adv-x="698" 
d="M444 1036l269 371h108l-360 -371h-17zM649 1036l269 371h108l-360 -371h-17z" />
    <glyph glyph-name="numbersign" unicode="#" horiz-adv-x="1015" 
d="M313 -8l305 487h-165l-306 -487h-30l305 487h-193l29 47h195l84 133h-224l29 46h221l314 497h28l-311 -497h166l313 497h29l-311 -497h192l-27 -46h-194l-84 -133h221l-27 -47h-223l-305 -487h-31zM481 526h168l84 133h-168z" />
    <glyph glyph-name="dollar" unicode="$" horiz-adv-x="821" 
d="M285 10l-33 2l-215 -327h-25l217 329q-25 2 -79 19l-230 -348h-24l235 356q-113 52 -113 164q0 103 97.5 167t269.5 54l-2 -4l104 160q-55 110 -55 184q0 63 24.5 119.5t71 102t122 72.5t169.5 27h4l211 320h25l-213 -322q42 -3 80 -20l225 342h25l-232 -352
q38 -20 80 -68l-37 -49q-37 53 -69 78l-279 -420q39 -67 56.5 -117t17.5 -104q0 -106 -63.5 -191.5t-160.5 -129.5t-204 -44zM39 209q0 -104 104 -150l226 340q-155 13 -242.5 -42t-87.5 -148zM162 51q39 -12 82 -18l295 448l-23 45l-16 33zM266 31h27q79 0 140 24t96.5 64
t53 87.5t17.5 98.5q0 37 -10 68t-39 88zM532 854q0 -66 41 -143l234 352l-37 2q-67 0 -115.5 -18t-74 -49.5t-37 -67t-11.5 -76.5zM586 690l22 -39l21 -35l272 412q-37 23 -72 31z" />
    <glyph glyph-name="percent" unicode="%" horiz-adv-x="1318" 
d="M285 -41l-17 16l1008 1151h-449q24 -24 21 -82q-9 -108 -96 -237q-61 -92 -139.5 -158.5t-139.5 -66.5q-52 0 -75 46.5t-19 102.5q12 162 133 288t250 128h532l17 -17zM473 596q55 0 123 65t131 162q97 151 102 236q3 74 -49 74q-40 0 -105 -60.5t-128 -150.5
q-112 -164 -121 -265q-2 -31 8.5 -46t38.5 -15zM860 -27q-36 0 -58.5 25t-30 57.5t-5.5 67.5q6 81 44 158.5t92.5 133.5t121 90t127.5 34q48 0 67.5 -26t16.5 -77q-9 -108 -96 -237q-61 -93 -139.5 -159.5t-139.5 -66.5zM860 -12q55 0 123 65t131 162q98 153 103 236
q1 35 -12 54t-38 19q-40 0 -105 -60.5t-128 -150.5q-112 -164 -121 -264q-2 -31 8.5 -46t38.5 -15z" />
    <glyph glyph-name="ampersand" unicode="&#x26;" horiz-adv-x="1128" 
d="M43 -489q128 45 232 104t175 122t124 137.5t83 146.5t48 153q-188 -188 -353 -188q-95 0 -166 62.5t-71 176.5q0 56 20 109.5t52.5 97.5t80 86.5t96.5 76t108 67t109 58.5t104 51q31 15 46 22q12 239 95 367t202 128q60 0 93.5 -34.5t33.5 -92.5q0 -43 -20.5 -84.5
t-50 -74t-81 -69t-94.5 -61.5t-110 -61v-51v-64h465l-13 -18h-256q2 -77 -69 -209t-178 -250q-132 -540 -687 -764zM254 209q-5 -84 31 -134t108 -50q152 0 320 186q20 107 22 241.5t-4 219.5v102q-40 -22 -78.5 -47t-96.5 -66.5t-106 -89t-93 -104t-72.5 -123.5t-30.5 -135
zM758 264q88 108 147 226.5t62 187.5h-168q-4 -242 -41 -414zM799 827q50 25 95.5 55t94 72.5t78 96t29.5 108.5t-26.5 82t-70.5 27q-46 0 -81.5 -26.5t-56.5 -68t-35 -102t-19.5 -117.5t-7.5 -127z" />
    <glyph glyph-name="quotesingle" unicode="'" horiz-adv-x="493" 
d="M444 1036l269 371h108l-360 -371h-17z" />
    <glyph glyph-name="parenleft" unicode="(" horiz-adv-x="913" 
d="M512 -356q-124 151 -179 337.5t-50 364.5q7 227 108.5 442.5t265.5 382t370.5 290.5t428.5 186l-12 -21q-210 -63 -397 -190t-329 -298.5t-231 -389t-106 -451.5q-26 -391 143 -637z" />
    <glyph glyph-name="parenright" unicode=")" horiz-adv-x="1077" 
d="M772 1645q124 -151 179 -338t50 -365q-5 -182 -72.5 -358.5t-180 -322.5t-259.5 -270t-315.5 -212t-345.5 -137l12 20q210 63 397 190t329 298.5t231 389t106 451.5q26 391 -143 637z" />
    <glyph glyph-name="asterisk" unicode="*" horiz-adv-x="841" 
d="M729 913q27 127 31 232q-71 -38 -189 -139l-36 63q127 42 217 92q-100 51 -217 92l36 62q116 -97 189 -139q-4 105 -31 231h74q-25 -128 -29 -233q88 54 187 141l36 -62q-121 -43 -213 -92q84 -48 213 -92l-36 -63q-104 94 -187 141q4 -105 29 -234h-74z" />
    <glyph glyph-name="plus" unicode="+" horiz-adv-x="1032" 
d="M594 139v344h-369v29h369v344h33v-344h366v-29h-366v-344h-33z" />
    <glyph glyph-name="comma" unicode="," horiz-adv-x="360" 
d="M-160 -195q82 0 152.5 48t70.5 100q0 24 -17.5 43.5t-57.5 48.5l55 88h43q20 -47 21 -95.5t-22.5 -95t-60 -82t-91 -57.5t-115.5 -22z" />
    <glyph glyph-name="hyphen" unicode="-" horiz-adv-x="684" 
d="M193 354l14 21h350l-14 -21h-350z" />
    <glyph glyph-name="period" unicode="." horiz-adv-x="342" 
d="M-59 0l86 137h110l-86 -137h-110z" />
    <glyph glyph-name="slash" unicode="/" horiz-adv-x="884" 
d="M-319 -309l1681 1843h39l-1684 -1843h-36z" />
    <glyph glyph-name="zero" unicode="0" horiz-adv-x="792" 
d="M266 -14q-44 0 -76 26t-48 69t-23 90t-6 99q2 146 65.5 306t158 284.5t212 205.5t221.5 81q77 0 110.5 -47t30.5 -139q-4 -128 -71.5 -300t-162.5 -320t-208.5 -251.5t-202.5 -103.5zM262 6q63 0 147.5 70.5t164.5 182.5t150.5 240t115.5 256t49 218q3 69 -19 110t-65 41
q-71 0 -180.5 -108.5t-207.5 -259.5t-169.5 -325t-71.5 -292q0 -133 86 -133z" />
    <glyph glyph-name="one" unicode="1" horiz-adv-x="821" 
d="M-90 0l14 25h256l512 884h-14q-162 -93 -420 -190l-14 29q104 35 189 69.5t182 83.5t176 112.5t133 135.5l26 -19l-608 -1105h260l-14 -25h-678z" />
    <glyph glyph-name="two" unicode="2" horiz-adv-x="860" 
d="M494 -14q-36 0 -73 23.5t-68.5 57.5t-62 67.5t-63 57t-61.5 23.5q-75 0 -82 -170l-2 -45h-113q37 88 86.5 160t117.5 134.5t132.5 109.5t163.5 110q55 35 92 60t86.5 67.5t79 82t51 94t21.5 112.5q0 82 -42 135t-134 53q-89 0 -146 -49.5t-57 -132.5q0 -81 55 -145
l-82 -48q-26 56 -26 121q0 91 46 159.5t116.5 101t152.5 32.5q105 0 174.5 -54.5t69.5 -156.5q0 -46 -14.5 -89t-44.5 -82t-64 -72t-85.5 -69t-94.5 -62.5t-105 -61.5q-182 -105 -257 -161q-94 -71 -128 -130h6q18 21 51 21q32 0 78.5 -19.5t87.5 -43t95.5 -43t99.5 -19.5
q62 0 97.5 43.5t127.5 210.5q15 9 21 0q-46 -89 -73 -137.5t-61 -103.5t-58.5 -81t-53 -43.5t-57.5 -17.5z" />
    <glyph glyph-name="three" unicode="3" horiz-adv-x="745" 
d="M-102 23q21 -3 43 -3q118 0 235.5 47.5t204 122.5t140.5 170.5t54 186.5q0 143 -133 143q-39 0 -69.5 -15.5t-61.5 -56.5l-51 -67l-37 39l592 432h-428l64 111h503l31 28l23 -20l-596 -436l2 -3q46 17 84 17q83 0 141.5 -57.5t58.5 -155.5q0 -108 -70 -205t-180.5 -161.5
t-245.5 -102t-265 -37.5h-27z" />
    <glyph glyph-name="four" unicode="4" horiz-adv-x="856" 
d="M-12 0l14 25h242l147 245l-342 -8v33l961 866l43 -28l-484 -834l236 6l-14 -24l-236 -7l-109 -188l-153 -61h366l-14 -25h-657zM84 285l322 8l350 588l-21 4l-651 -590v-10z" />
    <glyph glyph-name="five" unicode="5" horiz-adv-x="759" 
d="M-88 23q34 -3 78 -3q131 0 250 53t198.5 134.5t126.5 179t47 188.5q0 88 -42 130.5t-107 42.5q-70 0 -120.5 -43.5t-57.5 -126.5l-2 -25h-72l377 580h407v-17l-55 -94h-399l-189 -289l2 -2q60 47 152 47q99 0 164 -56t65 -163q0 -98 -58.5 -198.5t-156.5 -180t-239 -130
t-293 -50.5h-64z" />
    <glyph glyph-name="six" unicode="6" horiz-adv-x="825" 
d="M328 -14q-97 0 -150 67.5t-53 192.5q0 144 60.5 285t164 255.5t234.5 204.5t279.5 142t291.5 59l2 -21q-140 -14 -275.5 -73.5t-243.5 -147t-191.5 -191.5t-133.5 -214l11 -4q119 149 258 149q94 0 144 -61t50 -160q0 -89 -41 -178.5t-104.5 -155.5t-144.5 -107.5
t-158 -41.5zM319 6q69 0 136 56t112.5 138.5t73 174t27.5 164.5q0 127 -105 127q-71 0 -141 -49t-120 -123t-81 -162.5t-31 -167.5q0 -158 129 -158z" />
    <glyph glyph-name="seven" unicode="7" horiz-adv-x="665" 
d="M12 0q47 57 161.5 195.5t213.5 258.5t174 212l291 356h-487l-66 -125h-25l146 287h33l-29 -51h528v-25q-262 -315 -389 -483q-92 -115 -200.5 -298.5t-176.5 -326.5h-174z" />
    <glyph glyph-name="eight" unicode="8" horiz-adv-x="819" 
d="M309 -14q-124 0 -195 66.5t-71 166.5q0 63 26.5 117.5t88.5 110t131 102t188 117.5q-41 125 -41 202q0 120 85.5 199.5t215.5 79.5q95 0 153.5 -59.5t49.5 -155.5l141 82l11 -19l-490 -280q4 -10 27 -73.5t30 -86.5t21.5 -71t19.5 -84t5 -70q0 -152 -118.5 -248
t-277.5 -96zM90 205q0 -90 55.5 -143.5t151.5 -53.5q127 0 206 74.5t79 191.5q0 40 -11 92.5t-20.5 84t-35.5 103.5t-32 91q-197 -119 -295 -224.5t-98 -215.5zM551 940q0 -70 45 -207l285 164q14 101 -25.5 166t-120.5 65q-82 0 -133 -49t-51 -139z" />
    <glyph glyph-name="nine" unicode="9" horiz-adv-x="839" 
d="M-74 18q172 5 331 85.5t269.5 206t163.5 272.5l-10 4q-97 -144 -231 -144q-101 0 -156 71t-55 179q0 83 33 165t88 146t133 104t163 40q121 0 184.5 -86t51.5 -225q-11 -129 -70.5 -253.5t-154.5 -225.5t-213.5 -180t-255 -125.5t-273.5 -55.5zM463 461q55 0 107.5 36
t91.5 93t69 125.5t45 135.5t15 120q0 75 -29.5 115t-83.5 40q-66 0 -128.5 -59t-104 -143t-66.5 -171.5t-25 -150.5q0 -141 109 -141z" />
    <glyph glyph-name="colon" unicode=":" horiz-adv-x="444" 
d="M-59 0l86 137h110l-86 -137h-110zM264 551l86 137h111l-86 -137h-111z" />
    <glyph glyph-name="semicolon" unicode=";" horiz-adv-x="444" 
d="M-160 -195q82 0 152.5 48t70.5 100q0 24 -17.5 43.5t-57.5 48.5l55 88h43q20 -47 21 -95.5t-22.5 -95t-60 -82t-91 -57.5t-115.5 -22zM264 551l86 137h111l-86 -137h-111z" />
    <glyph glyph-name="less" unicode="&#x3c;" horiz-adv-x="1073" 
d="M905 211l-672 283l17 24l848 262l-21 -37l-768 -235l-8 -14l619 -256z" />
    <glyph glyph-name="equal" unicode="=" horiz-adv-x="1021" 
d="M262 608v29h686v-29h-686zM262 362v29h686v-29h-686z" />
    <glyph glyph-name="greater" unicode="&#x3e;" horiz-adv-x="995" 
d="M102 211l21 37l768 235l10 19l-504 254l21 24l549 -282l-17 -25z" />
    <glyph glyph-name="question" unicode="?" horiz-adv-x="804" 
d="M354 408q36 92 81.5 168t99.5 135t97.5 97.5t104.5 84.5q18 13 54.5 40t56.5 42t52 41t50 44.5t40.5 45t34 50.5t20 53t8.5 59q0 127 -146 127q-89 0 -152.5 -48t-85.5 -133.5t7 -203.5l-82 -33q-15 63 -11.5 125t32.5 119t72 100.5t107.5 69.5t139.5 26q127 0 183 -60.5
t46 -144.5q-5 -47 -29.5 -86t-70.5 -72.5t-88.5 -58.5t-111 -61.5t-111.5 -63.5q-77 -48 -130.5 -97.5t-90.5 -108.5t-60.5 -115t-48.5 -141h-68zM145 0l86 137h111l-86 -137h-111z" />
    <glyph glyph-name="at" unicode="@" horiz-adv-x="1390" 
d="M528 -176q-121 0 -214 32.5t-149.5 90t-85 131.5t-28.5 162q0 143 74 285.5t194.5 251.5t285.5 177t335 68q107 0 191 -27.5t136 -75t78.5 -109t26.5 -132.5q0 -99 -49.5 -211.5t-122 -200t-156.5 -145.5t-149 -58q-47 0 -72.5 35.5t-25.5 118.5q0 51 14 125h-6
q-75 -116 -168 -196t-166 -80q-59 0 -90 53.5t-31 134.5q0 137 90 260q67 91 171.5 147t193.5 56q104 0 104 -103q0 -48 -26 -118l125 196h143l-201 -321q-72 -114 -94 -156.5t-22 -73.5q0 -61 61 -61q47 0 107.5 35.5t120.5 97t111 136t82.5 162.5t31.5 167q0 143 -105 231
t-303 88q-133 0 -264 -41.5t-237.5 -115.5t-189 -169t-128 -207.5t-45.5 -225.5q0 -84 26.5 -154t79.5 -124.5t141.5 -85t204.5 -30.5h433l-15 -20h-418zM475 84q64 0 148 75t155 183l17 25q94 154 94 247q0 82 -70 82q-53 0 -120 -55t-134 -152q-59 -85 -102 -178.5
t-43 -158.5q0 -68 55 -68z" />
    <glyph glyph-name="A" unicode="A" horiz-adv-x="1265" 
d="M-625 -311q-124 0 -213 39l-4 30q95 -45 215 -45q90 0 181.5 23t164.5 51.5t169 95t155.5 111.5t165.5 145.5t157 152t170 173.5q31 31 46 47l180 184h-262l18 21h264l705 719h33q102 0 143 47h31l-666 -1055q-22 -36 -50.5 -81.5t-43 -68.5t-33 -53t-26.5 -45t-17.5 -34
t-13 -31t-6 -25.5t-2.5 -26.5q0 -65 71 -65q81 0 155.5 73t186.5 240l39 58q14 11 21 0l-39 -58q-59 -87 -98 -138.5t-86 -100.5t-90.5 -70.5t-90.5 -21.5q-35 0 -61 16t-39 41t-19 50t-6 50q0 86 45.5 197.5t163.5 290.5l47 71h-243l-197 -200q-276 -282 -388 -384
q-282 -260 -505 -354q-164 -69 -328 -69zM813 717h238l456 694h-16z" />
    <glyph glyph-name="B" unicode="B" horiz-adv-x="1691" 
d="M756 -154q-144 0 -247.5 41.5t-156.5 112.5h-243l12 20h219q-35 56 -35 123q0 123 94 236l17 -17q-92 -105 -92 -223q0 -64 34 -119h107l276 441q-98 2 -176 35.5t-127 89.5t-74.5 127.5t-25.5 154.5q0 104 44 212t129 205.5t198.5 174t264.5 121.5t314 45
q198 0 329.5 -59.5t190.5 -159.5h254l-12 -21h-231q32 -60 32 -137q0 -93 -49 -173.5t-129.5 -134t-179 -85.5t-201.5 -37v-6q128 -27 198.5 -117.5t70.5 -236.5q0 -85 -38 -173t-111 -166t-169.5 -140t-223.5 -98t-263 -36zM360 870q0 -109 41.5 -195t132.5 -140t220 -54
l506 809l208 117h265q-36 99 -152.5 150t-294.5 51q-160 0 -307.5 -44.5t-258 -119t-193 -169.5t-125 -199.5t-42.5 -205.5zM373 0q52 -62 145 -98.5t219 -36.5q120 0 230 39t192 106t142.5 152.5t92 182t31.5 192.5q0 129 -55 200.5t-166 71.5q-36 0 -82 -4l-444 -711
l-139 -74h362l-14 -20h-514zM1141 834q39 -5 90 -5q101 0 188 30.5t146.5 80t101.5 113t62 130t20 130.5q0 27 -8 73h-256z" />
    <glyph glyph-name="C" unicode="C" horiz-adv-x="1245" 
d="M739 -113q-113 0 -175 90.5t-62 241.5q0 284 188 619q-74 9 -136.5 29t-115 52t-82.5 81.5t-30 111.5q0 132 134.5 213.5t403.5 81.5h314q257 197 462 197q63 0 95 -33t32 -90q0 -33 -12 -74h158l-10 -21h-154q-26 -68 -79.5 -141t-137 -146t-184 -131t-231 -96
t-267.5 -43q-108 -191 -171 -374t-63 -320q0 -107 37.5 -163t108.5 -56q188 0 444 365l62 88q10 7 20 0l-61 -90q-267 -392 -488 -392zM348 1114q0 -59 28.5 -105.5t79 -77t112 -49t134.5 -26.5q181 311 449 530h-289q-259 0 -386.5 -74.5t-127.5 -197.5zM862 852
q133 6 258.5 43.5t221.5 93.5t175.5 125.5t130.5 138.5t76 133h-450q-225 -210 -412 -534zM1296 1407h435q14 38 14 74q0 102 -103 102q-151 0 -346 -176z" />
    <glyph glyph-name="D" unicode="D" horiz-adv-x="1826" 
d="M193 0l12 20h327l299 478h-14q-211 0 -327.5 115t-116.5 302q0 99 37 200t110.5 193t173 163.5t235 114t285.5 42.5q346 0 521 -221h442l-12 -21h-414q123 -167 123 -401q0 -123 -34.5 -244.5t-97.5 -230.5t-156.5 -202.5t-206.5 -162t-253 -107t-290 -38.5h-643z
M395 915q0 -179 109.5 -288t314.5 -109h25l485 774l211 115h152q-133 201 -478 201q-154 0 -289 -42.5t-230 -113t-164 -161t-102.5 -187t-33.5 -189.5zM608 20h250q151 0 293 69t251 184t191.5 258.5t126 298.5t43.5 298q0 155 -59 258h-148l-808 -1292z" />
    <glyph glyph-name="E" unicode="E" horiz-adv-x="1523" 
d="M999 -29q-174 0 -364 88q-139 -82 -328 -82q-153 0 -233 45t-80 105q0 48 47.5 80.5t138.5 32.5q26 0 53.5 -3.5t49.5 -7.5t52.5 -14t47.5 -15.5t51 -20.5t47 -21t51.5 -24t49.5 -23q45 45 90.5 110.5t124.5 188.5q-217 41 -330 155.5t-113 263.5q0 82 32.5 162.5
t103 156t171 133t247 92t319.5 34.5h770l-12 -21h-412l-395 -630h225l51 88h27l-133 -226h-27l70 117h-226l-209 -332q-73 -116 -142.5 -196t-149.5 -131q181 -78 340 -78q91 0 165 19.5t132.5 59.5t102.5 89t89 119l53 84q14 7 21 0l-54 -84q-35 -55 -63.5 -93.5t-75 -83.5
t-96.5 -72.5t-122 -46t-157 -18.5zM14 125q0 -47 74.5 -85t204.5 -38q89 0 151.5 21t116.5 69q-6 3 -37.5 18.5t-39.5 19t-36.5 17t-39 17.5t-36.5 14.5t-39.5 14t-37 10.5t-41 9.5t-39 4.5t-41.5 2q-80 0 -120 -29t-40 -65zM375 829q0 -143 110.5 -253t323.5 -148l537 862
l174 96h-293q-170 0 -313 -33.5t-240.5 -89t-166.5 -128.5t-100.5 -150.5t-31.5 -155.5z" />
    <glyph glyph-name="F" unicode="F" horiz-adv-x="1390" 
d="M315 -113q-173 0 -265.5 95t-92.5 239q0 79 28.5 157.5t92 155t156 137t231.5 102t307 52.5q-154 28 -235.5 98t-81.5 175q0 82 49 142t140 96.5t211 53.5t271 17h1006l-12 -21h-463l-348 -555h176l53 89h33l-141 -242h-35l80 133h-179l-256 -408
q-153 -243 -338.5 -379.5t-386.5 -136.5zM-23 225q0 -134 86 -225.5t232 -91.5q63 0 120.5 17.5t109.5 54.5t94 76t89 101t78.5 108.5t77.5 119.5l266 426h-229q-190 0 -347.5 -36.5t-262 -95.5t-177.5 -136.5t-105 -157.5t-32 -160zM475 1098q0 -128 129.5 -197.5
t372.5 -69.5h166l287 459l184 96h-488q-146 0 -261.5 -15.5t-204.5 -49t-137 -90t-48 -133.5z" />
    <glyph glyph-name="G" unicode="G" horiz-adv-x="1593" 
d="M371 -715q-199 0 -310.5 87t-91.5 229q18 124 122.5 180.5t270.5 56.5q55 0 260 -10t285 -10h33q48 68 103.5 151t121 182.5t101.5 153.5h-6q-127 -161 -235.5 -238t-215.5 -77q-126 0 -191 96t-65 250q0 245 168 532q-67 11 -123.5 29.5t-105.5 48.5t-77 75t-28 101
q0 124 136 204.5t403 80.5h278q270 197 482 197q82 0 116.5 -43t34.5 -105q0 -17 -4 -49h160l-15 -21h-149q-31 -143 -177.5 -266.5t-351 -193.5t-409.5 -70h-8q-102 -185 -161.5 -361t-59.5 -298q0 -187 153 -187q121 0 250.5 111t296.5 346q5 65 27 190h151
q-77 -71 -160 -217q-83 -130 -172 -333.5t-129 -278.5q136 42 236 139.5t237 304.5l64 97q13 7 20 0l-63 -97q-141 -216 -249.5 -319.5t-256.5 -147.5l-27 -47q-67 -117 -133 -200t-147 -147t-177.5 -95t-211.5 -31zM-10 -399q-12 -83 28.5 -148t111.5 -97t157 -32
q72 0 144.5 25.5t135 67.5t127.5 104.5t119 128t113 147.5h-19q-82 0 -287.5 11.5t-261.5 11.5q-335 0 -368 -219zM410 1124q0 -51 26.5 -93t73.5 -69.5t101.5 -45t119.5 -27.5q88 143 204 271.5t243 225.5h-254q-256 0 -385 -74.5t-129 -187.5zM895 877q199 1 397 68.5
t340 186t174 254.5h-520q-215 -197 -391 -509zM1309 1407h501q5 40 5 49q0 55 -30 92t-99 37q-173 0 -377 -178z" />
    <glyph glyph-name="H" unicode="H" horiz-adv-x="1812" 
d="M291 -113q-155 0 -256 92.5t-101 227.5q0 152 91 266t251 174t367 60h21q-107 31 -166.5 102.5t-59.5 171.5q0 134 99.5 231.5t273 146t401.5 48.5h1178l-12 -21h-205l-807 -1290l-141 -76h334l-13 -20h-645l12 20h236l416 666h-373l-201 -321q-70 -113 -137.5 -194
t-152 -148.5t-187 -101.5t-223.5 -34zM-45 207q0 -126 94.5 -212.5t239.5 -86.5q82 0 146.5 25.5t131.5 91t126.5 147.5t150.5 227l180 287h-387q-200 0 -354 -57t-241 -166.5t-87 -255.5zM459 981q0 -126 98.5 -200t265.5 -74h213l365 583l178 96h-367q-223 0 -392 -47
t-265 -139t-96 -219zM1204 707h375l365 583l176 96h-490z" />
    <glyph glyph-name="I" unicode="I" horiz-adv-x="761" 
d="M-238 0l13 20h272l793 1270l174 96h-379l12 21h694l-12 -21h-262l-809 -1292l-133 -74h352l-12 -20h-703z" />
    <glyph glyph-name="J" unicode="J" horiz-adv-x="1050" 
d="M-266 -713q-140 0 -140 131q0 150 148.5 348t397 396t550.5 364l477 764l172 96h-497l12 21h809l-12 -21h-256l-477 -765q85 39 184 75l2 -18q-112 -44 -207 -88l-139 -225q-87 -140 -134.5 -215t-137 -207t-149 -208t-146 -173t-155 -148.5t-149 -89t-153.5 -37.5z
M-385 -584q0 -57 26.5 -82.5t79.5 -25.5q46 0 93 20.5t91 54.5t96 93t98.5 122t108.5 157t116 180.5t130 209.5q88 143 136 220l80 129q-291 -165 -531.5 -361.5t-382 -387.5t-141.5 -329z" />
    <glyph glyph-name="K" unicode="K" horiz-adv-x="1542" 
d="M53 0l13 20h329l242 388q-167 22 -264 128t-97 269q0 98 36 188t107.5 165t171 131t233 87t286.5 31h803q137 124 256 192t241 68v-20q-114 0 -225 -62.5t-241 -177.5h81l-12 -21h-94q-41 -38 -133.5 -126t-148.5 -138t-138 -115t-160.5 -107t-158.5 -64q95 0 148.5 -55
t53.5 -140q0 -116 -75 -235l-60 -93q-8 -13 -25 -39t-23.5 -36.5t-19.5 -31t-18 -30t-14 -25.5t-12.5 -25t-7.5 -21.5t-5.5 -22t-1.5 -19.5q0 -59 68 -59q78 0 153 73.5t185 233.5l39 58q13 10 20 0l-39 -58q-112 -163 -194.5 -244t-165.5 -81q-107 0 -107 151
q0 154 121 344l74 115q45 68 45 123q0 47 -38.5 73.5t-113.5 26.5h-67l-37 -4l-453 -721l-139 -74h381l-12 -20h-787zM297 807q0 -155 94.5 -257t257.5 -124l541 864l176 96h-256q-188 0 -343 -46.5t-257 -126.5t-157.5 -184.5t-55.5 -221.5zM1075 838q65 6 128.5 26.5
t126 56t116 72t117 92t108.5 96.5t112 105t107 100h-471z" />
    <glyph glyph-name="L" unicode="L" horiz-adv-x="1277" 
d="M-102 47q89 -27 194 -27q98 0 184 35.5t143 77.5t128 140.5t106 158.5t110 197q45 81 68 123q-229 6 -359 86t-130 229q0 156 176.5 248t503.5 92h274q218 221 373 221q54 0 82.5 -35.5t28.5 -95.5q0 -36 -13 -90h160l-12 -21h-152q-28 -94 -93 -192t-159.5 -187.5
t-227.5 -156t-279 -88.5q-75 -126 -132.5 -214.5t-130 -182.5t-139 -156t-147.5 -112t-168 -74h461q87 0 159 18t123 45t102.5 76.5t85 92.5t82.5 114q14 7 21 0q-101 -145 -152 -198q-116 -124 -275 -157q-69 -14 -153 -14h-874zM362 1067q0 -140 127.5 -215t354.5 -80
l82 141q181 293 352 473h-256q-319 0 -489.5 -87.5t-170.5 -231.5zM1018 784q140 23 266.5 87t215.5 150t150 179.5t87 185.5h-355q-76 -107 -280 -458zM1397 1407h346q12 49 12 94q0 107 -92 107q-64 0 -128.5 -51t-137.5 -150z" />
    <glyph glyph-name="M" unicode="M" horiz-adv-x="2017" 
d="M180 -90q-132 0 -210.5 73t-78.5 212q0 154 100 281.5t275.5 208.5t401.5 106q33 146 100 257.5t149.5 178.5t188.5 108.5t204.5 56.5t209.5 15h606q58 0 104 26t92 83h35l-506 -820q-171 -277 -229.5 -389.5t-58.5 -191.5q0 -111 104 -111q36 0 70 15t61.5 36.5t64 65.5
t64 82.5t74.5 107.5l39 58q13 10 20 0l-39 -58q-42 -61 -63 -91t-55.5 -76t-57.5 -68t-54 -46.5t-60.5 -34t-61.5 -9.5q-76 0 -117 57.5t-41 155.5q0 207 209 540l398 635l-11 6q-149 -183 -314 -407t-279 -385.5t-220.5 -305.5t-179.5 -219t-115 -75q-21 0 -35 19t-14 59
q0 197 357 727l397 589l-10 2q-95 -86 -206 -219t-209.5 -266t-206.5 -278.5t-214.5 -269.5t-215.5 -224.5t-228 -158.5t-234 -58zM1001 8q37 0 108 76t176.5 220t220 306t276 380.5t305.5 395.5h-217l-424 -618q-63 -93 -135 -197t-111.5 -161t-83 -121t-64.5 -97
t-40.5 -67.5t-26 -54t-6.5 -35.5q0 -27 22 -27zM-88 195q0 -128 71.5 -194.5t192.5 -66.5q86 0 172 30.5t175 98.5t161.5 134t167 181t154 191.5t159.5 210.5h-305q-270 0 -486.5 -74.5t-339 -208.5t-122.5 -302zM688 793q73 8 172 8h322q104 140 168 223t154.5 188
t166.5 174h-151q-695 0 -832 -593z" />
    <glyph glyph-name="N" unicode="N" horiz-adv-x="1748" 
d="M176 -90q-137 0 -216 72.5t-79 210.5q0 153 97.5 279.5t268.5 207.5t392 108q24 106 65.5 194t93.5 151t117.5 111.5t133 79t145 49.5t149.5 26.5t150 7.5h711q235 219 497 219q88 0 174 -27l-8 -24q-83 27 -168 27q-106 0 -205.5 -36.5t-186.5 -102.5t-169 -153.5
t-160.5 -195.5t-153.5 -220.5t-156 -237t-159.5 -237.5t-172.5 -228.5t-187 -204.5l-21 16q24 27 43.5 53t35.5 59.5t27.5 57t23 67t17.5 67t15.5 80t13.5 82.5t14 98t15 104l8 55q28 186 92.5 328.5t182.5 253.5h-6q-41 -30 -80 -64t-81.5 -82.5t-69 -79.5t-73.5 -96.5
t-63.5 -89.5t-69.5 -103t-63 -94q-98 -144 -181 -254t-179.5 -214.5t-186 -171.5t-189 -107.5t-198.5 -40.5zM-98 195q0 -131 72 -197t202 -66q207 0 419 178t488 588l56 82h-289q-269 0 -485 -74t-339.5 -208t-123.5 -303zM664 791q102 10 186 10h303q51 76 81.5 120.5
t79.5 112t89 112t90.5 94t103.5 85.5t109 61h-213q-698 0 -829 -595zM1257 135h5q94 109 195.5 251.5t187.5 274.5t172.5 263.5t180.5 253.5t183 208h-436q-58 -45 -99 -102t-66.5 -128t-40 -139.5t-26.5 -164.5l-8 -68q-24 -196 -83.5 -350t-164.5 -299z" />
    <glyph glyph-name="O" unicode="O" horiz-adv-x="1333" 
d="M496 -113q-100 0 -171 64.5t-101.5 164t-26.5 218.5q6 154 57 312.5t134.5 297.5t196 261.5t237 210t262 138t266.5 50.5q130 0 185 -70t50 -184q-3 -112 -61 -255t-160 -290q-53 -155 -143.5 -310t-200.5 -282q136 6 207.5 39.5t128.5 116.5q12 8 20 0
q-44 -65 -85.5 -99.5t-110 -53.5t-179.5 -23q-128 -142 -259 -224t-246 -82zM305 190q-9 -280 195 -280q107 0 229 74.5t242 205.5h-74h-367l9 21q230 60 436 221t356 373q51 142 60 274q7 92 -8.5 158t-49.5 101.5t-75.5 51t-94.5 15.5q-188 0 -383.5 -180.5t-330.5 -470.5
q-135 -300 -144 -564zM657 211h244l88 2q199 224 314 510q-129 -164 -294.5 -294.5t-349.5 -201.5zM709 1178q109 118 227 182.5t231 64.5q124 0 192 -80t62 -245q-3 -93 -32 -213q168 269 174 465q3 103 -46 167t-165 64q-156 0 -324.5 -109t-318.5 -296z" />
    <glyph glyph-name="P" unicode="P" horiz-adv-x="1736" 
d="M518 0q-129 0 -227 30t-156 82t-86.5 117.5t-28.5 141.5q0 90 39 167.5t109.5 133.5t161.5 95t200 60q16 158 97 303t211.5 255.5t317 176.5t398.5 66q194 0 324 -60.5t184 -160.5h222l-13 -21h-198q24 -56 24 -114q0 -81 -35 -156t-97 -132.5t-154.5 -91.5t-200.5 -34
q-70 0 -168 16l4 15q49 -8 86 -8q103 0 191.5 42t144.5 107.5t87.5 143.5t31.5 153q0 27 -7 59h-282l-406 -651q128 -68 199 -166.5t68 -218.5q-2 -62 -23.5 -119t-65.5 -108t-123 -82t-184 -31q-162 0 -291 74l-153 -84h-201zM43 375q-1 -55 13 -104.5t49 -96t88.5 -80.5
t137 -54t187.5 -20h160l88 142q-117 107 -178.5 267.5t-61.5 322.5l2 55q-214 -43 -348 -155.5t-137 -276.5zM551 754q0 -158 58 -314t169 -260l373 594q-174 57 -373 57q-122 0 -225 -20zM555 831q114 19 223 19q206 0 383 -57l312 497l208 117h293q-30 97 -135.5 149
t-284.5 52q-170 0 -322.5 -41.5t-268.5 -115t-204.5 -171.5t-139.5 -212.5t-64 -236.5zM891 96q122 -67 270 -67q181 0 277 91.5t96 231.5q0 116 -67 209.5t-185 157.5z" />
    <glyph glyph-name="Q" unicode="Q" horiz-adv-x="1341" 
d="M-51 -195q424 28 796 273q-145 -92 -262 -92q-89 0 -149.5 53.5t-87.5 139.5t-27 198q0 143 49 296t130.5 286t190 253t224.5 206t237.5 136t225.5 50q137 0 204.5 -79t67.5 -225q0 -98 -30.5 -216.5t-92.5 -248.5t-148.5 -259.5t-206.5 -252t-258 -224t-311.5 -178
t-359.5 -111.5l-6 -11h801l-47 -73h-991zM330 240q0 -132 39 -183t116 -51q95 0 204 59.5t211 164.5t188 236.5t142 288.5t66 306q23 346 -223 346q-174 0 -332 -168q-179 -217 -295 -492.5t-116 -506.5zM766 92q177 122 324.5 285t240 326.5t143 318.5t50.5 278
q0 137 -65.5 209t-182.5 72q-103 0 -217 -63.5t-225 -176.5q122 82 239 82q129 0 193.5 -91.5t54.5 -272.5q-17 -270 -180.5 -545t-374.5 -422z" />
    <glyph glyph-name="R" unicode="R" horiz-adv-x="1714" 
d="M1372 -14q-42 0 -69.5 27t-37 60.5t-10.5 73.5q-6 158 101 326l71 115q34 56 49 94t15 78q0 79 -72 102q-51 0 -121 12l5 15q71 -8 129 -8q123 0 225.5 65.5t156.5 162.5t54 198q0 37 -10 79h-304l-806 -1292l-148 -74h428l-10 -20h-821l12 20h326l276 441h-39
q-107 0 -191.5 30.5t-137 84.5t-80 124.5t-27.5 153.5q0 88 34.5 179.5t97.5 177.5t159 162t212 132.5t263.5 89.5t306.5 33q203 0 339 -59.5t194 -161.5h219l-13 -21h-196q28 -64 28 -129q0 -164 -152 -277t-372 -118q50 -28 78.5 -83t28.5 -126q0 -116 -76 -239l-74 -117
q-106 -168 -106 -238q0 -55 65 -55q32 0 63.5 14t58 36t60.5 63t61.5 79t71.5 101q7 11 11 16l39 56q10 7 20 0l-39 -58q-59 -87 -93 -132.5t-80.5 -97t-87.5 -73.5t-85 -22zM358 854q0 -163 105.5 -268t308.5 -105h51l506 809l209 117h313q-71 201 -442 201
q-192 0 -363 -45.5t-294.5 -122t-214 -174t-135 -203.5t-44.5 -209z" />
    <glyph glyph-name="S" unicode="S" horiz-adv-x="1318" 
d="M516 -113q-125 0 -221.5 36t-153.5 97t-85.5 134.5t-28.5 156.5q0 108 49 213.5t137.5 191t228.5 138.5t306 53v-35q-161 0 -296 -49.5t-221 -130t-133 -179.5t-47 -202q0 -79 29 -149.5t83.5 -126.5t142.5 -88.5t198 -32.5q92 0 167 26t126 66.5t92 104t65 124
t43.5 142.5t29 143t20.5 141q1 11 2 17q10 77 17.5 126t20.5 118.5t26.5 114.5t34.5 101t45.5 91.5t58.5 72.5t74.5 57.5t93 34t114.5 13.5h111l-46 -66q-32 26 -56 35.5t-64 9.5q-50 0 -85.5 -10.5t-61.5 -45.5t-41 -62.5t-28.5 -103.5t-19.5 -123.5t-19 -162.5
q-10 -92 -16 -143q-9 -74 -17 -125.5t-31 -147.5t-52.5 -165t-83 -151.5t-120.5 -134.5t-167.5 -88t-220.5 -36z" />
    <glyph glyph-name="T" unicode="T" horiz-adv-x="1157" 
d="M592 786q-114 50 -175 128t-61 165q0 134 138.5 231t386.5 97h1030l-13 -21h-495l-807 -1292l-137 -74h413l-12 -20h-860l12 20h369l795 1270l176 96h-471q-121 0 -219 -26t-158 -70t-91.5 -98t-31.5 -113q0 -79 57.5 -149t165.5 -115z" />
    <glyph glyph-name="U" unicode="U" horiz-adv-x="1693" 
d="M788 -10q-65 0 -108 60.5t-43 174.5q0 237 207 570h-62q-97 0 -172.5 16.5t-121 42t-75 61.5t-40.5 71.5t-11 74.5q0 130 112 258t283 207.5t337 79.5q98 0 146 -43.5t48 -139.5q0 -99 -37.5 -203.5t-126.5 -244.5l-202 -322q-230 -365 -230 -520q0 -53 24 -87t72 -34
q82 0 188.5 108.5t252.5 330.5l534 862l168 73h-364l12 21h575l-12 -21h-164l-536 -860q-189 -300 -178 -430q7 -92 100 -92q65 0 133 71t180 236l39 58q13 11 21 0l-39 -58q-119 -175 -191 -250t-143 -75q-143 0 -143 202q0 100 36 244l-20 2q-145 -225 -253.5 -334.5
t-195.5 -109.5zM383 1061q0 -35 9 -66.5t36.5 -65.5t71 -58.5t118.5 -40t173 -15.5h67l223 356q90 145 121 204.5t35 107.5q4 58 -30.5 80t-114.5 22q-166 0 -332 -76.5t-271.5 -199t-105.5 -248.5z" />
    <glyph glyph-name="V" unicode="V" horiz-adv-x="948" 
d="M-53 -57q68 29 122.5 65t93.5 74t73 90.5t56.5 100t48 118.5t43.5 129.5t47 149.5t54 164q16 47 28 80.5t36 88t47 95t58.5 89.5t73.5 84.5t89 66.5t107 48h-447l12 21h961q226 219 463 219q89 0 182 -27l-8 -22q-85 29 -174 29q-110 0 -214 -46.5t-192.5 -127
t-175 -185.5t-171.5 -226t-171.5 -245t-185 -245.5t-202.5 -224.5t-234 -185t-269 -123q-46 -32 -133 -84zM154 39q122 45 236.5 122t210 173t183.5 203.5t171 225t157.5 224t158.5 215t159 184.5h-386q-50 0 -93 -15t-75 -37.5t-62 -63.5t-49.5 -77.5t-43 -96.5
t-37.5 -103.5t-37.5 -115t-38.5 -115.5q-98 -286 -197.5 -445.5t-256.5 -277.5z" />
    <glyph glyph-name="W" unicode="W" horiz-adv-x="1468" 
d="M-39 -57q64 34 116.5 73.5t90.5 77.5t72 92t56.5 97.5t49.5 115.5t45 125.5t48.5 147t54.5 162.5q16 47 28 80t35.5 87.5t46 94.5t57.5 89.5t72 84.5t87.5 67t105.5 49h-449l15 21h1468q226 219 473 219q89 0 182 -27l-8 -22q-85 29 -174 29q-112 0 -216 -44.5
t-192 -122.5t-173.5 -180t-168.5 -220.5t-167.5 -240t-181 -242t-197.5 -224t-228 -189t-264 -133.5q-37 -27 -141 -94l-10 27q64 34 115.5 74t89.5 77.5t72 91.5t56.5 97.5t50 115.5t45 125t48.5 147.5t55 162.5q29 84 55 147q-69 -103 -116 -172.5t-117.5 -164.5
t-127 -162t-132 -144.5t-146 -133t-155 -107.5t-172.5 -87q-11 -8 -144 -94zM193 70q81 40 160 95.5t144.5 113t136.5 136t124.5 145t120 160.5t112.5 162t112 169q39 59 58 88q122 196 301 247h-409q-60 0 -109 -16t-90 -64t-65.5 -78t-57.5 -116.5t-43.5 -118.5
t-43.5 -141q-19 -60 -28 -90q-84 -265 -178.5 -418.5t-244.5 -273.5zM713 59q117 51 226.5 131t201 175.5t175.5 201t164 219t151.5 216t153 206.5t154.5 178h-366q-57 0 -104.5 -19t-84 -57t-65 -83t-54 -109.5t-45 -123.5t-42.5 -136q-19 -64 -29 -96
q-85 -271 -182.5 -426t-253.5 -277z" />
    <glyph glyph-name="X" unicode="X" horiz-adv-x="1247" 
d="M842 -35q-90 0 -143.5 66.5t-53.5 189.5q0 119 30.5 215.5t98.5 212.5q-183 -231 -376.5 -403t-350.5 -226h371l-6 -20h-629l18 29q1 0 45 -4.5t88 -4.5q88 0 206 65t241.5 174.5t245 244.5t231.5 284l166 265q113 182 155 269t42 155q0 79 -82 79q-149 0 -356 -198
t-445 -555h-23q243 368 453.5 571t370.5 203q123 0 127 -170h727l-15 -21h-110q-203 -47 -430.5 -187.5t-360.5 -326.5l-184 -297q-103 -166 -143.5 -262.5t-40.5 -177.5q0 -71 38.5 -109t96.5 -38q171 0 370 299l56 82q13 10 20 0l-55 -82q-218 -322 -393 -322zM1151 991
q129 136 302 241t337 154h-524q0 -197 -115 -395z" />
    <glyph glyph-name="Y" unicode="Y" horiz-adv-x="1597" 
d="M797 12q-70 0 -113 60t-43 186q0 39 6 77t24.5 102.5t63.5 155.5t113 202h-80q-97 0 -172.5 16.5t-121 42.5t-75 62t-40.5 71.5t-11 75.5q0 96 70.5 195.5t179 174.5t246 123t264.5 48q88 0 133 -36t45 -138q0 -182 -180 -478l-100 -166q-64 -106 -90 -149.5t-72.5 -124
t-65.5 -119t-43 -92t-32.5 -89.5t-8.5 -67q0 -53 27 -83.5t78 -30.5q98 0 211.5 125.5t273.5 390.5l479 766l164 73h-330l13 21h555l-13 -21h-178l-360 -579q-98 -157 -279.5 -495.5t-204.5 -379.5q128 37 226 121.5t217 249.5l47 66q13 10 20 0l-47 -66
q-127 -176 -231.5 -265t-241.5 -126l-53 -90q-159 -260 -351.5 -398.5t-398.5 -138.5q-84 0 -149 23t-103.5 62.5t-58.5 88t-20 103.5q0 71 34 138t95.5 120.5t157 86t208.5 32.5q44 0 227 -10.5t259 -10.5q72 118 191.5 334t150.5 270l-13 2q-156 -256 -276 -384t-223 -128
zM6 -436q0 -100 68.5 -172t204.5 -72q81 0 159 30.5t139.5 76.5t126.5 119.5t112 139.5t104 156l36 58q-73 1 -250.5 10.5t-224.5 9.5q-111 0 -203 -30.5t-150.5 -81.5t-90 -114t-31.5 -130zM369 1061q0 -35 9 -66.5t36 -65.5t70.5 -58t118.5 -40t173 -16h84l209 336
q53 86 70.5 115t47 83t39.5 86t11 62q1 49 -28 67.5t-101 18.5q-171 0 -343.5 -76.5t-284 -199t-111.5 -246.5z" />
    <glyph glyph-name="Z" unicode="Z" horiz-adv-x="1101" 
d="M-268 -715q-124 0 -195.5 61t-71.5 158q0 48 17 89t55.5 74t75.5 58.5t104 48.5t111.5 37.5t128 31t123.5 24t125 21.5q64 11 94 16q129 21 258 55q187 321 197 565q3 80 -20.5 122t-88.5 42q-95 0 -149 -80l-64 -96l-53 39q35 37 113 96l698 645h-684l63 115h734l38 45
l33 -14l-811 -754h2q65 27 111 27q101 0 152.5 -81.5t48.5 -215.5q-6 -184 -105 -377q117 55 197.5 133t154.5 199q14 7 21 0q-79 -132 -168 -216.5t-217 -142.5l-41 -71q-60 -99 -137.5 -192t-176 -177.5t-204 -147.5t-227.5 -100t-242 -37zM-514 -498q0 -86 63.5 -141
t182.5 -55q94 0 191.5 37.5t182 98.5t166.5 144t147 169t122 179q-135 -34 -248 -53q-28 -5 -87 -15q-91 -15 -140 -23.5t-137 -28t-139 -36.5t-116.5 -46t-101 -60.5t-61 -75t-25.5 -94.5z" />
    <glyph glyph-name="bracketleft" unicode="[" horiz-adv-x="901" 
d="M-176 -362l1243 1990h344l-12 -20h-209l-1215 -1950h207l-12 -20h-346z" />
    <glyph glyph-name="backslash" unicode="\" horiz-adv-x="1208" 
d="M944 -309l-332 1843h33l330 -1843h-31z" />
    <glyph glyph-name="bracketright" unicode="]" horiz-adv-x="839" 
d="M-236 -362l13 20h207l1214 1950h-205l13 20h346l-1243 -1990h-345z" />
    <glyph glyph-name="asciicircum" unicode="^" horiz-adv-x="935" 
d="M424 700l510 703l2 2h41v-705h-43v660l-477 -660h-33z" />
    <glyph glyph-name="underscore" unicode="_" horiz-adv-x="1099" 
d="M-123 -197l10 23h873l-10 -23h-873z" />
    <glyph glyph-name="a" unicode="a" horiz-adv-x="778" 
d="M457 -20q-95 0 -95 131q0 61 23 147h-10q-97 -144 -166 -211t-125 -67q-53 0 -84 54t-31 130q0 131 90 272q83 130 210 205.5t270 75.5q66 0 143 -21h102l-256 -401q-77 -118 -103 -170t-26 -78q0 -49 56 -49q60 0 126.5 64.5t170.5 228.5l49 78q10 7 20 0l-49 -78
q-106 -168 -178.5 -239.5t-136.5 -71.5zM35 61q0 -29 14 -46t39 -17q97 0 289 297l94 145l158 238q-31 22 -90 22q-95 0 -174 -69t-177 -215q-69 -102 -111 -197.5t-42 -157.5z" />
    <glyph glyph-name="b" unicode="b" horiz-adv-x="694" 
d="M106 -14q-63 0 -99 46.5t-36 137.5q0 83 31 156t117 211l536 856l-4 -7h-350l12 21h316q73 0 121 20.5t88 71.5h26l-497 -803h122q54 0 90.5 -58.5t36.5 -139.5q0 -59 -22 -123h194q4 -11 -12 -21h-188q-16 -38 -43 -84q-76 -121 -200.5 -202.5t-238.5 -81.5zM33 82
q0 -38 20 -58t56 -20q64 0 153 86.5t166 210.5l39 68l-107 317l-108 -174q-136 -220 -177.5 -306t-41.5 -124zM385 678l96 -283q70 133 70 213q0 70 -64 70h-102z" />
    <glyph glyph-name="c" unicode="c" horiz-adv-x="524" 
d="M139 -16q-72 0 -112.5 60t-40.5 149q0 131 88 274q66 106 170.5 177t212.5 71q61 0 106 -33l-45 -82q-14 33 -21 47.5t-22.5 30.5t-32.5 16q-80 0 -233 -245q-143 -229 -143 -357q0 -88 77 -88q85 0 181 87t223 278q6 6 13 6t7 -6q-137 -203 -237 -294t-191 -91z" />
    <glyph glyph-name="d" unicode="d" horiz-adv-x="823" 
d="M483 -14q-106 0 -106 159q0 66 16 121h-12q-101 -150 -171.5 -219.5t-127.5 -69.5q-53 0 -84 54.5t-31 130.5q0 131 90 272q83 130 210 205.5t270 75.5q56 0 100 -10l428 681h-344l12 21h314q71 0 121 21t87 71h27l-690 -1102q-11 -18 -31.5 -51.5t-30 -48.5t-26 -42
t-24 -41t-19 -35t-16.5 -33.5t-11 -28t-8 -28t-2 -23.5q0 -64 59 -64q67 0 137.5 68t157.5 198l68 101q13 7 20 0l-71 -107q-90 -134 -163 -205t-149 -71zM33 59q0 -29 14 -46t39 -17q98 0 291 301l143 223l101 160q-30 18 -84 18q-95 0 -174 -69t-177 -215
q-69 -102 -111 -197.5t-42 -157.5z" />
    <glyph glyph-name="e" unicode="e" horiz-adv-x="518" 
d="M139 -16q-71 0 -112 59.5t-41 146.5q0 136 77 261q70 115 183.5 189.5t199.5 74.5q37 0 54.5 -18t17.5 -46q0 -60 -82 -135q-100 -87 -270 -137q-100 -180 -100 -287q0 -88 79 -88q81 0 176 84.5t220 280.5q6 6 13 6t7 -6q-131 -207 -231.5 -296t-190.5 -89zM174 397
q157 53 248 135q78 71 78 125q0 41 -41 41q-52 0 -123.5 -74t-147.5 -204z" />
    <glyph glyph-name="f" unicode="f" horiz-adv-x="538" 
d="M-801 -633q105 -12 160 -12q34 0 54.5 1.5t47.5 12.5t44.5 23t47 45t53.5 66.5t66.5 99.5t82 132t104.5 175l456 768h-174q3 10 11 18h176l157 267q172 288 307 419t228 131q34 0 50.5 -20t16.5 -51q0 -112 -155.5 -304.5t-474.5 -441.5h280q0 -8 -10 -18h-10
q-53 0 -99.5 -10.5t-82 -25t-70.5 -44t-58.5 -54t-54 -68.5t-48.5 -73t-49 -83q-16 -27 -24 -41l-153 -259q-56 -94 -101.5 -165t-105 -152t-115 -140t-122.5 -113t-136 -89q-71 -34 -149 -45.5t-189 -11.5zM301 438h6q65 99 129.5 157t153.5 83h-146zM477 731
q154 123 272 239t185.5 206t101 158.5t33.5 113.5q0 49 -45 49q-61 0 -141 -110t-275 -437z" />
    <glyph glyph-name="g" unicode="g" horiz-adv-x="778" 
d="M-334 -713q-100 0 -100 99q0 48 25 103.5t76.5 118.5t141.5 132t209 133l187 100l168 271h-8q-94 -127 -161 -185.5t-122 -58.5q-53 0 -83 50.5t-30 121.5q0 127 92 268q86 131 214.5 204t263.5 73q60 0 135 -21h108l-172 -272l-239 -399q69 32 102 48.5t84.5 47.5
t85 61.5t75.5 78t83 108.5q10 7 20 0q-41 -65 -85 -115.5t-80 -82.5t-92 -65.5t-94 -51.5t-114 -52l-47 -78q-393 -637 -643 -637zM-412 -610q-2 -38 14.5 -61t51.5 -23q39 0 86.5 33.5t91 80.5t103.5 132t103.5 153t111.5 178l40 66l-163 -88q-116 -62 -204 -130.5
t-136.5 -130.5t-72.5 -114t-26 -96zM33 76q0 -58 51 -58t111.5 54t150.5 178q108 158 160 242l117 184q-36 24 -88 24q-163 0 -347 -276q-155 -233 -155 -348z" />
    <glyph glyph-name="h" unicode="h" horiz-adv-x="847" 
d="M-96 0l860 1386h-358l12 21h332q71 0 120 20.5t86 71.5h27l-678 -1059h17q213 275 344 275q84 0 84 -129q0 -60 -22.5 -114t-82.5 -134l-63 -84q-67 -90 -93 -134t-26 -73q0 -51 55 -51q29 0 58.5 15.5t54 36.5t59.5 64.5t58.5 77.5t66.5 97l55 82q14 11 21 0l-55 -82
q-50 -75 -80 -116.5t-74.5 -92.5t-85 -74.5t-80.5 -23.5q-53 0 -75.5 40t-22.5 97q0 122 125 286l67 89q90 118 90 163q0 37 -41 37q-157 0 -454 -450l-154 -242h-147z" />
    <glyph glyph-name="i" unicode="i" horiz-adv-x="415" 
d="M106 -14q-98 0 -98 145q0 90 33.5 170t108.5 199l104 166l-4 12h-86q0 10 10 18h229l5 -20l-164 -258q-135 -211 -167 -269t-32 -92q0 -55 61 -55q27 0 55 14t50.5 34t52.5 58.5t51 69.5t56 86l67 105q14 7 21 0l-72 -111q-44 -68 -69 -104t-64 -81.5t-75 -66t-73 -20.5z
M457 1049l100 149h123l-100 -149h-123z" />
    <glyph glyph-name="j" unicode="j" horiz-adv-x="530" 
d="M-586 -707q-104 0 -104 101q0 63 39.5 131.5t98.5 128t149.5 127.5t169.5 118.5t182 110.5l37 60l368 596l-4 12h-127q-5 9 10 18h269l4 -20l-389 -617q156 79 250.5 142.5t185.5 167.5q10 7 20 0q-97 -113 -199.5 -181.5t-273.5 -152.5q-262 -415 -410.5 -578.5
t-275.5 -163.5zM537 1049l100 149h123l-101 -149h-122zM-674 -606q0 -38 18 -60t50 -22q70 0 181.5 140t352.5 528q-602 -345 -602 -586z" />
    <glyph glyph-name="k" unicode="k" horiz-adv-x="802" 
d="M-96 0l866 1386h-364l12 21h334q72 0 119.5 20.5t86.5 71.5h29l-680 -1059h12q109 132 208.5 203.5t164.5 71.5q45 0 68.5 -30t23.5 -67q0 -62 -62 -114t-181 -68v-6q27 -28 38 -46.5t11 -41.5q0 -27 -15 -54t-59 -87q-6 -8 -28 -37t-29 -39t-19.5 -30t-17 -33t-4.5 -25
q0 -37 45 -37q59 0 135 67.5t160 196.5l67 105q14 7 21 0l-72 -111q-178 -274 -313 -274q-42 0 -73.5 32t-31.5 86q0 30 12.5 61.5t28 54.5t49.5 69l15 21t14 19.5t12 17t11.5 17t9 14t7.5 14t5 12t4.5 12t1.5 10.5h-98l8 16h29q102 0 188 78t86 141q0 37 -45 37
q-80 0 -200 -99t-224 -245l-219 -352h-147z" />
    <glyph glyph-name="l" unicode="l" horiz-adv-x="415" 
d="M72 -18q-58 0 -86.5 41.5t-28.5 111.5q0 77 32.5 161.5t119.5 221.5l542 868h-317l12 21h287q71 0 118.5 20.5t86.5 71.5h26l-682 -1100q-117 -180 -147.5 -239t-30.5 -101q0 -28 18.5 -44.5t53.5 -16.5q68 0 137.5 69t157.5 201l67 101q14 7 21 0l-72 -107
q-94 -140 -165 -210t-150 -70z" />
    <glyph glyph-name="m" unicode="m" horiz-adv-x="1218" 
d="M209 469q72 112 72 156q0 28 -15 40.5t-53 12.5h-84q3 11 10 18h82q48 0 70 -24t22 -80v-152h15q104 138 182.5 206.5t144.5 68.5q78 0 78 -105q0 -77 -43 -172h17q205 277 329 277q84 0 84 -129q0 -60 -22 -114t-82 -134l-64 -84q-67 -89 -92.5 -133.5t-25.5 -73.5
q0 -51 55 -51q29 0 58.5 15.5t54 36.5t59.5 64.5t58.5 77.5t66.5 97l55 82q14 11 21 0l-56 -82q-40 -61 -63 -93.5t-60.5 -80t-65.5 -72t-62.5 -43t-67.5 -18.5q-53 0 -76 40t-23 97q0 122 125 286l68 89q90 118 90 163q0 37 -43 37q-74 0 -180.5 -111t-235.5 -315
l-163 -266h-144l199 315q137 217 166 279q20 43 20 65q0 33 -37 33q-70 0 -162.5 -90t-226.5 -278l-35 -56l-174 -268h-143z" />
    <glyph glyph-name="n" unicode="n" horiz-adv-x="854" 
d="M522 -20q-53 0 -75.5 40t-22.5 97q0 122 125 286l67 89q91 119 91 163q0 37 -41 37q-150 0 -426 -407l-11 -17l-174 -268h-143l297 469q72 112 72 156q0 28 -15 40.5t-53 12.5h-84q3 11 10 18h82q48 0 70 -24t22 -80v-152h15q213 275 344 275q84 0 84 -129
q0 -60 -22.5 -114t-82.5 -134l-63 -84q-67 -90 -93 -134t-26 -73q0 -51 55 -51q29 0 58.5 15.5t54 36.5t59.5 64.5t58.5 77.5t66.5 97l56 82q13 10 20 0l-55 -82q-50 -75 -80 -116.5t-74.5 -92.5t-85 -74.5t-80.5 -23.5z" />
    <glyph glyph-name="o" unicode="o" horiz-adv-x="595" 
d="M121 -14q-45 0 -76.5 32.5t-44 74t-12.5 85.5q0 105 41.5 205.5t106.5 172t147 115.5t161 44q117 0 117 -133q0 -138 -100 -306q-71 -119 -166 -204.5t-174 -85.5zM121 4q70 0 151.5 84t153.5 209q111 196 111 303q0 45 -18.5 70.5t-51.5 25.5q-52 0 -130 -78.5
t-151 -193.5q-58 -94 -94.5 -185.5t-36.5 -154.5q0 -80 66 -80z" />
    <glyph glyph-name="p" unicode="p" horiz-adv-x="821" 
d="M-260 -696q-59 0 -89 39.5t-30 95.5q0 138 150 377l755 1210h131l-802 -1284q-131 -208 -164 -270.5t-33 -92.5q2 -29 18.5 -43.5t53.5 -15.5l573 952q259 443 373 443q61 0 65 -103q2 -67 -27.5 -137t-107.5 -166l-45 -55q-45 -55 -65.5 -81.5t-38 -59.5t-17.5 -56
q0 -28 17.5 -41.5t44.5 -13.5q59 0 117 60.5t167 220.5l52 75q10 7 20 0l-51 -75q-113 -165 -175.5 -231t-129.5 -66q-45 0 -73 33.5t-28 97.5t29 127t94 143l41 49q20 25 44.5 54.5t36.5 44.5t26.5 33.5t21 28.5t12.5 22t7.5 21t1.5 19q0 41 -43 41q-97 0 -348 -428z" />
    <glyph glyph-name="q" unicode="q" horiz-adv-x="700" 
d="M35 -696q-51 0 -72.5 37t-21.5 92q0 77 33 152t132 237l289 463h-10q-105 -160 -178.5 -234t-132.5 -74q-53 0 -84 54.5t-31 130.5q0 131 90 272q83 130 209.5 205.5t269.5 75.5q52 0 119 -15q89 0 125 11h4l-557 -893q-109 -174 -164.5 -269t-68.5 -126t-13 -50
q0 -53 70 -53h16q122 195 341.5 539.5t322.5 509.5q12 8 20 0q-112 -178 -335 -529t-340 -536h-33zM373 301l157 246l84 131q-29 20 -86 20q-95 0 -173.5 -68.5t-176.5 -215.5q-69 -102 -111 -197.5t-42 -157.5q0 -29 14 -46t39 -17q98 0 295 305z" />
    <glyph glyph-name="r" unicode="r" horiz-adv-x="587" 
d="M606 354q-119 0 -176.5 34t-62.5 91l-33 -49l-105 -162l-174 -268h-143l297 469q72 112 72 156q0 28 -15 40.5t-53 12.5h-84q3 11 10 18h82q48 0 70 -24t22 -80v-152h4l54 84q15 71 71 131t123 60h64l-72 -117h-135q-35 -48 -35 -109q0 -60 55.5 -87t175.5 -27h23
q2 -5 -2 -11.5t-10 -9.5h-23z" />
    <glyph glyph-name="s" unicode="s" horiz-adv-x="512" 
d="M96 -14q-80 0 -128 44.5t-48 121.5q0 55 23.5 106.5t66.5 116.5h88l-8 -17q-81 -61 -131 -114q-20 -41 -20 -92q0 -59 30 -98.5t84 -39.5q148 0 189 336q1 9 5.5 47.5t6.5 53t8 46.5t12 50.5t16 42.5t23 43q59 86 160 86q44 0 78 -10l-41 -74q-2 2 -13 10t-14.5 10.5
t-13 9t-15.5 9t-14.5 6t-16.5 5t-17 1.5q-79 0 -70 -137l10 -199q2 -81 -11.5 -145t-37.5 -104t-57.5 -66.5t-69 -37.5t-74.5 -11z" />
    <glyph glyph-name="t" unicode="t" horiz-adv-x="419" 
d="M72 -14q-111 0 -111 147q0 96 34 176.5t116 208.5l219 336l-13 27h-106l14 18h133l115 178q105 0 152 58h24l-149 -236h229l-14 -18h-228l-325 -512q-14 -22 -36 -57.5t-32 -51t-26 -41.5t-22.5 -38.5t-15.5 -31t-12.5 -30.5t-6.5 -25.5t-3 -25.5q0 -64 68 -64
q128 0 317 289l49 76q14 7 21 0l-51 -78q-42 -64 -78.5 -112t-81 -95.5t-90.5 -72.5t-90 -25z" />
    <glyph glyph-name="u" unicode="u" horiz-adv-x="802" 
d="M84 -16q-43 0 -69.5 37t-26.5 110t38 158.5t128 218.5l106 158l-6 12h-86q-4 11 10 18h225l5 -22l-185 -275q-126 -187 -159 -244t-33 -96q0 -57 53 -57q77 0 170.5 103.5t208.5 287.5l170 273l-6 12h-78q0 10 10 18h223l4 -22l-231 -365q-88 -139 -111.5 -182.5
t-23.5 -73.5q0 -53 55 -53q34 0 68 19t73 62.5t71.5 87t82.5 118.5l55 82q14 11 21 0l-55 -82q-49 -74 -79.5 -115.5t-74 -91.5t-83 -73t-79.5 -23q-92 0 -92 135q0 57 10 125h-10q-78 -116 -156.5 -188t-142.5 -72z" />
    <glyph glyph-name="v" unicode="v" horiz-adv-x="616" 
d="M119 -14q-92 0 -92 141q0 143 100 293l59 88q88 130 88 151q0 19 -26 19h-109q-3 8 8 18h111q38 0 58 -27.5t20 -70.5q0 -78 -92 -211l-58 -84q-65 -96 -90.5 -147t-25.5 -93q0 -61 51 -61q65 0 158 79.5t165 182.5q109 155 109 283q0 55 -22.5 93t-75.5 38h-4l10 18h291
q0 -4 -9 -18h-120q4 -32 4 -49q0 -154 -158 -365q-85 -115 -182 -196.5t-168 -81.5z" />
    <glyph glyph-name="w" unicode="w" horiz-adv-x="946" 
d="M111 -14q-41 0 -63.5 36.5t-22.5 108.5q0 134 110 303l47 72q16 24 35 52t27.5 40.5t17 26.5t11.5 22t3 15q0 16 -22 16h-117q4 11 13 18h440q82 0 82 -90q0 -76 -68 -184l-74 -119q-86 -138 -102 -177q-16 -38 -16 -67q0 -57 45 -57q62 0 152.5 81t166.5 189
q105 149 105 275q0 55 -23 93t-78 38h-4l10 18h293q0 -10 -10 -18h-131q4 -24 4 -47q0 -156 -147 -365q-86 -122 -180.5 -201t-161.5 -79q-76 0 -76 141q0 45 8 102h-12q-167 -243 -262 -243zM111 2q59 0 142 96.5t191 270.5l76 120q4 6 11 17q51 79 69 110t18 46
q0 16 -24 16h-299q31 -17 31 -76q0 -93 -90 -219l-60 -84q-63 -88 -88 -140t-25 -96q0 -61 48 -61z" />
    <glyph glyph-name="x" unicode="x" horiz-adv-x="733" 
d="M-29 -14q-82 0 -82 100q0 21 4 43t9 39.5t16.5 40.5l18 36t22 37t21.5 32.5t23 32.5t20 28h88l-7 -15q-95 -75 -141 -116q-53 -80 -53 -160t63 -80q53 0 123 63.5t140 176.5l129 205q90 143 90 198q0 49 -56 49q-111 0 -256 -209q-12 0 -16 11q150 217 276 217
q49 0 74 -33t25 -90q0 -41 -17 -111h11q29 44 42 62t39.5 53t44.5 50.5t44 34.5t53 26.5t57 7.5q21 0 39 -6l-37 -64q-48 31 -59 31q-73 0 -197 -197l-125 -196q-78 -124 -78 -191q0 -42 21.5 -65t60.5 -23q67 0 142 72t168 221l45 72q10 7 20 0l-49 -78
q-99 -158 -177 -231.5t-151 -73.5q-72 0 -107.5 57.5t-35.5 134.5q0 29 2 43h-12q-154 -235 -275 -235z" />
    <glyph glyph-name="y" unicode="y" horiz-adv-x="782" 
d="M-317 -713q-101 0 -101 99q0 48 25 103.5t77 118.5t142 132t209 133l196 107l162 264h-8q-74 -107 -153 -175.5t-140 -68.5q-43 0 -68.5 36.5t-25.5 106.5q0 76 36 159t120 206l106 158l-6 12h-88q-4 11 10 18h230l4 -22l-177 -258q-118 -174 -155 -238t-37 -106
q0 -54 55 -54q40 0 85.5 29t93.5 84t92.5 117.5t95.5 144.5l170 273l-6 12h-78q0 10 10 18h223l4 -22l-231 -365l-180 -291q58 28 87.5 42.5t74 39.5t71.5 47t62.5 55t67.5 73.5t67 93.5q13 10 20 0q-41 -66 -84 -116.5t-78.5 -83t-92 -66.5t-93.5 -52.5t-115 -54.5l-49 -78
q-36 -59 -65.5 -105t-77.5 -115t-89.5 -121t-95 -109.5t-101 -94.5t-100.5 -61.5t-101 -24.5zM-395 -610q-2 -38 14 -61t51 -23q86 0 211 152t336 497l-174 -94q-116 -62 -203.5 -130.5t-136.5 -130.5t-72.5 -114t-25.5 -96z" />
    <glyph glyph-name="z" unicode="z" horiz-adv-x="579" 
d="M-354 -705q-88 5 -88 93q0 240 647 589q26 80 26 134q0 98 -69 98q-53 0 -101 -59l-41 -52l-32 31l555 475h-377l59 92h424l13 15l10 -17l-555 -477l4 -2q42 29 92 29q129 0 129 -152q0 -90 -47.5 -203t-125 -217t-168 -191.5t-186 -138.5t-169.5 -47zM-424 -610
q0 -36 16.5 -57t47.5 -21q72 0 186 103t217.5 253.5t153.5 284.5q-621 -336 -621 -563z" />
    <glyph glyph-name="braceleft" unicode="{" horiz-adv-x="829" 
d="M264 -365q-101 21 -154 81.5t-53 146.5q0 52 19 107t55.5 111t69 96.5t80.5 94.5q13 15 55.5 61.5t58.5 66t41.5 54.5t35 62.5t9.5 54.5q0 43 -25.5 74t-72.5 31h-170l14 20h154q39 0 75.5 14t66 36t60.5 58t53.5 70t50 83.5t45.5 86.5t44.5 91t42.5 86q203 407 500 407
l-8 -20q-51 0 -97.5 -22.5t-83 -60.5t-71 -89.5t-64.5 -107.5t-60 -116q-15 -30 -22 -45q-226 -447 -467 -483v-4q91 -32 91 -131q0 -48 -20.5 -103t-59 -112t-67 -93.5t-71.5 -86.5q-108 -125 -144 -179q-58 -90 -58 -157q0 -60 43.5 -104t115.5 -62z" />
    <glyph glyph-name="bar" unicode="|" horiz-adv-x="643" 
d="M-100 -309l1136 1843h35l-1137 -1843h-34z" />
    <glyph glyph-name="braceright" unicode="}" horiz-adv-x="831" 
d="M-207 -344q51 0 95.5 21.5t75.5 48t71.5 89.5t63.5 105.5t70 135.5q18 36 28 55q49 95 88 165.5t94 152.5t105 135t111.5 90.5t121.5 41.5v2q-76 28 -76 123q0 81 50 163t130 169q6 6 31 33.5t33 36.5t29.5 34t29.5 37.5t23 35t21 38.5t11 36t5 38q0 63 -48 107.5
t-129 62.5l13 16q207 -45 207 -235q0 -84 -41 -159.5t-125 -172.5q-10 -12 -32 -37t-32.5 -37t-29 -34.5t-28.5 -35t-24 -31.5t-21 -32.5t-14.5 -29t-10.5 -29t-3 -25.5q0 -38 30 -56t75 -18h94l-13 -20h-141q-40 0 -76 -16t-68.5 -50t-58.5 -71t-56.5 -96t-52.5 -107
t-56 -121.5t-58 -122.5q-36 -73 -69 -129.5t-83 -121.5t-101.5 -107t-121 -70.5t-145.5 -28.5z" />
    <glyph glyph-name="asciitilde" unicode="~" horiz-adv-x="1142" 
d="M856 389q-46 0 -93.5 20.5t-87.5 50.5t-79.5 59.5t-83.5 50t-84 20.5q-60 0 -102 -42t-74 -126l-25 12q41 99 98.5 152t143.5 53q45 0 91.5 -20.5t86.5 -50.5t79 -59.5t84 -50t87 -20.5q74 0 127 50.5t94 146.5l25 -12q-102 -234 -287 -234z" />
    <glyph glyph-name="exclamdown" unicode="&#xa1;" horiz-adv-x="446" 
d="M168 295l-535 -991h-137l656 991h16zM430 711l-86 -138h-111l86 138h111z" />
    <glyph glyph-name="cent" unicode="&#xa2;" horiz-adv-x="692" 
d="M309 211q-27 0 -47 10l-151 -221h-27l160 231q-60 43 -60 160q0 124 82 252q70 105 168.5 161t177.5 56q34 0 58 -6l151 221h25l-156 -227q10 -3 62 -29l-37 -51q-27 33 -45 49l-400 -584q15 -6 37 -6q66 0 149 76t197 248q7 5 15 5t8 -5q-224 -340 -367 -340zM244 289
q0 -24 10 -41l397 581q-18 11 -39 11q-93 0 -225 -215q-63 -100 -103 -192t-40 -144z" />
    <glyph glyph-name="sterling" unicode="&#xa3;" horiz-adv-x="1212" 
d="M82 -29q-94 0 -135 33t-41 74q0 47 52.5 77.5t137.5 26.5q87 -5 207 -61q67 74 143 223h-303l13 21h301q19 41 55 118.5t53 112.5q259 537 494 537q68 0 107.5 -42t33.5 -110q-8 -96 -82 -187t-172 -151l-12 49q96 55 166 131.5t80 155.5q6 57 -22.5 94t-80.5 37
q-23 0 -44.5 -7.5t-43 -26t-39 -37t-38.5 -53t-36 -61t-38 -74.5t-37.5 -79.5t-41 -90.5t-42.5 -93q-65 -142 -113 -223h350l-12 -21h-348q-100 -168 -213 -260q160 -78 291 -78q151 0 248.5 86t142.5 273l31 -9q-91 -370 -422 -370q-86 0 -156 22t-151 64
q-132 -101 -283 -101zM-72 80q0 -33 34.5 -59.5t98.5 -26.5q126 0 230 112q-112 53 -197 58q-84 4 -125 -20t-41 -64z" />
    <glyph glyph-name="currency" unicode="&#xa4;" horiz-adv-x="768" 
d="M340 238q-84 0 -115 61l-182 -137l-16 20l190 144q-19 76 35 182q55 104 149 176l-41 141l25 9l39 -134q94 64 174 64q83 0 115 -62l182 138l16 -21l-188 -143q20 -77 -35 -180q-53 -109 -151 -181l41 -139l-25 -8l-39 131q-89 -61 -174 -61zM340 262q83 0 176 70
t148 176q51 100 30 165.5t-96 65.5q-81 0 -175 -69.5t-147 -173.5q-52 -101 -31.5 -167.5t95.5 -66.5z" />
    <glyph glyph-name="yen" unicode="&#xa5;" horiz-adv-x="1196" 
d="M643 498l14 22h-133q-81 0 -138.5 16.5t-87.5 44.5t-43 59t-13 67q0 89 78 183t198 155t234 61q84 0 130 -43.5t46 -147.5q0 -151 -137 -364h10q175 272 369 439t368 167l-18 -33q-86 0 -180.5 -47t-185.5 -131t-174 -184.5t-163 -220.5h266l-14 -21h-266l-47 -74h286
l-12 -20h-287l-211 -336l-126 -70h286l-14 -20h-539l13 20h192l254 406h-305l12 20h305zM260 707q0 -166 264 -166h146q59 93 85.5 136.5t61.5 108.5t48.5 110.5t13.5 86.5q0 104 -134 104q-109 0 -223 -56.5t-188 -146t-74 -177.5z" />
    <glyph glyph-name="brokenbar" unicode="&#xa6;" horiz-adv-x="643" 
d="M-100 -309l426 692h34l-426 -692h-34zM637 885l399 649h35l-399 -649h-35z" />
    <glyph glyph-name="section" unicode="&#xa7;" horiz-adv-x="774" 
d="M-295 -158q45 0 87 10.5t77.5 28t71 48t64.5 62t60.5 79t56.5 89t55.5 103t54 111t55.5 121.5l116 258q103 227 224 343.5t288 116.5q227 416 478 416l-11 -18q-42 0 -78.5 -9.5t-68.5 -31t-58 -45.5t-53 -65t-47.5 -76.5t-47 -92.5t-45.5 -100t-49 -113t-52 -119
l-117 -258q-105 -232 -228 -348t-294 -112q-76 -120 -158.5 -209.5t-185.5 -148t-205 -58.5zM256 258q51 0 94 13t81 44t68 65.5t62.5 92.5t57 107.5t59.5 128.5l119 262q52 117 108 223q-43 -1 -81 -13.5t-68 -30.5t-61 -52.5t-53 -65.5t-51 -85t-48.5 -94.5t-50.5 -109.5
l-119 -262q-42 -93 -117 -223z" />
    <glyph glyph-name="copyright" unicode="&#xa9;" horiz-adv-x="1032" 
d="M303 -59q90 0 196 65t203.5 169.5t189 240t158.5 273.5t107 272.5t39 234.5q0 199 -158 199q-93 0 -202 -56t-211.5 -148t-199 -215t-168.5 -253.5t-115.5 -267.5t-43.5 -252q0 -124 53 -193t152 -69zM303 -84q-111 0 -170 76.5t-59 210.5q0 118 44 258t117.5 273
t172 258.5t203.5 219.5t218 150.5t209 56.5q92 0 137.5 -59.5t45.5 -163.5q1 -102 -40 -239t-109 -278t-162 -279t-194 -245t-209.5 -173t-203.5 -66zM436 215q76 0 176.5 103.5t268.5 355.5q1 7 -7 7q-11 2 -20 -7q-162 -243 -253 -338.5t-161 -95.5q-76 0 -57 102
q8 54 45.5 134t69 133.5t100.5 164.5q92 146 155.5 218.5t108.5 72.5q25 0 40.5 -26t27.5 -74l47 82q-41 38 -100 38q-111 0 -227.5 -94t-199 -237.5t-106.5 -288.5q-8 -66 -5.5 -121.5t27.5 -92t70 -36.5z" />
    <glyph glyph-name="ordfeminine" unicode="&#xaa;" horiz-adv-x="718" 
d="M430 692q-40 0 -60 38.5t-20 90.5q0 87 56 176t143.5 138t183.5 49q35 0 90 -10h76l-172 -271q-54 -85 -68 -113t-14 -51q0 -30 35 -30q70 0 194 194l33 51h21l-35 -53q-78 -119 -126.5 -164t-88.5 -45q-70 0 -70 84q0 32 19 80h-13q-115 -164 -184 -164zM215 623l14 18
h559l-14 -18h-559zM434 709q66 0 195 198l168 256q-30 6 -62 6q-61 0 -116.5 -45.5t-118.5 -146.5q-99 -158 -99 -227q0 -41 33 -41z" />
    <glyph glyph-name="guillemotleft" unicode="&#xab;" horiz-adv-x="923" 
d="M434 137q-122 168 -219 260l16 29q310 152 422 225l6 -14q-217 -139 -358 -219l141 -273zM659 117q-122 168 -219 260l17 29q310 152 422 225l6 -15q-209 -135 -359 -219l142 -272z" />
    <glyph glyph-name="logicalnot" unicode="&#xac;" horiz-adv-x="1232" 
d="M881 98v385h-697v29h729v-414h-32z" />
    <glyph glyph-name="registered" unicode="&#xae;" horiz-adv-x="1130" 
d="M784 686q-118 0 -181 60.5t-66 166.5q-3 91 38 186t111.5 170t172 123t210.5 48q120 0 182.5 -59t65.5 -154q4 -88 -38 -184t-113.5 -175t-173.5 -130.5t-208 -51.5zM623 879l10 16h63l252 403h-74l9 17h180q61 0 95 -20.5t34 -53.5q0 -50 -54 -74t-134 -24v-4
q35 -4 53 -23t18 -47q0 -32 -24 -82l-25 -45q-16 -31 -16 -39q0 -14 24 -14q17 0 37 4l-8 -16q-25 -5 -37 -5q-33 0 -55.5 15.5t-22.5 46.5q0 23 29 80q1 3 8.5 16.5t10.5 19.5t7.5 17t6.5 20t2 17q0 17 -12.5 24t-43.5 7h-26l-127 -207l-70 -33h133l-8 -16h-235zM784 707
q102 0 200 49.5t166.5 125.5t109 168.5t36.5 176.5q-3 88 -59 140t-168 52q-139 0 -260.5 -77t-188.5 -193.5t-63 -235.5q3 -97 60 -151.5t167 -54.5zM940 1151h25q72 0 116.5 28t44.5 74q0 45 -63 45h-31z" />
    <glyph glyph-name="degree" unicode="&#xb0;" horiz-adv-x="544" 
d="M586 756q-80 0 -137.5 57.5t-57.5 138.5q0 80 58 138.5t137 58.5q81 0 139.5 -58.5t58.5 -138.5q0 -82 -58 -139t-140 -57zM586 782q72 0 122 49t50 121q0 71 -50 120.5t-122 49.5q-70 0 -119 -49.5t-49 -120.5q0 -72 48.5 -121t119.5 -49z" />
    <glyph glyph-name="plusminus" unicode="&#xb1;" horiz-adv-x="1032" 
d="M594 324v344h-369v28h369v344h33v-344h366v-28h-366v-344h-33zM209 209v29h809v-29h-809z" />
    <glyph glyph-name="uni00B2" unicode="&#xb2;" horiz-adv-x="530" 
d="M764 858q-28 0 -54 17.5t-43 38t-39 38t-42 17.5q-49 0 -49 -84v-21h-70q48 99 107 150.5t153 97.5q77 37 104 61q50 46 50 117q0 103 -82 103q-44 0 -76.5 -28t-32.5 -73q0 -39 29 -71l-51 -29q-38 75 10.5 146t152.5 71q64 0 99 -29t35 -80q0 -36 -16.5 -65t-47 -50.5
t-59 -36.5t-66.5 -32q-7 -3 -10 -4q-51 -23 -80.5 -38t-63.5 -40t-53 -53q9 6 27 6q21 0 75 -25.5t107 -25.5q41 0 64 13.5t41 45.5l30 54q12 4 15 -5l-31 -55q-39 -70 -68.5 -100.5t-64.5 -30.5z" />
    <glyph glyph-name="uni00B3" unicode="&#xb3;" horiz-adv-x="450" 
d="M418 895l31 -2q92 0 176 36t132.5 92.5t45.5 115.5q-1 33 -21.5 50t-50.5 17q-19 0 -35 -8l-43 -45l-18 23l283 180h-252l41 55h301l20 12l10 -12l-311 -192l4 -3q25 5 33 5q43 0 80.5 -24.5t40.5 -76.5q4 -70 -64 -127t-168.5 -85.5t-203.5 -28.5h-19z" />
    <glyph glyph-name="uni00B5" unicode="&#xb5;" horiz-adv-x="815" 
d="M-47 -696q-201 73 -201 301q0 165 103.5 383.5t310.5 519.5l129 188h147l-270 -401q-75 -114 -100 -162.5t-25 -79.5q0 -49 59 -49q53 0 133 73t183 234l176 279q49 80 53 106h168l-258 -403q-80 -126 -102.5 -168.5t-22.5 -73.5q0 -53 56 -53q59 0 126 65t170 228l50 78
q10 7 20 0l-49 -78q-106 -168 -178.5 -239.5t-136.5 -71.5q-116 0 -91 206q1 10 5.5 32t5.5 32h-11q-97 -146 -171.5 -208t-147.5 -62q-53 0 -85 24.5t-38 63.5q-182 -291 -182 -467q0 -187 201 -254z" />
    <glyph glyph-name="paragraph" unicode="&#xb6;" horiz-adv-x="989" 
d="M-258 -176l33 41h69q79 0 140 11.5t119 47t99.5 71.5t101 116t103 146.5t123.5 195.5l230 368l-10 -10q-170 0 -236 107q-56 90 -15 210q41 122 158 200q118 79 273 79h577l-12 -21h-131l-596 -952q-130 -209 -249.5 -301.5t-260.5 -114.5q-99 -102 -205 -148t-243 -46
h-68zM283 45q130 20 225 104.5t225 292.5l590 944h-166l-596 -952q-169 -270 -278 -389z" />
    <glyph glyph-name="periodcentered" unicode="&#xb7;" horiz-adv-x="378" 
d="M104 340l86 137h111l-86 -137h-111z" />
    <glyph glyph-name="uni00B9" unicode="&#xb9;" horiz-adv-x="569" 
d="M412 877l12 18h182l244 367h-4q-103 -66 -254 -125l-10 18q296 104 426 264l16 -10l-328 -514h187l-13 -18h-458z" />
    <glyph glyph-name="ordmasculine" unicode="&#xba;" horiz-adv-x="595" 
d="M455 692q-43 0 -66.5 42.5t-23.5 103.5q0 66 30.5 131t77 111.5t103 75t108.5 28.5q39 0 58.5 -28t19.5 -73q0 -97 -60 -196l-6 -10q6 -3 13 -3q58 0 129 134l14 -7q-35 -75 -73 -108t-70 -33q-9 0 -21 4q-49 -73 -114.5 -122.5t-118.5 -49.5zM193 623l14 18h510l-15 -18
h-509zM463 709q46 0 106 50.5t103 119.5q-6 9 -6 24q0 30 17.5 71.5t43.5 76.5l10 -4q4 32 4 47q0 33 -10.5 53t-28.5 20q-51 0 -118 -80t-112.5 -176t-45.5 -147q0 -55 37 -55z" />
    <glyph glyph-name="guillemotright" unicode="&#xbb;" horiz-adv-x="925" 
d="M61 154q127 82 353 213l-142 270l9 8q122 -168 219 -260l-17 -29q-178 -65 -422 -225v23zM289 133q137 88 352 213l-141 270l8 9q122 -168 219 -260l-16 -29q-178 -65 -422 -225v22z" />
    <glyph glyph-name="onequarter" unicode="&#xbc;" horiz-adv-x="827" 
d="M195 623q0 9 12 18h301l244 371h-4q-100 -64 -254 -127l-11 18q299 108 426 268l17 -10l-328 -520h315q0 -9 -12 -18h-706zM25 0l12 18h137l100 158l-217 -8l-4 22l516 355h31l-217 -348l92 4l-10 -19l-92 -4l-78 -123l-94 -37h194l-12 -18h-358zM84 190l2 -6l201 9
l157 241h-8z" />
    <glyph glyph-name="onehalf" unicode="&#xbd;" horiz-adv-x="827" 
d="M195 623q0 9 12 18h299l244 371h-5q-63 -40 -113.5 -65.5t-139.5 -61.5l-11 18q299 108 426 268l17 -10l-328 -520h317q0 -9 -12 -18h-706zM432 -6q-28 0 -54 17t-43 38t-39 38t-42 17q-49 0 -49 -84v-20h-70q48 99 107 150.5t153 97.5q77 37 104 61q50 46 50 117
q0 102 -82 102q-44 0 -76.5 -27.5t-32.5 -72.5q0 -40 29 -72l-51 -28q-38 75 11 146t153 71q64 0 98.5 -29t34.5 -80q0 -36 -16.5 -65t-47 -50.5t-59 -36.5t-66.5 -32q-7 -3 -10 -4q-77 -35 -122.5 -63t-73.5 -68q9 6 26 6q21 0 75 -25.5t107 -25.5q41 0 64 13.5t41 45.5
l31 53q11 4 14 -4l-31 -55q-39 -70 -68.5 -100.5t-64.5 -30.5z" />
    <glyph glyph-name="threequarters" unicode="&#xbe;" horiz-adv-x="827" 
d="M358 643l31 -2q92 0 176 36.5t132.5 93.5t45.5 116q-1 35 -21 52t-50 17q-19 0 -35 -8l-43 -47l-19 25l283 180h-252l41 57h301l21 13l10 -13l-311 -194l4 -2q20 4 33 4q43 0 80 -25t40 -78q4 -80 -78 -140t-208 -87h374q0 -9 -12 -18h-706q0 9 12 18h153zM43 0l12 18
h138l100 158l-217 -8l-4 22l516 355h30l-217 -348l93 4l-11 -19l-92 -4l-78 -123l-94 -37h195l-13 -18h-358zM102 190l2 -6l201 9l158 241h-8z" />
    <glyph glyph-name="questiondown" unicode="&#xbf;" horiz-adv-x="747" 
d="M401 303q-36 -92 -81.5 -168t-99.5 -135t-97.5 -97.5t-104.5 -84.5q-17 -13 -54.5 -40t-57 -42t-51.5 -41t-49.5 -44.5t-40 -45t-34 -50.5t-20 -53t-8.5 -59q0 -127 145 -127q89 0 152.5 48t86 133.5t-6.5 203.5l82 33q16 -52 12.5 -104.5t-18.5 -101.5t-47 -92
t-72.5 -74.5t-96.5 -50t-118 -18.5q-127 0 -183.5 60.5t-46.5 144.5q5 47 30 86t70.5 72.5t88.5 58.5t111.5 61.5t111.5 63.5q77 48 130.5 97.5t90.5 108.5t60.5 115.5t48.5 141.5h67zM610 711l-86 -138h-110l86 138h110z" />
    <glyph glyph-name="Agrave" unicode="&#xc0;" horiz-adv-x="1265" 
d="M-625 -311q-124 0 -213 39l-4 30q95 -45 215 -45q90 0 181.5 23t164.5 51.5t169 95t155.5 111.5t165.5 145.5t157 152t170 173.5q31 31 46 47l180 184h-262l18 21h264l705 719h33q102 0 143 47h31l-666 -1055q-22 -36 -50.5 -81.5t-43 -68.5t-33 -53t-26.5 -45t-17.5 -34
t-13 -31t-6 -25.5t-2.5 -26.5q0 -65 71 -65q81 0 155.5 73t186.5 240l39 58q14 11 21 0l-39 -58q-59 -87 -98 -138.5t-86 -100.5t-90.5 -70.5t-90.5 -21.5q-35 0 -61 16t-39 41t-19 50t-6 50q0 86 45.5 197.5t163.5 290.5l47 71h-243l-197 -200q-276 -282 -388 -384
q-282 -260 -505 -354q-164 -69 -328 -69zM1692 1540l-373 123l27 55l350 -166zM813 717h238l456 694h-16z" />
    <glyph glyph-name="Aacute" unicode="&#xc1;" horiz-adv-x="1265" 
d="M-625 -311q-124 0 -213 39l-4 30q95 -45 215 -45q90 0 181.5 23t164.5 51.5t169 95t155.5 111.5t165.5 145.5t157 152t170 173.5q31 31 46 47l180 184h-262l18 21h264l705 719h33q102 0 143 47h31l-666 -1055q-22 -36 -50.5 -81.5t-43 -68.5t-33 -53t-26.5 -45t-17.5 -34
t-13 -31t-6 -25.5t-2.5 -26.5q0 -65 71 -65q81 0 155.5 73t186.5 240l39 58q14 11 21 0l-39 -58q-59 -87 -98 -138.5t-86 -100.5t-90.5 -70.5t-90.5 -21.5q-35 0 -61 16t-39 41t-19 50t-6 50q0 86 45.5 197.5t163.5 290.5l47 71h-243l-197 -200q-276 -282 -388 -384
q-282 -260 -505 -354q-164 -69 -328 -69zM1591 1540l-4 12l367 172l10 -61zM813 717h238l456 694h-16z" />
    <glyph glyph-name="Acircumflex" unicode="&#xc2;" horiz-adv-x="1265" 
d="M-625 -311q-124 0 -213 39l-4 30q95 -45 215 -45q90 0 181.5 23t164.5 51.5t169 95t155.5 111.5t165.5 145.5t157 152t170 173.5q31 31 46 47l180 184h-262l18 21h264l705 719h33q102 0 143 47h31l-666 -1055q-22 -36 -50.5 -81.5t-43 -68.5t-33 -53t-26.5 -45t-17.5 -34
t-13 -31t-6 -25.5t-2.5 -26.5q0 -65 71 -65q81 0 155.5 73t186.5 240l39 58q14 11 21 0l-39 -58q-59 -87 -98 -138.5t-86 -100.5t-90.5 -70.5t-90.5 -21.5q-35 0 -61 16t-39 41t-19 50t-6 50q0 86 45.5 197.5t163.5 290.5l47 71h-243l-197 -200q-276 -282 -388 -384
q-282 -260 -505 -354q-164 -69 -328 -69zM1427 1534l-6 12l322 189h18l33 -197h-16l-62 135zM813 717h238l456 694h-16z" />
    <glyph glyph-name="Atilde" unicode="&#xc3;" horiz-adv-x="1265" 
d="M-625 -311q-124 0 -213 39l-4 30q95 -45 215 -45q90 0 181.5 23t164.5 51.5t169 95t155.5 111.5t165.5 145.5t157 152t170 173.5q31 31 46 47l180 184h-262l18 21h264l705 719h33q102 0 143 47h31l-666 -1055q-22 -36 -50.5 -81.5t-43 -68.5t-33 -53t-26.5 -45t-17.5 -34
t-13 -31t-6 -25.5t-2.5 -26.5q0 -65 71 -65q81 0 155.5 73t186.5 240l39 58q14 11 21 0l-39 -58q-59 -87 -98 -138.5t-86 -100.5t-90.5 -70.5t-90.5 -21.5q-35 0 -61 16t-39 41t-19 50t-6 50q0 86 45.5 197.5t163.5 290.5l47 71h-243l-197 -200q-276 -282 -388 -384
q-282 -260 -505 -354q-164 -69 -328 -69zM1737 1511q-31 0 -56 20.5t-39 45t-36 45t-47 20.5q-29 0 -55 -23.5t-81 -92.5l-14 12q75 97 111 130.5t77 33.5q31 0 57.5 -22t42 -48.5t36.5 -48.5t43 -22q36 0 36 45q0 29 -28 65l22 6q23 -41 23 -67q0 -43 -26 -71t-66 -28z
M813 717h238l456 694h-16z" />
    <glyph glyph-name="Adieresis" unicode="&#xc4;" horiz-adv-x="1265" 
d="M-625 -311q-124 0 -213 39l-4 30q95 -45 215 -45q90 0 181.5 23t164.5 51.5t169 95t155.5 111.5t165.5 145.5t157 152t170 173.5q31 31 46 47l180 184h-262l18 21h264l705 719h33q102 0 143 47h31l-666 -1055q-22 -36 -50.5 -81.5t-43 -68.5t-33 -53t-26.5 -45t-17.5 -34
t-13 -31t-6 -25.5t-2.5 -26.5q0 -65 71 -65q81 0 155.5 73t186.5 240l39 58q14 11 21 0l-39 -58q-59 -87 -98 -138.5t-86 -100.5t-90.5 -70.5t-90.5 -21.5q-35 0 -61 16t-39 41t-19 50t-6 50q0 86 45.5 197.5t163.5 290.5l47 71h-243l-197 -200q-276 -282 -388 -384
q-282 -260 -505 -354q-164 -69 -328 -69zM1708 1593l64 103h92l-62 -103h-94zM1538 1593l64 103h90l-62 -103h-92zM813 717h238l456 694h-16z" />
    <glyph glyph-name="Aring" unicode="&#xc5;" horiz-adv-x="1265" 
d="M-625 -311q-124 0 -213 39l-4 30q95 -45 215 -45q90 0 181.5 23t164.5 51.5t169 95t155.5 111.5t165.5 145.5t157 152t170 173.5q31 31 46 47l180 184h-262l18 21h264l705 719h33q102 0 143 47h31l-666 -1055q-22 -36 -50.5 -81.5t-43 -68.5t-33 -53t-26.5 -45t-17.5 -34
t-13 -31t-6 -25.5t-2.5 -26.5q0 -65 71 -65q81 0 155.5 73t186.5 240l39 58q14 11 21 0l-39 -58q-59 -87 -98 -138.5t-86 -100.5t-90.5 -70.5t-90.5 -21.5q-35 0 -61 16t-39 41t-19 50t-6 50q0 86 45.5 197.5t163.5 290.5l47 71h-243l-197 -200q-276 -282 -388 -384
q-282 -260 -505 -354q-164 -69 -328 -69zM1595 1538q-32 0 -52.5 24t-20.5 62q0 55 38 94t97 39q69 0 69 -71q0 -60 -41 -104t-90 -44zM1595 1552q44 0 79.5 40t35.5 96q0 53 -41 53q-40 0 -75 -47.5t-35 -98.5q0 -43 36 -43zM813 717h238l456 694h-16z" />
    <glyph glyph-name="AE" unicode="&#xc6;" horiz-adv-x="1275" 
d="M-829 -311q-109 0 -193 20l-4 31q93 -27 195 -27q131 0 255 36t230 95.5t223 160t216.5 205t228.5 255.5l774 903l-4 18h-441l13 21h1060l-12 -21h-336l-407 -645h217l51 88h27l-134 -225h-26l70 117h-218l-393 -623l-141 -78l366 -2q56 0 106 10t88.5 24.5t78 43.5
t66 53t61 67t55 72t55.5 81q10 7 21 0q-94 -140 -121 -174q-100 -124 -223 -166q-83 -29 -191 -29h-596l13 20h139l453 701h-224l-223 -262q-129 -151 -233 -260t-223.5 -210.5t-229 -163.5t-234.5 -99t-255 -37zM600 756l12 -15h193l397 617l-8 28h-55z" />
    <glyph glyph-name="Ccedilla" unicode="&#xc7;" horiz-adv-x="1245" 
d="M739 -113q-113 0 -175 90.5t-62 241.5q0 284 188 619q-74 9 -136.5 29t-115 52t-82.5 81.5t-30 111.5q0 132 134.5 213.5t403.5 81.5h314q257 197 462 197q63 0 95 -33t32 -90q0 -33 -12 -74h158l-10 -21h-154q-26 -68 -79.5 -141t-137 -146t-184 -131t-231 -96
t-267.5 -43q-108 -191 -171 -374t-63 -320q0 -107 37.5 -163t108.5 -56q188 0 444 365l62 88q10 7 20 0l-61 -90q-243 -358 -445 -388l-10 -8q-59 -42 -59 -69q0 -16 18.5 -60t18.5 -69q0 -30 -27 -52.5t-131 -85.5q-25 -15 -39 -24l-64 -39l-10 18l64 37q69 40 89.5 58.5
t20.5 37.5q0 24 -14 66.5t-14 62.5q0 24 23.5 45t101.5 74v4h-11zM348 1114q0 -59 28.5 -105.5t79 -77t112 -49t134.5 -26.5q181 311 449 530h-289q-259 0 -386.5 -74.5t-127.5 -197.5zM862 852q133 6 258.5 43.5t221.5 93.5t175.5 125.5t130.5 138.5t76 133h-450
q-225 -210 -412 -534zM1296 1407h435q14 38 14 74q0 102 -103 102q-151 0 -346 -176z" />
    <glyph glyph-name="Egrave" unicode="&#xc8;" horiz-adv-x="1523" 
d="M999 -29q-174 0 -364 88q-139 -82 -328 -82q-153 0 -233 45t-80 105q0 48 47.5 80.5t138.5 32.5q26 0 53.5 -3.5t49.5 -7.5t52.5 -14t47.5 -15.5t51 -20.5t47 -21t51.5 -24t49.5 -23q45 45 90.5 110.5t124.5 188.5q-217 41 -330 155.5t-113 263.5q0 82 32.5 162.5
t103 156t171 133t247 92t319.5 34.5h770l-12 -21h-412l-395 -630h225l51 88h27l-133 -226h-27l70 117h-226l-209 -332q-73 -116 -142.5 -196t-149.5 -131q181 -78 340 -78q91 0 165 19.5t132.5 59.5t102.5 89t89 119l53 84q14 7 21 0l-54 -84q-35 -55 -63.5 -93.5t-75 -83.5
t-96.5 -72.5t-122 -46t-157 -18.5zM1628 1513l-373 123l27 56l350 -166zM14 125q0 -47 74.5 -85t204.5 -38q89 0 151.5 21t116.5 69q-6 3 -37.5 18.5t-39.5 19t-36.5 17t-39 17.5t-36.5 14.5t-39.5 14t-37 10.5t-41 9.5t-39 4.5t-41.5 2q-80 0 -120 -29t-40 -65zM375 829
q0 -143 110.5 -253t323.5 -148l537 862l174 96h-293q-170 0 -313 -33.5t-240.5 -89t-166.5 -128.5t-100.5 -150.5t-31.5 -155.5z" />
    <glyph glyph-name="Eacute" unicode="&#xc9;" horiz-adv-x="1523" 
d="M999 -29q-174 0 -364 88q-139 -82 -328 -82q-153 0 -233 45t-80 105q0 48 47.5 80.5t138.5 32.5q26 0 53.5 -3.5t49.5 -7.5t52.5 -14t47.5 -15.5t51 -20.5t47 -21t51.5 -24t49.5 -23q45 45 90.5 110.5t124.5 188.5q-217 41 -330 155.5t-113 263.5q0 82 32.5 162.5
t103 156t171 133t247 92t319.5 34.5h770l-12 -21h-412l-395 -630h225l51 88h27l-133 -226h-27l70 117h-226l-209 -332q-73 -116 -142.5 -196t-149.5 -131q181 -78 340 -78q91 0 165 19.5t132.5 59.5t102.5 89t89 119l53 84q14 7 21 0l-54 -84q-35 -55 -63.5 -93.5t-75 -83.5
t-96.5 -72.5t-122 -46t-157 -18.5zM1528 1513l-4 13l366 172l11 -62zM14 125q0 -47 74.5 -85t204.5 -38q89 0 151.5 21t116.5 69q-6 3 -37.5 18.5t-39.5 19t-36.5 17t-39 17.5t-36.5 14.5t-39.5 14t-37 10.5t-41 9.5t-39 4.5t-41.5 2q-80 0 -120 -29t-40 -65zM375 829
q0 -143 110.5 -253t323.5 -148l537 862l174 96h-293q-170 0 -313 -33.5t-240.5 -89t-166.5 -128.5t-100.5 -150.5t-31.5 -155.5z" />
    <glyph glyph-name="Ecircumflex" unicode="&#xca;" horiz-adv-x="1523" 
d="M999 -29q-174 0 -364 88q-139 -82 -328 -82q-153 0 -233 45t-80 105q0 48 47.5 80.5t138.5 32.5q26 0 53.5 -3.5t49.5 -7.5t52.5 -14t47.5 -15.5t51 -20.5t47 -21t51.5 -24t49.5 -23q45 45 90.5 110.5t124.5 188.5q-217 41 -330 155.5t-113 263.5q0 82 32.5 162.5
t103 156t171 133t247 92t319.5 34.5h770l-12 -21h-412l-395 -630h225l51 88h27l-133 -226h-27l70 117h-226l-209 -332q-73 -116 -142.5 -196t-149.5 -131q181 -78 340 -78q91 0 165 19.5t132.5 59.5t102.5 89t89 119l53 84q14 7 21 0l-54 -84q-35 -55 -63.5 -93.5t-75 -83.5
t-96.5 -72.5t-122 -46t-157 -18.5zM1364 1507l-6 13l321 188h19l33 -197h-17l-61 136zM14 125q0 -47 74.5 -85t204.5 -38q89 0 151.5 21t116.5 69q-6 3 -37.5 18.5t-39.5 19t-36.5 17t-39 17.5t-36.5 14.5t-39.5 14t-37 10.5t-41 9.5t-39 4.5t-41.5 2q-80 0 -120 -29
t-40 -65zM375 829q0 -143 110.5 -253t323.5 -148l537 862l174 96h-293q-170 0 -313 -33.5t-240.5 -89t-166.5 -128.5t-100.5 -150.5t-31.5 -155.5z" />
    <glyph glyph-name="Edieresis" unicode="&#xcb;" horiz-adv-x="1523" 
d="M999 -29q-174 0 -364 88q-139 -82 -328 -82q-153 0 -233 45t-80 105q0 48 47.5 80.5t138.5 32.5q26 0 53.5 -3.5t49.5 -7.5t52.5 -14t47.5 -15.5t51 -20.5t47 -21t51.5 -24t49.5 -23q45 45 90.5 110.5t124.5 188.5q-217 41 -330 155.5t-113 263.5q0 82 32.5 162.5
t103 156t171 133t247 92t319.5 34.5h770l-12 -21h-412l-395 -630h225l51 88h27l-133 -226h-27l70 117h-226l-209 -332q-73 -116 -142.5 -196t-149.5 -131q181 -78 340 -78q91 0 165 19.5t132.5 59.5t102.5 89t89 119l53 84q14 7 21 0l-54 -84q-35 -55 -63.5 -93.5t-75 -83.5
t-96.5 -72.5t-122 -46t-157 -18.5zM1645 1567l63 102h92l-61 -102h-94zM1475 1567l63 102h90l-61 -102h-92zM14 125q0 -47 74.5 -85t204.5 -38q89 0 151.5 21t116.5 69q-6 3 -37.5 18.5t-39.5 19t-36.5 17t-39 17.5t-36.5 14.5t-39.5 14t-37 10.5t-41 9.5t-39 4.5t-41.5 2
q-80 0 -120 -29t-40 -65zM375 829q0 -143 110.5 -253t323.5 -148l537 862l174 96h-293q-170 0 -313 -33.5t-240.5 -89t-166.5 -128.5t-100.5 -150.5t-31.5 -155.5z" />
    <glyph glyph-name="Igrave" unicode="&#xcc;" horiz-adv-x="761" 
d="M-238 0l13 20h272l793 1270l174 96h-379l12 21h694l-12 -21h-262l-809 -1292l-133 -74h352l-12 -20h-703zM1143 1513l-373 123l27 56l350 -166z" />
    <glyph glyph-name="Iacute" unicode="&#xcd;" horiz-adv-x="761" 
d="M-238 0l13 20h272l793 1270l174 96h-379l12 21h694l-12 -21h-262l-809 -1292l-133 -74h352l-12 -20h-703zM1042 1513l-4 13l367 172l10 -62z" />
    <glyph glyph-name="Icircumflex" unicode="&#xce;" horiz-adv-x="761" 
d="M-238 0l13 20h272l793 1270l174 96h-379l12 21h694l-12 -21h-262l-809 -1292l-133 -74h352l-12 -20h-703zM879 1507l-7 13l322 188h18l33 -197h-16l-62 136z" />
    <glyph glyph-name="Idieresis" unicode="&#xcf;" horiz-adv-x="761" 
d="M-238 0l13 20h272l793 1270l174 96h-379l12 21h694l-12 -21h-262l-809 -1292l-133 -74h352l-12 -20h-703zM1159 1567l64 102h92l-62 -102h-94zM989 1567l64 102h90l-62 -102h-92z" />
    <glyph glyph-name="Eth" unicode="&#xd0;" horiz-adv-x="1826" 
d="M193 0l12 20h327l299 478h-14q-211 0 -327.5 115t-116.5 302q0 99 37 200t110.5 193t173 163.5t235 114t285.5 42.5q346 0 521 -221h442l-12 -21h-414q123 -167 123 -401q0 -123 -34.5 -244.5t-97.5 -230.5t-156.5 -202.5t-206.5 -162t-253 -107t-290 -38.5h-643z
M764 754l14 20h228l323 518l211 115h152q-133 201 -478 201q-154 0 -289 -42.5t-230 -113t-164 -161t-102.5 -187t-33.5 -189.5q0 -179 109.5 -288t314.5 -109h25l147 236h-227zM608 20h250q151 0 293 69t251 184t191.5 258.5t126 298.5t43.5 298q0 155 -59 258h-148
l-382 -612h262l-15 -20h-260l-413 -660z" />
    <glyph glyph-name="Ntilde" unicode="&#xd1;" horiz-adv-x="1748" 
d="M176 -90q-137 0 -216 72.5t-79 210.5q0 153 97.5 279.5t268.5 207.5t392 108q24 106 65.5 194t93.5 151t117.5 111.5t133 79t145 49.5t149.5 26.5t150 7.5h711q235 219 497 219q88 0 174 -27l-8 -24q-83 27 -168 27q-106 0 -205.5 -36.5t-186.5 -102.5t-169 -153.5
t-160.5 -195.5t-153.5 -220.5t-156 -237t-159.5 -237.5t-172.5 -228.5t-187 -204.5l-21 16q24 27 43.5 53t35.5 59.5t27.5 57t23 67t17.5 67t15.5 80t13.5 82.5t14 98t15 104l8 55q28 186 92.5 328.5t182.5 253.5h-6q-41 -30 -80 -64t-81.5 -82.5t-69 -79.5t-73.5 -96.5
t-63.5 -89.5t-69.5 -103t-63 -94q-98 -144 -181 -254t-179.5 -214.5t-186 -171.5t-189 -107.5t-198.5 -40.5zM2128 1485q-31 0 -56 20.5t-39 45t-36 45t-47 20.5q-29 0 -54 -23t-81 -94l-15 12q74 96 111 130t78 34q31 0 57.5 -22t41.5 -48.5t36 -48.5t43 -22q37 0 37 45
q0 29 -29 66l23 6q22 -39 22 -68q0 -43 -26 -70.5t-66 -27.5zM-98 195q0 -131 72 -197t202 -66q207 0 419 178t488 588l56 82h-289q-269 0 -485 -74t-339.5 -208t-123.5 -303zM664 791q102 10 186 10h303q51 76 81.5 120.5t79.5 112t89 112t90.5 94t103.5 85.5t109 61h-213
q-698 0 -829 -595zM1257 135h5q94 109 195.5 251.5t187.5 274.5t172.5 263.5t180.5 253.5t183 208h-436q-58 -45 -99 -102t-66.5 -128t-40 -139.5t-26.5 -164.5l-8 -68q-24 -196 -83.5 -350t-164.5 -299z" />
    <glyph glyph-name="Ograve" unicode="&#xd2;" horiz-adv-x="1333" 
d="M496 -113q-100 0 -171 64.5t-101.5 164t-26.5 218.5q6 154 57 312.5t134.5 297.5t196 261.5t237 210t262 138t266.5 50.5q130 0 185 -70t50 -184q-3 -112 -61 -255t-160 -290q-53 -155 -143.5 -310t-200.5 -282q136 6 207.5 39.5t128.5 116.5q12 8 20 0
q-44 -65 -85.5 -99.5t-110 -53.5t-179.5 -23q-128 -142 -259 -224t-246 -82zM1485 1671l-373 123l27 55l350 -166zM305 190q-9 -280 195 -280q107 0 229 74.5t242 205.5h-74h-367l9 21q230 60 436 221t356 373q51 142 60 274q7 92 -8.5 158t-49.5 101.5t-75.5 51t-94.5 15.5
q-188 0 -383.5 -180.5t-330.5 -470.5q-135 -300 -144 -564zM657 211h244l88 2q199 224 314 510q-129 -164 -294.5 -294.5t-349.5 -201.5zM709 1178q109 118 227 182.5t231 64.5q124 0 192 -80t62 -245q-3 -93 -32 -213q168 269 174 465q3 103 -46 167t-165 64
q-156 0 -324.5 -109t-318.5 -296z" />
    <glyph glyph-name="Oacute" unicode="&#xd3;" horiz-adv-x="1333" 
d="M496 -113q-100 0 -171 64.5t-101.5 164t-26.5 218.5q6 154 57 312.5t134.5 297.5t196 261.5t237 210t262 138t266.5 50.5q130 0 185 -70t50 -184q-3 -112 -61 -255t-160 -290q-53 -155 -143.5 -310t-200.5 -282q136 6 207.5 39.5t128.5 116.5q12 8 20 0
q-44 -65 -85.5 -99.5t-110 -53.5t-179.5 -23q-128 -142 -259 -224t-246 -82zM1384 1671l-4 12l367 172l10 -61zM305 190q-9 -280 195 -280q107 0 229 74.5t242 205.5h-74h-367l9 21q230 60 436 221t356 373q51 142 60 274q7 92 -8.5 158t-49.5 101.5t-75.5 51t-94.5 15.5
q-188 0 -383.5 -180.5t-330.5 -470.5q-135 -300 -144 -564zM657 211h244l88 2q199 224 314 510q-129 -164 -294.5 -294.5t-349.5 -201.5zM709 1178q109 118 227 182.5t231 64.5q124 0 192 -80t62 -245q-3 -93 -32 -213q168 269 174 465q3 103 -46 167t-165 64
q-156 0 -324.5 -109t-318.5 -296z" />
    <glyph glyph-name="Ocircumflex" unicode="&#xd4;" horiz-adv-x="1333" 
d="M496 -113q-100 0 -171 64.5t-101.5 164t-26.5 218.5q6 154 57 312.5t134.5 297.5t196 261.5t237 210t262 138t266.5 50.5q130 0 185 -70t50 -184q-3 -112 -61 -255t-160 -290q-53 -155 -143.5 -310t-200.5 -282q136 6 207.5 39.5t128.5 116.5q12 8 20 0
q-44 -65 -85.5 -99.5t-110 -53.5t-179.5 -23q-128 -142 -259 -224t-246 -82zM1221 1665l-7 12l322 189h18l33 -197h-16l-62 135zM305 190q-9 -280 195 -280q107 0 229 74.5t242 205.5h-74h-367l9 21q230 60 436 221t356 373q51 142 60 274q7 92 -8.5 158t-49.5 101.5
t-75.5 51t-94.5 15.5q-188 0 -383.5 -180.5t-330.5 -470.5q-135 -300 -144 -564zM657 211h244l88 2q199 224 314 510q-129 -164 -294.5 -294.5t-349.5 -201.5zM709 1178q109 118 227 182.5t231 64.5q124 0 192 -80t62 -245q-3 -93 -32 -213q168 269 174 465q3 103 -46 167
t-165 64q-156 0 -324.5 -109t-318.5 -296z" />
    <glyph glyph-name="Otilde" unicode="&#xd5;" horiz-adv-x="1333" 
d="M496 -113q-100 0 -171 64.5t-101.5 164t-26.5 218.5q6 154 57 312.5t134.5 297.5t196 261.5t237 210t262 138t266.5 50.5q130 0 185 -70t50 -184q-3 -112 -61 -255t-160 -290q-53 -155 -143.5 -310t-200.5 -282q136 6 207.5 39.5t128.5 116.5q12 8 20 0
q-44 -65 -85.5 -99.5t-110 -53.5t-179.5 -23q-128 -142 -259 -224t-246 -82zM1530 1642q-31 0 -56 20.5t-39 45.5t-36 45.5t-47 20.5q-29 0 -54 -23t-81 -94l-15 12q74 96 111 130t78 34q31 0 57.5 -22t41.5 -48.5t36 -48.5t43 -22q37 0 37 45q0 28 -29 65l22 6
q23 -41 23 -67q0 -43 -26 -71t-66 -28zM305 190q-9 -280 195 -280q107 0 229 74.5t242 205.5h-74h-367l9 21q230 60 436 221t356 373q51 142 60 274q7 92 -8.5 158t-49.5 101.5t-75.5 51t-94.5 15.5q-188 0 -383.5 -180.5t-330.5 -470.5q-135 -300 -144 -564zM657 211h244
l88 2q199 224 314 510q-129 -164 -294.5 -294.5t-349.5 -201.5zM709 1178q109 118 227 182.5t231 64.5q124 0 192 -80t62 -245q-3 -93 -32 -213q168 269 174 465q3 103 -46 167t-165 64q-156 0 -324.5 -109t-318.5 -296z" />
    <glyph glyph-name="Odieresis" unicode="&#xd6;" horiz-adv-x="1333" 
d="M496 -113q-100 0 -171 64.5t-101.5 164t-26.5 218.5q6 154 57 312.5t134.5 297.5t196 261.5t237 210t262 138t266.5 50.5q130 0 185 -70t50 -184q-3 -112 -61 -255t-160 -290q-53 -155 -143.5 -310t-200.5 -282q136 6 207.5 39.5t128.5 116.5q12 8 20 0
q-44 -65 -85.5 -99.5t-110 -53.5t-179.5 -23q-128 -142 -259 -224t-246 -82zM1501 1724l64 103h92l-62 -103h-94zM1331 1724l64 103h90l-62 -103h-92zM305 190q-9 -280 195 -280q107 0 229 74.5t242 205.5h-74h-367l9 21q230 60 436 221t356 373q51 142 60 274
q7 92 -8.5 158t-49.5 101.5t-75.5 51t-94.5 15.5q-188 0 -383.5 -180.5t-330.5 -470.5q-135 -300 -144 -564zM657 211h244l88 2q199 224 314 510q-129 -164 -294.5 -294.5t-349.5 -201.5zM709 1178q109 118 227 182.5t231 64.5q124 0 192 -80t62 -245q-3 -93 -32 -213
q168 269 174 465q3 103 -46 167t-165 64q-156 0 -324.5 -109t-318.5 -296z" />
    <glyph glyph-name="multiply" unicode="&#xd7;" horiz-adv-x="1120" 
d="M961 170l-306 305l-307 -305l-22 23l305 305l-305 305l22 22l307 -305l306 305l22 -22l-305 -305l305 -305z" />
    <glyph glyph-name="Oslash" unicode="&#xd8;" horiz-adv-x="1333" 
d="M496 -113q-91 0 -160 56l-168 -205h-33l180 221q-62 60 -92.5 160t-25.5 215q6 154 57 312.5t134.5 297.5t196 261.5t237 210t262 138t266.5 50.5q165 0 217 -121l184 225h33l-209 -254q13 -53 10 -104q-3 -112 -61 -255t-160 -290q-53 -155 -143.5 -310t-200.5 -282
q136 6 207.5 39.5t128.5 116.5q12 8 20 0q-44 -65 -85.5 -99.5t-110 -53.5t-179.5 -23q-128 -142 -259 -224t-246 -82zM305 190q-3 -131 37 -198l1036 1261q-46 152 -215 152q-188 0 -383.5 -180.5t-330.5 -470.5q-135 -300 -144 -564zM358 -31q50 -59 142 -59
q107 0 229 74.5t242 205.5h-74h-358zM561 217q224 64 425 223.5t345 364.5q51 142 60 274q6 76 -5 144zM657 211h244l88 2q199 224 314 510q-129 -164 -294.5 -294.5t-349.5 -201.5zM709 1178q109 118 227 182.5t231 64.5q177 0 230 -147l151 182q-43 123 -196 123
q-156 0 -324.5 -109t-318.5 -296zM1389 887q168 269 174 465q0 51 -7 80l-149 -183q17 -61 14 -149q-3 -93 -32 -213z" />
    <glyph glyph-name="Ugrave" unicode="&#xd9;" horiz-adv-x="1693" 
d="M788 -10q-65 0 -108 60.5t-43 174.5q0 237 207 570h-62q-97 0 -172.5 16.5t-121 42t-75 61.5t-40.5 71.5t-11 74.5q0 130 112 258t283 207.5t337 79.5q98 0 146 -43.5t48 -139.5q0 -99 -37.5 -203.5t-126.5 -244.5l-202 -322q-230 -365 -230 -520q0 -53 24 -87t72 -34
q82 0 188.5 108.5t252.5 330.5l534 862l168 73h-364l12 21h575l-12 -21h-164l-536 -860q-189 -300 -178 -430q7 -92 100 -92q65 0 133 71t180 236l39 58q13 11 21 0l-39 -58q-119 -175 -191 -250t-143 -75q-143 0 -143 202q0 100 36 244l-20 2q-145 -225 -253.5 -334.5
t-195.5 -109.5zM1624 1513l-373 123l27 56l350 -166zM383 1061q0 -35 9 -66.5t36.5 -65.5t71 -58.5t118.5 -40t173 -15.5h67l223 356q90 145 121 204.5t35 107.5q4 58 -30.5 80t-114.5 22q-166 0 -332 -76.5t-271.5 -199t-105.5 -248.5z" />
    <glyph glyph-name="Uacute" unicode="&#xda;" horiz-adv-x="1693" 
d="M788 -10q-65 0 -108 60.5t-43 174.5q0 237 207 570h-62q-97 0 -172.5 16.5t-121 42t-75 61.5t-40.5 71.5t-11 74.5q0 130 112 258t283 207.5t337 79.5q98 0 146 -43.5t48 -139.5q0 -99 -37.5 -203.5t-126.5 -244.5l-202 -322q-230 -365 -230 -520q0 -53 24 -87t72 -34
q82 0 188.5 108.5t252.5 330.5l534 862l168 73h-364l12 21h575l-12 -21h-164l-536 -860q-189 -300 -178 -430q7 -92 100 -92q65 0 133 71t180 236l39 58q13 11 21 0l-39 -58q-119 -175 -191 -250t-143 -75q-143 0 -143 202q0 100 36 244l-20 2q-145 -225 -253.5 -334.5
t-195.5 -109.5zM1524 1513l-4 13l366 172l10 -62zM383 1061q0 -35 9 -66.5t36.5 -65.5t71 -58.5t118.5 -40t173 -15.5h67l223 356q90 145 121 204.5t35 107.5q4 58 -30.5 80t-114.5 22q-166 0 -332 -76.5t-271.5 -199t-105.5 -248.5z" />
    <glyph glyph-name="Ucircumflex" unicode="&#xdb;" horiz-adv-x="1693" 
d="M788 -10q-65 0 -108 60.5t-43 174.5q0 237 207 570h-62q-97 0 -172.5 16.5t-121 42t-75 61.5t-40.5 71.5t-11 74.5q0 130 112 258t283 207.5t337 79.5q98 0 146 -43.5t48 -139.5q0 -99 -37.5 -203.5t-126.5 -244.5l-202 -322q-230 -365 -230 -520q0 -53 24 -87t72 -34
q82 0 188.5 108.5t252.5 330.5l534 862l168 73h-364l12 21h575l-12 -21h-164l-536 -860q-189 -300 -178 -430q7 -92 100 -92q65 0 133 71t180 236l39 58q13 11 21 0l-39 -58q-119 -175 -191 -250t-143 -75q-143 0 -143 202q0 100 36 244l-20 2q-145 -225 -253.5 -334.5
t-195.5 -109.5zM1360 1507l-6 13l321 188h19l32 -197h-16l-61 136zM383 1061q0 -35 9 -66.5t36.5 -65.5t71 -58.5t118.5 -40t173 -15.5h67l223 356q90 145 121 204.5t35 107.5q4 58 -30.5 80t-114.5 22q-166 0 -332 -76.5t-271.5 -199t-105.5 -248.5z" />
    <glyph glyph-name="Udieresis" unicode="&#xdc;" horiz-adv-x="1693" 
d="M788 -10q-65 0 -108 60.5t-43 174.5q0 237 207 570h-62q-97 0 -172.5 16.5t-121 42t-75 61.5t-40.5 71.5t-11 74.5q0 130 112 258t283 207.5t337 79.5q98 0 146 -43.5t48 -139.5q0 -99 -37.5 -203.5t-126.5 -244.5l-202 -322q-230 -365 -230 -520q0 -53 24 -87t72 -34
q82 0 188.5 108.5t252.5 330.5l534 862l168 73h-364l12 21h575l-12 -21h-164l-536 -860q-189 -300 -178 -430q7 -92 100 -92q65 0 133 71t180 236l39 58q13 11 21 0l-39 -58q-119 -175 -191 -250t-143 -75q-143 0 -143 202q0 100 36 244l-20 2q-145 -225 -253.5 -334.5
t-195.5 -109.5zM1640 1567l64 102h92l-61 -102h-95zM1470 1567l64 102h90l-61 -102h-93zM383 1061q0 -35 9 -66.5t36.5 -65.5t71 -58.5t118.5 -40t173 -15.5h67l223 356q90 145 121 204.5t35 107.5q4 58 -30.5 80t-114.5 22q-166 0 -332 -76.5t-271.5 -199t-105.5 -248.5z
" />
    <glyph glyph-name="Yacute" unicode="&#xdd;" horiz-adv-x="1597" 
d="M797 12q-70 0 -113 60t-43 186q0 39 6 77t24.5 102.5t63.5 155.5t113 202h-80q-97 0 -172.5 16.5t-121 42.5t-75 62t-40.5 71.5t-11 75.5q0 96 70.5 195.5t179 174.5t246 123t264.5 48q88 0 133 -36t45 -138q0 -182 -180 -478l-100 -166q-64 -106 -90 -149.5t-72.5 -124
t-65.5 -119t-43 -92t-32.5 -89.5t-8.5 -67q0 -53 27 -83.5t78 -30.5q98 0 211.5 125.5t273.5 390.5l479 766l164 73h-330l13 21h555l-13 -21h-178l-360 -579q-98 -157 -279.5 -495.5t-204.5 -379.5q128 37 226 121.5t217 249.5l47 66q13 10 20 0l-47 -66
q-127 -176 -231.5 -265t-241.5 -126l-53 -90q-159 -260 -351.5 -398.5t-398.5 -138.5q-84 0 -149 23t-103.5 62.5t-58.5 88t-20 103.5q0 71 34 138t95.5 120.5t157 86t208.5 32.5q44 0 227 -10.5t259 -10.5q72 118 191.5 334t150.5 270l-13 2q-156 -256 -276 -384t-223 -128
zM1571 1513l-4 13l366 172l11 -62zM6 -436q0 -100 68.5 -172t204.5 -72q81 0 159 30.5t139.5 76.5t126.5 119.5t112 139.5t104 156l36 58q-73 1 -250.5 10.5t-224.5 9.5q-111 0 -203 -30.5t-150.5 -81.5t-90 -114t-31.5 -130zM369 1061q0 -35 9 -66.5t36 -65.5t70.5 -58
t118.5 -40t173 -16h84l209 336q53 86 70.5 115t47 83t39.5 86t11 62q1 49 -28 67.5t-101 18.5q-171 0 -343.5 -76.5t-284 -199t-111.5 -246.5z" />
    <glyph glyph-name="Thorn" unicode="&#xde;" horiz-adv-x="1669" 
d="M-150 -713q-101 0 -140.5 62t-39.5 174q0 134 53.5 296t146.5 324t226.5 318t284 278.5t328.5 203.5t352 95l156 252l174 96h-498l12 21h830l-13 -21h-276l-217 -348q202 -20 311 -117t109 -241q0 -139 -95.5 -256.5t-257.5 -169.5q82 -23 131 -23q75 0 149 33.5
t116 104.5q11 9 20 0q-51 -78 -128 -114t-157 -36q-62 0 -151 29q-89 -25 -189 -25q-91 0 -153 19.5t-62 54.5q0 49 91 49q14 0 28 -1t30 -4t27 -5t29.5 -7.5t26.5 -7.5t29.5 -9.5t27 -9.5t29.5 -11t27 -10q94 40 166.5 119t108.5 167t36 170q0 119 -81.5 192.5t-229.5 90.5
l-590 -946q-197 -315 -258 -402q-158 -229 -290 -314q-109 -71 -229 -71zM-305 -477q0 -215 143 -215q39 0 78 17.5t85 64.5t80 86.5t93 129.5t92.5 143.5t107.5 174.5q63 103 97 158l580 938q-128 -13 -259.5 -63t-249 -127t-229 -177t-204 -212t-170.5 -233.5t-131.5 -240
t-83 -233t-29.5 -211.5zM889 299q0 -28 48.5 -40.5t106.5 -12.5q83 0 156 28q-55 20 -81 29t-71.5 19t-84.5 10q-74 0 -74 -33z" />
    <glyph glyph-name="germandbls" unicode="&#xdf;" horiz-adv-x="757" 
d="M145 483q67 113 123.5 206t124 196t126 182.5t122 155t118.5 124t110 78t102 29.5q58 0 95.5 -33.5t37.5 -111.5q0 -57 -20 -107t-57 -89.5t-62 -60t-62 -46.5l-47 -33q-72 -50 -113 -88.5t-66 -86.5t-33.5 -96.5t-12.5 -130.5l-8 -157l-5 -39h181q-3 -9 -13 -19h-170
q-28 -162 -123.5 -266t-244.5 -104q-133 0 -203 90l-328 -565h-141l422 720q0 71 27 144h57zM25 279l47 77h-29q-12 -38 -18 -77zM59 98q47 -80 142 -80q89 0 172.5 93t146.5 245h-311zM219 375h309l35 98q27 84 51 199q17 77 31 122.5t40.5 95t68 90.5t106.5 87l49 35
q91 64 132.5 112.5t41.5 106.5q0 52 -29 82.5t-71 30.5q-91 0 -233 -189q-117 -156 -374 -600q-32 -55 -100 -172z" />
    <glyph glyph-name="agrave" unicode="&#xe0;" horiz-adv-x="778" 
d="M457 -20q-95 0 -95 131q0 61 23 147h-10q-97 -144 -166 -211t-125 -67q-53 0 -84 54t-31 130q0 131 90 272q83 130 210 205.5t270 75.5q66 0 143 -21h102l-256 -401q-77 -118 -103 -170t-26 -78q0 -49 56 -49q60 0 126.5 64.5t170.5 228.5l49 78q10 7 20 0l-49 -78
q-106 -168 -178.5 -239.5t-136.5 -71.5zM600 920l-100 383l65 16l51 -395zM35 61q0 -29 14 -46t39 -17q97 0 289 297l94 145l158 238q-31 22 -90 22q-95 0 -174 -69t-177 -215q-69 -102 -111 -197.5t-42 -157.5z" />
    <glyph glyph-name="aacute" unicode="&#xe1;" horiz-adv-x="778" 
d="M457 -20q-95 0 -95 131q0 61 23 147h-10q-97 -144 -166 -211t-125 -67q-53 0 -84 54t-31 130q0 131 90 272q83 130 210 205.5t270 75.5q66 0 143 -21h102l-256 -401q-77 -118 -103 -170t-26 -78q0 -49 56 -49q60 0 126.5 64.5t170.5 228.5l49 78q10 7 20 0l-49 -78
q-106 -168 -178.5 -239.5t-136.5 -71.5zM608 918l-10 10l346 391l47 -51zM35 61q0 -29 14 -46t39 -17q97 0 289 297l94 145l158 238q-31 22 -90 22q-95 0 -174 -69t-177 -215q-69 -102 -111 -197.5t-42 -157.5z" />
    <glyph glyph-name="acircumflex" unicode="&#xe2;" horiz-adv-x="778" 
d="M457 -20q-95 0 -95 131q0 61 23 147h-10q-97 -144 -166 -211t-125 -67q-53 0 -84 54t-31 130q0 131 90 272q83 130 210 205.5t270 75.5q66 0 143 -21h102l-256 -401q-77 -118 -103 -170t-26 -78q0 -49 56 -49q60 0 126.5 64.5t170.5 228.5l49 78q10 7 20 0l-49 -78
q-106 -168 -178.5 -239.5t-136.5 -71.5zM528 920l-12 10l328 338h30l-38 -348h-19l-14 235zM35 61q0 -29 14 -46t39 -17q97 0 289 297l94 145l158 238q-31 22 -90 22q-95 0 -174 -69t-177 -215q-69 -102 -111 -197.5t-42 -157.5z" />
    <glyph glyph-name="atilde" unicode="&#xe3;" horiz-adv-x="778" 
d="M457 -20q-95 0 -95 131q0 61 23 147h-10q-97 -144 -166 -211t-125 -67q-53 0 -84 54t-31 130q0 131 90 272q83 130 210 205.5t270 75.5q66 0 143 -21h102l-256 -401q-77 -118 -103 -170t-26 -78q0 -49 56 -49q60 0 126.5 64.5t170.5 228.5l49 78q10 7 20 0l-49 -78
q-106 -168 -178.5 -239.5t-136.5 -71.5zM817 940q-34 0 -63 24t-46 52t-41 52t-49 24q-29 0 -54 -27t-81 -111l-14 15q76 114 111.5 153t76.5 39q31 0 59.5 -26.5t47 -57.5t43.5 -57.5t49 -26.5q37 0 37 49q0 42 -29 82l23 6q22 -42 22 -83q0 -46 -26 -76.5t-66 -30.5z
M35 61q0 -29 14 -46t39 -17q97 0 289 297l94 145l158 238q-31 22 -90 22q-95 0 -174 -69t-177 -215q-69 -102 -111 -197.5t-42 -157.5z" />
    <glyph glyph-name="adieresis" unicode="&#xe4;" horiz-adv-x="778" 
d="M457 -20q-95 0 -95 131q0 61 23 147h-10q-97 -144 -166 -211t-125 -67q-53 0 -84 54t-31 130q0 131 90 272q83 130 210 205.5t270 75.5q66 0 143 -21h102l-256 -401q-77 -118 -103 -170t-26 -78q0 -49 56 -49q60 0 126.5 64.5t170.5 228.5l49 78q10 7 20 0l-49 -78
q-106 -168 -178.5 -239.5t-136.5 -71.5zM803 1044l100 154h105l-101 -154h-104zM614 1044l105 154h106l-104 -154h-107zM35 61q0 -29 14 -46t39 -17q97 0 289 297l94 145l158 238q-31 22 -90 22q-95 0 -174 -69t-177 -215q-69 -102 -111 -197.5t-42 -157.5z" />
    <glyph glyph-name="aring" unicode="&#xe5;" horiz-adv-x="778" 
d="M457 -20q-95 0 -95 131q0 61 23 147h-10q-97 -144 -166 -211t-125 -67q-53 0 -84 54t-31 130q0 131 90 272q83 130 210 205.5t270 75.5q66 0 143 -21h102l-256 -401q-77 -118 -103 -170t-26 -78q0 -49 56 -49q60 0 126.5 64.5t170.5 228.5l49 78q10 7 20 0l-49 -78
q-106 -168 -178.5 -239.5t-136.5 -71.5zM702 944q-30 0 -47.5 25t-17.5 65q0 72 54.5 126t111.5 54q59 0 59 -65q0 -64 -53.5 -134.5t-106.5 -70.5zM702 958q48 0 96 68.5t48 128.5q0 45 -29 45q-39 0 -92 -69t-53 -132q0 -41 30 -41zM35 61q0 -29 14 -46t39 -17
q97 0 289 297l94 145l158 238q-31 22 -90 22q-95 0 -174 -69t-177 -215q-69 -102 -111 -197.5t-42 -157.5z" />
    <glyph glyph-name="ae" unicode="&#xe6;" horiz-adv-x="1296" 
d="M457 -20q-95 0 -95 131q0 61 23 147h-10q-97 -144 -166 -211t-125 -67q-53 0 -84 54t-31 130q0 131 90 272q83 130 210 205.5t270 75.5q66 0 143 -21h102l-256 -401q-77 -118 -103 -170t-26 -78q0 -49 56 -49q60 0 126.5 64.5t170.5 228.5l47 74q13 38 43 86
q70 115 183.5 189.5t199.5 74.5q37 0 54 -18t17 -46q0 -60 -82 -135q-100 -87 -270 -137q-100 -180 -100 -287q0 -88 80 -88q81 0 175.5 84.5t219.5 280.5q6 6 13 6t7 -6q-131 -207 -231 -296t-190 -89q-71 0 -112.5 59.5t-41.5 146.5q0 57 14 109l-6 -8
q-106 -168 -178.5 -239.5t-136.5 -71.5zM35 61q0 -29 14 -46t39 -17q97 0 289 297l94 145l158 238q-31 22 -90 22q-95 0 -174 -69t-177 -215q-69 -102 -111 -197.5t-42 -157.5zM952 397q157 53 248 135q78 71 78 125q0 41 -41 41q-52 0 -123 -74t-147 -204z" />
    <glyph glyph-name="ccedilla" unicode="&#xe7;" horiz-adv-x="524" 
d="M-129 -424l-10 18l63 37q69 40 90 59t21 38q0 24 -14.5 66.5t-14.5 62.5q0 23 23 44t102 74v9q-68 4 -106.5 63.5t-38.5 145.5q0 131 88 274q66 106 170.5 177t212.5 71q61 0 106 -33l-45 -82q-14 33 -21 47.5t-22.5 30.5t-32.5 16q-80 0 -233 -245q-143 -229 -143 -357
q0 -88 77 -88q85 0 181 87t223 278q6 6 13 6t7 -6q-126 -188 -220.5 -279.5t-178.5 -103.5l-14 -11q-60 -43 -60 -69q0 -16 18.5 -60t18.5 -69q0 -30 -27 -52.5t-131 -85.5q-25 -15 -39 -24z" />
    <glyph glyph-name="egrave" unicode="&#xe8;" horiz-adv-x="518" 
d="M139 -16q-71 0 -112 59.5t-41 146.5q0 136 77 261q70 115 183.5 189.5t199.5 74.5q37 0 54.5 -18t17.5 -46q0 -60 -82 -135q-100 -87 -270 -137q-100 -180 -100 -287q0 -88 79 -88q81 0 176 84.5t220 280.5q6 6 13 6t7 -6q-131 -207 -231.5 -296t-190.5 -89zM487 920
l-100 383l66 16l51 -395zM174 397q157 53 248 135q78 71 78 125q0 41 -41 41q-52 0 -123.5 -74t-147.5 -204z" />
    <glyph glyph-name="eacute" unicode="&#xe9;" horiz-adv-x="518" 
d="M139 -16q-71 0 -112 59.5t-41 146.5q0 136 77 261q70 115 183.5 189.5t199.5 74.5q37 0 54.5 -18t17.5 -46q0 -60 -82 -135q-100 -87 -270 -137q-100 -180 -100 -287q0 -88 79 -88q81 0 176 84.5t220 280.5q6 6 13 6t7 -6q-131 -207 -231.5 -296t-190.5 -89zM496 918
l-11 10l346 391l48 -51zM174 397q157 53 248 135q78 71 78 125q0 41 -41 41q-52 0 -123.5 -74t-147.5 -204z" />
    <glyph glyph-name="ecircumflex" unicode="&#xea;" horiz-adv-x="518" 
d="M139 -16q-71 0 -112 59.5t-41 146.5q0 136 77 261q70 115 183.5 189.5t199.5 74.5q37 0 54.5 -18t17.5 -46q0 -60 -82 -135q-100 -87 -270 -137q-100 -180 -100 -287q0 -88 79 -88q81 0 176 84.5t220 280.5q6 6 13 6t7 -6q-131 -207 -231.5 -296t-190.5 -89zM416 920
l-13 10l328 338h31l-39 -348h-18l-15 235zM174 397q157 53 248 135q78 71 78 125q0 41 -41 41q-52 0 -123.5 -74t-147.5 -204z" />
    <glyph glyph-name="edieresis" unicode="&#xeb;" horiz-adv-x="518" 
d="M139 -16q-71 0 -112 59.5t-41 146.5q0 136 77 261q70 115 183.5 189.5t199.5 74.5q37 0 54.5 -18t17.5 -46q0 -60 -82 -135q-100 -87 -270 -137q-100 -180 -100 -287q0 -88 79 -88q81 0 176 84.5t220 280.5q6 6 13 6t7 -6q-131 -207 -231.5 -296t-190.5 -89zM690 1044
l101 154h104l-100 -154h-105zM502 1044l104 154h107l-105 -154h-106zM174 397q157 53 248 135q78 71 78 125q0 41 -41 41q-52 0 -123.5 -74t-147.5 -204z" />
    <glyph glyph-name="igrave" unicode="&#xec;" horiz-adv-x="415" 
d="M106 -14q-98 0 -98 145q0 90 33.5 170t108.5 199l104 166l-4 12h-86q0 10 10 18h229l5 -20l-164 -258q-135 -211 -167 -269t-32 -92q0 -55 61 -55q27 0 55 14t50.5 34t52.5 58.5t51 69.5t56 86l67 105q14 7 21 0l-72 -111q-44 -68 -69 -104t-64 -81.5t-75 -66t-73 -20.5z
M354 920l-100 383l65 16l52 -395z" />
    <glyph glyph-name="iacute" unicode="&#xed;" horiz-adv-x="415" 
d="M106 -14q-98 0 -98 145q0 90 33.5 170t108.5 199l104 166l-4 12h-86q0 10 10 18h229l5 -20l-164 -258q-135 -211 -167 -269t-32 -92q0 -55 61 -55q27 0 55 14t50.5 34t52.5 58.5t51 69.5t56 86l67 105q14 7 21 0l-72 -111q-44 -68 -69 -104t-64 -81.5t-75 -66t-73 -20.5z
M362 918l-10 10l346 391l47 -51z" />
    <glyph glyph-name="icircumflex" unicode="&#xee;" horiz-adv-x="415" 
d="M106 -14q-98 0 -98 145q0 90 33.5 170t108.5 199l104 166l-4 12h-86q0 10 10 18h229l5 -20l-164 -258q-135 -211 -167 -269t-32 -92q0 -55 61 -55q27 0 55 14t50.5 34t52.5 58.5t51 69.5t56 86l67 105q14 7 21 0l-72 -111q-44 -68 -69 -104t-64 -81.5t-75 -66t-73 -20.5z
M283 920l-13 10l328 338h31l-39 -348h-19l-14 235z" />
    <glyph glyph-name="idieresis" unicode="&#xef;" horiz-adv-x="415" 
d="M106 -14q-98 0 -98 145q0 90 33.5 170t108.5 199l104 166l-4 12h-86q0 10 10 18h229l5 -20l-164 -258q-135 -211 -167 -269t-32 -92q0 -55 61 -55q27 0 55 14t50.5 34t52.5 58.5t51 69.5t56 86l67 105q14 7 21 0l-72 -111q-44 -68 -69 -104t-64 -81.5t-75 -66t-73 -20.5z
M557 1044l100 154h105l-100 -154h-105zM369 1044l104 154h107l-105 -154h-106z" />
    <glyph glyph-name="eth" unicode="&#xf0;" horiz-adv-x="692" 
d="M162 -14q-84 0 -130 59t-46 156q0 91 41 182t105.5 158t146 109t159.5 42q46 0 79.5 -21t39.5 -59q8 65 8 140q0 135 -26 245l-267 -108l11 26l249 103q-36 134 -109.5 231t-180.5 146l6 12q112 -42 201 -138.5t143 -228.5l201 82l-11 -26l-182 -74q64 -162 64 -338
q0 -122 -32.5 -234t-86 -194.5t-119 -144.5t-134.5 -93.5t-130 -31.5zM152 4q54 0 111.5 40.5t103.5 104.5t84 138.5t61 146.5t27 125q9 111 -76 111q-59 0 -132 -64t-131.5 -154t-98.5 -188t-40 -164q0 -96 91 -96z" />
    <glyph glyph-name="ntilde" unicode="&#xf1;" horiz-adv-x="854" 
d="M522 -20q-53 0 -75.5 40t-22.5 97q0 122 125 286l67 89q91 119 91 163q0 37 -41 37q-150 0 -426 -407l-11 -17l-174 -268h-143l297 469q72 112 72 156q0 28 -15 40.5t-53 12.5h-84q3 11 10 18h82q48 0 70 -24t22 -80v-152h15q213 275 344 275q84 0 84 -129
q0 -60 -22.5 -114t-82.5 -134l-63 -84q-67 -90 -93 -134t-26 -73q0 -51 55 -51q29 0 58.5 15.5t54 36.5t59.5 64.5t58.5 77.5t66.5 97l56 82q13 10 20 0l-55 -82q-50 -75 -80 -116.5t-74.5 -92.5t-85 -74.5t-80.5 -23.5zM854 940q-34 0 -63 24t-46 52t-41 52t-49 24
q-29 0 -54 -27t-81 -111l-14 15q76 114 111.5 153t76.5 39q31 0 59.5 -26.5t47 -57.5t43.5 -57.5t49 -26.5q37 0 37 49q0 42 -29 82l23 6q22 -42 22 -83q0 -46 -26 -76.5t-66 -30.5z" />
    <glyph glyph-name="ograve" unicode="&#xf2;" horiz-adv-x="595" 
d="M121 -14q-45 0 -76.5 32.5t-44 74t-12.5 85.5q0 105 41.5 205.5t106.5 172t147 115.5t161 44q117 0 117 -133q0 -138 -100 -306q-71 -119 -166 -204.5t-174 -85.5zM121 4q70 0 151.5 84t153.5 209q111 196 111 303q0 45 -18.5 70.5t-51.5 25.5q-52 0 -130 -78.5
t-151 -193.5q-58 -94 -94.5 -185.5t-36.5 -154.5q0 -80 66 -80zM512 920l-100 383l65 16l51 -395z" />
    <glyph glyph-name="oacute" unicode="&#xf3;" horiz-adv-x="595" 
d="M121 -14q-45 0 -76.5 32.5t-44 74t-12.5 85.5q0 105 41.5 205.5t106.5 172t147 115.5t161 44q117 0 117 -133q0 -138 -100 -306q-71 -119 -166 -204.5t-174 -85.5zM121 4q70 0 151.5 84t153.5 209q111 196 111 303q0 45 -18.5 70.5t-51.5 25.5q-52 0 -130 -78.5
t-151 -193.5q-58 -94 -94.5 -185.5t-36.5 -154.5q0 -80 66 -80zM520 918l-10 10l346 391l47 -51z" />
    <glyph glyph-name="ocircumflex" unicode="&#xf4;" horiz-adv-x="595" 
d="M121 -14q-45 0 -76.5 32.5t-44 74t-12.5 85.5q0 105 41.5 205.5t106.5 172t147 115.5t161 44q117 0 117 -133q0 -138 -100 -306q-71 -119 -166 -204.5t-174 -85.5zM121 4q70 0 151.5 84t153.5 209q111 196 111 303q0 45 -18.5 70.5t-51.5 25.5q-52 0 -130 -78.5
t-151 -193.5q-58 -94 -94.5 -185.5t-36.5 -154.5q0 -80 66 -80zM440 920l-12 10l328 338h30l-38 -348h-19l-14 235z" />
    <glyph glyph-name="otilde" unicode="&#xf5;" horiz-adv-x="595" 
d="M121 -14q-45 0 -76.5 32.5t-44 74t-12.5 85.5q0 105 41.5 205.5t106.5 172t147 115.5t161 44q117 0 117 -133q0 -138 -100 -306q-71 -119 -166 -204.5t-174 -85.5zM121 4q70 0 151.5 84t153.5 209q111 196 111 303q0 45 -18.5 70.5t-51.5 25.5q-52 0 -130 -78.5
t-151 -193.5q-58 -94 -94.5 -185.5t-36.5 -154.5q0 -80 66 -80zM729 940q-34 0 -63 24t-46 52t-41 52t-49 24q-29 0 -54 -27t-81 -111l-14 15q76 114 111.5 153t76.5 39q31 0 59.5 -26.5t47 -57.5t43.5 -57.5t49 -26.5q37 0 37 49q0 42 -29 82l23 6q22 -42 22 -83
q0 -46 -26 -76.5t-66 -30.5z" />
    <glyph glyph-name="odieresis" unicode="&#xf6;" horiz-adv-x="595" 
d="M121 -14q-45 0 -76.5 32.5t-44 74t-12.5 85.5q0 105 41.5 205.5t106.5 172t147 115.5t161 44q117 0 117 -133q0 -138 -100 -306q-71 -119 -166 -204.5t-174 -85.5zM121 4q70 0 151.5 84t153.5 209q111 196 111 303q0 45 -18.5 70.5t-51.5 25.5q-52 0 -130 -78.5
t-151 -193.5q-58 -94 -94.5 -185.5t-36.5 -154.5q0 -80 66 -80zM715 1044l100 154h105l-101 -154h-104zM526 1044l105 154h106l-104 -154h-107z" />
    <glyph glyph-name="divide" unicode="&#xf7;" horiz-adv-x="1073" 
d="M575 696v138h111v-138h-111zM575 162v137h111v-137h-111zM225 483v29h809v-29h-809z" />
    <glyph glyph-name="oslash" unicode="&#xf8;" horiz-adv-x="595" 
d="M121 -14q-34 0 -64 20l-163 -217h-25l174 229q-27 27 -41 71.5t-14 88.5q0 105 41.5 205.5t106.5 172t147 115.5t161 44q68 0 95 -41l143 190h25l-158 -209q12 -30 12 -73q0 -138 -100 -306q-71 -119 -166 -204.5t-174 -85.5zM121 4q70 0 151.5 84t153.5 209
q111 196 111 303q0 10 -5 35l-460 -610q15 -21 49 -21zM55 84q0 -23 6 -41l465 614q-19 39 -59 39q-52 0 -130 -78.5t-151 -193.5q-58 -94 -94.5 -185.5t-36.5 -154.5z" />
    <glyph glyph-name="ugrave" unicode="&#xf9;" horiz-adv-x="802" 
d="M84 -16q-43 0 -69.5 37t-26.5 110t38 158.5t128 218.5l106 158l-6 12h-86q-4 11 10 18h225l5 -22l-185 -275q-126 -187 -159 -244t-33 -96q0 -57 53 -57q77 0 170.5 103.5t208.5 287.5l170 273l-6 12h-78q0 10 10 18h223l4 -22l-231 -365q-88 -139 -111.5 -182.5
t-23.5 -73.5q0 -53 55 -53q34 0 68 19t73 62.5t71.5 87t82.5 118.5l55 82q14 11 21 0l-55 -82q-49 -74 -79.5 -115.5t-74 -91.5t-83 -73t-79.5 -23q-92 0 -92 135q0 57 10 125h-10q-78 -116 -156.5 -188t-142.5 -72zM526 920l-100 383l66 16l51 -395z" />
    <glyph glyph-name="uacute" unicode="&#xfa;" horiz-adv-x="802" 
d="M84 -16q-43 0 -69.5 37t-26.5 110t38 158.5t128 218.5l106 158l-6 12h-86q-4 11 10 18h225l5 -22l-185 -275q-126 -187 -159 -244t-33 -96q0 -57 53 -57q77 0 170.5 103.5t208.5 287.5l170 273l-6 12h-78q0 10 10 18h223l4 -22l-231 -365q-88 -139 -111.5 -182.5
t-23.5 -73.5q0 -53 55 -53q34 0 68 19t73 62.5t71.5 87t82.5 118.5l55 82q14 11 21 0l-55 -82q-49 -74 -79.5 -115.5t-74 -91.5t-83 -73t-79.5 -23q-92 0 -92 135q0 57 10 125h-10q-78 -116 -156.5 -188t-142.5 -72zM535 918l-11 10l346 391l48 -51z" />
    <glyph glyph-name="ucircumflex" unicode="&#xfb;" horiz-adv-x="802" 
d="M84 -16q-43 0 -69.5 37t-26.5 110t38 158.5t128 218.5l106 158l-6 12h-86q-4 11 10 18h225l5 -22l-185 -275q-126 -187 -159 -244t-33 -96q0 -57 53 -57q77 0 170.5 103.5t208.5 287.5l170 273l-6 12h-78q0 10 10 18h223l4 -22l-231 -365q-88 -139 -111.5 -182.5
t-23.5 -73.5q0 -53 55 -53q34 0 68 19t73 62.5t71.5 87t82.5 118.5l55 82q14 11 21 0l-55 -82q-49 -74 -79.5 -115.5t-74 -91.5t-83 -73t-79.5 -23q-92 0 -92 135q0 57 10 125h-10q-78 -116 -156.5 -188t-142.5 -72zM455 920l-13 10l328 338h31l-39 -348h-19l-14 235z" />
    <glyph glyph-name="udieresis" unicode="&#xfc;" horiz-adv-x="802" 
d="M84 -16q-43 0 -69.5 37t-26.5 110t38 158.5t128 218.5l106 158l-6 12h-86q-4 11 10 18h225l5 -22l-185 -275q-126 -187 -159 -244t-33 -96q0 -57 53 -57q77 0 170.5 103.5t208.5 287.5l170 273l-6 12h-78q0 10 10 18h223l4 -22l-231 -365q-88 -139 -111.5 -182.5
t-23.5 -73.5q0 -53 55 -53q34 0 68 19t73 62.5t71.5 87t82.5 118.5l55 82q14 11 21 0l-55 -82q-49 -74 -79.5 -115.5t-74 -91.5t-83 -73t-79.5 -23q-92 0 -92 135q0 57 10 125h-10q-78 -116 -156.5 -188t-142.5 -72zM729 1044l100 154h105l-100 -154h-105zM541 1044l104 154
h107l-105 -154h-106z" />
    <glyph glyph-name="yacute" unicode="&#xfd;" horiz-adv-x="782" 
d="M-317 -713q-101 0 -101 99q0 48 25 103.5t77 118.5t142 132t209 133l196 107l162 264h-8q-74 -107 -153 -175.5t-140 -68.5q-43 0 -68.5 36.5t-25.5 106.5q0 76 36 159t120 206l106 158l-6 12h-88q-4 11 10 18h230l4 -22l-177 -258q-118 -174 -155 -238t-37 -106
q0 -54 55 -54q40 0 85.5 29t93.5 84t92.5 117.5t95.5 144.5l170 273l-6 12h-78q0 10 10 18h223l4 -22l-231 -365l-180 -291q58 28 87.5 42.5t74 39.5t71.5 47t62.5 55t67.5 73.5t67 93.5q13 10 20 0q-41 -66 -84 -116.5t-78.5 -83t-92 -66.5t-93.5 -52.5t-115 -54.5l-49 -78
q-36 -59 -65.5 -105t-77.5 -115t-89.5 -121t-95 -109.5t-101 -94.5t-100.5 -61.5t-101 -24.5zM496 918l-11 10l346 391l48 -51zM-395 -610q-2 -38 14 -61t51 -23q86 0 211 152t336 497l-174 -94q-116 -62 -203.5 -130.5t-136.5 -130.5t-72.5 -114t-25.5 -96z" />
    <glyph glyph-name="thorn" unicode="&#xfe;" horiz-adv-x="821" 
d="M-260 -696q-59 0 -89 39.5t-30 95.5q0 138 150 377l985 1577l6 14q54 5 91.5 25.5t72.5 66.5h26l-1097 -1757q-131 -208 -164 -270.5t-33 -92.5q2 -29 18.5 -43.5t53.5 -15.5l573 952q259 443 373 443q61 0 65 -103q2 -67 -27.5 -137t-107.5 -166l-45 -55
q-45 -55 -65.5 -81.5t-38 -59.5t-17.5 -56q0 -28 17.5 -41.5t44.5 -13.5q59 0 117 60.5t167 220.5l52 75q10 7 20 0l-51 -75q-113 -165 -175.5 -231t-129.5 -66q-45 0 -73 33.5t-28 97.5t29 127t94 143l41 49q20 25 44.5 54.5t36.5 44.5t26.5 33.5t21 28.5t12.5 22t7.5 21
t1.5 19q0 41 -43 41q-97 0 -348 -428z" />
    <glyph glyph-name="ydieresis" unicode="&#xff;" horiz-adv-x="782" 
d="M-317 -713q-101 0 -101 99q0 48 25 103.5t77 118.5t142 132t209 133l196 107l162 264h-8q-74 -107 -153 -175.5t-140 -68.5q-43 0 -68.5 36.5t-25.5 106.5q0 76 36 159t120 206l106 158l-6 12h-88q-4 11 10 18h230l4 -22l-177 -258q-118 -174 -155 -238t-37 -106
q0 -54 55 -54q40 0 85.5 29t93.5 84t92.5 117.5t95.5 144.5l170 273l-6 12h-78q0 10 10 18h223l4 -22l-231 -365l-180 -291q58 28 87.5 42.5t74 39.5t71.5 47t62.5 55t67.5 73.5t67 93.5q13 10 20 0q-41 -66 -84 -116.5t-78.5 -83t-92 -66.5t-93.5 -52.5t-115 -54.5l-49 -78
q-36 -59 -65.5 -105t-77.5 -115t-89.5 -121t-95 -109.5t-101 -94.5t-100.5 -61.5t-101 -24.5zM690 1044l101 154h104l-100 -154h-105zM502 1044l104 154h107l-105 -154h-106zM-395 -610q-2 -38 14 -61t51 -23q86 0 211 152t336 497l-174 -94q-116 -62 -203.5 -130.5
t-136.5 -130.5t-72.5 -114t-25.5 -96z" />
    <glyph glyph-name="Amacron" unicode="&#x100;" horiz-adv-x="1265" 
d="M-625 -311q-124 0 -213 39l-4 30q95 -45 215 -45q90 0 181.5 23t164.5 51.5t169 95t155.5 111.5t165.5 145.5t157 152t170 173.5q31 31 46 47l180 184h-262l18 21h264l705 719h33q102 0 143 47h31l-666 -1055q-22 -36 -50.5 -81.5t-43 -68.5t-33 -53t-26.5 -45t-17.5 -34
t-13 -31t-6 -25.5t-2.5 -26.5q0 -65 71 -65q81 0 155.5 73t186.5 240l39 58q14 11 21 0l-39 -58q-59 -87 -98 -138.5t-86 -100.5t-90.5 -70.5t-90.5 -21.5q-35 0 -61 16t-39 41t-19 50t-6 50q0 86 45.5 197.5t163.5 290.5l47 71h-243l-197 -200q-276 -282 -388 -384
q-282 -260 -505 -354q-164 -69 -328 -69zM1454 1595l14 27h426l-14 -27h-426zM813 717h238l456 694h-16z" />
    <glyph glyph-name="amacron" unicode="&#x101;" horiz-adv-x="778" 
d="M457 -20q-95 0 -95 131q0 61 23 147h-10q-97 -144 -166 -211t-125 -67q-53 0 -84 54t-31 130q0 131 90 272q83 130 210 205.5t270 75.5q66 0 143 -21h102l-256 -401q-77 -118 -103 -170t-26 -78q0 -49 56 -49q60 0 126.5 64.5t170.5 228.5l49 78q10 7 20 0l-49 -78
q-106 -168 -178.5 -239.5t-136.5 -71.5zM545 1012l14 26h402l-15 -26h-401zM35 61q0 -29 14 -46t39 -17q97 0 289 297l94 145l158 238q-31 22 -90 22q-95 0 -174 -69t-177 -215q-69 -102 -111 -197.5t-42 -157.5z" />
    <glyph glyph-name="Abreve" unicode="&#x102;" horiz-adv-x="1265" 
d="M-625 -311q-124 0 -213 39l-4 30q95 -45 215 -45q90 0 181.5 23t164.5 51.5t169 95t155.5 111.5t165.5 145.5t157 152t170 173.5q31 31 46 47l180 184h-262l18 21h264l705 719h33q102 0 143 47h31l-666 -1055q-22 -36 -50.5 -81.5t-43 -68.5t-33 -53t-26.5 -45t-17.5 -34
t-13 -31t-6 -25.5t-2.5 -26.5q0 -65 71 -65q81 0 155.5 73t186.5 240l39 58q14 11 21 0l-39 -58q-59 -87 -98 -138.5t-86 -100.5t-90.5 -70.5t-90.5 -21.5q-35 0 -61 16t-39 41t-19 50t-6 50q0 86 45.5 197.5t163.5 290.5l47 71h-243l-197 -200q-276 -282 -388 -384
q-282 -260 -505 -354q-164 -69 -328 -69zM1606 1538q-42 0 -63 24t-21 62q0 53 37 111h79q-28 -47 -39.5 -74t-11.5 -55q0 -47 41 -47q97 0 187 176h26q-46 -91 -108.5 -144t-126.5 -53zM813 717h238l456 694h-16z" />
    <glyph glyph-name="abreve" unicode="&#x103;" horiz-adv-x="778" 
d="M457 -20q-95 0 -95 131q0 61 23 147h-10q-97 -144 -166 -211t-125 -67q-53 0 -84 54t-31 130q0 131 90 272q83 130 210 205.5t270 75.5q66 0 143 -21h102l-256 -401q-77 -118 -103 -170t-26 -78q0 -49 56 -49q60 0 126.5 64.5t170.5 228.5l49 78q10 7 20 0l-49 -78
q-106 -168 -178.5 -239.5t-136.5 -71.5zM715 936q-72 0 -72 78q0 87 107 200h92q-58 -60 -95.5 -122.5t-37.5 -104.5q0 -31 28 -31q54 0 125.5 74.5t112.5 183.5h20q-64 -141 -140 -209.5t-140 -68.5zM35 61q0 -29 14 -46t39 -17q97 0 289 297l94 145l158 238q-31 22 -90 22
q-95 0 -174 -69t-177 -215q-69 -102 -111 -197.5t-42 -157.5z" />
    <glyph glyph-name="Aogonek" unicode="&#x104;" horiz-adv-x="1265" 
d="M-625 -311q-124 0 -213 39l-4 30q95 -45 215 -45q90 0 181.5 23t164.5 51.5t169 95t155.5 111.5t165.5 145.5t157 152t170 173.5q31 31 46 47l180 184h-262l18 21h264l705 719h33q102 0 143 47h31l-666 -1055q-22 -36 -50.5 -81.5t-43 -68.5t-33 -53t-26.5 -45t-17.5 -34
t-13 -31t-6 -25.5t-2.5 -26.5q0 -65 71 -65q81 0 155.5 73t186.5 240l39 58q14 11 21 0l-39 -58q-107 -157 -178.5 -233.5t-147.5 -93.5l-102 -115q-86 -93 -86 -184q0 -40 19 -63t69 -23h67l-10 -19h-96q-143 0 -143 84q0 40 39 87q20 25 120 126l88 90v13h-4q-35 0 -61 16
t-39 41t-19 50t-6 50q0 86 45.5 197.5t163.5 290.5l47 71h-243l-197 -200q-276 -282 -388 -384q-282 -260 -505 -354q-164 -69 -328 -69zM813 717h238l456 694h-16z" />
    <glyph glyph-name="aogonek" unicode="&#x105;" horiz-adv-x="778" 
d="M457 -20q-95 0 -95 131q0 61 23 147h-10q-97 -144 -166 -211t-125 -67q-53 0 -84 54t-31 130q0 131 90 272q83 130 210 205.5t270 75.5q66 0 143 -21h102l-256 -401q-77 -118 -103 -170t-26 -78q0 -49 56 -49q60 0 126.5 64.5t170.5 228.5l49 78q10 7 20 0l-49 -78
q-145 -228 -233 -285l-105 -117q-86 -93 -86 -184q0 -40 19 -63t69 -23h68l-10 -18h-97q-143 0 -143 84q0 36 25 68.5t108 117.5q18 17 27 27l88 90q-19 -8 -45 -8zM35 61q0 -29 14 -46t39 -17q97 0 289 297l94 145l158 238q-31 22 -90 22q-95 0 -174 -69t-177 -215
q-69 -102 -111 -197.5t-42 -157.5z" />
    <glyph glyph-name="Cacute" unicode="&#x106;" horiz-adv-x="1245" 
d="M739 -113q-113 0 -175 90.5t-62 241.5q0 284 188 619q-74 9 -136.5 29t-115 52t-82.5 81.5t-30 111.5q0 132 134.5 213.5t403.5 81.5h314q257 197 462 197q63 0 95 -33t32 -90q0 -33 -12 -74h158l-10 -21h-154q-26 -68 -79.5 -141t-137 -146t-184 -131t-231 -96
t-267.5 -43q-108 -191 -171 -374t-63 -320q0 -107 37.5 -163t108.5 -56q188 0 444 365l62 88q10 7 20 0l-61 -90q-267 -392 -488 -392zM1642 1657l-4 12l367 172l10 -61zM348 1114q0 -59 28.5 -105.5t79 -77t112 -49t134.5 -26.5q181 311 449 530h-289q-259 0 -386.5 -74.5
t-127.5 -197.5zM862 852q133 6 258.5 43.5t221.5 93.5t175.5 125.5t130.5 138.5t76 133h-450q-225 -210 -412 -534zM1296 1407h435q14 38 14 74q0 102 -103 102q-151 0 -346 -176z" />
    <glyph glyph-name="cacute" unicode="&#x107;" horiz-adv-x="524" 
d="M139 -16q-72 0 -112.5 60t-40.5 149q0 131 88 274q66 106 170.5 177t212.5 71q61 0 106 -33l-45 -82q-14 33 -21 47.5t-22.5 30.5t-32.5 16q-80 0 -233 -245q-143 -229 -143 -357q0 -88 77 -88q85 0 181 87t223 278q6 6 13 6t7 -6q-137 -203 -237 -294t-191 -91zM459 915
l-10 11l346 391l47 -51z" />
    <glyph glyph-name="Cdotaccent" unicode="&#x10a;" horiz-adv-x="1245" 
d="M739 -113q-113 0 -175 90.5t-62 241.5q0 284 188 619q-74 9 -136.5 29t-115 52t-82.5 81.5t-30 111.5q0 132 134.5 213.5t403.5 81.5h314q257 197 462 197q63 0 95 -33t32 -90q0 -33 -12 -74h158l-10 -21h-154q-26 -68 -79.5 -141t-137 -146t-184 -131t-231 -96
t-267.5 -43q-108 -191 -171 -374t-63 -320q0 -107 37.5 -163t108.5 -56q188 0 444 365l62 88q10 7 20 0l-61 -90q-267 -392 -488 -392zM1651 1696l88 125h112l-88 -125h-112zM348 1114q0 -59 28.5 -105.5t79 -77t112 -49t134.5 -26.5q181 311 449 530h-289
q-259 0 -386.5 -74.5t-127.5 -197.5zM862 852q133 6 258.5 43.5t221.5 93.5t175.5 125.5t130.5 138.5t76 133h-450q-225 -210 -412 -534zM1296 1407h435q14 38 14 74q0 102 -103 102q-151 0 -346 -176z" />
    <glyph glyph-name="cdotaccent" unicode="&#x10b;" horiz-adv-x="524" 
d="M139 -16q-72 0 -112.5 60t-40.5 149q0 131 88 274q66 106 170.5 177t212.5 71q61 0 106 -33l-45 -82q-14 33 -21 47.5t-22.5 30.5t-32.5 16q-80 0 -233 -245q-143 -229 -143 -357q0 -88 77 -88q85 0 181 87t223 278q6 6 13 6t7 -6q-137 -203 -237 -294t-191 -91z
M553 1047l100 149h123l-100 -149h-123z" />
    <glyph glyph-name="Ccaron" unicode="&#x10c;" horiz-adv-x="1245" 
d="M739 -113q-113 0 -175 90.5t-62 241.5q0 284 188 619q-74 9 -136.5 29t-115 52t-82.5 81.5t-30 111.5q0 132 134.5 213.5t403.5 81.5h314q257 197 462 197q63 0 95 -33t32 -90q0 -33 -12 -74h158l-10 -21h-154q-26 -68 -79.5 -141t-137 -146t-184 -131t-231 -96
t-267.5 -43q-108 -191 -171 -374t-63 -320q0 -107 37.5 -163t108.5 -56q188 0 444 365l62 88q10 7 20 0l-61 -90q-267 -392 -488 -392zM1667 1655l-59 196h16l80 -135l264 135h17l-299 -196h-19zM348 1114q0 -59 28.5 -105.5t79 -77t112 -49t134.5 -26.5q181 311 449 530
h-289q-259 0 -386.5 -74.5t-127.5 -197.5zM862 852q133 6 258.5 43.5t221.5 93.5t175.5 125.5t130.5 138.5t76 133h-450q-225 -210 -412 -534zM1296 1407h435q14 38 14 74q0 102 -103 102q-151 0 -346 -176z" />
    <glyph glyph-name="ccaron" unicode="&#x10d;" horiz-adv-x="524" 
d="M139 -16q-72 0 -112.5 60t-40.5 149q0 131 88 274q66 106 170.5 177t212.5 71q61 0 106 -33l-45 -82q-14 33 -21 47.5t-22.5 30.5t-32.5 16q-80 0 -233 -245q-143 -229 -143 -357q0 -88 77 -88q85 0 181 87t223 278q6 6 13 6t7 -6q-137 -203 -237 -294t-191 -91zM512 918
l96 360h13l-27 -266l315 272l9 -6l-367 -360h-39z" />
    <glyph glyph-name="Dcaron" unicode="&#x10e;" horiz-adv-x="1826" 
d="M193 0l12 20h327l299 478h-14q-211 0 -327.5 115t-116.5 302q0 99 37 200t110.5 193t173 163.5t235 114t285.5 42.5q346 0 521 -221h442l-12 -21h-414q123 -167 123 -401q0 -123 -34.5 -244.5t-97.5 -230.5t-156.5 -202.5t-206.5 -162t-253 -107t-290 -38.5h-643z
M1831 1511l-59 197h16l80 -135l264 135h16l-299 -197h-18zM395 915q0 -179 109.5 -288t314.5 -109h25l485 774l211 115h152q-133 201 -478 201q-154 0 -289 -42.5t-230 -113t-164 -161t-102.5 -187t-33.5 -189.5zM608 20h250q151 0 293 69t251 184t191.5 258.5t126 298.5
t43.5 298q0 155 -59 258h-148l-808 -1292z" />
    <glyph glyph-name="dcaron" unicode="&#x10f;" horiz-adv-x="823" 
d="M483 -14q-106 0 -106 159q0 66 16 121h-12q-101 -150 -171.5 -219.5t-127.5 -69.5q-53 0 -84 54.5t-31 130.5q0 131 90 272q83 130 210 205.5t270 75.5q56 0 100 -10l428 681h-344l12 21h314q71 0 121 21t87 71h27l-690 -1102q-11 -18 -31.5 -51.5t-30 -48.5t-26 -42
t-24 -41t-19 -35t-16.5 -33.5t-11 -28t-8 -28t-2 -23.5q0 -64 59 -64q67 0 137.5 68t157.5 198l68 101q13 7 20 0l-71 -107q-90 -134 -163 -205t-149 -71zM1114 1014l248 393h113l-347 -393h-14zM33 59q0 -29 14 -46t39 -17q98 0 291 301l143 223l101 160q-30 18 -84 18
q-95 0 -174 -69t-177 -215q-69 -102 -111 -197.5t-42 -157.5z" />
    <glyph glyph-name="Dcroat" unicode="&#x110;" horiz-adv-x="1826" 
d="M193 0l12 20h327l299 478h-14q-211 0 -327.5 115t-116.5 302q0 99 37 200t110.5 193t173 163.5t235 114t285.5 42.5q346 0 521 -221h442l-12 -21h-414q123 -167 123 -401q0 -123 -34.5 -244.5t-97.5 -230.5t-156.5 -202.5t-206.5 -162t-253 -107t-290 -38.5h-643z
M764 754l14 20h228l323 518l211 115h152q-133 201 -478 201q-154 0 -289 -42.5t-230 -113t-164 -161t-102.5 -187t-33.5 -189.5q0 -179 109.5 -288t314.5 -109h25l147 236h-227zM608 20h250q151 0 293 69t251 184t191.5 258.5t126 298.5t43.5 298q0 155 -59 258h-148
l-382 -612h262l-15 -20h-260l-413 -660z" />
    <glyph glyph-name="dcroat" unicode="&#x111;" horiz-adv-x="823" 
d="M483 -14q-106 0 -106 159q0 66 16 121h-12q-101 -150 -171.5 -219.5t-127.5 -69.5q-53 0 -84 54.5t-31 130.5q0 131 90 272q83 130 210 205.5t270 75.5q56 0 100 -10l256 407h-313l14 21h311l160 253h-344l12 21h314q71 0 121 21t87 71h27l-229 -366h198l-14 -21h-197
l-448 -715q-11 -18 -31.5 -51.5t-30 -48.5t-26 -42t-24 -41t-19 -35t-16.5 -33.5t-11 -28t-8 -28t-2 -23.5q0 -64 59 -64q67 0 137.5 68t157.5 198l68 101q13 7 20 0l-71 -107q-90 -134 -163 -205t-149 -71zM33 59q0 -29 14 -46t39 -17q98 0 291 301l143 223l101 160
q-30 18 -84 18q-95 0 -174 -69t-177 -215q-69 -102 -111 -197.5t-42 -157.5z" />
    <glyph glyph-name="Emacron" unicode="&#x112;" horiz-adv-x="1523" 
d="M999 -29q-174 0 -364 88q-139 -82 -328 -82q-153 0 -233 45t-80 105q0 48 47.5 80.5t138.5 32.5q26 0 53.5 -3.5t49.5 -7.5t52.5 -14t47.5 -15.5t51 -20.5t47 -21t51.5 -24t49.5 -23q45 45 90.5 110.5t124.5 188.5q-217 41 -330 155.5t-113 263.5q0 82 32.5 162.5
t103 156t171 133t247 92t319.5 34.5h770l-12 -21h-412l-395 -630h225l51 88h27l-133 -226h-27l70 117h-226l-209 -332q-73 -116 -142.5 -196t-149.5 -131q181 -78 340 -78q91 0 165 19.5t132.5 59.5t102.5 89t89 119l53 84q14 7 21 0l-54 -84q-35 -55 -63.5 -93.5t-75 -83.5
t-96.5 -72.5t-122 -46t-157 -18.5zM1391 1569l14 26h426l-14 -26h-426zM14 125q0 -47 74.5 -85t204.5 -38q89 0 151.5 21t116.5 69q-6 3 -37.5 18.5t-39.5 19t-36.5 17t-39 17.5t-36.5 14.5t-39.5 14t-37 10.5t-41 9.5t-39 4.5t-41.5 2q-80 0 -120 -29t-40 -65zM375 829
q0 -143 110.5 -253t323.5 -148l537 862l174 96h-293q-170 0 -313 -33.5t-240.5 -89t-166.5 -128.5t-100.5 -150.5t-31.5 -155.5z" />
    <glyph glyph-name="emacron" unicode="&#x113;" horiz-adv-x="518" 
d="M139 -16q-71 0 -112 59.5t-41 146.5q0 136 77 261q70 115 183.5 189.5t199.5 74.5q37 0 54.5 -18t17.5 -46q0 -60 -82 -135q-100 -87 -270 -137q-100 -180 -100 -287q0 -88 79 -88q81 0 176 84.5t220 280.5q6 6 13 6t7 -6q-131 -207 -231.5 -296t-190.5 -89zM432 1012
l14 26h402l-14 -26h-402zM174 397q157 53 248 135q78 71 78 125q0 41 -41 41q-52 0 -123.5 -74t-147.5 -204z" />
    <glyph glyph-name="Edotaccent" unicode="&#x116;" horiz-adv-x="1523" 
d="M999 -29q-174 0 -364 88q-139 -82 -328 -82q-153 0 -233 45t-80 105q0 48 47.5 80.5t138.5 32.5q26 0 53.5 -3.5t49.5 -7.5t52.5 -14t47.5 -15.5t51 -20.5t47 -21t51.5 -24t49.5 -23q45 45 90.5 110.5t124.5 188.5q-217 41 -330 155.5t-113 263.5q0 82 32.5 162.5
t103 156t171 133t247 92t319.5 34.5h770l-12 -21h-412l-395 -630h225l51 88h27l-133 -226h-27l70 117h-226l-209 -332q-73 -116 -142.5 -196t-149.5 -131q181 -78 340 -78q91 0 165 19.5t132.5 59.5t102.5 89t89 119l53 84q14 7 21 0l-54 -84q-35 -55 -63.5 -93.5t-75 -83.5
t-96.5 -72.5t-122 -46t-157 -18.5zM1536 1552l88 125h113l-88 -125h-113zM14 125q0 -47 74.5 -85t204.5 -38q89 0 151.5 21t116.5 69q-6 3 -37.5 18.5t-39.5 19t-36.5 17t-39 17.5t-36.5 14.5t-39.5 14t-37 10.5t-41 9.5t-39 4.5t-41.5 2q-80 0 -120 -29t-40 -65zM375 829
q0 -143 110.5 -253t323.5 -148l537 862l174 96h-293q-170 0 -313 -33.5t-240.5 -89t-166.5 -128.5t-100.5 -150.5t-31.5 -155.5z" />
    <glyph glyph-name="edotaccent" unicode="&#x117;" horiz-adv-x="518" 
d="M139 -16q-71 0 -112 59.5t-41 146.5q0 136 77 261q70 115 183.5 189.5t199.5 74.5q37 0 54.5 -18t17.5 -46q0 -60 -82 -135q-100 -87 -270 -137q-100 -180 -100 -287q0 -88 79 -88q81 0 176 84.5t220 280.5q6 6 13 6t7 -6q-131 -207 -231.5 -296t-190.5 -89zM590 1049
l100 149h123l-100 -149h-123zM174 397q157 53 248 135q78 71 78 125q0 41 -41 41q-52 0 -123.5 -74t-147.5 -204z" />
    <glyph glyph-name="Eogonek" unicode="&#x118;" horiz-adv-x="1523" 
d="M999 -29q-174 0 -364 88q-139 -82 -328 -82q-153 0 -233 45t-80 105q0 48 47.5 80.5t138.5 32.5q26 0 53.5 -3.5t49.5 -7.5t52.5 -14t47.5 -15.5t51 -20.5t47 -21t51.5 -24t49.5 -23q45 45 90.5 110.5t124.5 188.5q-217 41 -330 155.5t-113 263.5q0 82 32.5 162.5
t103 156t171 133t247 92t319.5 34.5h770l-12 -21h-412l-395 -630h225l51 88h27l-133 -226h-27l70 117h-226l-209 -332q-73 -116 -142.5 -196t-149.5 -131q181 -78 340 -78q91 0 165 19.5t132.5 59.5t102.5 89t89 119l53 84q14 7 21 0l-54 -84q-33 -53 -62 -91.5t-71 -81
t-95 -72.5t-116 -48l-92 -103q-86 -93 -86 -184q0 -40 19 -63t69 -23h68l-10 -18h-97q-143 0 -143 84q0 36 25 68.5t108 117.5q18 17 27 27l86 88q-81 -15 -144 -15zM14 125q0 -47 74.5 -85t204.5 -38q89 0 151.5 21t116.5 69q-6 3 -37.5 18.5t-39.5 19t-36.5 17t-39 17.5
t-36.5 14.5t-39.5 14t-37 10.5t-41 9.5t-39 4.5t-41.5 2q-80 0 -120 -29t-40 -65zM375 829q0 -143 110.5 -253t323.5 -148l537 862l174 96h-293q-170 0 -313 -33.5t-240.5 -89t-166.5 -128.5t-100.5 -150.5t-31.5 -155.5z" />
    <glyph glyph-name="eogonek" unicode="&#x119;" horiz-adv-x="518" 
d="M139 -16q-71 0 -112 59.5t-41 146.5q0 136 77 261q70 115 183.5 189.5t199.5 74.5q37 0 54.5 -18t17.5 -46q0 -60 -82 -135q-100 -87 -270 -137q-100 -180 -100 -287q0 -88 79 -88q81 0 176 84.5t220 280.5q6 6 13 6t7 -6q-190 -298 -328 -363l-104 -117
q-86 -93 -86 -184q0 -40 19 -63t69 -23h68l-11 -18h-96q-143 0 -143 84q0 36 25 68.5t108 117.5q18 17 27 27l88 90v4q-27 -8 -58 -8zM174 397q157 53 248 135q78 71 78 125q0 41 -41 41q-52 0 -123.5 -74t-147.5 -204z" />
    <glyph glyph-name="Ecaron" unicode="&#x11a;" horiz-adv-x="1523" 
d="M999 -29q-174 0 -364 88q-139 -82 -328 -82q-153 0 -233 45t-80 105q0 48 47.5 80.5t138.5 32.5q26 0 53.5 -3.5t49.5 -7.5t52.5 -14t47.5 -15.5t51 -20.5t47 -21t51.5 -24t49.5 -23q45 45 90.5 110.5t124.5 188.5q-217 41 -330 155.5t-113 263.5q0 82 32.5 162.5
t103 156t171 133t247 92t319.5 34.5h770l-12 -21h-412l-395 -630h225l51 88h27l-133 -226h-27l70 117h-226l-209 -332q-73 -116 -142.5 -196t-149.5 -131q181 -78 340 -78q91 0 165 19.5t132.5 59.5t102.5 89t89 119l53 84q14 7 21 0l-54 -84q-35 -55 -63.5 -93.5t-75 -83.5
t-96.5 -72.5t-122 -46t-157 -18.5zM1552 1511l-59 197h16l80 -135l264 135h17l-299 -197h-19zM14 125q0 -47 74.5 -85t204.5 -38q89 0 151.5 21t116.5 69q-6 3 -37.5 18.5t-39.5 19t-36.5 17t-39 17.5t-36.5 14.5t-39.5 14t-37 10.5t-41 9.5t-39 4.5t-41.5 2q-80 0 -120 -29
t-40 -65zM375 829q0 -143 110.5 -253t323.5 -148l537 862l174 96h-293q-170 0 -313 -33.5t-240.5 -89t-166.5 -128.5t-100.5 -150.5t-31.5 -155.5z" />
    <glyph glyph-name="ecaron" unicode="&#x11b;" horiz-adv-x="518" 
d="M139 -16q-71 0 -112 59.5t-41 146.5q0 136 77 261q70 115 183.5 189.5t199.5 74.5q37 0 54.5 -18t17.5 -46q0 -60 -82 -135q-100 -87 -270 -137q-100 -180 -100 -287q0 -88 79 -88q81 0 176 84.5t220 280.5q6 6 13 6t7 -6q-131 -207 -231.5 -296t-190.5 -89zM549 920
l96 360h12l-26 -266l315 272l8 -6l-366 -360h-39zM174 397q157 53 248 135q78 71 78 125q0 41 -41 41q-52 0 -123.5 -74t-147.5 -204z" />
    <glyph glyph-name="Gcircumflex" unicode="&#x11c;" horiz-adv-x="1593" 
d="M371 -715q-199 0 -310.5 87t-91.5 229q18 124 122.5 180.5t270.5 56.5q55 0 260 -10t285 -10h33q48 68 103.5 151t121 182.5t101.5 153.5h-6q-127 -161 -235.5 -238t-215.5 -77q-126 0 -191 96t-65 250q0 245 168 532q-67 11 -123.5 29.5t-105.5 48.5t-77 75t-28 101
q0 124 136 204.5t403 80.5h278q270 197 482 197q82 0 116.5 -43t34.5 -105q0 -17 -4 -49h160l-15 -21h-149q-31 -143 -177.5 -266.5t-351 -193.5t-409.5 -70h-8q-102 -185 -161.5 -361t-59.5 -298q0 -187 153 -187q121 0 250.5 111t296.5 346q5 65 27 190h151
q-77 -71 -160 -217q-83 -130 -172 -333.5t-129 -278.5q136 42 236 139.5t237 304.5l64 97q13 7 20 0l-63 -97q-141 -216 -249.5 -319.5t-256.5 -147.5l-27 -47q-67 -117 -133 -200t-147 -147t-177.5 -95t-211.5 -31zM1507 1667l-6 12l322 189h18l33 -197h-16l-62 135z
M-10 -399q-12 -83 28.5 -148t111.5 -97t157 -32q72 0 144.5 25.5t135 67.5t127.5 104.5t119 128t113 147.5h-19q-82 0 -287.5 11.5t-261.5 11.5q-335 0 -368 -219zM410 1124q0 -51 26.5 -93t73.5 -69.5t101.5 -45t119.5 -27.5q88 143 204 271.5t243 225.5h-254
q-256 0 -385 -74.5t-129 -187.5zM895 877q199 1 397 68.5t340 186t174 254.5h-520q-215 -197 -391 -509zM1309 1407h501q5 40 5 49q0 55 -30 92t-99 37q-173 0 -377 -178z" />
    <glyph glyph-name="gcircumflex" unicode="&#x11d;" horiz-adv-x="778" 
d="M-334 -713q-100 0 -100 99q0 48 25 103.5t76.5 118.5t141.5 132t209 133l187 100l168 271h-8q-94 -127 -161 -185.5t-122 -58.5q-53 0 -83 50.5t-30 121.5q0 127 92 268q86 131 214.5 204t263.5 73q60 0 135 -21h108l-172 -272l-239 -399q69 32 102 48.5t84.5 47.5
t85 61.5t75.5 78t83 108.5q10 7 20 0q-41 -65 -85 -115.5t-80 -82.5t-92 -65.5t-94 -51.5t-114 -52l-47 -78q-393 -637 -643 -637zM487 920l-12 10l328 338h31l-39 -348h-19l-14 235zM-412 -610q-2 -38 14.5 -61t51.5 -23q39 0 86.5 33.5t91 80.5t103.5 132t103.5 153
t111.5 178l40 66l-163 -88q-116 -62 -204 -130.5t-136.5 -130.5t-72.5 -114t-26 -96zM33 76q0 -58 51 -58t111.5 54t150.5 178q108 158 160 242l117 184q-36 24 -88 24q-163 0 -347 -276q-155 -233 -155 -348z" />
    <glyph glyph-name="Gbreve" unicode="&#x11e;" horiz-adv-x="1593" 
d="M371 -715q-199 0 -310.5 87t-91.5 229q18 124 122.5 180.5t270.5 56.5q55 0 260 -10t285 -10h33q48 68 103.5 151t121 182.5t101.5 153.5h-6q-127 -161 -235.5 -238t-215.5 -77q-126 0 -191 96t-65 250q0 245 168 532q-67 11 -123.5 29.5t-105.5 48.5t-77 75t-28 101
q0 124 136 204.5t403 80.5h278q270 197 482 197q82 0 116.5 -43t34.5 -105q0 -17 -4 -49h160l-15 -21h-149q-31 -143 -177.5 -266.5t-351 -193.5t-409.5 -70h-8q-102 -185 -161.5 -361t-59.5 -298q0 -187 153 -187q121 0 250.5 111t296.5 346q5 65 27 190h151
q-77 -71 -160 -217q-83 -130 -172 -333.5t-129 -278.5q136 42 236 139.5t237 304.5l64 97q13 7 20 0l-63 -97q-141 -216 -249.5 -319.5t-256.5 -147.5l-27 -47q-67 -117 -133 -200t-147 -147t-177.5 -95t-211.5 -31zM1686 1671q-42 0 -63 24t-21 62q0 55 36 111h80
q-28 -47 -39.5 -74t-11.5 -55q0 -47 41 -47q96 0 186 176h27q-46 -91 -108.5 -144t-126.5 -53zM-10 -399q-12 -83 28.5 -148t111.5 -97t157 -32q72 0 144.5 25.5t135 67.5t127.5 104.5t119 128t113 147.5h-19q-82 0 -287.5 11.5t-261.5 11.5q-335 0 -368 -219zM410 1124
q0 -51 26.5 -93t73.5 -69.5t101.5 -45t119.5 -27.5q88 143 204 271.5t243 225.5h-254q-256 0 -385 -74.5t-129 -187.5zM895 877q199 1 397 68.5t340 186t174 254.5h-520q-215 -197 -391 -509zM1309 1407h501q5 40 5 49q0 55 -30 92t-99 37q-173 0 -377 -178z" />
    <glyph glyph-name="gbreve" unicode="&#x11f;" horiz-adv-x="778" 
d="M-334 -713q-100 0 -100 99q0 48 25 103.5t76.5 118.5t141.5 132t209 133l187 100l168 271h-8q-94 -127 -161 -185.5t-122 -58.5q-53 0 -83 50.5t-30 121.5q0 127 92 268q86 131 214.5 204t263.5 73q60 0 135 -21h108l-172 -272l-239 -399q69 32 102 48.5t84.5 47.5
t85 61.5t75.5 78t83 108.5q10 7 20 0q-41 -65 -85 -115.5t-80 -82.5t-92 -65.5t-94 -51.5t-114 -52l-47 -78q-393 -637 -643 -637zM674 936q-72 0 -72 78q0 87 107 200h92q-58 -60 -95.5 -122.5t-37.5 -104.5q0 -31 28 -31q54 0 125.5 74.5t112.5 183.5h20
q-64 -141 -140 -209.5t-140 -68.5zM-412 -610q-2 -38 14.5 -61t51.5 -23q39 0 86.5 33.5t91 80.5t103.5 132t103.5 153t111.5 178l40 66l-163 -88q-116 -62 -204 -130.5t-136.5 -130.5t-72.5 -114t-26 -96zM33 76q0 -58 51 -58t111.5 54t150.5 178q108 158 160 242l117 184
q-36 24 -88 24q-163 0 -347 -276q-155 -233 -155 -348z" />
    <glyph glyph-name="Gdotaccent" unicode="&#x120;" horiz-adv-x="1593" 
d="M371 -715q-199 0 -310.5 87t-91.5 229q18 124 122.5 180.5t270.5 56.5q55 0 260 -10t285 -10h33q48 68 103.5 151t121 182.5t101.5 153.5h-6q-127 -161 -235.5 -238t-215.5 -77q-126 0 -191 96t-65 250q0 245 168 532q-67 11 -123.5 29.5t-105.5 48.5t-77 75t-28 101
q0 124 136 204.5t403 80.5h278q270 197 482 197q82 0 116.5 -43t34.5 -105q0 -17 -4 -49h160l-15 -21h-149q-31 -143 -177.5 -266.5t-351 -193.5t-409.5 -70h-8q-102 -185 -161.5 -361t-59.5 -298q0 -187 153 -187q121 0 250.5 111t296.5 346q5 65 27 190h151
q-77 -71 -160 -217q-83 -130 -172 -333.5t-129 -278.5q136 42 236 139.5t237 304.5l64 97q13 7 20 0l-63 -97q-141 -216 -249.5 -319.5t-256.5 -147.5l-27 -47q-67 -117 -133 -200t-147 -147t-177.5 -95t-211.5 -31zM1679 1712l88 125h113l-88 -125h-113zM-10 -399
q-12 -83 28.5 -148t111.5 -97t157 -32q72 0 144.5 25.5t135 67.5t127.5 104.5t119 128t113 147.5h-19q-82 0 -287.5 11.5t-261.5 11.5q-335 0 -368 -219zM410 1124q0 -51 26.5 -93t73.5 -69.5t101.5 -45t119.5 -27.5q88 143 204 271.5t243 225.5h-254q-256 0 -385 -74.5
t-129 -187.5zM895 877q199 1 397 68.5t340 186t174 254.5h-520q-215 -197 -391 -509zM1309 1407h501q5 40 5 49q0 55 -30 92t-99 37q-173 0 -377 -178z" />
    <glyph glyph-name="gdotaccent" unicode="&#x121;" horiz-adv-x="778" 
d="M-334 -713q-100 0 -100 99q0 48 25 103.5t76.5 118.5t141.5 132t209 133l187 100l168 271h-8q-94 -127 -161 -185.5t-122 -58.5q-53 0 -83 50.5t-30 121.5q0 127 92 268q86 131 214.5 204t263.5 73q60 0 135 -21h108l-172 -272l-239 -399q69 32 102 48.5t84.5 47.5
t85 61.5t75.5 78t83 108.5q10 7 20 0q-41 -65 -85 -115.5t-80 -82.5t-92 -65.5t-94 -51.5t-114 -52l-47 -78q-393 -637 -643 -637zM662 1049l100 149h123l-101 -149h-122zM-412 -610q-2 -38 14.5 -61t51.5 -23q39 0 86.5 33.5t91 80.5t103.5 132t103.5 153t111.5 178l40 66
l-163 -88q-116 -62 -204 -130.5t-136.5 -130.5t-72.5 -114t-26 -96zM33 76q0 -58 51 -58t111.5 54t150.5 178q108 158 160 242l117 184q-36 24 -88 24q-163 0 -347 -276q-155 -233 -155 -348z" />
    <glyph glyph-name="uni0122" unicode="&#x122;" horiz-adv-x="1593" 
d="M371 -715q-199 0 -310.5 87t-91.5 229q18 124 122.5 180.5t270.5 56.5q65 0 295 -12l52 90h100l-76 -94l174 -4h33q48 68 103.5 151t121 182.5t101.5 153.5h-6q-127 -161 -235.5 -238t-215.5 -77q-126 0 -191 96t-65 250q0 245 168 532q-67 11 -123.5 29.5t-105.5 48.5
t-77 75t-28 101q0 124 136 204.5t403 80.5h278q270 197 482 197q82 0 116.5 -43t34.5 -105q0 -17 -4 -49h160l-15 -21h-149q-31 -143 -177.5 -266.5t-351 -193.5t-409.5 -70h-8q-102 -185 -161.5 -361t-59.5 -298q0 -187 153 -187q121 0 250.5 111t296.5 346q5 65 27 190
h151q-77 -71 -160 -217q-83 -130 -172 -333.5t-129 -278.5q136 42 236 139.5t237 304.5l64 97q13 7 20 0l-63 -97q-141 -216 -249.5 -319.5t-256.5 -147.5l-27 -47q-67 -117 -133 -200t-147 -147t-177.5 -95t-211.5 -31zM524 -436l-8 10l131 233q-245 13 -289 13
q-335 0 -368 -219q-12 -83 28.5 -148t111.5 -97t157 -32q72 0 144.5 25.5t135 67.5t127.5 104.5t119 128t113 147.5h-19q-83 0 -188 6zM410 1124q0 -51 26.5 -93t73.5 -69.5t101.5 -45t119.5 -27.5q88 143 204 271.5t243 225.5h-254q-256 0 -385 -74.5t-129 -187.5zM895 877
q199 1 397 68.5t340 186t174 254.5h-520q-215 -197 -391 -509zM1309 1407h501q5 40 5 49q0 55 -30 92t-99 37q-173 0 -377 -178z" />
    <glyph glyph-name="uni0123" unicode="&#x123;" horiz-adv-x="778" 
d="M-334 -713q-100 0 -100 99q0 48 25 103.5t76.5 118.5t141.5 132t209 133l187 100l168 271h-8q-94 -127 -161 -185.5t-122 -58.5q-53 0 -83 50.5t-30 121.5q0 127 92 268q86 131 214.5 204t263.5 73q60 0 135 -21h108l-172 -272l-239 -399q69 32 102 48.5t84.5 47.5
t85 61.5t75.5 78t83 108.5q10 7 20 0q-41 -65 -85 -115.5t-80 -82.5t-92 -65.5t-94 -51.5t-114 -52l-47 -78q-393 -637 -643 -637zM674 907q-20 47 -21 96t22.5 95t60 82t91 58t115.5 22l-22 -25q-78 0 -146.5 -48t-68.5 -100q0 -25 14.5 -46.5t46.5 -51.5l-49 -82h-43z
M-412 -610q-2 -38 14.5 -61t51.5 -23q39 0 86.5 33.5t91 80.5t103.5 132t103.5 153t111.5 178l40 66l-163 -88q-116 -62 -204 -130.5t-136.5 -130.5t-72.5 -114t-26 -96zM33 76q0 -58 51 -58t111.5 54t150.5 178q108 158 160 242l117 184q-36 24 -88 24q-163 0 -347 -276
q-155 -233 -155 -348z" />
    <glyph glyph-name="Hcircumflex" unicode="&#x124;" horiz-adv-x="1812" 
d="M291 -113q-155 0 -256 92.5t-101 227.5q0 152 91 266t251 174t367 60h21q-107 31 -166.5 102.5t-59.5 171.5q0 134 99.5 231.5t273 146t401.5 48.5h1178l-12 -21h-205l-807 -1290l-141 -76h334l-13 -20h-645l12 20h236l416 666h-373l-201 -321q-70 -113 -137.5 -194
t-152 -148.5t-187 -101.5t-223.5 -34zM1755 1507l-6 13l322 188h18l33 -197h-17l-61 136zM-45 207q0 -126 94.5 -212.5t239.5 -86.5q82 0 146.5 25.5t131.5 91t126.5 147.5t150.5 227l180 287h-387q-200 0 -354 -57t-241 -166.5t-87 -255.5zM459 981q0 -126 98.5 -200
t265.5 -74h213l365 583l178 96h-367q-223 0 -392 -47t-265 -139t-96 -219zM1204 707h375l365 583l176 96h-490z" />
    <glyph glyph-name="hcircumflex" unicode="&#x125;" horiz-adv-x="847" 
d="M-96 0l860 1386h-358l12 21h332q71 0 120 20.5t86 71.5h27l-678 -1059h17q213 275 344 275q84 0 84 -129q0 -60 -22.5 -114t-82.5 -134l-63 -84q-67 -90 -93 -134t-26 -73q0 -51 55 -51q29 0 58.5 15.5t54 36.5t59.5 64.5t58.5 77.5t66.5 97l55 82q14 11 21 0l-55 -82
q-50 -75 -80 -116.5t-74.5 -92.5t-85 -74.5t-80.5 -23.5q-53 0 -75.5 40t-22.5 97q0 122 125 286l67 89q90 118 90 163q0 37 -41 37q-157 0 -454 -450l-154 -242h-147zM713 1534l-6 12l321 189h19l32 -197h-16l-62 135z" />
    <glyph glyph-name="Hbar" unicode="&#x126;" horiz-adv-x="1812" 
d="M291 -113q-155 0 -256 92.5t-101 227.5q0 152 91 266t251 174t367 60h21q-107 31 -166.5 102.5t-59.5 171.5q0 134 99.5 231.5t273 146t401.5 48.5h1178l-12 -21h-205l-227 -364h278l-14 -21h-277l-567 -905l-141 -76h334l-13 -20h-645l12 20h236l416 666h-373l-201 -321
q-70 -113 -137.5 -194t-152 -148.5t-187 -101.5t-223.5 -34zM918 1001l14 21h301l168 268l178 96h-367q-223 0 -392 -47t-265 -139t-96 -219q0 -126 98.5 -200t265.5 -74h213l185 294h-303zM-45 207q0 -126 94.5 -212.5t239.5 -86.5q82 0 146.5 25.5t131.5 91t126.5 147.5
t150.5 227l180 287h-387q-200 0 -354 -57t-241 -166.5t-87 -255.5zM1204 707h375l184 294h-372zM1403 1022h373l168 268l176 96h-490z" />
    <glyph glyph-name="hbar" unicode="&#x127;" horiz-adv-x="847" 
d="M-96 0l690 1112h-305l14 21h303l158 253h-358l12 21h332q71 0 120 20.5t86 71.5h27l-235 -366h213l-15 -21h-211l-430 -672h17q213 275 344 275q84 0 84 -129q0 -60 -22.5 -114t-82.5 -134l-63 -84q-67 -90 -93 -134t-26 -73q0 -51 55 -51q29 0 58.5 15.5t54 36.5
t59.5 64.5t58.5 77.5t66.5 97l55 82q14 11 21 0l-55 -82q-50 -75 -80 -116.5t-74.5 -92.5t-85 -74.5t-80.5 -23.5q-53 0 -75.5 40t-22.5 97q0 122 125 286l67 89q90 118 90 163q0 37 -41 37q-157 0 -454 -450l-154 -242h-147z" />
    <glyph glyph-name="Itilde" unicode="&#x128;" horiz-adv-x="761" 
d="M-238 0l13 20h272l793 1270l174 96h-379l12 21h694l-12 -21h-262l-809 -1292l-133 -74h352l-12 -20h-703zM1188 1485q-31 0 -56 20.5t-39 45t-36 45t-47 20.5q-29 0 -54.5 -23.5t-81.5 -93.5l-14 12q74 96 111 130t78 34q31 0 57.5 -22t41.5 -48.5t36 -48.5t43 -22
q37 0 37 45q0 29 -29 66l22 6q23 -41 23 -68q0 -43 -26 -70.5t-66 -27.5z" />
    <glyph glyph-name="itilde" unicode="&#x129;" horiz-adv-x="415" 
d="M106 -14q-98 0 -98 145q0 90 33.5 170t108.5 199l104 166l-4 12h-86q0 10 10 18h229l5 -20l-164 -258q-135 -211 -167 -269t-32 -92q0 -55 61 -55q27 0 55 14t50.5 34t52.5 58.5t51 69.5t56 86l67 105q14 7 21 0l-72 -111q-44 -68 -69 -104t-64 -81.5t-75 -66t-73 -20.5z
M571 940q-34 0 -63 24t-46 52t-40.5 52t-48.5 24q-29 0 -54 -27t-81 -111l-15 15q76 114 112 153t77 39q31 0 59.5 -26.5t46.5 -57.5t43 -57.5t49 -26.5q37 0 37 49q0 42 -29 82l23 6q23 -44 23 -83q0 -46 -26.5 -76.5t-66.5 -30.5z" />
    <glyph glyph-name="Imacron" unicode="&#x12a;" horiz-adv-x="761" 
d="M-238 0l13 20h272l793 1270l174 96h-379l12 21h694l-12 -21h-262l-809 -1292l-133 -74h352l-12 -20h-703zM905 1569l15 26h426l-15 -26h-426z" />
    <glyph glyph-name="imacron" unicode="&#x12b;" horiz-adv-x="415" 
d="M106 -14q-98 0 -98 145q0 90 33.5 170t108.5 199l104 166l-4 12h-86q0 10 10 18h229l5 -20l-164 -258q-135 -211 -167 -269t-32 -92q0 -55 61 -55q27 0 55 14t50.5 34t52.5 58.5t51 69.5t56 86l67 105q14 7 21 0l-72 -111q-44 -68 -69 -104t-64 -81.5t-75 -66t-73 -20.5z
M299 1012l14 26h402l-15 -26h-401z" />
    <glyph glyph-name="Iogonek" unicode="&#x12e;" horiz-adv-x="761" 
d="M-238 0l13 20h272l793 1270l174 96h-379l12 21h694l-12 -21h-262l-809 -1292l-133 -74h352l-12 -20h-4l-99 -111q-86 -93 -86 -184q0 -40 19.5 -63t69.5 -23h67l-10 -18h-96q-144 0 -144 84q0 36 25 68.5t108 117.5q18 17 27 27l88 90v12h-668z" />
    <glyph glyph-name="iogonek" unicode="&#x12f;" horiz-adv-x="415" 
d="M457 1049l100 149h123l-100 -149h-123zM-4 -414q-143 0 -143 84q0 40 39 87q20 25 120 126l88 90v13q-92 5 -92 145q0 90 33.5 170t108.5 199l104 166l-4 12h-86q0 10 10 18h229l5 -20l-164 -258q-135 -211 -167 -269t-32 -92q0 -55 61 -55q27 0 55 14t50.5 34t52.5 58.5
t51 69.5t56 86l67 105q14 7 21 0l-72 -111q-41 -63 -63 -95t-57.5 -76.5t-67 -67t-64.5 -29.5l-102 -115q-86 -93 -86 -184q0 -40 19 -63t69 -23h67l-10 -19h-96z" />
    <glyph glyph-name="Idotaccent" unicode="&#x130;" horiz-adv-x="761" 
d="M-238 0l13 20h272l793 1270l174 96h-379l12 21h694l-12 -21h-262l-809 -1292l-133 -74h352l-12 -20h-703zM1051 1552l88 125h112l-88 -125h-112z" />
    <glyph glyph-name="dotlessi" unicode="&#x131;" horiz-adv-x="415" 
d="M106 -14q-98 0 -98 145q0 90 33.5 170t108.5 199l104 166l-4 12h-86q0 10 10 18h229l5 -20l-164 -258q-135 -211 -167 -269t-32 -92q0 -55 61 -55q27 0 55 14t50.5 34t52.5 58.5t51 69.5t56 86l67 105q14 7 21 0l-72 -111q-44 -68 -69 -104t-64 -81.5t-75 -66t-73 -20.5z
" />
    <glyph glyph-name="IJ" unicode="&#x132;" horiz-adv-x="1449" 
d="M61 -713q-167 0 -167 135q0 59 30.5 127.5t92 144.5t168 156t245.5 150h-668l13 20h264l792 1270l177 96h-379l12 21h1421l-12 -21h-297l-637 -1021q-87 -140 -132 -211t-125.5 -193.5t-131.5 -187.5t-125.5 -156.5t-133 -140t-129 -98.5t-139.5 -70.5t-139 -20.5z
M-84 -582q0 -53 33 -81.5t94 -28.5q155 0 335 204q130 146 351 500q36 57 111 180q71 114 108 173l578 925l174 96h-637l-811 -1292l-133 -74h352l10 -61q-144 -66 -256.5 -143t-177.5 -148.5t-98 -135t-33 -114.5z" />
    <glyph glyph-name="ij" unicode="&#x133;" horiz-adv-x="966" 
d="M106 -14q-98 0 -98 145q0 90 33.5 170t108.5 199l104 166l-4 12h-86q0 10 10 18h229l5 -20l-164 -258q-135 -211 -167 -269t-32 -92q0 -55 61 -55q27 0 55 14t50.5 34t52.5 58.5t51 69.5t56 86l67 105l2 2l217 325h281l4 -20l-389 -617q156 79 250.5 142.5t185.5 167.5
q10 7 21 0q-97 -113 -199.5 -181.5t-273.5 -152.5q-262 -415 -410.5 -578.5t-276.5 -163.5q-104 0 -104 101q0 63 39.5 131.5t98.5 128t149.5 127.5t169.5 118.5t182 110.5l37 60l369 596l-5 12h-120l-205 -309l-4 -4l-70 -107q-44 -68 -69 -104t-64 -81.5t-75 -66
t-73 -20.5zM457 1049l100 149h123l-100 -149h-123zM973 1049l100 149h123l-100 -149h-123zM-238 -606q0 -38 18 -60t50 -22q70 0 182.5 140.5t352.5 527.5q-603 -345 -603 -586z" />
    <glyph glyph-name="Jcircumflex" unicode="&#x134;" horiz-adv-x="1050" 
d="M-266 -713q-140 0 -140 131q0 150 148.5 348t397 396t550.5 364l477 764l172 96h-497l12 21h809l-12 -21h-256l-477 -765q85 39 184 75l2 -18q-112 -44 -207 -88l-139 -225q-87 -140 -134.5 -215t-137 -207t-149 -208t-146 -173t-155 -148.5t-149 -89t-153.5 -37.5z
M1147 1507l-6 13l321 188h19l32 -197h-16l-61 136zM-385 -584q0 -57 26.5 -82.5t79.5 -25.5q46 0 93 20.5t91 54.5t96 93t98.5 122t108.5 157t116 180.5t130 209.5q88 143 136 220l80 129q-291 -165 -531.5 -361.5t-382 -387.5t-141.5 -329z" />
    <glyph glyph-name="jcircumflex" unicode="&#x135;" horiz-adv-x="530" 
d="M-586 -707q-104 0 -104 101q0 63 39.5 131.5t98.5 128t149.5 127.5t169.5 118.5t182 110.5l37 60l368 596l-4 12h-127q-5 9 10 18h269l4 -20l-389 -617q156 79 250.5 142.5t185.5 167.5q10 7 20 0q-97 -113 -199.5 -181.5t-273.5 -152.5q-262 -415 -410.5 -578.5
t-275.5 -163.5zM362 920l-12 10l328 338h31l-39 -348h-19l-14 235zM-674 -606q0 -38 18 -60t50 -22q70 0 181.5 140t352.5 528q-602 -345 -602 -586z" />
    <glyph glyph-name="uni0136" unicode="&#x136;" horiz-adv-x="1542" 
d="M53 0l13 20h329l242 388q-167 22 -264 128t-97 269q0 98 36 188t107.5 165t171 131t233 87t286.5 31h803q137 124 256 192t241 68v-20q-114 0 -225 -62.5t-241 -177.5h81l-12 -21h-94q-41 -38 -133.5 -126t-148.5 -138t-138 -115t-160.5 -107t-158.5 -64q95 0 148.5 -55
t53.5 -140q0 -116 -75 -235l-60 -93q-8 -13 -25 -39t-23.5 -36.5t-19.5 -31t-18 -30t-14 -25.5t-12.5 -25t-7.5 -21.5t-5.5 -22t-1.5 -19.5q0 -59 68 -59q78 0 153 73.5t185 233.5l39 58q13 10 20 0l-39 -58q-112 -163 -194.5 -244t-165.5 -81q-107 0 -107 151
q0 154 121 344l74 115q45 68 45 123q0 47 -38.5 73.5t-113.5 26.5h-67l-37 -4l-453 -721l-139 -74h381l-12 -20h-787zM190 -436l-8 10l193 342h100zM297 807q0 -155 94.5 -257t257.5 -124l541 864l176 96h-256q-188 0 -343 -46.5t-257 -126.5t-157.5 -184.5t-55.5 -221.5z
M1075 838q65 6 128.5 26.5t126 56t116 72t117 92t108.5 96.5t112 105t107 100h-471z" />
    <glyph glyph-name="uni0137" unicode="&#x137;" horiz-adv-x="802" 
d="M-96 0l866 1386h-364l12 21h334q72 0 119.5 20.5t86.5 71.5h29l-680 -1059h12q109 132 208.5 203.5t164.5 71.5q45 0 68.5 -30t23.5 -67q0 -62 -62 -114t-181 -68v-6q27 -28 38 -46.5t11 -41.5q0 -27 -15 -54t-59 -87q-6 -8 -28 -37t-29 -39t-19.5 -30t-17 -33t-4.5 -25
q0 -37 45 -37q59 0 135 67.5t160 196.5l67 105q14 7 21 0l-72 -111q-178 -274 -313 -274q-42 0 -73.5 32t-31.5 86q0 30 12.5 61.5t28 54.5t49.5 69l15 21t14 19.5t12 17t11.5 17t9 14t7.5 14t5 12t4.5 12t1.5 10.5h-98l8 16h29q102 0 188 78t86 141q0 37 -45 37
q-80 0 -200 -99t-224 -245l-219 -352h-147zM-43 -436l-8 10l192 342h101z" />
    <glyph glyph-name="kgreenlandic" unicode="&#x138;" horiz-adv-x="804" 
d="M471 -16q-48 0 -79.5 30.5t-31.5 85.5q0 63 64 150l22 31q63 84 72 109q4 10 4 18t-4 16h-82l8 16h29q102 0 188.5 78t86.5 141q0 37 -46 37q-82 0 -204.5 -103t-223.5 -253l-45 -72l-174 -268h-143l297 469q72 112 72 156q0 28 -15 40.5t-53 12.5h-84q3 11 10 18h82
q48 0 70 -24t22 -80v-152h15q109 133 208 204t166 71q44 0 67.5 -30t23.5 -67q0 -63 -66 -116.5t-190 -67.5v-6q45 -34 45 -82q0 -49 -72 -153l-18 -27q-68 -98 -68 -131q0 -35 47 -35q34 0 71 20t64.5 45t61 67.5t50.5 67.5t42 64l67 105q14 7 21 0l-72 -111
q-82 -126 -156 -200t-149 -74z" />
    <glyph glyph-name="Lacute" unicode="&#x139;" horiz-adv-x="1277" 
d="M-102 47q89 -27 194 -27q98 0 184 35.5t143 77.5t128 140.5t106 158.5t110 197q45 81 68 123q-229 6 -359 86t-130 229q0 156 176.5 248t503.5 92h274q218 221 373 221q54 0 82.5 -35.5t28.5 -95.5q0 -36 -13 -90h160l-12 -21h-152q-28 -94 -93 -192t-159.5 -187.5
t-227.5 -156t-279 -88.5q-75 -126 -132.5 -214.5t-130 -182.5t-139 -156t-147.5 -112t-168 -74h461q87 0 159 18t123 45t102.5 76.5t85 92.5t82.5 114q14 7 21 0q-101 -145 -152 -198q-116 -124 -275 -157q-69 -14 -153 -14h-874zM1524 1657l-4 12l366 172l10 -61zM362 1067
q0 -140 127.5 -215t354.5 -80l82 141q181 293 352 473h-256q-319 0 -489.5 -87.5t-170.5 -231.5zM1018 784q140 23 266.5 87t215.5 150t150 179.5t87 185.5h-355q-76 -107 -280 -458zM1397 1407h346q12 49 12 94q0 107 -92 107q-64 0 -128.5 -51t-137.5 -150z" />
    <glyph glyph-name="lacute" unicode="&#x13a;" horiz-adv-x="415" 
d="M72 -18q-58 0 -86.5 41.5t-28.5 111.5q0 77 32.5 161.5t119.5 221.5l542 868h-317l12 21h287q71 0 118.5 20.5t86.5 71.5h26l-682 -1100q-117 -180 -147.5 -239t-30.5 -101q0 -28 18.5 -44.5t53.5 -16.5q68 0 137.5 69t157.5 201l67 101q14 7 21 0l-72 -107
q-94 -140 -165 -210t-150 -70zM887 1540l-4 12l366 172l11 -61z" />
    <glyph glyph-name="uni013B" unicode="&#x13b;" horiz-adv-x="1277" 
d="M-102 47q89 -27 194 -27q98 0 184 35.5t143 77.5t128 140.5t106 158.5t110 197q45 81 68 123q-229 6 -359 86t-130 229q0 156 176.5 248t503.5 92h274q218 221 373 221q54 0 82.5 -35.5t28.5 -95.5q0 -36 -13 -90h160l-12 -21h-152q-28 -94 -93 -192t-159.5 -187.5
t-227.5 -156t-279 -88.5q-75 -126 -132.5 -214.5t-130 -182.5t-139 -156t-147.5 -112t-168 -74h461q87 0 159 18t123 45t102.5 76.5t85 92.5t82.5 114q14 7 21 0q-101 -145 -152 -198q-116 -124 -275 -157q-69 -14 -153 -14h-874zM111 -436l-9 10l193 342h100zM362 1067
q0 -140 127.5 -215t354.5 -80l82 141q181 293 352 473h-256q-319 0 -489.5 -87.5t-170.5 -231.5zM1018 784q140 23 266.5 87t215.5 150t150 179.5t87 185.5h-355q-76 -107 -280 -458zM1397 1407h346q12 49 12 94q0 107 -92 107q-64 0 -128.5 -51t-137.5 -150z" />
    <glyph glyph-name="uni013C" unicode="&#x13c;" horiz-adv-x="415" 
d="M72 -18q-58 0 -86.5 41.5t-28.5 111.5q0 77 32.5 161.5t119.5 221.5l542 868h-317l12 21h287q71 0 118.5 20.5t86.5 71.5h26l-682 -1100q-117 -180 -147.5 -239t-30.5 -101q0 -28 18.5 -44.5t53.5 -16.5q68 0 137.5 69t157.5 201l67 101q14 7 21 0l-72 -107
q-94 -140 -165 -210t-150 -70zM-174 -436l-8 10l192 342h101z" />
    <glyph glyph-name="Lcaron" unicode="&#x13d;" horiz-adv-x="1277" 
d="M-102 47q89 -27 194 -27q98 0 184 35.5t143 77.5t128 140.5t106 158.5t110 197q45 81 68 123q-229 6 -359 86t-130 229q0 156 176.5 248t503.5 92h274q218 221 373 221q54 0 82.5 -35.5t28.5 -95.5q0 -36 -13 -90h152l2 2h113l-346 -393h-15l234 370h-144
q-28 -94 -93 -192t-159.5 -187.5t-227.5 -156t-279 -88.5q-75 -126 -132.5 -214.5t-130 -182.5t-139 -156t-147.5 -112t-168 -74h461q87 0 159 18t123 45t102.5 76.5t85 92.5t82.5 114q14 7 21 0q-101 -145 -152 -198q-116 -124 -275 -157q-69 -14 -153 -14h-874zM362 1067
q0 -140 127.5 -215t354.5 -80l82 141q181 293 352 473h-256q-319 0 -489.5 -87.5t-170.5 -231.5zM1018 784q140 23 266.5 87t215.5 150t150 179.5t87 185.5h-355q-76 -107 -280 -458zM1397 1407h346q12 49 12 94q0 107 -92 107q-64 0 -128.5 -51t-137.5 -150z" />
    <glyph glyph-name="lcaron" unicode="&#x13e;" horiz-adv-x="415" 
d="M72 -18q-58 0 -86.5 41.5t-28.5 111.5q0 77 32.5 161.5t119.5 221.5l542 868h-317l12 21h287q71 0 118.5 20.5t86.5 71.5h26l-682 -1100q-117 -180 -147.5 -239t-30.5 -101q0 -28 18.5 -44.5t53.5 -16.5q68 0 137.5 69t157.5 201l67 101q14 7 21 0l-72 -107
q-94 -140 -165 -210t-150 -70zM688 1014l248 393h113l-347 -393h-14z" />
    <glyph glyph-name="Ldot" unicode="&#x13f;" horiz-adv-x="1277" 
d="M-102 47q89 -27 194 -27q98 0 184 35.5t143 77.5t128 140.5t106 158.5t110 197q45 81 68 123q-229 6 -359 86t-130 229q0 156 176.5 248t503.5 92h274q218 221 373 221q54 0 82.5 -35.5t28.5 -95.5q0 -36 -13 -90h160l-12 -21h-152q-28 -94 -93 -192t-159.5 -187.5
t-227.5 -156t-279 -88.5q-75 -126 -132.5 -214.5t-130 -182.5t-139 -156t-147.5 -112t-168 -74h461q87 0 159 18t123 45t102.5 76.5t85 92.5t82.5 114q14 7 21 0q-101 -145 -152 -198q-116 -124 -275 -157q-69 -14 -153 -14h-874zM1165 561l86 137h111l-86 -137h-111z
M362 1067q0 -140 127.5 -215t354.5 -80l82 141q181 293 352 473h-256q-319 0 -489.5 -87.5t-170.5 -231.5zM1018 784q140 23 266.5 87t215.5 150t150 179.5t87 185.5h-355q-76 -107 -280 -458zM1397 1407h346q12 49 12 94q0 107 -92 107q-64 0 -128.5 -51t-137.5 -150z" />
    <glyph glyph-name="ldot" unicode="&#x140;" horiz-adv-x="415" 
d="M72 -18q-58 0 -86.5 41.5t-28.5 111.5q0 77 32.5 161.5t119.5 221.5l542 868h-317l12 21h287q71 0 118.5 20.5t86.5 71.5h26l-682 -1100q-117 -180 -147.5 -239t-30.5 -101q0 -28 18.5 -44.5t53.5 -16.5q68 0 137.5 69t157.5 201l67 101q14 7 21 0l-72 -107
q-94 -140 -165 -210t-150 -70zM403 557l86 137h111l-86 -137h-111z" />
    <glyph glyph-name="Lslash" unicode="&#x141;" horiz-adv-x="1277" 
d="M-102 47q89 -27 194 -27q54 0 104 10t91.5 25.5t83 44.5t73.5 56.5t68.5 72t62.5 80t60.5 92.5t57.5 98.5t59 106.5l-197 -39l12 23l197 39l67 123q-229 6 -359 86t-130 229q0 156 176.5 248t503.5 92h274q218 221 373 221q54 0 82.5 -35.5t28.5 -95.5q0 -36 -13 -90h160
l-12 -21h-152q-28 -94 -93 -192t-159.5 -187.5t-227.5 -156t-279 -88.5l-60 -98l258 51l-12 -23l-260 -51q-80 -128 -147 -220t-146.5 -177t-166.5 -140t-183 -81h461q87 0 159 18t123 45t102.5 76.5t85 92.5t82.5 114q14 7 21 0q-101 -145 -152 -198q-116 -124 -275 -157
q-69 -14 -153 -14h-874zM362 1067q0 -140 127.5 -215t354.5 -80l82 141q181 293 352 473h-256q-319 0 -489.5 -87.5t-170.5 -231.5zM1018 784q140 23 266.5 87t215.5 150t150 179.5t87 185.5h-355q-76 -107 -280 -458zM1397 1407h346q12 49 12 94q0 107 -92 107
q-64 0 -128.5 -51t-137.5 -150z" />
    <glyph glyph-name="lslash" unicode="&#x142;" horiz-adv-x="415" 
d="M72 -18q-58 0 -86.5 41.5t-28.5 111.5q0 77 32.5 161.5t119.5 221.5l167 268l-223 -43l13 23l225 45l360 575h-317l12 21h287q71 0 118.5 20.5t86.5 71.5h26l-407 -655l243 47l-12 -23l-246 -49l-260 -420q-117 -180 -147.5 -239t-30.5 -101q0 -28 18.5 -44.5t53.5 -16.5
q68 0 137.5 69t157.5 201l67 101q14 7 21 0l-72 -107q-94 -140 -165 -210t-150 -70z" />
    <glyph glyph-name="Nacute" unicode="&#x143;" horiz-adv-x="1748" 
d="M176 -90q-137 0 -216 72.5t-79 210.5q0 153 97.5 279.5t268.5 207.5t392 108q24 106 65.5 194t93.5 151t117.5 111.5t133 79t145 49.5t149.5 26.5t150 7.5h711q235 219 497 219q88 0 174 -27l-8 -24q-83 27 -168 27q-106 0 -205.5 -36.5t-186.5 -102.5t-169 -153.5
t-160.5 -195.5t-153.5 -220.5t-156 -237t-159.5 -237.5t-172.5 -228.5t-187 -204.5l-21 16q24 27 43.5 53t35.5 59.5t27.5 57t23 67t17.5 67t15.5 80t13.5 82.5t14 98t15 104l8 55q28 186 92.5 328.5t182.5 253.5h-6q-41 -30 -80 -64t-81.5 -82.5t-69 -79.5t-73.5 -96.5
t-63.5 -89.5t-69.5 -103t-63 -94q-98 -144 -181 -254t-179.5 -214.5t-186 -171.5t-189 -107.5t-198.5 -40.5zM1982 1513l-4 13l367 172l10 -62zM-98 195q0 -131 72 -197t202 -66q207 0 419 178t488 588l56 82h-289q-269 0 -485 -74t-339.5 -208t-123.5 -303zM664 791
q102 10 186 10h303q51 76 81.5 120.5t79.5 112t89 112t90.5 94t103.5 85.5t109 61h-213q-698 0 -829 -595zM1257 135h5q94 109 195.5 251.5t187.5 274.5t172.5 263.5t180.5 253.5t183 208h-436q-58 -45 -99 -102t-66.5 -128t-40 -139.5t-26.5 -164.5l-8 -68
q-24 -196 -83.5 -350t-164.5 -299z" />
    <glyph glyph-name="nacute" unicode="&#x144;" horiz-adv-x="854" 
d="M522 -20q-53 0 -75.5 40t-22.5 97q0 122 125 286l67 89q91 119 91 163q0 37 -41 37q-150 0 -426 -407l-11 -17l-174 -268h-143l297 469q72 112 72 156q0 28 -15 40.5t-53 12.5h-84q3 11 10 18h82q48 0 70 -24t22 -80v-152h15q213 275 344 275q84 0 84 -129
q0 -60 -22.5 -114t-82.5 -134l-63 -84q-67 -90 -93 -134t-26 -73q0 -51 55 -51q29 0 58.5 15.5t54 36.5t59.5 64.5t58.5 77.5t66.5 97l56 82q13 10 20 0l-55 -82q-50 -75 -80 -116.5t-74.5 -92.5t-85 -74.5t-80.5 -23.5zM645 918l-10 10l346 391l47 -51z" />
    <glyph glyph-name="uni0145" unicode="&#x145;" horiz-adv-x="1748" 
d="M176 -90q-137 0 -216 72.5t-79 210.5q0 153 97.5 279.5t268.5 207.5t392 108q24 106 65.5 194t93.5 151t117.5 111.5t133 79t145 49.5t149.5 26.5t150 7.5h711q235 219 497 219q88 0 174 -27l-8 -24q-83 27 -168 27q-106 0 -205.5 -36.5t-186.5 -102.5t-169 -153.5
t-160.5 -195.5t-153.5 -220.5t-156 -237t-159.5 -237.5t-172.5 -228.5t-187 -204.5l-21 16q24 27 43.5 53t35.5 59.5t27.5 57t23 67t17.5 67t15.5 80t13.5 82.5t14 98t15 104l8 55q28 186 92.5 328.5t182.5 253.5h-6q-41 -30 -80 -64t-81.5 -82.5t-69 -79.5t-73.5 -96.5
t-63.5 -89.5t-69.5 -103t-63 -94q-98 -144 -181 -254t-179.5 -214.5t-186 -171.5t-189 -107.5t-198.5 -40.5zM610 -436l-8 10l193 342h100zM-98 195q0 -131 72 -197t202 -66q207 0 419 178t488 588l56 82h-289q-269 0 -485 -74t-339.5 -208t-123.5 -303zM664 791
q102 10 186 10h303q51 76 81.5 120.5t79.5 112t89 112t90.5 94t103.5 85.5t109 61h-213q-698 0 -829 -595zM1257 135h5q94 109 195.5 251.5t187.5 274.5t172.5 263.5t180.5 253.5t183 208h-436q-58 -45 -99 -102t-66.5 -128t-40 -139.5t-26.5 -164.5l-8 -68
q-24 -196 -83.5 -350t-164.5 -299z" />
    <glyph glyph-name="uni0146" unicode="&#x146;" horiz-adv-x="854" 
d="M522 -20q-53 0 -75.5 40t-22.5 97q0 122 125 286l67 89q91 119 91 163q0 37 -41 37q-150 0 -426 -407l-11 -17l-174 -268h-143l297 469q72 112 72 156q0 28 -15 40.5t-53 12.5h-84q3 11 10 18h82q48 0 70 -24t22 -80v-152h15q213 275 344 275q84 0 84 -129
q0 -60 -22.5 -114t-82.5 -134l-63 -84q-67 -90 -93 -134t-26 -73q0 -51 55 -51q29 0 58.5 15.5t54 36.5t59.5 64.5t58.5 77.5t66.5 97l56 82q13 10 20 0l-55 -82q-50 -75 -80 -116.5t-74.5 -92.5t-85 -74.5t-80.5 -23.5zM-16 -436l-9 10l193 342h100z" />
    <glyph glyph-name="Ncaron" unicode="&#x147;" horiz-adv-x="1748" 
d="M176 -90q-137 0 -216 72.5t-79 210.5q0 153 97.5 279.5t268.5 207.5t392 108q24 106 65.5 194t93.5 151t117.5 111.5t133 79t145 49.5t149.5 26.5t150 7.5h711q235 219 497 219q88 0 174 -27l-8 -24q-83 27 -168 27q-106 0 -205.5 -36.5t-186.5 -102.5t-169 -153.5
t-160.5 -195.5t-153.5 -220.5t-156 -237t-159.5 -237.5t-172.5 -228.5t-187 -204.5l-21 16q24 27 43.5 53t35.5 59.5t27.5 57t23 67t17.5 67t15.5 80t13.5 82.5t14 98t15 104l8 55q28 186 92.5 328.5t182.5 253.5h-6q-41 -30 -80 -64t-81.5 -82.5t-69 -79.5t-73.5 -96.5
t-63.5 -89.5t-69.5 -103t-63 -94q-98 -144 -181 -254t-179.5 -214.5t-186 -171.5t-189 -107.5t-198.5 -40.5zM2007 1511l-59 197h16l80 -135l264 135h16l-299 -197h-18zM-98 195q0 -131 72 -197t202 -66q207 0 419 178t488 588l56 82h-289q-269 0 -485 -74t-339.5 -208
t-123.5 -303zM664 791q102 10 186 10h303q51 76 81.5 120.5t79.5 112t89 112t90.5 94t103.5 85.5t109 61h-213q-698 0 -829 -595zM1257 135h5q94 109 195.5 251.5t187.5 274.5t172.5 263.5t180.5 253.5t183 208h-436q-58 -45 -99 -102t-66.5 -128t-40 -139.5t-26.5 -164.5
l-8 -68q-24 -196 -83.5 -350t-164.5 -299z" />
    <glyph glyph-name="ncaron" unicode="&#x148;" horiz-adv-x="854" 
d="M522 -20q-53 0 -75.5 40t-22.5 97q0 122 125 286l67 89q91 119 91 163q0 37 -41 37q-150 0 -426 -407l-11 -17l-174 -268h-143l297 469q72 112 72 156q0 28 -15 40.5t-53 12.5h-84q3 11 10 18h82q48 0 70 -24t22 -80v-152h15q213 275 344 275q84 0 84 -129
q0 -60 -22.5 -114t-82.5 -134l-63 -84q-67 -90 -93 -134t-26 -73q0 -51 55 -51q29 0 58.5 15.5t54 36.5t59.5 64.5t58.5 77.5t66.5 97l56 82q13 10 20 0l-55 -82q-50 -75 -80 -116.5t-74.5 -92.5t-85 -74.5t-80.5 -23.5zM698 920l97 360h12l-27 -266l316 272l8 -6l-367 -360
h-39z" />
    <glyph glyph-name="Eng" unicode="&#x14a;" horiz-adv-x="1363" 
d="M213 -707q-60 0 -86.5 28t-26.5 71q0 214 600 502l203 323l311 508q189 309 248.5 429t59.5 171q0 80 -78 80q-68 0 -158.5 -66t-187.5 -178t-190.5 -244t-182.5 -280l-338 -563l-121 -54h271l-13 -20h-596l13 20h243l557 910q159 254 146 366q-10 90 -107 90h-145l12 21
h146q80 0 111.5 -55t31.5 -156q0 -23 -3 -55t-6.5 -54.5t-10 -64.5t-9.5 -59h11q155 221 293 341.5t235 120.5q125 0 125 -184q0 -211 -199 -530l-330 -529q-161 -258 -288 -433t-225 -274t-172.5 -140.5t-143.5 -41.5zM117 -606q0 -35 18 -57.5t55 -22.5q75 0 184.5 121
t307.5 428q-77 -36 -147 -73t-149 -87.5t-136 -99t-95 -104t-38 -105.5z" />
    <glyph glyph-name="eng" unicode="&#x14b;" horiz-adv-x="823" 
d="M-250 -705q-86 3 -86 95q0 67 49.5 145t130.5 151t172.5 136.5t188.5 116.5l61 32l164 244l72 107q136 204 168 256t32 77q0 37 -40 37q-146 0 -422 -407l-11 -17l-174 -268h-143l297 469q72 112 72 156q0 28 -15 40.5t-53 12.5h-84q3 11 10 18h82q48 0 70 -24t22 -80
v-152h17q209 275 342 275q84 0 84 -109q0 -56 -39.5 -144t-104.5 -183l-102 -152l-74 -111q123 46 219 125t191 228q10 7 20 0q-100 -159 -204.5 -243.5t-239.5 -129.5q-108 -160 -163 -239t-137 -186t-135 -155t-116 -84.5t-121 -36.5zM-319 -610q0 -78 69 -78
q46 0 153 139t341 488l-31 -17q-96 -52 -186 -114.5t-170 -133t-128 -145.5t-48 -139z" />
    <glyph glyph-name="Omacron" unicode="&#x14c;" horiz-adv-x="1333" 
d="M496 -113q-100 0 -171 64.5t-101.5 164t-26.5 218.5q6 154 57 312.5t134.5 297.5t196 261.5t237 210t262 138t266.5 50.5q130 0 185 -70t50 -184q-3 -112 -61 -255t-160 -290q-53 -155 -143.5 -310t-200.5 -282q136 6 207.5 39.5t128.5 116.5q12 8 20 0
q-44 -65 -85.5 -99.5t-110 -53.5t-179.5 -23q-128 -142 -259 -224t-246 -82zM1247 1726l15 27h426l-15 -27h-426zM305 190q-9 -280 195 -280q107 0 229 74.5t242 205.5h-74h-367l9 21q230 60 436 221t356 373q51 142 60 274q7 92 -8.5 158t-49.5 101.5t-75.5 51t-94.5 15.5
q-188 0 -383.5 -180.5t-330.5 -470.5q-135 -300 -144 -564zM657 211h244l88 2q199 224 314 510q-129 -164 -294.5 -294.5t-349.5 -201.5zM709 1178q109 118 227 182.5t231 64.5q124 0 192 -80t62 -245q-3 -93 -32 -213q168 269 174 465q3 103 -46 167t-165 64
q-156 0 -324.5 -109t-318.5 -296z" />
    <glyph glyph-name="omacron" unicode="&#x14d;" horiz-adv-x="595" 
d="M121 -14q-45 0 -76.5 32.5t-44 74t-12.5 85.5q0 105 41.5 205.5t106.5 172t147 115.5t161 44q117 0 117 -133q0 -138 -100 -306q-71 -119 -166 -204.5t-174 -85.5zM121 4q70 0 151.5 84t153.5 209q111 196 111 303q0 45 -18.5 70.5t-51.5 25.5q-52 0 -130 -78.5
t-151 -193.5q-58 -94 -94.5 -185.5t-36.5 -154.5q0 -80 66 -80zM457 1012l14 26h401l-14 -26h-401z" />
    <glyph glyph-name="Ohungarumlaut" unicode="&#x150;" horiz-adv-x="1333" 
d="M496 -113q-100 0 -171 64.5t-101.5 164t-26.5 218.5q6 154 57 312.5t134.5 297.5t196 261.5t237 210t262 138t266.5 50.5q130 0 185 -70t50 -184q-3 -112 -61 -255t-160 -290q-53 -155 -143.5 -310t-200.5 -282q136 6 207.5 39.5t128.5 116.5q12 8 20 0
q-44 -65 -85.5 -99.5t-110 -53.5t-179.5 -23q-128 -142 -259 -224t-246 -82zM1530 1669l-6 12l336 230l24 -49zM1380 1669l-6 12l299 230l25 -49zM305 190q-9 -280 195 -280q107 0 229 74.5t242 205.5h-74h-367l9 21q230 60 436 221t356 373q51 142 60 274q7 92 -8.5 158
t-49.5 101.5t-75.5 51t-94.5 15.5q-188 0 -383.5 -180.5t-330.5 -470.5q-135 -300 -144 -564zM657 211h244l88 2q199 224 314 510q-129 -164 -294.5 -294.5t-349.5 -201.5zM709 1178q109 118 227 182.5t231 64.5q124 0 192 -80t62 -245q-3 -93 -32 -213q168 269 174 465
q3 103 -46 167t-165 64q-156 0 -324.5 -109t-318.5 -296z" />
    <glyph glyph-name="ohungarumlaut" unicode="&#x151;" horiz-adv-x="595" 
d="M121 -14q-45 0 -76.5 32.5t-44 74t-12.5 85.5q0 105 41.5 205.5t106.5 172t147 115.5t161 44q117 0 117 -133q0 -138 -100 -306q-71 -119 -166 -204.5t-174 -85.5zM121 4q70 0 151.5 84t153.5 209q111 196 111 303q0 45 -18.5 70.5t-51.5 25.5q-52 0 -130 -78.5
t-151 -193.5q-58 -94 -94.5 -185.5t-36.5 -154.5q0 -80 66 -80zM596 920l332 385l59 -48l-373 -337h-18zM426 920l291 385l59 -48l-332 -337h-18z" />
    <glyph glyph-name="OE" unicode="&#x152;" horiz-adv-x="1859" 
d="M492 -113q-79 0 -140 34.5t-96.5 95.5t-53.5 137t-18 165q0 154 54.5 315.5t144 300.5t208 264t244 213.5t254 140t236.5 51.5q62 0 107.5 -17t69 -45.5t34 -58.5t10.5 -62q0 -161 -151 -358q-6 -110 -39 -215q204 93 368 184q-7 116 24.5 225t86 183.5t122 119
t132.5 44.5q51 0 76.5 -29t25.5 -78q0 -90 -88.5 -208t-249.5 -210l7 -67q4 -53 -26 -86t-108 -64q-110 -45 -200 -111.5t-150 -140t-101 -156.5t-59 -160.5t-18 -150.5q0 -227 168 -227q206 0 463 375l53 78q10 7 21 0l-54 -78q-144 -211 -262 -307.5t-246 -96.5
q-120 0 -195 76t-75 219q0 67 19 135q-139 -192 -300.5 -311t-297.5 -119zM311 180q0 -150 48.5 -208t144.5 -58q134 0 299 132t304.5 339.5t209.5 423.5q-366 -165 -623 -229l-61 -19v47q223 47 417.5 172t319.5 285v16q7 166 -57 245t-185 79q-175 0 -356 -154
q-200 -228 -330.5 -524t-130.5 -547zM842 1325q149 100 288 100q124 0 194.5 -79.5t70.5 -243.5v-4q125 177 125 319q0 23 -5.5 45t-19.5 45t-35 40t-55.5 27.5t-77.5 10.5q-228 0 -485 -260zM862 649q197 65 463 185q33 109 41 196q-203 -240 -504 -381zM1253 584
q94 96 208 165t208 109q18 7 30 14t24.5 27.5t9.5 48.5l-7 62q-189 -103 -376 -187q-38 -120 -97 -239zM1851 1110v-8q150 90 233 202.5t83 194.5q0 88 -82 88q-48 0 -92.5 -30t-80.5 -86t-53.5 -150.5t-7.5 -210.5z" />
    <glyph glyph-name="oe" unicode="&#x153;" horiz-adv-x="962" 
d="M121 -14q-45 0 -76.5 32.5t-44 74t-12.5 85.5q0 105 41.5 205.5t106.5 172t147 115.5t161 44q117 0 117 -133q0 -32 -6 -66q73 89 168.5 144t167.5 55q37 0 54.5 -18t17.5 -46q0 -60 -82 -135q-99 -87 -271 -137q-100 -180 -100 -287q0 -88 80 -88q81 0 175.5 84.5
t219.5 280.5q6 6 13.5 6t7.5 -6q-131 -207 -231.5 -296t-190.5 -89q-71 0 -112.5 59.5t-41.5 146.5l2 41q-70 -104 -155.5 -174.5t-155.5 -70.5zM121 4q70 0 151.5 84t153.5 209q111 196 111 303q0 45 -18.5 70.5t-51.5 25.5q-52 0 -130 -78.5t-151 -193.5
q-58 -94 -94.5 -185.5t-36.5 -154.5q0 -80 66 -80zM618 397q157 53 248 135q78 71 78 125q0 41 -41 41q-52 0 -123 -74t-147 -204z" />
    <glyph glyph-name="Racute" unicode="&#x154;" horiz-adv-x="1714" 
d="M1372 -14q-42 0 -69.5 27t-37 60.5t-10.5 73.5q-6 158 101 326l71 115q34 56 49 94t15 78q0 79 -72 102q-51 0 -121 12l5 15q71 -8 129 -8q123 0 225.5 65.5t156.5 162.5t54 198q0 37 -10 79h-304l-806 -1292l-148 -74h428l-10 -20h-821l12 20h326l276 441h-39
q-107 0 -191.5 30.5t-137 84.5t-80 124.5t-27.5 153.5q0 88 34.5 179.5t97.5 177.5t159 162t212 132.5t263.5 89.5t306.5 33q203 0 339 -59.5t194 -161.5h219l-13 -21h-196q28 -64 28 -129q0 -164 -152 -277t-372 -118q50 -28 78.5 -83t28.5 -126q0 -116 -76 -239l-74 -117
q-106 -168 -106 -238q0 -55 65 -55q32 0 63.5 14t58 36t60.5 63t61.5 79t71.5 101q7 11 11 16l39 56q10 7 20 0l-39 -58q-59 -87 -93 -132.5t-80.5 -97t-87.5 -73.5t-85 -22zM1739 1669l-4 12l366 172l10 -61zM358 854q0 -163 105.5 -268t308.5 -105h51l506 809l209 117h313
q-71 201 -442 201q-192 0 -363 -45.5t-294.5 -122t-214 -174t-135 -203.5t-44.5 -209z" />
    <glyph glyph-name="racute" unicode="&#x155;" horiz-adv-x="587" 
d="M606 354q-119 0 -176.5 34t-62.5 91l-33 -49l-105 -162l-174 -268h-143l297 469q72 112 72 156q0 28 -15 40.5t-53 12.5h-84q3 11 10 18h82q48 0 70 -24t22 -80v-152h4l54 84q15 71 71 131t123 60h64l-72 -117h-135q-35 -48 -35 -109q0 -60 55.5 -87t175.5 -27h23
q2 -5 -2 -11.5t-10 -9.5h-23zM573 918l-10 10l346 391l47 -51z" />
    <glyph glyph-name="uni0156" unicode="&#x156;" horiz-adv-x="1714" 
d="M1372 -14q-42 0 -69.5 27t-37 60.5t-10.5 73.5q-6 158 101 326l71 115q34 56 49 94t15 78q0 79 -72 102q-51 0 -121 12l5 15q71 -8 129 -8q123 0 225.5 65.5t156.5 162.5t54 198q0 37 -10 79h-304l-806 -1292l-148 -74h428l-10 -20h-821l12 20h326l276 441h-39
q-107 0 -191.5 30.5t-137 84.5t-80 124.5t-27.5 153.5q0 88 34.5 179.5t97.5 177.5t159 162t212 132.5t263.5 89.5t306.5 33q203 0 339 -59.5t194 -161.5h219l-13 -21h-196q28 -64 28 -129q0 -164 -152 -277t-372 -118q50 -28 78.5 -83t28.5 -126q0 -116 -76 -239l-74 -117
q-106 -168 -106 -238q0 -55 65 -55q32 0 63.5 14t58 36t60.5 63t61.5 79t71.5 101q7 11 11 16l39 56q10 7 20 0l-39 -58q-59 -87 -93 -132.5t-80.5 -97t-87.5 -73.5t-85 -22zM326 -436l-9 10l193 342h100zM358 854q0 -163 105.5 -268t308.5 -105h51l506 809l209 117h313
q-71 201 -442 201q-192 0 -363 -45.5t-294.5 -122t-214 -174t-135 -203.5t-44.5 -209z" />
    <glyph glyph-name="uni0157" unicode="&#x157;" horiz-adv-x="587" 
d="M606 354q-119 0 -176.5 34t-62.5 91l-33 -49l-105 -162l-174 -268h-143l297 469q72 112 72 156q0 28 -15 40.5t-53 12.5h-84q3 11 10 18h82q48 0 70 -24t22 -80v-152h4l54 84q15 71 71 131t123 60h64l-72 -117h-135q-35 -48 -35 -109q0 -60 55.5 -87t175.5 -27h23
q2 -5 -2 -11.5t-10 -9.5h-23zM-303 -436l-8 10l192 342h101z" />
    <glyph glyph-name="Rcaron" unicode="&#x158;" horiz-adv-x="1714" 
d="M1372 -14q-42 0 -69.5 27t-37 60.5t-10.5 73.5q-6 158 101 326l71 115q34 56 49 94t15 78q0 79 -72 102q-51 0 -121 12l5 15q71 -8 129 -8q123 0 225.5 65.5t156.5 162.5t54 198q0 37 -10 79h-304l-806 -1292l-148 -74h428l-10 -20h-821l12 20h326l276 441h-39
q-107 0 -191.5 30.5t-137 84.5t-80 124.5t-27.5 153.5q0 88 34.5 179.5t97.5 177.5t159 162t212 132.5t263.5 89.5t306.5 33q203 0 339 -59.5t194 -161.5h219l-13 -21h-196q28 -64 28 -129q0 -164 -152 -277t-372 -118q50 -28 78.5 -83t28.5 -126q0 -116 -76 -239l-74 -117
q-106 -168 -106 -238q0 -55 65 -55q32 0 63.5 14t58 36t60.5 63t61.5 79t71.5 101q7 11 11 16l39 56q10 7 20 0l-39 -58q-59 -87 -93 -132.5t-80.5 -97t-87.5 -73.5t-85 -22zM1763 1667l-59 197h16l80 -135l264 135h17l-299 -197h-19zM358 854q0 -163 105.5 -268t308.5 -105
h51l506 809l209 117h313q-71 201 -442 201q-192 0 -363 -45.5t-294.5 -122t-214 -174t-135 -203.5t-44.5 -209z" />
    <glyph glyph-name="rcaron" unicode="&#x159;" horiz-adv-x="587" 
d="M606 354q-119 0 -176.5 34t-62.5 91l-33 -49l-105 -162l-174 -268h-143l297 469q72 112 72 156q0 28 -15 40.5t-53 12.5h-84q3 11 10 18h82q48 0 70 -24t22 -80v-152h4l54 84q15 71 71 131t123 60h64l-72 -117h-135q-35 -48 -35 -109q0 -60 55.5 -87t175.5 -27h23
q2 -5 -2 -11.5t-10 -9.5h-23zM627 920l96 360h12l-26 -266l315 272l8 -6l-366 -360h-39z" />
    <glyph glyph-name="Sacute" unicode="&#x15a;" horiz-adv-x="1318" 
d="M516 -113q-125 0 -221.5 36t-153.5 97t-85.5 134.5t-28.5 156.5q0 108 49 213.5t137.5 191t228.5 138.5t306 53v-35q-161 0 -296 -49.5t-221 -130t-133 -179.5t-47 -202q0 -79 29 -149.5t83.5 -126.5t142.5 -88.5t198 -32.5q92 0 167 26t126 66.5t92 104t65 124
t43.5 142.5t29 143t20.5 141q1 11 2 17q10 77 17.5 126t20.5 118.5t26.5 114.5t34.5 101t45.5 91.5t58.5 72.5t74.5 57.5t93 34t114.5 13.5h111l-46 -66q-32 26 -56 35.5t-64 9.5q-50 0 -85.5 -10.5t-61.5 -45.5t-41 -62.5t-28.5 -103.5t-19.5 -123.5t-19 -162.5
q-10 -92 -16 -143q-9 -74 -17 -125.5t-31 -147.5t-52.5 -165t-83 -151.5t-120.5 -134.5t-167.5 -88t-220.5 -36zM1487 1493l-4 12l366 172l11 -61z" />
    <glyph glyph-name="sacute" unicode="&#x15b;" horiz-adv-x="512" 
d="M96 -14q-80 0 -128 44.5t-48 121.5q0 55 23.5 106.5t66.5 116.5h88l-8 -17q-81 -61 -131 -114q-20 -41 -20 -92q0 -59 30 -98.5t84 -39.5q148 0 189 336q1 9 5.5 47.5t6.5 53t8 46.5t12 50.5t16 42.5t23 43q59 86 160 86q44 0 78 -10l-41 -74q-2 2 -13 10t-14.5 10.5
t-13 9t-15.5 9t-14.5 6t-16.5 5t-17 1.5q-79 0 -70 -137l10 -199q2 -81 -11.5 -145t-37.5 -104t-57.5 -66.5t-69 -37.5t-74.5 -11zM492 918l-11 10l346 391l47 -51z" />
    <glyph glyph-name="Scircumflex" unicode="&#x15c;" horiz-adv-x="1318" 
d="M516 -113q-125 0 -221.5 36t-153.5 97t-85.5 134.5t-28.5 156.5q0 108 49 213.5t137.5 191t228.5 138.5t306 53v-35q-161 0 -296 -49.5t-221 -130t-133 -179.5t-47 -202q0 -79 29 -149.5t83.5 -126.5t142.5 -88.5t198 -32.5q92 0 167 26t126 66.5t92 104t65 124
t43.5 142.5t29 143t20.5 141q1 11 2 17q10 77 17.5 126t20.5 118.5t26.5 114.5t34.5 101t45.5 91.5t58.5 72.5t74.5 57.5t93 34t114.5 13.5h111l-46 -66q-32 26 -56 35.5t-64 9.5q-50 0 -85.5 -10.5t-61.5 -45.5t-41 -62.5t-28.5 -103.5t-19.5 -123.5t-19 -162.5
q-10 -92 -16 -143q-9 -74 -17 -125.5t-31 -147.5t-52.5 -165t-83 -151.5t-120.5 -134.5t-167.5 -88t-220.5 -36zM1323 1487l-6 12l321 189h19l33 -197h-17l-61 135z" />
    <glyph glyph-name="scircumflex" unicode="&#x15d;" horiz-adv-x="512" 
d="M96 -14q-80 0 -128 44.5t-48 121.5q0 55 23.5 106.5t66.5 116.5h88l-8 -17q-81 -61 -131 -114q-20 -41 -20 -92q0 -59 30 -98.5t84 -39.5q148 0 189 336q1 9 5.5 47.5t6.5 53t8 46.5t12 50.5t16 42.5t23 43q59 86 160 86q44 0 78 -10l-41 -74q-2 2 -13 10t-14.5 10.5
t-13 9t-15.5 9t-14.5 6t-16.5 5t-17 1.5q-79 0 -70 -137l10 -199q2 -81 -11.5 -145t-37.5 -104t-57.5 -66.5t-69 -37.5t-74.5 -11zM412 920l-13 10l328 338h31l-39 -348h-19l-14 235z" />
    <glyph glyph-name="Scedilla" unicode="&#x15e;" horiz-adv-x="1318" 
d="M516 -113q-125 0 -221.5 36t-153.5 97t-85.5 134.5t-28.5 156.5q0 108 49 213.5t137.5 191t228.5 138.5t306 53v-35q-161 0 -296 -49.5t-221 -130t-133 -179.5t-47 -202q0 -79 29 -149.5t83.5 -126.5t142.5 -88.5t198 -32.5q92 0 167 26t126 66.5t92 104t65 124
t43.5 142.5t29 143t20.5 141q1 11 2 17q10 77 17.5 126t20.5 118.5t26.5 114.5t34.5 101t45.5 91.5t58.5 72.5t74.5 57.5t93 34t114.5 13.5h111l-46 -66q-32 26 -56 35.5t-64 9.5q-50 0 -85.5 -10.5t-61.5 -45.5t-41 -62.5t-28.5 -103.5t-19.5 -123.5t-19 -162.5
q-10 -92 -16 -143q-9 -73 -16.5 -122t-30 -143.5t-50 -161.5t-78.5 -149.5t-114 -135t-157.5 -91.5t-208.5 -45l-6 -4q-60 -43 -60 -69q0 -16 18.5 -60t18.5 -69q0 -31 -28.5 -54.5t-132.5 -86.5q-23 -13 -35 -21l-64 -39l-10 18l63 37q70 41 90.5 59t20.5 37
q0 24 -14.5 66.5t-14.5 62.5q0 24 23.5 45t101.5 74v4h-8z" />
    <glyph glyph-name="scedilla" unicode="&#x15f;" horiz-adv-x="512" 
d="M-174 -424l-10 18l63 37q69 40 90 59t21 38q0 24 -14.5 66.5t-14.5 62.5q0 23 23 44t102 74v11q-76 3 -121 47.5t-45 118.5q0 55 23.5 106.5t66.5 116.5h88l-8 -17q-81 -61 -131 -114q-20 -41 -20 -92q0 -59 30 -98.5t84 -39.5q148 0 189 336q1 9 5.5 47.5t6.5 53t8 46.5
t12 50.5t16 42.5t23 43q59 86 160 86q44 0 78 -10l-41 -74q-2 2 -13 10t-14.5 10.5t-13 9t-15.5 9t-14.5 6t-16.5 5t-17 1.5q-79 0 -70 -137l10 -199q4 -179 -59.5 -265.5t-161.5 -96.5l-16 -13q-60 -43 -60 -69q0 -16 18.5 -60t18.5 -69q0 -30 -27 -52.5t-131 -85.5
q-25 -15 -39 -24z" />
    <glyph glyph-name="Scaron" unicode="&#x160;" horiz-adv-x="1318" 
d="M516 -113q-125 0 -221.5 36t-153.5 97t-85.5 134.5t-28.5 156.5q0 108 49 213.5t137.5 191t228.5 138.5t306 53v-35q-161 0 -296 -49.5t-221 -130t-133 -179.5t-47 -202q0 -79 29 -149.5t83.5 -126.5t142.5 -88.5t198 -32.5q92 0 167 26t126 66.5t92 104t65 124
t43.5 142.5t29 143t20.5 141q1 11 2 17q10 77 17.5 126t20.5 118.5t26.5 114.5t34.5 101t45.5 91.5t58.5 72.5t74.5 57.5t93 34t114.5 13.5h111l-46 -66q-32 26 -56 35.5t-64 9.5q-50 0 -85.5 -10.5t-61.5 -45.5t-41 -62.5t-28.5 -103.5t-19.5 -123.5t-19 -162.5
q-10 -92 -16 -143q-9 -74 -17 -125.5t-31 -147.5t-52.5 -165t-83 -151.5t-120.5 -134.5t-167.5 -88t-220.5 -36zM1511 1491l-59 197h16l80 -136l264 136h17l-299 -197h-19z" />
    <glyph glyph-name="scaron" unicode="&#x161;" horiz-adv-x="512" 
d="M96 -14q-80 0 -128 44.5t-48 121.5q0 55 23.5 106.5t66.5 116.5h88l-8 -17q-81 -61 -131 -114q-20 -41 -20 -92q0 -59 30 -98.5t84 -39.5q148 0 189 336q1 9 5.5 47.5t6.5 53t8 46.5t12 50.5t16 42.5t23 43q59 86 160 86q44 0 78 -10l-41 -74q-2 2 -13 10t-14.5 10.5
t-13 9t-15.5 9t-14.5 6t-16.5 5t-17 1.5q-79 0 -70 -137l10 -199q2 -81 -11.5 -145t-37.5 -104t-57.5 -66.5t-69 -37.5t-74.5 -11zM545 920l96 360h12l-26 -266l315 272l8 -6l-366 -360h-39z" />
    <glyph glyph-name="uni0162" unicode="&#x162;" horiz-adv-x="1157" 
d="M592 786q-114 50 -175 128t-61 165q0 134 138.5 231t386.5 97h1030l-13 -21h-495l-807 -1292l-137 -74h413l-12 -20h-371l-8 -6q-59 -42 -59 -70q0 -16 18.5 -60t18.5 -69q0 -30 -27 -52.5t-131 -85.5q-25 -15 -39 -24l-63 -39l-11 19l64 37q69 40 89.5 58.5t20.5 37.5
q0 24 -14 66.5t-14 62.5q0 24 23.5 45t101.5 74v6h-459l12 20h369l795 1270l176 96h-471q-121 0 -219 -26t-158 -70t-91.5 -98t-31.5 -113q0 -79 57.5 -149t165.5 -115z" />
    <glyph glyph-name="uni0163" unicode="&#x163;" horiz-adv-x="419" 
d="M72 -14q-111 0 -111 147q0 96 34 176.5t116 208.5l219 336l-13 27h-106l14 18h133l115 178q105 0 152 58h24l-149 -236h229l-14 -18h-228l-325 -512q-14 -22 -36 -57.5t-32 -51t-26 -41.5t-22.5 -38.5t-15.5 -31t-12.5 -30.5t-6.5 -25.5t-3 -25.5q0 -64 68 -64
q128 0 317 289l49 76q14 7 21 0l-51 -78q-81 -124 -154.5 -203.5t-148.5 -97.5l-15 -10q-59 -42 -59 -70q0 -16 18.5 -60t18.5 -69q0 -30 -27 -52.5t-131 -85.5q-25 -15 -39 -24l-63 -39l-11 19l64 36q69 40 89.5 59t20.5 38q0 24 -14 66.5t-14 62.5q0 24 23.5 45t101.5 74
v6z" />
    <glyph glyph-name="Tcaron" unicode="&#x164;" horiz-adv-x="1157" 
d="M592 786q-114 50 -175 128t-61 165q0 134 138.5 231t386.5 97h1030l-13 -21h-495l-807 -1292l-137 -74h413l-12 -20h-860l12 20h369l795 1270l176 96h-471q-121 0 -219 -26t-158 -70t-91.5 -98t-31.5 -113q0 -79 57.5 -149t165.5 -115zM1366 1511l-59 197h16l80 -135
l264 135h16l-299 -197h-18z" />
    <glyph glyph-name="tcaron" unicode="&#x165;" horiz-adv-x="421" 
d="M72 -14q-111 0 -111 147q0 96 34 176.5t116 208.5l219 336l-13 27h-106l14 18h133l115 178q105 0 152 58h24l-149 -236h229l-14 -18h-228l-325 -512q-14 -22 -36 -57.5t-32 -51t-26 -41.5t-22.5 -38.5t-15.5 -31t-12.5 -30.5t-6.5 -25.5t-3 -25.5q0 -64 68 -64
q128 0 317 289l49 76q14 7 21 0l-51 -78q-42 -64 -78.5 -112t-81 -95.5t-90.5 -72.5t-90 -25zM674 1014l248 297h108l-342 -297h-14z" />
    <glyph glyph-name="Tbar" unicode="&#x166;" horiz-adv-x="1157" 
d="M592 786q-114 50 -175 128t-61 165q0 134 138.5 231t386.5 97h1030l-13 -21h-495l-420 -671h234l-15 -21h-231l-375 -600l-137 -74h413l-12 -20h-860l12 20h369l422 674h-258l14 21h256l361 575l176 96h-471q-121 0 -219 -26t-158 -70t-91.5 -98t-31.5 -113
q0 -79 57.5 -149t165.5 -115z" />
    <glyph glyph-name="tbar" unicode="&#x167;" horiz-adv-x="419" 
d="M72 -14q-111 0 -111 147q0 96 34 176.5t116 208.5l104 160h-96l14 18h92l105 158l-13 27h-106l14 18h133l115 178q105 0 152 58h24l-149 -236h229l-14 -18h-228l-116 -185h250l-15 -18h-248l-196 -309q-14 -22 -36 -57.5t-32 -51t-26 -41.5t-22.5 -38.5t-15.5 -31
t-12.5 -30.5t-6.5 -25.5t-3 -25.5q0 -64 68 -64q128 0 317 289l49 76q14 7 21 0l-51 -78q-42 -64 -78.5 -112t-81 -95.5t-90.5 -72.5t-90 -25z" />
    <glyph glyph-name="Utilde" unicode="&#x168;" horiz-adv-x="1693" 
d="M788 -10q-65 0 -108 60.5t-43 174.5q0 237 207 570h-62q-97 0 -172.5 16.5t-121 42t-75 61.5t-40.5 71.5t-11 74.5q0 130 112 258t283 207.5t337 79.5q98 0 146 -43.5t48 -139.5q0 -99 -37.5 -203.5t-126.5 -244.5l-202 -322q-230 -365 -230 -520q0 -53 24 -87t72 -34
q82 0 188.5 108.5t252.5 330.5l534 862l168 73h-364l12 21h575l-12 -21h-164l-536 -860q-189 -300 -178 -430q7 -92 100 -92q65 0 133 71t180 236l39 58q13 11 21 0l-39 -58q-119 -175 -191 -250t-143 -75q-143 0 -143 202q0 100 36 244l-20 2q-145 -225 -253.5 -334.5
t-195.5 -109.5zM1669 1485q-31 0 -56 20.5t-39 45t-36 45t-47 20.5q-29 0 -54 -23t-81 -94l-15 12q74 96 111 130t78 34q31 0 57.5 -22t41.5 -48.5t36 -48.5t43 -22q37 0 37 45q0 29 -29 66l23 6q22 -39 22 -68q0 -43 -26 -70.5t-66 -27.5zM383 1061q0 -35 9 -66.5
t36.5 -65.5t71 -58.5t118.5 -40t173 -15.5h67l223 356q90 145 121 204.5t35 107.5q4 58 -30.5 80t-114.5 22q-166 0 -332 -76.5t-271.5 -199t-105.5 -248.5z" />
    <glyph glyph-name="utilde" unicode="&#x169;" horiz-adv-x="802" 
d="M84 -16q-43 0 -69.5 37t-26.5 110t38 158.5t128 218.5l106 158l-6 12h-86q-4 11 10 18h225l5 -22l-185 -275q-126 -187 -159 -244t-33 -96q0 -57 53 -57q77 0 170.5 103.5t208.5 287.5l170 273l-6 12h-78q0 10 10 18h223l4 -22l-231 -365q-88 -139 -111.5 -182.5
t-23.5 -73.5q0 -53 55 -53q34 0 68 19t73 62.5t71.5 87t82.5 118.5l55 82q14 11 21 0l-55 -82q-49 -74 -79.5 -115.5t-74 -91.5t-83 -73t-79.5 -23q-92 0 -92 135q0 57 10 125h-10q-78 -116 -156.5 -188t-142.5 -72zM743 940q-34 0 -63 24t-46 52t-40.5 52t-48.5 24
q-29 0 -54 -27t-81 -111l-15 15q76 114 112 153t77 39q31 0 59.5 -26.5t46.5 -57.5t43 -57.5t49 -26.5q37 0 37 49q0 43 -28 82l22 6q23 -44 23 -83q0 -46 -26.5 -76.5t-66.5 -30.5z" />
    <glyph glyph-name="Umacron" unicode="&#x16a;" horiz-adv-x="1693" 
d="M788 -10q-65 0 -108 60.5t-43 174.5q0 237 207 570h-62q-97 0 -172.5 16.5t-121 42t-75 61.5t-40.5 71.5t-11 74.5q0 130 112 258t283 207.5t337 79.5q98 0 146 -43.5t48 -139.5q0 -99 -37.5 -203.5t-126.5 -244.5l-202 -322q-230 -365 -230 -520q0 -53 24 -87t72 -34
q82 0 188.5 108.5t252.5 330.5l534 862l168 73h-364l12 21h575l-12 -21h-164l-536 -860q-189 -300 -178 -430q7 -92 100 -92q65 0 133 71t180 236l39 58q13 11 21 0l-39 -58q-119 -175 -191 -250t-143 -75q-143 0 -143 202q0 100 36 244l-20 2q-145 -225 -253.5 -334.5
t-195.5 -109.5zM1386 1569l15 26h426l-15 -26h-426zM383 1061q0 -35 9 -66.5t36.5 -65.5t71 -58.5t118.5 -40t173 -15.5h67l223 356q90 145 121 204.5t35 107.5q4 58 -30.5 80t-114.5 22q-166 0 -332 -76.5t-271.5 -199t-105.5 -248.5z" />
    <glyph glyph-name="umacron" unicode="&#x16b;" horiz-adv-x="802" 
d="M84 -16q-43 0 -69.5 37t-26.5 110t38 158.5t128 218.5l106 158l-6 12h-86q-4 11 10 18h225l5 -22l-185 -275q-126 -187 -159 -244t-33 -96q0 -57 53 -57q77 0 170.5 103.5t208.5 287.5l170 273l-6 12h-78q0 10 10 18h223l4 -22l-231 -365q-88 -139 -111.5 -182.5
t-23.5 -73.5q0 -53 55 -53q34 0 68 19t73 62.5t71.5 87t82.5 118.5l55 82q14 11 21 0l-55 -82q-49 -74 -79.5 -115.5t-74 -91.5t-83 -73t-79.5 -23q-92 0 -92 135q0 57 10 125h-10q-78 -116 -156.5 -188t-142.5 -72zM471 1012l14 26h402l-15 -26h-401z" />
    <glyph glyph-name="Ubreve" unicode="&#x16c;" horiz-adv-x="1693" 
d="M788 -10q-65 0 -108 60.5t-43 174.5q0 237 207 570h-62q-97 0 -172.5 16.5t-121 42t-75 61.5t-40.5 71.5t-11 74.5q0 130 112 258t283 207.5t337 79.5q98 0 146 -43.5t48 -139.5q0 -99 -37.5 -203.5t-126.5 -244.5l-202 -322q-230 -365 -230 -520q0 -53 24 -87t72 -34
q82 0 188.5 108.5t252.5 330.5l534 862l168 73h-364l12 21h575l-12 -21h-164l-536 -860q-189 -300 -178 -430q7 -92 100 -92q65 0 133 71t180 236l39 58q13 11 21 0l-39 -58q-119 -175 -191 -250t-143 -75q-143 0 -143 202q0 100 36 244l-20 2q-145 -225 -253.5 -334.5
t-195.5 -109.5zM1538 1511q-42 0 -63 24t-21 62q0 53 37 111h80q-28 -47 -39.5 -74t-11.5 -55q0 -47 41 -47q96 0 186 176h27q-46 -90 -109 -143.5t-127 -53.5zM383 1061q0 -35 9 -66.5t36.5 -65.5t71 -58.5t118.5 -40t173 -15.5h67l223 356q90 145 121 204.5t35 107.5
q4 58 -30.5 80t-114.5 22q-166 0 -332 -76.5t-271.5 -199t-105.5 -248.5z" />
    <glyph glyph-name="ubreve" unicode="&#x16d;" horiz-adv-x="802" 
d="M84 -16q-43 0 -69.5 37t-26.5 110t38 158.5t128 218.5l106 158l-6 12h-86q-4 11 10 18h225l5 -22l-185 -275q-126 -187 -159 -244t-33 -96q0 -57 53 -57q77 0 170.5 103.5t208.5 287.5l170 273l-6 12h-78q0 10 10 18h223l4 -22l-231 -365q-88 -139 -111.5 -182.5
t-23.5 -73.5q0 -53 55 -53q34 0 68 19t73 62.5t71.5 87t82.5 118.5l55 82q14 11 21 0l-55 -82q-49 -74 -79.5 -115.5t-74 -91.5t-83 -73t-79.5 -23q-92 0 -92 135q0 57 10 125h-10q-78 -116 -156.5 -188t-142.5 -72zM641 936q-72 0 -72 78q0 87 107 200h92
q-58 -60 -95.5 -122.5t-37.5 -104.5q0 -31 29 -31q54 0 125 74t112 184h21q-64 -141 -140.5 -209.5t-140.5 -68.5z" />
    <glyph glyph-name="Uring" unicode="&#x16e;" horiz-adv-x="1693" 
d="M788 -10q-65 0 -108 60.5t-43 174.5q0 237 207 570h-62q-97 0 -172.5 16.5t-121 42t-75 61.5t-40.5 71.5t-11 74.5q0 130 112 258t283 207.5t337 79.5q98 0 146 -43.5t48 -139.5q0 -99 -37.5 -203.5t-126.5 -244.5l-202 -322q-230 -365 -230 -520q0 -53 24 -87t72 -34
q82 0 188.5 108.5t252.5 330.5l534 862l168 73h-364l12 21h575l-12 -21h-164l-536 -860q-189 -300 -178 -430q7 -92 100 -92q65 0 133 71t180 236l39 58q13 11 21 0l-39 -58q-119 -175 -191 -250t-143 -75q-143 0 -143 202q0 100 36 244l-20 2q-145 -225 -253.5 -334.5
t-195.5 -109.5zM1528 1511q-32 0 -53 24t-21 62q0 55 38 94.5t97 39.5q70 0 70 -72q0 -60 -41 -104t-90 -44zM1528 1526q44 0 79 39.5t35 95.5q0 53 -40 53q-41 0 -76 -47.5t-35 -97.5q0 -43 37 -43zM383 1061q0 -35 9 -66.5t36.5 -65.5t71 -58.5t118.5 -40t173 -15.5h67
l223 356q90 145 121 204.5t35 107.5q4 58 -30.5 80t-114.5 22q-166 0 -332 -76.5t-271.5 -199t-105.5 -248.5z" />
    <glyph glyph-name="uring" unicode="&#x16f;" horiz-adv-x="802" 
d="M84 -16q-43 0 -69.5 37t-26.5 110t38 158.5t128 218.5l106 158l-6 12h-86q-4 11 10 18h225l5 -22l-185 -275q-126 -187 -159 -244t-33 -96q0 -57 53 -57q77 0 170.5 103.5t208.5 287.5l170 273l-6 12h-78q0 10 10 18h223l4 -22l-231 -365q-88 -139 -111.5 -182.5
t-23.5 -73.5q0 -53 55 -53q34 0 68 19t73 62.5t71.5 87t82.5 118.5l55 82q14 11 21 0l-55 -82q-49 -74 -79.5 -115.5t-74 -91.5t-83 -73t-79.5 -23q-92 0 -92 135q0 57 10 125h-10q-78 -116 -156.5 -188t-142.5 -72zM629 944q-30 0 -48 25t-18 65q0 72 54.5 126t111.5 54
q59 0 59 -65q0 -64 -53 -134.5t-106 -70.5zM629 958q48 0 95.5 68t47.5 129q0 45 -29 45q-39 0 -92 -69t-53 -132q0 -41 31 -41z" />
    <glyph glyph-name="Uhungarumlaut" unicode="&#x170;" horiz-adv-x="1693" 
d="M788 -10q-65 0 -108 60.5t-43 174.5q0 237 207 570h-62q-97 0 -172.5 16.5t-121 42t-75 61.5t-40.5 71.5t-11 74.5q0 130 112 258t283 207.5t337 79.5q98 0 146 -43.5t48 -139.5q0 -99 -37.5 -203.5t-126.5 -244.5l-202 -322q-230 -365 -230 -520q0 -53 24 -87t72 -34
q82 0 188.5 108.5t252.5 330.5l534 862l168 73h-364l12 21h575l-12 -21h-164l-536 -860q-189 -300 -178 -430q7 -92 100 -92q65 0 133 71t180 236l39 58q13 11 21 0l-39 -58q-119 -175 -191 -250t-143 -75q-143 0 -143 202q0 100 36 244l-20 2q-145 -225 -253.5 -334.5
t-195.5 -109.5zM1669 1511l-6 13l336 229l24 -49zM1520 1511l-7 13l299 229l25 -49zM383 1061q0 -35 9 -66.5t36.5 -65.5t71 -58.5t118.5 -40t173 -15.5h67l223 356q90 145 121 204.5t35 107.5q4 58 -30.5 80t-114.5 22q-166 0 -332 -76.5t-271.5 -199t-105.5 -248.5z" />
    <glyph glyph-name="uhungarumlaut" unicode="&#x171;" horiz-adv-x="802" 
d="M84 -16q-43 0 -69.5 37t-26.5 110t38 158.5t128 218.5l106 158l-6 12h-86q-4 11 10 18h225l5 -22l-185 -275q-126 -187 -159 -244t-33 -96q0 -57 53 -57q77 0 170.5 103.5t208.5 287.5l170 273l-6 12h-78q0 10 10 18h223l4 -22l-231 -365q-88 -139 -111.5 -182.5
t-23.5 -73.5q0 -53 55 -53q34 0 68 19t73 62.5t71.5 87t82.5 118.5l55 82q14 11 21 0l-55 -82q-49 -74 -79.5 -115.5t-74 -91.5t-83 -73t-79.5 -23q-92 0 -92 135q0 57 10 125h-10q-78 -116 -156.5 -188t-142.5 -72zM610 920l332 385l59 -48l-372 -337h-19zM440 920l291 385
l60 -48l-332 -337h-19z" />
    <glyph glyph-name="Uogonek" unicode="&#x172;" horiz-adv-x="1693" 
d="M788 -10q-65 0 -108 60.5t-43 174.5q0 237 207 570h-62q-97 0 -172.5 16.5t-121 42t-75 61.5t-40.5 71.5t-11 74.5q0 130 112 258t283 207.5t337 79.5q98 0 146 -43.5t48 -139.5q0 -99 -37.5 -203.5t-126.5 -244.5l-202 -322q-230 -365 -230 -520q0 -53 24 -87t72 -34
q82 0 188.5 108.5t252.5 330.5l534 862l168 73h-364l12 21h575l-12 -21h-164l-536 -860q-189 -300 -178 -430q7 -92 100 -92q65 0 133 71t180 236l39 58q13 11 21 0l-39 -58q-102 -148 -162.5 -219t-116.5 -94l-106 -119q-86 -93 -86 -184q0 -40 19 -63t69 -23h67l-10 -19
h-96q-143 0 -143 84q0 40 39 87q20 25 120 126l88 90v9h-16q-143 0 -143 202q0 100 36 244l-20 2q-145 -225 -253.5 -334.5t-195.5 -109.5zM383 1061q0 -35 9 -66.5t36.5 -65.5t71 -58.5t118.5 -40t173 -15.5h67l223 356q90 145 121 204.5t35 107.5q4 58 -30.5 80t-114.5 22
q-166 0 -332 -76.5t-271.5 -199t-105.5 -248.5z" />
    <glyph glyph-name="uogonek" unicode="&#x173;" horiz-adv-x="802" 
d="M84 -16q-43 0 -69.5 37t-26.5 110t38 158.5t128 218.5l106 158l-6 12h-86q-4 11 10 18h225l5 -22l-185 -275q-126 -187 -159 -244t-33 -96q0 -57 53 -57q77 0 170.5 103.5t208.5 287.5l170 273l-6 12h-78q0 10 10 18h223l4 -22l-231 -365q-88 -139 -111.5 -182.5
t-23.5 -73.5q0 -53 55 -53q34 0 68 19t73 62.5t71.5 87t82.5 118.5l55 82q14 11 21 0l-55 -82q-36 -54 -57 -83.5t-54.5 -72.5t-57.5 -67.5t-55 -46t-59 -29.5l-102 -115q-87 -94 -87 -184q0 -40 19.5 -63t69.5 -23h67l-10 -19h-96q-144 0 -144 84q0 36 25 68.5t108 117.5
q18 17 27 27l88 90v13q-90 3 -90 135q0 57 10 125h-10q-78 -116 -156.5 -188t-142.5 -72z" />
    <glyph glyph-name="Wcircumflex" unicode="&#x174;" horiz-adv-x="1468" 
d="M-39 -57q64 34 116.5 73.5t90.5 77.5t72 92t56.5 97.5t49.5 115.5t45 125.5t48.5 147t54.5 162.5q16 47 28 80t35.5 87.5t46 94.5t57.5 89.5t72 84.5t87.5 67t105.5 49h-449l15 21h1468q226 219 473 219q89 0 182 -27l-8 -22q-85 29 -174 29q-112 0 -216 -44.5
t-192 -122.5t-173.5 -180t-168.5 -220.5t-167.5 -240t-181 -242t-197.5 -224t-228 -189t-264 -133.5q-37 -27 -141 -94l-10 27q64 34 115.5 74t89.5 77.5t72 91.5t56.5 97.5t50 115.5t45 125t48.5 147.5t55 162.5q29 84 55 147q-69 -103 -116 -172.5t-117.5 -164.5
t-127 -162t-132 -144.5t-146 -133t-155 -107.5t-172.5 -87q-11 -8 -144 -94zM1262 1507l-7 13l322 188h18l33 -197h-16l-62 136zM193 70q81 40 160 95.5t144.5 113t136.5 136t124.5 145t120 160.5t112.5 162t112 169q39 59 58 88q122 196 301 247h-409q-60 0 -109 -16
t-90 -64t-65.5 -78t-57.5 -116.5t-43.5 -118.5t-43.5 -141q-19 -60 -28 -90q-84 -265 -178.5 -418.5t-244.5 -273.5zM713 59q117 51 226.5 131t201 175.5t175.5 201t164 219t151.5 216t153 206.5t154.5 178h-366q-57 0 -104.5 -19t-84 -57t-65 -83t-54 -109.5t-45 -123.5
t-42.5 -136q-19 -64 -29 -96q-85 -271 -182.5 -426t-253.5 -277z" />
    <glyph glyph-name="wcircumflex" unicode="&#x175;" horiz-adv-x="946" 
d="M111 -14q-41 0 -63.5 36.5t-22.5 108.5q0 134 110 303l47 72q16 24 35 52t27.5 40.5t17 26.5t11.5 22t3 15q0 16 -22 16h-117q4 11 13 18h440q82 0 82 -90q0 -76 -68 -184l-74 -119q-86 -138 -102 -177q-16 -38 -16 -67q0 -57 45 -57q62 0 152.5 81t166.5 189
q105 149 105 275q0 55 -23 93t-78 38h-4l10 18h293q0 -10 -10 -18h-131q4 -24 4 -47q0 -156 -147 -365q-86 -122 -180.5 -201t-161.5 -79q-76 0 -76 141q0 45 8 102h-12q-167 -243 -262 -243zM111 2q59 0 142 96.5t191 270.5l76 120q4 6 11 17q51 79 69 110t18 46
q0 16 -24 16h-299q31 -17 31 -76q0 -93 -90 -219l-60 -84q-63 -88 -88 -140t-25 -96q0 -61 48 -61zM522 920l-12 10l328 338h30l-39 -348h-18l-14 235z" />
    <glyph glyph-name="Ycircumflex" unicode="&#x176;" horiz-adv-x="1597" 
d="M797 12q-70 0 -113 60t-43 186q0 39 6 77t24.5 102.5t63.5 155.5t113 202h-80q-97 0 -172.5 16.5t-121 42.5t-75 62t-40.5 71.5t-11 75.5q0 96 70.5 195.5t179 174.5t246 123t264.5 48q88 0 133 -36t45 -138q0 -182 -180 -478l-100 -166q-64 -106 -90 -149.5t-72.5 -124
t-65.5 -119t-43 -92t-32.5 -89.5t-8.5 -67q0 -53 27 -83.5t78 -30.5q98 0 211.5 125.5t273.5 390.5l479 766l164 73h-330l13 21h555l-13 -21h-178l-360 -579q-98 -157 -279.5 -495.5t-204.5 -379.5q128 37 226 121.5t217 249.5l47 66q13 10 20 0l-47 -66
q-127 -176 -231.5 -265t-241.5 -126l-53 -90q-159 -260 -351.5 -398.5t-398.5 -138.5q-84 0 -149 23t-103.5 62.5t-58.5 88t-20 103.5q0 71 34 138t95.5 120.5t157 86t208.5 32.5q44 0 227 -10.5t259 -10.5q72 118 191.5 334t150.5 270l-13 2q-156 -256 -276 -384t-223 -128
zM1407 1507l-6 13l321 188h19l33 -197h-17l-61 136zM6 -436q0 -100 68.5 -172t204.5 -72q81 0 159 30.5t139.5 76.5t126.5 119.5t112 139.5t104 156l36 58q-73 1 -250.5 10.5t-224.5 9.5q-111 0 -203 -30.5t-150.5 -81.5t-90 -114t-31.5 -130zM369 1061q0 -35 9 -66.5
t36 -65.5t70.5 -58t118.5 -40t173 -16h84l209 336q53 86 70.5 115t47 83t39.5 86t11 62q1 49 -28 67.5t-101 18.5q-171 0 -343.5 -76.5t-284 -199t-111.5 -246.5z" />
    <glyph glyph-name="ycircumflex" unicode="&#x177;" horiz-adv-x="782" 
d="M-317 -713q-101 0 -101 99q0 48 25 103.5t77 118.5t142 132t209 133l196 107l162 264h-8q-74 -107 -153 -175.5t-140 -68.5q-43 0 -68.5 36.5t-25.5 106.5q0 76 36 159t120 206l106 158l-6 12h-88q-4 11 10 18h230l4 -22l-177 -258q-118 -174 -155 -238t-37 -106
q0 -54 55 -54q40 0 85.5 29t93.5 84t92.5 117.5t95.5 144.5l170 273l-6 12h-78q0 10 10 18h223l4 -22l-231 -365l-180 -291q58 28 87.5 42.5t74 39.5t71.5 47t62.5 55t67.5 73.5t67 93.5q13 10 20 0q-41 -66 -84 -116.5t-78.5 -83t-92 -66.5t-93.5 -52.5t-115 -54.5l-49 -78
q-36 -59 -65.5 -105t-77.5 -115t-89.5 -121t-95 -109.5t-101 -94.5t-100.5 -61.5t-101 -24.5zM416 920l-13 10l328 338h31l-39 -348h-18l-15 235zM-395 -610q-2 -38 14 -61t51 -23q86 0 211 152t336 497l-174 -94q-116 -62 -203.5 -130.5t-136.5 -130.5t-72.5 -114
t-25.5 -96z" />
    <glyph glyph-name="Ydieresis" unicode="&#x178;" horiz-adv-x="1597" 
d="M797 12q-70 0 -113 60t-43 186q0 39 6 77t24.5 102.5t63.5 155.5t113 202h-80q-97 0 -172.5 16.5t-121 42.5t-75 62t-40.5 71.5t-11 75.5q0 96 70.5 195.5t179 174.5t246 123t264.5 48q88 0 133 -36t45 -138q0 -182 -180 -478l-100 -166q-64 -106 -90 -149.5t-72.5 -124
t-65.5 -119t-43 -92t-32.5 -89.5t-8.5 -67q0 -53 27 -83.5t78 -30.5q98 0 211.5 125.5t273.5 390.5l479 766l164 73h-330l13 21h555l-13 -21h-178l-360 -579q-98 -157 -279.5 -495.5t-204.5 -379.5q128 37 226 121.5t217 249.5l47 66q13 10 20 0l-47 -66
q-127 -176 -231.5 -265t-241.5 -126l-53 -90q-159 -260 -351.5 -398.5t-398.5 -138.5q-84 0 -149 23t-103.5 62.5t-58.5 88t-20 103.5q0 71 34 138t95.5 120.5t157 86t208.5 32.5q44 0 227 -10.5t259 -10.5q72 118 191.5 334t150.5 270l-13 2q-156 -256 -276 -384t-223 -128
zM1688 1567l63 102h92l-61 -102h-94zM1518 1567l63 102h90l-61 -102h-92zM6 -436q0 -100 68.5 -172t204.5 -72q81 0 159 30.5t139.5 76.5t126.5 119.5t112 139.5t104 156l36 58q-73 1 -250.5 10.5t-224.5 9.5q-111 0 -203 -30.5t-150.5 -81.5t-90 -114t-31.5 -130zM369 1061
q0 -35 9 -66.5t36 -65.5t70.5 -58t118.5 -40t173 -16h84l209 336q53 86 70.5 115t47 83t39.5 86t11 62q1 49 -28 67.5t-101 18.5q-171 0 -343.5 -76.5t-284 -199t-111.5 -246.5z" />
    <glyph glyph-name="Zacute" unicode="&#x179;" horiz-adv-x="1101" 
d="M-268 -715q-124 0 -195.5 61t-71.5 158q0 48 17 89t55.5 74t75.5 58.5t104 48.5t111.5 37.5t128 31t123.5 24t125 21.5q64 11 94 16q129 21 258 55q187 321 197 565q3 80 -20.5 122t-88.5 42q-95 0 -149 -80l-64 -96l-53 39q35 37 113 96l698 645h-684l63 115h734l38 45
l33 -14l-811 -754h2q65 27 111 27q101 0 152.5 -81.5t48.5 -215.5q-6 -184 -105 -377q117 55 197.5 133t154.5 199q14 7 21 0q-79 -132 -168 -216.5t-217 -142.5l-41 -71q-60 -99 -137.5 -192t-176 -177.5t-204 -147.5t-227.5 -100t-242 -37zM965 1513l-4 13l366 172l10 -62
zM-514 -498q0 -86 63.5 -141t182.5 -55q94 0 191.5 37.5t182 98.5t166.5 144t147 169t122 179q-135 -34 -248 -53q-28 -5 -87 -15q-91 -15 -140 -23.5t-137 -28t-139 -36.5t-116.5 -46t-101 -60.5t-61 -75t-25.5 -94.5z" />
    <glyph glyph-name="zacute" unicode="&#x17a;" horiz-adv-x="579" 
d="M-354 -705q-88 5 -88 93q0 240 647 589q26 80 26 134q0 98 -69 98q-53 0 -101 -59l-41 -52l-32 31l555 475h-377l59 92h424l13 15l10 -17l-555 -477l4 -2q42 29 92 29q129 0 129 -152q0 -90 -47.5 -203t-125 -217t-168 -191.5t-186 -138.5t-169.5 -47zM467 918l-10 10
l346 391l47 -51zM-424 -610q0 -36 16.5 -57t47.5 -21q72 0 186 103t217.5 253.5t153.5 284.5q-621 -336 -621 -563z" />
    <glyph glyph-name="Zdotaccent" unicode="&#x17b;" horiz-adv-x="1101" 
d="M-268 -715q-124 0 -195.5 61t-71.5 158q0 48 17 89t55.5 74t75.5 58.5t104 48.5t111.5 37.5t128 31t123.5 24t125 21.5q64 11 94 16q129 21 258 55q187 321 197 565q3 80 -20.5 122t-88.5 42q-95 0 -149 -80l-64 -96l-53 39q35 37 113 96l698 645h-684l63 115h734l38 45
l33 -14l-811 -754h2q65 27 111 27q101 0 152.5 -81.5t48.5 -215.5q-6 -184 -105 -377q117 55 197.5 133t154.5 199q14 7 21 0q-79 -132 -168 -216.5t-217 -142.5l-41 -71q-60 -99 -137.5 -192t-176 -177.5t-204 -147.5t-227.5 -100t-242 -37zM973 1552l88 125h113l-89 -125
h-112zM-514 -498q0 -86 63.5 -141t182.5 -55q94 0 191.5 37.5t182 98.5t166.5 144t147 169t122 179q-135 -34 -248 -53q-28 -5 -87 -15q-91 -15 -140 -23.5t-137 -28t-139 -36.5t-116.5 -46t-101 -60.5t-61 -75t-25.5 -94.5z" />
    <glyph glyph-name="zdotaccent" unicode="&#x17c;" horiz-adv-x="579" 
d="M-354 -705q-88 5 -88 93q0 240 647 589q26 80 26 134q0 98 -69 98q-53 0 -101 -59l-41 -52l-32 31l555 475h-377l59 92h424l13 15l10 -17l-555 -477l4 -2q42 29 92 29q129 0 129 -152q0 -90 -47.5 -203t-125 -217t-168 -191.5t-186 -138.5t-169.5 -47zM561 1049l101 149
h122l-100 -149h-123zM-424 -610q0 -36 16.5 -57t47.5 -21q72 0 186 103t217.5 253.5t153.5 284.5q-621 -336 -621 -563z" />
    </font>
</defs>
</svg>
